<svg id="Capa_1" xmlns="http://www.w3.org/2000/svg" viewBox="0 0 52 52"><style>.st0{fill:#999a9c}</style><path class="st0" d="M26 0C11.7 0 0 11.7 0 26s11.7 26 26 26 26-11.7 26-26S40.3 0 26 0zm0 50C12.8 50 2 39.2 2 26S12.8 2 26 2s24 10.8 24 24-10.8 24-24 24z"/><path class="st0" d="M26 37c-.6 0-1 .4-1 1v2c0 .6.4 1 1 1s1-.4 1-1v-2c0-.6-.4-1-1-1zm.1-28H26c-2.1 0-4.1.8-5.6 2.3-1.6 1.5-2.4 3.5-2.4 5.7 0 .6.4 1 1 1s1-.4 1-1c0-1.6.6-3.1 1.8-4.3 1.2-1.1 2.7-1.8 4.3-1.7 3.2 0 5.9 2.8 5.9 5.9 0 2.1-1 4-2.8 5.1-2.7 1.7-4.2 4.7-4.2 8.1V33c0 .6.4 1 1 1s1-.4 1-1v-2.8c0-2.6 1.3-5.1 3.3-6.4 2.3-1.5 3.7-4.1 3.7-6.8-.1-4.4-3.6-7.9-7.9-8z"/></svg>