<?xml version="1.0" standalone="no"?>
<!DOCTYPE svg PUBLIC "-//W3C//DTD SVG 1.1//EN" "http://www.w3.org/Graphics/SVG/1.1/DTD/svg11.dtd" >
<svg>
<metadata>
Created by FontForge 20120731 at Mon Oct 30 11:08:00 2017
 By www-data
(c) 2011 by Sergiy S. Tkachenko / 4th february (info@4thfebruary.com.ua).
All rights reserved. This font software is the property of Sergiy S. Tkachenko (Kremenchuk, Ukraine). You may not reproduce, modify, adapt, translate, alter nor create derivative works of the font software. You may not reverse engineer, decompile, decrypt, disassemble, nor seek to discover the source code of the font software.
</metadata>
<defs>
<font id="Neultica4FBlack-Italic" horiz-adv-x="344" >
  <font-face 
    font-family="Neultica4FBlack-Italic"
    font-weight="400"
    font-style="italic"
    font-stretch="normal"
    units-per-em="1000"
    panose-1="0 0 0 0 0 0 0 0 0 0"
    ascent="836"
    descent="-164"
    x-height="600"
    cap-height="600"
    bbox="-22 -250 2092 825"
    underline-thickness="50"
    underline-position="-50"
    unicode-range="U+0020-FB04"
  />
<missing-glyph horiz-adv-x="819" 
d="M407 0v95h-377v145l137 360h370l-289 -335h159v85l100 100h188v-185h94v-170h-94v-95h-288zM571 352v14q0 6 5 6t5 -6v-14h-10zM539 352v14q0 6 6 6q5 0 5 -6v-14h-11zM550 208q-12 0 -12 13q0 11 12 13v-26zM608 91h-34v42h-28v-42h-7v52h-27v-102l16 4h80v46zM564 280
h-4q-50 0 -50 -59q0 -32 13 -46t37 -14q25 0 37.5 14t12.5 46q0 52 -39 58v-45q11 -2 11 -13q0 -8 -5 -10.5t-13 -3.5v73zM608 366q0 52 -30 52q-14 0 -18 -16q-3 5 -7.5 8.5t-10.5 3.5q-30 0 -30 -48v-65l16 4h80v61z" />
    <glyph glyph-name=".notdef" horiz-adv-x="819" 
d="M407 0v95h-377v145l137 360h370l-289 -335h159v85l100 100h188v-185h94v-170h-94v-95h-288zM571 352v14q0 6 5 6t5 -6v-14h-10zM539 352v14q0 6 6 6q5 0 5 -6v-14h-11zM550 208q-12 0 -12 13q0 11 12 13v-26zM608 91h-34v42h-28v-42h-7v52h-27v-102l16 4h80v46zM564 280
h-4q-50 0 -50 -59q0 -32 13 -46t37 -14q25 0 37.5 14t12.5 46q0 52 -39 58v-45q11 -2 11 -13q0 -8 -5 -10.5t-13 -3.5v73zM608 366q0 52 -30 52q-14 0 -18 -16q-3 5 -7.5 8.5t-10.5 3.5q-30 0 -30 -48v-65l16 4h80v61z" />
    <glyph glyph-name=".null" horiz-adv-x="0" 
 />
    <glyph glyph-name="nonmarkingreturn" horiz-adv-x="408" 
 />
    <glyph glyph-name="space" unicode=" " horiz-adv-x="408" 
 />
    <glyph glyph-name="space" unicode="&#xa0;" horiz-adv-x="408" 
 />
    <glyph glyph-name="exclam" unicode="!" horiz-adv-x="368" 
d="M135 245l23 355h308l-130 -355h-201zM84 0l43 200h200l-43 -200h-200z" />
    <glyph glyph-name="quotedbl" unicode="&#x22;" horiz-adv-x="454" 
d="M158 384l20 217h154l-73 -217h-101zM358 384l20 217h154l-73 -217h-101z" />
    <glyph glyph-name="numbersign" unicode="#" horiz-adv-x="551" 
d="M259 0l86 180h-128l-95 -198l-63 18l86 180h-77l15 70h95l48 100h-82l15 70h101l95 198l64 -18l-87 -180h128l95 198l64 -18l-87 -180h78l-15 -70h-97l-48 -100h84l-15 -70h-102l-95 -198zM426 350h-128l-48 -100h128z" />
    <glyph glyph-name="dollar" unicode="$" horiz-adv-x="779" 
d="M397 -100l19 90h-25q-12 0 -22.5 0.5t-21.5 0.5l-20 -91h-70l21 98q-110 16 -153 74.5t-35 162.5h286q-5 -38 12 -56.5t44 -18.5q26 0 45 14t19 33q0 24 -27 33t-67.5 12.5t-87.5 6t-87.5 13.5t-67.5 35.5t-27 71.5q0 88 68.5 146.5t206.5 78.5l20 96h70l-19 -90
q10 0 20.5 0.5t21.5 0.5h14t14 -1l19 90h70l-20 -95q111 -15 154 -72.5t35 -166.5h-286q6 41 -5 58t-34 17t-42 -14t-19 -33q0 -24 27 -33t67.5 -12.5t87.5 -6t87.5 -13.5t67.5 -35.5t27 -71.5q0 -91 -73 -151t-223 -76l-21 -95h-70z" />
    <glyph glyph-name="percent" unicode="%" horiz-adv-x="836" 
d="M483 492q0 -87 -51 -139.5t-163 -52.5q-76 0 -112 30.5t-36 87.5q0 43 12.5 78.5t38.5 60.5t66.5 39t96.5 14q76 0 112 -30.5t36 -87.5zM287 385q23 0 38.5 23t15.5 83q0 15 -5 24.5t-19 9.5q-23 0 -38.5 -23.5t-15.5 -83.5q0 -15 5 -24t19 -9zM841 182
q0 -87 -51.5 -139.5t-162.5 -52.5q-76 0 -112 30.5t-36 87.5q0 43 12.5 78.5t38.5 60.5t66.5 39t96.5 14q76 0 112 -30.5t36 -87.5zM645 75q23 0 38.5 23t15.5 83q0 15 -5 24.5t-19 9.5q-23 0 -38.5 -23.5t-15.5 -83.5q0 -15 5 -24t19 -9zM193 30l529 580l49 -40l-530 -580z
" />
    <glyph glyph-name="ampersand" unicode="&#x26;" horiz-adv-x="985" 
d="M619 0q-4 10 -8 19.5t-9 19.5q-60 -24 -120 -36.5t-117 -12.5q-52 0 -102.5 11t-90 32t-64 51.5t-24.5 68.5q0 32 16 59t43 49.5t62.5 40.5t74.5 33q-19 22 -29.5 48t-10.5 55q0 55 31.5 89t77.5 52.5t96 24.5t88 6q109 0 167 -38t58 -101q0 -35 -12.5 -59t-33.5 -41
t-49 -28.5t-60 -20.5l58 -34q10 8 17.5 16t13.5 16h260q-52 -82 -129 -148q43 -38 77.5 -80.5t54.5 -91.5h-336zM482 176q-42 33 -84 63q-20 -23 -20 -46q0 -19 11.5 -26t26.5 -7q26 0 66 16zM475 399q32 11 50.5 19.5t18.5 18.5q0 8 -12 18t-33 10q-23 0 -37.5 -11
t-14.5 -21q0 -14 28 -34z" />
    <glyph glyph-name="quotesingle" unicode="'" horiz-adv-x="254" 
d="M158 384l20 217h154l-73 -217h-101z" />
    <glyph glyph-name="parenleft" unicode="(" horiz-adv-x="442" 
d="M335 -98q-24 -32 -52.5 -39.5t-57.5 4t-56.5 40t-48.5 68t-33.5 88t-12.5 99.5q0 124 28 233t88.5 190t155 128t228.5 47l-36 -170q-33 0 -66.5 -22.5t-60 -76t-43.5 -141t-17 -217.5q0 -55 14.5 -89t49.5 -34z" />
    <glyph glyph-name="parenright" unicode=")" horiz-adv-x="442" 
d="M32 10q33 0 66.5 22.5t60 76t43.5 141t17 217.5q0 55 -14.5 89t-49.5 34l37 170q155 0 229.5 -84t74.5 -238q0 -124 -28 -233t-88.5 -190t-155.5 -128t-228 -47z" />
    <glyph glyph-name="asterisk" unicode="*" horiz-adv-x="520" 
d="M412 316l-53 147l-117 -147l-52 35l115 147h-169l15 70h169l-53 147l68 35l53 -148l117 148l52 -35l-116 -147h170l-15 -70h-170l54 -147z" />
    <glyph glyph-name="plus" unicode="+" horiz-adv-x="580" 
d="M295 70v195h-195v70h195v195h70v-195h195v-70h-195v-195h-70z" />
    <glyph glyph-name="comma" unicode="," horiz-adv-x="320" 
d="M36 -80q45 0 71 22.5t33 57.5h-80l43 200h200l-32 -150q-25 -117 -92 -173.5t-164 -56.5z" />
    <glyph glyph-name="hyphen" unicode="-" horiz-adv-x="484" 
d="M100 215v170h364v-170h-364z" />
    <glyph glyph-name="period" unicode="." horiz-adv-x="320" 
d="M60 0l43 200h200l-43 -200h-200z" />
    <glyph glyph-name="slash" unicode="/" horiz-adv-x="402" 
d="M-10 -48l492 725l58 -29l-492 -725z" />
    <glyph glyph-name="zero" unicode="0" horiz-adv-x="764" 
d="M808 374q0 -87 -25 -157.5t-77.5 -121t-133.5 -78t-193 -27.5q-152 0 -224 60.5t-72 175.5q0 87 25 157.5t77.5 121t133 78t192.5 27.5q152 0 224.5 -60.5t72.5 -175.5zM416 160q23 0 42.5 11t34 35.5t22.5 65.5t8 101q0 30 -10.5 48.5t-37.5 18.5q-23 0 -42.5 -11
t-34 -35.5t-22.5 -65.5t-8 -101q0 -30 10.5 -48.5t37.5 -18.5z" />
    <glyph glyph-name="one" unicode="1" horiz-adv-x="468" 
d="M90 0l83 390h-70l25 120l73 10q32 4 56 9.5t40.5 14t26 22t14.5 34.5h168l-128 -600h-288z" />
    <glyph glyph-name="two" unicode="2" horiz-adv-x="799" 
d="M51 0l4 24q14 83 42.5 137t65 87t78.5 48.5t83.5 22.5t80.5 9.5t68.5 9t47 20.5t17.5 45q0 20 -12.5 29t-29.5 9q-25 0 -43 -18t-29 -57h-286q23 65 55 111.5t78.5 76t109.5 43.5t149 14q149 0 223 -48.5t74 -135.5q0 -68 -24 -107t-61.5 -59.5t-85 -26.5t-95 -8.5
t-89.5 -6t-70 -18.5q-10 -5 -17.5 -12.5t-9.5 -18.5h399l-36 -170h-687z" />
    <glyph glyph-name="three" unicode="3" horiz-adv-x="759" 
d="M682 303q47 -17 68.5 -39t21.5 -56q0 -44 -25 -83.5t-73.5 -69.5t-121.5 -47.5t-169 -17.5q-162 0 -236.5 58.5t-66.5 186.5h286q-5 -41 12.5 -58t46.5 -17q26 0 47.5 11t21.5 32q0 10 -5.5 19t-19.5 9h-60l30 139h50q20 0 30.5 14.5t10.5 25.5q0 16 -15.5 23.5
t-34.5 7.5q-30 0 -47.5 -18.5t-28.5 -56.5h-286q46 130 141 187.5t250 57.5q76 0 133 -13t94.5 -36t56 -54.5t18.5 -67.5q0 -28 -8 -48t-24 -35t-40.5 -27t-56.5 -23v-4z" />
    <glyph glyph-name="four" unicode="4" horiz-adv-x="819" 
d="M715 95l-20 -95h-288l20 95h-377l31 145l213 360h370l-360 -335h159l18 85l121 100h188l-39 -185h94l-36 -170h-94z" />
    <glyph glyph-name="five" unicode="5" horiz-adv-x="799" 
d="M461 430l-20 -53q22 9 47.5 12.5t54.5 3.5q58 0 104.5 -11t79.5 -31.5t51 -51t18 -69.5q0 -50 -24.5 -93.5t-74 -76t-124.5 -51.5t-177 -19q-86 0 -144.5 15t-94 45.5t-49 76.5t-8.5 108h286q-5 -35 7.5 -55t43.5 -20q14 0 28.5 4.5t26 16t18.5 30t7 47.5q0 17 -9.5 31
t-37.5 14q-22 0 -41 -6.5t-23 -16.5h-278l106 320h623l-36 -170h-360z" />
    <glyph glyph-name="six" unicode="6" horiz-adv-x="793" 
d="M521 366q5 41 -5.5 58t-32.5 17q-15 0 -34 -8.5t-28 -31.5q-5 -11 -13.5 -35t-10.5 -45q23 10 55.5 13.5t74.5 3.5q125 0 196.5 -30.5t71.5 -100.5q0 -45 -23.5 -84.5t-71.5 -69t-120 -46.5t-168 -17q-165 0 -242 60t-77 176q0 87 24.5 158t78 121t138.5 77.5t206 27.5
q79 0 132.5 -13.5t85 -43t43 -76t6.5 -111.5h-286zM513 221q0 4 -2 9.5t-7.5 10.5t-16 8.5t-27.5 3.5q-32 0 -50 -10.5t-24 -27.5q-3 -9 -3 -20t5.5 -21t18 -17t33.5 -7q31 0 52 16.5t21 54.5z" />
    <glyph glyph-name="seven" unicode="7" horiz-adv-x="760" 
d="M160 0l315 426l1 4h-330l36 170h655l-36 -170l-316 -430h-325z" />
    <glyph glyph-name="eight" unicode="8" horiz-adv-x="780" 
d="M692 303q48 -17 69 -39t21 -56q0 -44 -25 -83.5t-74.5 -69.5t-123.5 -47.5t-171 -17.5q-80 0 -138.5 13t-97 36t-57.5 54t-19 67q0 27 6.5 48t22.5 38t43 30.5t68 26.5l1 4q-45 19 -63.5 39.5t-18.5 47.5q0 43 25 82.5t74 69.5t121 47.5t165 17.5q76 0 132.5 -13t94 -36
t56 -54.5t18.5 -67.5q0 -28 -8 -48t-24 -35t-40 -27t-56 -23zM504 197q4 18 -16.5 27.5t-48.5 9.5q-30 0 -55 -10.5t-25 -30.5q0 -16 18.5 -24.5t44.5 -8.5q28 0 53 9.5t29 27.5zM540 405q2 9 -2.5 16t-12.5 11.5t-19 6.5t-22 2q-27 0 -50 -10.5t-23 -29.5q0 -17 18.5 -24.5
t38.5 -7.5q23 0 45.5 9t26.5 27z" />
    <glyph glyph-name="nine" unicode="9" horiz-adv-x="789" 
d="M381 234q-2 -22 1.5 -36.5t11 -23t17.5 -12t21 -3.5q17 0 35.5 8.5t27.5 31.5q5 11 13.5 35t10.5 45q-23 -10 -55 -13.5t-74 -3.5q-124 0 -191 30.5t-67 103.5q0 104 93 159t273 55q169 0 247.5 -59t78.5 -176q0 -89 -25 -160t-79 -121t-140 -77t-208 -27
q-83 0 -138.5 14.5t-87.5 44.5t-44 76t-7 109h286zM537 415q0 11 -9.5 23t-41.5 12q-13 0 -25.5 -2.5t-22 -9t-15.5 -17.5t-6 -29q0 -6 1.5 -13.5t6.5 -14.5t14 -12t24 -5q35 0 54.5 21t19.5 47z" />
    <glyph glyph-name="colon" unicode=":" horiz-adv-x="320" 
d="M60 0l43 200h200l-43 -200h-200zM124 300l43 200h200l-43 -200h-200z" />
    <glyph glyph-name="semicolon" unicode=";" horiz-adv-x="320" 
d="M124 300l43 200h200l-43 -200h-200zM36 -80q45 0 71 22.5t33 57.5h-80l43 200h200l-32 -150q-25 -117 -92 -173.5t-164 -56.5z" />
    <glyph glyph-name="less" unicode="&#x3c;" horiz-adv-x="424" 
d="M325 45l-201 255l309 255l39 -50l-249 -205l161 -205z" />
    <glyph glyph-name="equal" unicode="=" horiz-adv-x="601" 
d="M100 180v70h481v-70h-481zM100 350v70h481v-70h-481z" />
    <glyph glyph-name="greater" unicode="&#x3e;" horiz-adv-x="424" 
d="M118 45l-38 50l249 205l-162 205l60 50l201 -255z" />
    <glyph glyph-name="question" unicode="?" horiz-adv-x="799" 
d="M344 220q10 48 28.5 71.5t40 34t44 12.5t40.5 6.5t29.5 16.5t11.5 42q0 20 -13 29t-29 9q-25 0 -43 -18t-29 -57h-286q22 65 55 111.5t79.5 76t108 43.5t142.5 14q155 0 229.5 -48.5t74.5 -134.5q0 -65 -19.5 -98.5t-48.5 -48t-64 -16.5t-66.5 -3.5t-54.5 -9t-28 -32.5
h-202zM299 0l37 175h200l-37 -175h-200z" />
    <glyph glyph-name="at" unicode="@" horiz-adv-x="850" 
d="M749 39q-48 -25 -117.5 -37t-159.5 -12q-186 0 -271 57.5t-85 175.5q0 88 26 159.5t80 122t138 78t201 27.5q84 0 144.5 -16.5t100 -47.5t58.5 -74t19 -97q0 -66 -13.5 -110.5t-42 -71t-73 -37.5t-106.5 -11q-41 0 -62.5 4.5t-32 12t-14 17t-8.5 20.5h-2
q-23 -35 -51.5 -44.5t-63.5 -9.5t-58.5 5.5t-37.5 15t-19.5 22t-5.5 26.5q0 40 19 61t47 30t61 10.5t61 3.5t47 7.5t19 23.5q0 10 -9 15t-22 5q-19 0 -31.5 -10.5t-18.5 -27.5h-144q23 64 71 93.5t136 29.5q95 0 133.5 -29.5t28.5 -77.5l-20 -93q-6 -25 9 -25q26 0 47 5.5
t36 19t23.5 37.5t8.5 62t-15 69.5t-45.5 54t-78.5 35t-114 12.5q-90 0 -154 -20t-105.5 -57.5t-60.5 -90t-19 -118.5q0 -45 16.5 -76t52 -50.5t90 -28.5t130.5 -9q85 0 141.5 9t88.5 26zM530 268q-18 -1 -33.5 -1.5t-27.5 -3t-19 -6.5t-7 -12q0 -9 10.5 -12t20.5 -3
q42 0 56 38z" />
    <glyph glyph-name="A" unicode="A" horiz-adv-x="812" 
d="M502 0l-10 100h-130l-52 -100h-300l314 499l-8 101h362l124 -600h-300zM502 445h-2l-69 -175h64z" />
    <glyph glyph-name="B" unicode="B" horiz-adv-x="812" 
d="M60 0l106 500l-8 100h410q133 0 199 -39t66 -114q0 -51 -23.5 -86.5t-83.5 -57.5q81 -25 81 -94q0 -98 -91 -153.5t-276 -55.5h-380zM398 235l-14 -65h92q17 0 30.5 9t13.5 29q0 14 -8.5 20.5t-21.5 6.5h-92zM439 430l-13 -65h92q16 0 29.5 10t13.5 29q0 14 -8.5 20
t-21.5 6h-92z" />
    <glyph glyph-name="C" unicode="C" horiz-adv-x="792" 
d="M555 365q3 35 -10 55t-55 20q-30 0 -53 -10.5t-39.5 -35t-25 -64t-8.5 -96.5q0 -34 14 -54t52 -20q42 0 63.5 19.5t33.5 55.5h286q-22 -60 -55.5 -106t-83.5 -76.5t-119 -46.5t-161 -16q-163 0 -239.5 61.5t-76.5 177.5q0 87 26 157t81 120t139.5 77t201.5 27
q92 0 154.5 -16t99 -47t51 -76.5t10.5 -105.5h-286z" />
    <glyph glyph-name="D" unicode="D" horiz-adv-x="798" 
d="M432 170q33 0 56 16.5t37 42t20 56.5t6 61q0 39 -15.5 61.5t-48.5 22.5h-48l-55 -260h48zM60 0l106 500l-8 100h366q68 0 125.5 -16t99.5 -47.5t66 -77.5t24 -106q0 -84 -36.5 -150t-98 -111t-141.5 -68.5t-167 -23.5h-336z" />
    <glyph glyph-name="E" unicode="E" horiz-adv-x="702" 
d="M60 0l106 500l-8 100h642l-37 -170h-324l-9 -45h264l-36 -170h-264l-10 -45h324l-36 -170h-612z" />
    <glyph glyph-name="F" unicode="F" horiz-adv-x="702" 
d="M394 215l-46 -215h-288l106 500l-8 100h642l-37 -170h-324l-9 -45h264l-36 -170h-264z" />
    <glyph glyph-name="G" unicode="G" horiz-adv-x="824" 
d="M606 0l-7 76q-41 -47 -96.5 -66.5t-132.5 -19.5q-140 0 -215 62.5t-75 181.5q0 84 26.5 153.5t81 119t139 76.5t201.5 27q169 0 245 -63t69 -182h-286q3 35 -10 55t-56 20q-29 0 -52.5 -10.5t-39.5 -35t-24.5 -64t-8.5 -96.5q0 -34 14.5 -54t52.5 -20q40 0 62 16t33 44
h-81l-9 100h395l-68 -320h-158z" />
    <glyph glyph-name="H" unicode="H" horiz-adv-x="820" 
d="M472 0l46 215h-124l-46 -215h-288l106 500l-8 100h318l-46 -215h124l46 215h288l-128 -600h-288z" />
    <glyph glyph-name="I" unicode="I" horiz-adv-x="408" 
d="M60 0l106 500l-8 100h318l-128 -600h-288z" />
    <glyph glyph-name="J" unicode="J" horiz-adv-x="794" 
d="M798 300q-32 -151 -134.5 -230.5t-283.5 -79.5t-249.5 79.5t-36.5 230.5h288q-7 -33 -11 -59t-2 -44t13 -27.5t34 -9.5t38 9.5t25 27.5t17 44t14 59l42 200l-9 100h319z" />
    <glyph glyph-name="K" unicode="K" horiz-adv-x="822" 
d="M60 0l106 500l-8 100h318l-128 -600h-288zM492 0l-56 300l160 300h300l-160 -301l56 -299h-300z" />
    <glyph glyph-name="L" unicode="L" horiz-adv-x="662" 
d="M60 0l106 500l-8 100h318l-92 -430h304l-36 -170h-592z" />
    <glyph glyph-name="M" unicode="M" horiz-adv-x="1040" 
d="M692 0l13 60q14 63 29.5 119.5t37.5 119.5l10 31h-4l-190 -330h-136l-50 330h-4l-2 -31q-5 -63 -13 -119.5t-22 -119.5l-13 -60h-288l106 500l-8 100h378l46 -300h4l174 300l348 1l-128 -601h-288z" />
    <glyph glyph-name="N" unicode="N" horiz-adv-x="860" 
d="M452 0l-46 300h-4l-16 -120l-38 -180h-288l106 500l-8 100h378l46 -300h4l15 120l39 180h288l-128 -600h-348z" />
    <glyph glyph-name="O" unicode="O" horiz-adv-x="804" 
d="M848 371q0 -87 -26 -157t-81 -120t-139.5 -77t-201.5 -27q-163 0 -239.5 61.5t-76.5 177.5q0 87 26 157t81 120t139.5 77t201.5 27q162 0 239 -61.5t77 -177.5zM436 160q30 0 53 10.5t39.5 35t25 64t8.5 96.5q0 34 -14 54t-52 20q-30 0 -53 -10.5t-39.5 -35t-25 -64
t-8.5 -96.5q0 -34 14 -54t52 -20z" />
    <glyph glyph-name="P" unicode="P" horiz-adv-x="772" 
d="M60 0l106 500l-8 100h318q105 0 173.5 -15t109 -40.5t57 -60.5t16.5 -75q0 -68 -25 -121.5t-79.5 -91t-142 -57t-211.5 -19.5l-26 -120h-288zM410 290q33 0 57.5 3t40.5 12.5t24 28t8 48.5t-22.5 39t-78.5 9z" />
    <glyph glyph-name="Q" unicode="Q" horiz-adv-x="804" 
d="M393 -120l-23 111q-147 5 -216.5 66.5t-69.5 171.5q0 87 26 157t81 120t139.5 77t201.5 27q162 0 239 -61.5t77 -177.5q0 -70 -17 -128t-51.5 -99.5t-88.5 -64.5t-127 -23l-1 -6h150l34 -170h-354zM436 160q30 0 53 10.5t39.5 35t25 64t8.5 96.5q0 34 -14 54t-52 20
q-30 0 -53 -10.5t-39.5 -35t-25 -64t-8.5 -96.5q0 -34 14 -54t52 -20z" />
    <glyph glyph-name="R" unicode="R" horiz-adv-x="797" 
d="M467 0l-30 160h-55l-34 -160h-288l106 500l-8 100h318q108 0 179.5 -11.5t114 -33t60 -53t17.5 -71.5q0 -45 -9.5 -78t-26 -58.5t-38.5 -43.5t-48 -33l42 -218h-300zM418 330q36 0 62 2t42 8.5t23.5 18.5t7.5 33q0 23 -25 30.5t-89 7.5z" />
    <glyph glyph-name="S" unicode="S" horiz-adv-x="779" 
d="M521 366q5 41 -5.5 58t-33.5 17q-24 0 -43 -14t-19 -33q0 -24 27 -33t67.5 -12.5t87.5 -6t87.5 -13.5t67.5 -35.5t27 -71.5q0 -53 -24 -96t-72.5 -73t-122.5 -46.5t-173 -16.5q-88 0 -147.5 14.5t-95.5 44.5t-49.5 76t-9.5 110h286q-5 -38 12 -56.5t44 -18.5
q26 0 45.5 14t19.5 33q0 24 -27 33t-67.5 12.5t-87.5 6t-87.5 13.5t-67.5 35.5t-27 71.5q0 53 24.5 96t73 73t121.5 46.5t169 16.5q84 0 141 -14t90.5 -43.5t46.5 -76t8 -111.5h-286z" />
    <glyph glyph-name="T" unicode="T" horiz-adv-x="732" 
d="M240 0l85 400h-180l-17 200h708l-43 -200h-180l-85 -400h-288z" />
    <glyph glyph-name="U" unicode="U" horiz-adv-x="824" 
d="M828 300q-32 -151 -134.5 -230.5t-283.5 -79.5t-249.5 79.5t-36.5 230.5l42 200l-9 100h318l-63 -300q-7 -33 -11 -59t-2 -44t13 -27.5t34 -9.5t38 9.5t25 27.5t17 44t14 59l64 300h287z" />
    <glyph glyph-name="V" unicode="V" horiz-adv-x="812" 
d="M262 0l-124 600h300l9 -300l-8 -145l54 145l137 300h300l-380 -600h-288z" />
    <glyph glyph-name="W" unicode="W" horiz-adv-x="1194" 
d="M664 0l-2 304l-132 -304h-288l-104 600h300l-1 -300l-13 -145l49 145l107 300h290l-21 -300l-13 -145l49 145l127 300h300l-370 -600h-278z" />
    <glyph glyph-name="X" unicode="X" horiz-adv-x="800" 
d="M490 0l-42 225l-138 -225h-300l184 299l-32 301h300l22 -207l110 207h300l-160 -301l56 -299h-300z" />
    <glyph glyph-name="Y" unicode="Y" horiz-adv-x="852" 
d="M281 0l45 211l-188 389h330l23 -190l-10 -155l56 155l103 190h330l-356 -389l-45 -211h-288z" />
    <glyph glyph-name="Z" unicode="Z" horiz-adv-x="760" 
d="M50 0l36 170l310 256v4h-250l37 170h655l-37 -170l-309 -256l-1 -4h260l-36 -170h-665z" />
    <glyph glyph-name="bracketleft" unicode="[" horiz-adv-x="502" 
d="M24 -170l179 840l-9 100h442l-36 -170h-124l-128 -600h124l-36 -170h-412z" />
    <glyph glyph-name="backslash" unicode="\" horiz-adv-x="402" 
d="M322 -77l-184 725l70 29l184 -725z" />
    <glyph glyph-name="bracketright" unicode="]" horiz-adv-x="502" 
d="M-6 -170l36 170h124l128 600h-125l-15 170h464l-200 -940h-412z" />
    <glyph glyph-name="asciicircum" unicode="^" horiz-adv-x="570" 
d="M574 395l-162 205l-248 -205l-40 49l309 255l201 -255z" />
    <glyph glyph-name="underscore" unicode="_" horiz-adv-x="720" 
d="M0 -250v120h720v-120h-720z" />
    <glyph glyph-name="grave" unicode="`" horiz-adv-x="510" 
d="M450 660l-216 160h270l86 -160h-140z" />
    <glyph glyph-name="a" unicode="a" horiz-adv-x="850" 
d="M660 0q-53 0 -77 24t-29 75h-3q-23 -36 -48.5 -57.5t-54 -33t-60.5 -15t-66 -3.5q-71 0 -117.5 11.5t-74.5 30.5t-39 44t-11 52q0 61 22 99.5t57.5 60.5t81 31.5t93 13t93 4.5t81 6t57.5 18t22 41q0 16 -16 27t-49 11q-34 0 -59.5 -20t-36.5 -55h-288q23 64 57.5 110
t84.5 76t118 44.5t158 14.5q92 0 157.5 -15.5t104.5 -44t53 -67.5t4 -86l-38 -177q-10 -50 20 -50h20l-37 -170h-180zM553 236q-36 -2 -67.5 -3t-55.5 -5.5t-37.5 -13.5t-13.5 -25q0 -9 5.5 -14.5t14.5 -9t19.5 -4.5t20.5 -1q42 0 70.5 18t43.5 58z" />
    <glyph glyph-name="b" unicode="b" horiz-adv-x="812" 
d="M60 0l106 500l-8 100h410q133 0 199 -39t66 -114q0 -51 -23.5 -86.5t-83.5 -57.5q81 -25 81 -94q0 -98 -91 -153.5t-276 -55.5h-380zM398 235l-14 -65h92q17 0 30.5 9t13.5 29q0 14 -8.5 20.5t-21.5 6.5h-92zM439 430l-13 -65h92q16 0 29.5 10t13.5 29q0 14 -8.5 20
t-21.5 6h-92z" />
    <glyph glyph-name="c" unicode="c" horiz-adv-x="792" 
d="M555 365q3 35 -10 55t-55 20q-30 0 -53 -10.5t-39.5 -35t-25 -64t-8.5 -96.5q0 -34 14 -54t52 -20q42 0 63.5 19.5t33.5 55.5h286q-22 -60 -55.5 -106t-83.5 -76.5t-119 -46.5t-161 -16q-163 0 -239.5 61.5t-76.5 177.5q0 87 26 157t81 120t139.5 77t201.5 27
q92 0 154.5 -16t99 -47t51 -76.5t10.5 -105.5h-286z" />
    <glyph glyph-name="d" unicode="d" horiz-adv-x="816" 
d="M432 170q33 0 56 16.5t37 42t20 56.5t6 61q0 39 -15.5 61.5t-48.5 22.5h-48l-55 -260h48zM60 0l106 500l-8 100h366q68 0 125.5 -16t99.5 -47.5t66 -77.5t24 -106q0 -84 -36.5 -150t-98 -111t-141.5 -68.5t-167 -23.5h-336z" />
    <glyph glyph-name="e" unicode="e" horiz-adv-x="804" 
d="M377 278q-5 -28 -6 -50t5 -37t20 -23t40 -8q42 0 63.5 19.5t33.5 55.5h286q-44 -120 -147 -182.5t-272 -62.5q-163 0 -239.5 61.5t-76.5 177.5q0 87 26 157t81 120t139.5 77t201.5 27q191 0 265.5 -79.5t40.5 -230.5l-5 -22h-456zM561 366q3 35 -10 54.5t-55 19.5
q-43 0 -64.5 -19.5t-33.5 -54.5h163z" />
    <glyph glyph-name="f" unicode="f" horiz-adv-x="702" 
d="M394 215l-46 -215h-288l106 500l-8 100h642l-37 -170h-324l-9 -45h264l-36 -170h-264z" />
    <glyph glyph-name="g" unicode="g" horiz-adv-x="792" 
d="M606 0l-7 76q-41 -47 -96.5 -66.5t-132.5 -19.5q-140 0 -215 62.5t-75 181.5q0 84 26.5 153.5t81 119t139 76.5t201.5 27q169 0 245 -63t69 -182h-286q3 35 -10 55t-56 20q-29 0 -52.5 -10.5t-39.5 -35t-24.5 -64t-8.5 -96.5q0 -34 14.5 -54t52.5 -20q40 0 62 16t33 44
h-81l-9 100h395l-68 -320h-158z" />
    <glyph glyph-name="h" unicode="h" horiz-adv-x="820" 
d="M472 0l46 215h-124l-46 -215h-288l106 500l-8 100h318l-46 -215h124l46 215h288l-128 -600h-288z" />
    <glyph glyph-name="i" unicode="i" horiz-adv-x="408" 
d="M60 0l106 500l-8 100h318l-128 -600h-288z" />
    <glyph glyph-name="j" unicode="j" horiz-adv-x="794" 
d="M798 300q-32 -151 -134.5 -230.5t-283.5 -79.5t-249.5 79.5t-36.5 230.5h288q-7 -33 -11 -59t-2 -44t13 -27.5t34 -9.5t38 9.5t25 27.5t17 44t14 59l42 200l-9 100h319z" />
    <glyph glyph-name="k" unicode="k" horiz-adv-x="822" 
d="M60 0l106 500l-8 100h318l-128 -600h-288zM492 0l-56 300l160 300h300l-160 -301l56 -299h-300z" />
    <glyph glyph-name="l" unicode="l" horiz-adv-x="662" 
d="M60 0l106 500l-8 100h318l-92 -430h304l-36 -170h-592z" />
    <glyph glyph-name="m" unicode="m" horiz-adv-x="1240" 
d="M892 0l64 300q7 33 11 59t1.5 44t-13 27.5t-33.5 9.5t-38 -9.5t-25 -27.5t-17 -44t-14 -59l-64 -300h-288l64 300q7 33 11 59t1.5 44t-13 27.5t-33.5 9.5t-38 -9.5t-25 -27.5t-17 -44t-14 -59l-64 -300h-288l106 500l-8 100h218l7 -95q38 47 91.5 76t128.5 29
q64 0 119.5 -23.5t87.5 -68.5q38 42 89 67t120 25q54 0 102.5 -16.5t82.5 -49.5t48.5 -81.5t1.5 -112.5l-74 -350h-288z" />
    <glyph glyph-name="n" unicode="n" horiz-adv-x="824" 
d="M476 0l64 300q7 33 11 59t1.5 44t-13 27.5t-33.5 9.5t-38 -9.5t-25 -27.5t-17 -44t-14 -59l-64 -300h-288l106 500l-8 100h218l7 -95q38 47 91.5 76t128.5 29q54 0 102.5 -16.5t82.5 -49.5t48.5 -81.5t1.5 -112.5l-74 -350h-288z" />
    <glyph glyph-name="o" unicode="o" horiz-adv-x="804" 
d="M848 371q0 -87 -26 -157t-81 -120t-139.5 -77t-201.5 -27q-163 0 -239.5 61.5t-76.5 177.5q0 87 26 157t81 120t139.5 77t201.5 27q162 0 239 -61.5t77 -177.5zM436 160q30 0 53 10.5t39.5 35t25 64t8.5 96.5q0 34 -14 54t-52 20q-30 0 -53 -10.5t-39.5 -35t-25 -64
t-8.5 -96.5q0 -34 14 -54t52 -20z" />
    <glyph glyph-name="p" unicode="p" horiz-adv-x="772" 
d="M60 0l106 500l-8 100h318q105 0 173.5 -15t109 -40.5t57 -60.5t16.5 -75q0 -68 -25 -121.5t-79.5 -91t-142 -57t-211.5 -19.5l-26 -120h-288zM410 290q33 0 57.5 3t40.5 12.5t24 28t8 48.5t-22.5 39t-78.5 9z" />
    <glyph glyph-name="q" unicode="q" horiz-adv-x="804" 
d="M393 -120l-23 111q-147 5 -216.5 66.5t-69.5 171.5q0 87 26 157t81 120t139.5 77t201.5 27q162 0 239 -61.5t77 -177.5q0 -70 -17 -128t-51.5 -99.5t-88.5 -64.5t-127 -23l-1 -6h150l34 -170h-354zM436 160q30 0 53 10.5t39.5 35t25 64t8.5 96.5q0 34 -14 54t-52 20
q-30 0 -53 -10.5t-39.5 -35t-25 -64t-8.5 -96.5q0 -34 14 -54t52 -20z" />
    <glyph glyph-name="r" unicode="r" horiz-adv-x="797" 
d="M467 0l-30 160h-55l-34 -160h-288l106 500l-8 100h318q108 0 179.5 -11.5t114 -33t60 -53t17.5 -71.5q0 -45 -9.5 -78t-26 -58.5t-38.5 -43.5t-48 -33l42 -218h-300zM418 330q36 0 62 2t42 8.5t23.5 18.5t7.5 33q0 23 -25 30.5t-89 7.5z" />
    <glyph glyph-name="s" unicode="s" horiz-adv-x="779" 
d="M521 366q5 41 -5.5 58t-33.5 17q-24 0 -43 -14t-19 -33q0 -24 27 -33t67.5 -12.5t87.5 -6t87.5 -13.5t67.5 -35.5t27 -71.5q0 -53 -24 -96t-72.5 -73t-122.5 -46.5t-173 -16.5q-88 0 -147.5 14.5t-95.5 44.5t-49.5 76t-9.5 110h286q-5 -38 12 -56.5t44 -18.5
q26 0 45.5 14t19.5 33q0 24 -27 33t-67.5 12.5t-87.5 6t-87.5 13.5t-67.5 35.5t-27 71.5q0 53 24.5 96t73 73t121.5 46.5t169 16.5q84 0 141 -14t90.5 -43.5t46.5 -76t8 -111.5h-286z" />
    <glyph glyph-name="t" unicode="t" horiz-adv-x="732" 
d="M240 0l85 400h-180l-17 200h708l-43 -200h-180l-85 -400h-288z" />
    <glyph glyph-name="u" unicode="u" horiz-adv-x="824" 
d="M828 300q-32 -151 -134.5 -230.5t-283.5 -79.5t-249.5 79.5t-36.5 230.5l42 200l-9 100h318l-63 -300q-7 -33 -11 -59t-2 -44t13 -27.5t34 -9.5t38 9.5t25 27.5t17 44t14 59l64 300h287z" />
    <glyph glyph-name="v" unicode="v" horiz-adv-x="812" 
d="M262 0l-124 600h300l9 -300l-8 -145l54 145l137 300h300l-380 -600h-288z" />
    <glyph glyph-name="w" unicode="w" horiz-adv-x="1194" 
d="M664 0l-2 304l-132 -304h-288l-104 600h300l-1 -300l-13 -145l49 145l107 300h290l-21 -300l-13 -145l49 145l127 300h300l-370 -600h-278z" />
    <glyph glyph-name="x" unicode="x" horiz-adv-x="800" 
d="M490 0l-42 225l-138 -225h-300l184 299l-32 301h300l22 -207l110 207h300l-160 -301l56 -299h-300z" />
    <glyph glyph-name="y" unicode="y" horiz-adv-x="852" 
d="M281 0l45 211l-188 389h330l23 -190l-10 -155l56 155l103 190h330l-356 -389l-45 -211h-288z" />
    <glyph glyph-name="z" unicode="z" horiz-adv-x="760" 
d="M50 0l36 170l310 256v4h-250l37 170h655l-37 -170l-309 -256l-1 -4h260l-36 -170h-665z" />
    <glyph glyph-name="braceleft" unicode="{" horiz-adv-x="466" 
d="M402 -160q-86 0 -136 25t-76 68t-33.5 101t-7.5 123q0 23 -2.5 37t-10.5 27q-24 39 -71 39l17 80q25 0 46 9.5t41 29.5q9 9 15.5 17t12 18.5t11 24.5t13.5 34q16 42 40 92t66 93.5t107 72.5t163 29l-36 -170q-35 0 -58 -18.5t-34 -50.5l-22 -68q-8 -23 -26.5 -49
t-41 -47.5t-46 -37t-40.5 -17.5l-1 -4q16 -2 33 -17.5t30.5 -37t21 -47.5t5.5 -49l-6 -68q-3 -32 12 -50.5t50 -18.5z" />
    <glyph glyph-name="bar" unicode="|" horiz-adv-x="190" 
d="M39 -100l170 800h70l-170 -800h-70z" />
    <glyph glyph-name="braceright" unicode="}" horiz-adv-x="466" 
d="M511 260q-47 0 -87 -39q-9 -9 -15.5 -17t-12 -18.5t-11.5 -24.5t-13 -34q-16 -42 -40 -92t-66 -93.5t-107 -72.5t-163 -29l36 170q35 0 58 18.5t34 50.5l22 68q7 23 26 49t41.5 47.5t46 37t40.5 17.5l1 4q-16 2 -33 17.5t-30.5 37t-21 47.5t-5.5 49l7 68q3 32 -12.5 50.5
t-50.5 18.5l37 170q85 0 135.5 -25t76 -68t33 -101t7.5 -123q0 -23 3 -37t11 -27q12 -20 28.5 -29.5t41.5 -9.5z" />
    <glyph glyph-name="asciitilde" unicode="~" horiz-adv-x="574" 
d="M607 392q-11 -50 -30 -84.5t-44.5 -57t-55 -32.5t-60.5 -10q-38 0 -58.5 11.5t-36.5 23.5q-12 9 -25 16t-30 7q-18 0 -29.5 -12.5t-18.5 -45.5h-125q10 49 31.5 84.5t48.5 58t57 33.5t58 11q31 0 49.5 -10.5t35.5 -24.5q12 -10 26 -18t32 -8t30 12t19 46h126z" />
    <glyph glyph-name="exclamdown" unicode="&#xa1;" horiz-adv-x="368" 
d="M13 -80l128 355h201l-21 -355h-308zM152 320l43 200h200l-43 -200h-200z" />
    <glyph glyph-name="cent" unicode="&#xa2;" horiz-adv-x="792" 
d="M340 -100l19 91q-144 6 -212.5 67.5t-68.5 170.5q0 82 24 150t74.5 117.5t128.5 78.5t186 34l19 91h70l-19 -91q82 -3 137 -20.5t88 -48t45.5 -74.5t9.5 -101h-286q3 35 -10 55t-55 20q-30 0 -53 -10.5t-39.5 -35t-25 -64t-8.5 -96.5q0 -34 14 -54t52 -20q42 0 63.5 19.5
t33.5 55.5h286q-21 -57 -52 -101t-77 -75t-109 -48t-146 -20l-19 -91h-70z" />
    <glyph glyph-name="sterling" unicode="&#xa3;" horiz-adv-x="784" 
d="M764 51q-50 -33 -106 -50.5t-121 -17.5q-38 0 -69.5 5t-61.5 11.5t-60.5 11.5t-67.5 5q-22 0 -40 -2t-34.5 -6.5t-33 -10.5t-34.5 -14l-48 124q67 27 101 50.5t34 61.5q0 20 -9 37h-130l35 70h65q-8 14 -13.5 33t-5.5 39q0 36 22 74t66.5 69t112 50.5t158.5 19.5
q149 0 217 -60t49 -185h-286q3 11 3 24.5t-3.5 25t-13 19t-25.5 7.5q-22 0 -36 -12.5t-14 -26.5q0 -9 5 -19.5t12.5 -21t15.5 -20t14 -16.5h181l-35 -70h-125q-2 -27 -16 -53t-34 -42l2 -2q17 8 33.5 7t33.5 -5.5t36 -9.5t42 -5t44.5 6t39.5 14.5t33 17.5t24 16z" />
    <glyph glyph-name="currency" unicode="&#xa4;" horiz-adv-x="514" 
d="M439 73l-64 82q-37 -10 -87 -10q-52 0 -83 10l-100 -82l-47 60l84 69q-7 11 -10 27.5t-3 33.5q0 35 12.5 70t41.5 65l-54 69l73 60l64 -83q20 5 41 8t46 3q47 0 82 -11l101 83l47 -60l-85 -70q7 -12 10 -29t3 -34q0 -36 -13.5 -70t-40.5 -62l55 -69zM449 320
q0 36 -26 55.5t-82 19.5q-79 0 -114 -31t-35 -84q0 -37 26 -56t82 -19q78 0 113.5 30.5t35.5 84.5z" />
    <glyph glyph-name="yen" unicode="&#xa5;" horiz-adv-x="852" 
d="M591 101l-22 -101h-288l22 101h-120l15 70h120l8 40h-120l15 70h71l-154 319h330l23 -190l-10 -155l56 155l103 190h330l-292 -319h71l-15 -70h-120l-8 -40h120l-15 -70h-120z" />
    <glyph glyph-name="brokenbar" unicode="&#xa6;" horiz-adv-x="190" 
d="M142 385l67 315h70l-67 -315h-70zM39 -100l67 315h70l-67 -315h-70z" />
    <glyph glyph-name="section" unicode="&#xa7;" horiz-adv-x="633" 
d="M292 347q-14 -1 -27.5 -10.5t-13.5 -21.5q0 -13 16.5 -23.5t39.5 -19.5t49 -16.5t45 -14.5q12 -3 31 -10.5t31 -7.5q13 0 26.5 9t13.5 26q0 13 -10.5 18.5t-21.5 10.5q-25 10 -50 18.5t-45 15t-34 11t-18 6.5q-3 1 -12.5 4.5t-19.5 4.5zM472 461q10 65 -41 65
q-24 0 -37.5 -12t-13.5 -23q0 -19 33.5 -32t96.5 -33q33 -10 62 -21.5t50.5 -26.5t34.5 -35t13 -48q0 -35 -13.5 -59.5t-33 -41t-41 -25t-36.5 -11.5q26 -14 40.5 -31.5t14.5 -43.5q0 -38 -20.5 -67t-59 -49t-94 -30.5t-125.5 -10.5q-141 0 -195 46.5t-37 144.5h212
q-3 -20 -1 -32.5t8.5 -20t15.5 -10t20 -2.5q14 0 27 5t19 18q6 14 -2.5 22t-28.5 16q-13 5 -25.5 9.5t-28 9.5t-35 11.5t-46.5 17.5q-23 9 -44.5 19t-38 24t-27 32t-10.5 43q0 50 33.5 85.5t96.5 54.5q-23 14 -34 29.5t-11 36.5q0 75 75.5 116t210.5 41q132 0 188 -43.5
t40 -137.5h-212z" />
    <glyph glyph-name="dieresis" unicode="&#xa8;" horiz-adv-x="520" 
d="M200 660l34 160h170l-34 -160h-170zM430 660l34 160h170l-34 -160h-170z" />
    <glyph glyph-name="copyright" unicode="&#xa9;" horiz-adv-x="590" 
d="M632 452q0 -57 -17 -103.5t-53 -79.5t-92 -51t-133 -18q-107 0 -157.5 40.5t-50.5 117.5q0 57 17 103.5t53 79.5t92 51t133 18q107 0 157.5 -40.5t50.5 -117.5zM413 378q-5 -15 -14 -23.5t-27 -8.5q-16 0 -21.5 8.5t-5.5 22.5q0 49 13.5 68t38.5 19q18 0 23.5 -8.5
t3.5 -23.5h120q4 51 -25 77t-107 26q-98 0 -143 -43.5t-45 -116.5q0 -48 32 -74t101 -26q78 0 117.5 26t58.5 77h-120z" />
    <glyph glyph-name="ordfeminine" unicode="&#xaa;" horiz-adv-x="435" 
d="M423 418q-26.5 0 -38.5 12t-14.5 37.5h-1.5q-11.5 -18 -24.25 -28.75t-27 -16.5t-30.25 -7.5t-33 -1.75q-35.5 0 -58.75 5.75t-37.25 15.25t-19.5 22t-5.5 26q0 30.5 11 49.75t28.75 30.25t40.5 15.75t46.5 6.5t46.5 2.25t40.5 3t28.75 9t11 20.5q0 8 -8 13.5t-24.5 5.5
q-17 0 -29.75 -10t-18.25 -27.5h-144q11.5 32 28.75 55t42.25 38t59 22.25t79 7.25q46 0 78.75 -7.75t52.25 -22t26.5 -33.75t2 -43l-19 -88.5q-5 -25 10 -25h10l-18.5 -85h-90zM369.5 536q-18 -1 -33.75 -1.5t-27.75 -2.75t-18.75 -6.75t-6.75 -12.5q0 -4.5 2.75 -7.25
t7.25 -4.5t9.75 -2.25t10.25 -0.5q21 0 35.25 9t21.75 29z" />
    <glyph glyph-name="guillemotleft" unicode="&#xab;" horiz-adv-x="562" 
d="M118 84l-24 216l116 216h216l-116 -216l24 -216h-216zM386 127l-18 173l92 173h173l-92 -173l18 -173h-173z" />
    <glyph glyph-name="logicalnot" unicode="&#xac;" horiz-adv-x="660" 
d="M570 140l41 195h-490l15 70h560l-56 -265h-70z" />
    <glyph glyph-name="registered" unicode="&#xae;" horiz-adv-x="590" 
d="M632 452q0 -57 -17 -103.5t-53 -79.5t-92 -51t-133 -18q-107 0 -157.5 40.5t-50.5 117.5q0 57 17 103.5t53 79.5t92 51t133 18q107 0 157.5 -40.5t50.5 -117.5zM369 460q26 0 37 -3t11 -13q0 -17 -13.5 -21.5t-43.5 -4.5zM489 371q22 12 36.5 31.5t14.5 57.5
q0 17 -7.5 30t-25.5 22t-48 14t-75 5h-134l4 -42l-44 -210h121l14 67h23l12 -67h126z" />
    <glyph glyph-name="macron" unicode="&#xaf;" horiz-adv-x="620" 
d="M205 680l26 120h500l-26 -120h-500z" />
    <glyph glyph-name="degree" unicode="&#xb0;" horiz-adv-x="290" 
d="M368 516q0 -29 -12.5 -53.5t-32.5 -43t-45.5 -29t-51.5 -10.5q-43 0 -68 28.5t-25 68.5q0 27 12 51t31.5 42t45 29t53.5 11q42 0 67.5 -27t25.5 -67zM196 497q-5 -23 7.5 -40t35.5 -17q12 0 24 5t22 14t16 20.5t6 25.5q0 19 -12.5 32t-32.5 13q-23 0 -42 -15.5t-24 -37.5
z" />
    <glyph glyph-name="plusminus" unicode="&#xb1;" horiz-adv-x="580" 
d="M295 140v195h-195v70h195v195h70v-195h195v-70h-195v-195h-70zM100 0v70h460v-70h-460z" />
    <glyph glyph-name="twosuperior" unicode="&#xb2;" horiz-adv-x="405" 
d="M120 417l2 12q9 55 30.5 85t48.5 44.5t55.5 17.5t52 5.5t39 9t15.5 27.5q0 11 -6 15t-14 4q-26 0 -36 -37h-143q11 32 27 55t39.5 38t55 22t74.5 7q75 0 111.5 -24t36.5 -68q0 -34 -12 -53.5t-31 -29.5t-42.5 -13t-47.5 -4.5t-45 -3.5t-35 -9q-10 -5 -13 -15h200l-18 -85
h-344z" />
    <glyph glyph-name="threesuperior" unicode="&#xb3;" horiz-adv-x="389" 
d="M443 568q24 -8 34.5 -19t10.5 -28q0 -22 -12 -41.5t-36.5 -34.5t-61 -24t-84.5 -9q-81 0 -118.5 29t-32.5 93h143q-2 -20 6.5 -28.5t22.5 -8.5t24 5t10 16q0 5 -2 9.5t-9 4.5h-30l15 70h25q9 0 14 7t5 13q0 8 -7.5 11.5t-16.5 3.5q-28 0 -38 -37h-143q23 65 70 93.5
t125 28.5q77 0 114 -24.5t37 -60.5q0 -29 -16 -42.5t-48 -24.5z" />
    <glyph glyph-name="acute" unicode="&#xb4;" horiz-adv-x="510" 
d="M340 660h-140l154 160h270z" />
    <glyph glyph-name="paragraph" unicode="&#xb6;" horiz-adv-x="576" 
d="M385 -100l155 730h-130l-155 -730h-70l104 490q-76 0 -112 30.5t-36 87.5q0 43 12.5 78.5t38.5 60.5t66.5 39t96.5 14h340l-15 -70h-70l-155 -730h-70z" />
    <glyph glyph-name="cedilla" unicode="&#xb8;" horiz-adv-x="402" 
d="M220 -48q19 -2 38.5 -6.5t34.5 -13t24.5 -20t9.5 -27.5q0 -24 -19 -42t-49.5 -29t-68.5 -16.5t-76 -5.5q-41 0 -64 5.5t-40 14.5l32 56q16 -8 35.5 -12t33.5 -4q17 0 30 7t13 21t-21 22.5t-69 11.5l61 86h132z" />
    <glyph glyph-name="onesuperior" unicode="&#xb9;" horiz-adv-x="219" 
d="M134 417l41 195h-35l13 60l36 5q32 5 48 12t21 28h84l-64 -300h-144z" />
    <glyph glyph-name="ordmasculine" unicode="&#xba;" horiz-adv-x="432" 
d="M504 490q0 -87 -54 -138.5t-170 -51.5q-81 0 -119.5 30.5t-38.5 88.5q0 43 13 78.5t40 60.5t69.5 38.5t101.5 13.5q81 0 119.5 -31t38.5 -89zM295 371q42 0 63 26.5t21 94.5q0 21 -10 34t-38 13q-44 0 -64.5 -27t-20.5 -95q0 -21 10 -33.5t39 -12.5z" />
    <glyph glyph-name="guillemotright" unicode="&#xbb;" horiz-adv-x="562" 
d="M264 84l116 216l-24 216h216l24 -216l-116 -216h-216zM57 127l92 173l-18 173h173l18 -173l-92 -173h-173z" />
    <glyph glyph-name="onequarter" unicode="&#xbc;" horiz-adv-x="687" 
d="M185 417l41 195h-35l13 60l36 5q32 5 48 12t21 28h84l-64 -300h-144zM28 -8l598 656l49 -40l-599 -656zM595 -70l-10 -47h-144l10 47h-188l16 73l106 180h185l-180 -168h79l9 43l61 50h94l-20 -93h47l-18 -85h-47z" />
    <glyph glyph-name="onehalf" unicode="&#xbd;" horiz-adv-x="653" 
d="M185 417l41 195h-35l13 60l36 5q32 5 48 12t21 28h84l-64 -300h-144zM28 -8l598 656l49 -40l-599 -656zM254 -117l2 12q9 55 30.5 85t48.5 44.5t55.5 17.5t52 5.5t39 9t15.5 27.5q0 11 -6 15t-14 4q-26 0 -36 -37h-143q11 32 27 55t39.5 38t55 22t74.5 7q75 0 111.5 -24
t36.5 -68q0 -34 -12 -53.5t-31 -29.5t-42.5 -13t-47.5 -4.5t-45 -3.5t-35 -9q-10 -5 -13 -15h200l-18 -85h-344z" />
    <glyph glyph-name="threequarters" unicode="&#xbe;" horiz-adv-x="791" 
d="M443 568q24 -8 34.5 -19t10.5 -28q0 -22 -12 -41.5t-36.5 -34.5t-61 -24t-84.5 -9q-81 0 -118.5 29t-32.5 93h143q-2 -20 6.5 -28.5t22.5 -8.5t24 5t10 16q0 5 -2 9.5t-9 4.5h-30l15 70h25q9 0 14 7t5 13q0 8 -7.5 11.5t-16.5 3.5q-28 0 -38 -37h-143q23 65 70 93.5
t125 28.5q77 0 114 -24.5t37 -60.5q0 -29 -16 -42.5t-48 -24.5zM132 -8l598 656l49 -40l-599 -656zM699 -70l-10 -47h-144l10 47h-188l16 73l106 180h185l-180 -168h79l9 43l61 50h94l-20 -93h47l-18 -85h-47z" />
    <glyph glyph-name="questiondown" unicode="&#xbf;" horiz-adv-x="799" 
d="M771 154q-23 -65 -55.5 -111.5t-79 -76t-108 -43.5t-142.5 -14q-155 0 -229.5 48.5t-74.5 134.5q0 65 19.5 98.5t49 48t64.5 16.5t66 3.5t54 8.5t28 33h202q-10 -48 -28.5 -71.5t-40 -34t-43.5 -12.5t-40.5 -6.5t-30 -16.5t-11.5 -42q0 -20 13 -29t29 -9q25 0 43 18
t29 57h286zM373 345l37 175h200l-37 -175h-200z" />
    <glyph glyph-name="Agrave" unicode="&#xc0;" horiz-adv-x="812" 
d="M502 0l-10 100h-130l-52 -100h-300l314 499l-8 101h362l124 -600h-300zM502 445h-2l-69 -175h64zM504 660l-216 160h270l86 -160h-140z" />
    <glyph glyph-name="Aacute" unicode="&#xc1;" horiz-adv-x="812" 
d="M502 0l-10 100h-130l-52 -100h-300l314 499l-8 101h362l124 -600h-300zM502 445h-2l-69 -175h64zM559 660h-140l154 160h270z" />
    <glyph glyph-name="Acircumflex" unicode="&#xc2;" horiz-adv-x="812" 
d="M502 0l-10 100h-130l-52 -100h-300l314 499l-8 101h362l124 -600h-300zM502 445h-2l-69 -175h64zM611 660l-47 87l-83 -87h-210l234 160h150l166 -160h-210z" />
    <glyph glyph-name="Atilde" unicode="&#xc3;" horiz-adv-x="812" 
d="M502 0l-10 100h-130l-52 -100h-300l314 499l-8 101h362l124 -600h-300zM502 445h-2l-69 -175h64zM812 816q-9 -42 -26.5 -71.5t-40.5 -48.5t-50.5 -27.5t-56.5 -8.5q-34 0 -53.5 9.5t-34.5 21.5t-31 21.5t-43 9.5q-28 0 -44.5 -13.5t-24.5 -48.5h-94q9 42 28.5 72
t44.5 49.5t52.5 29t52.5 9.5q30 0 48 -10.5t33.5 -22.5t32 -22.5t43.5 -10.5q26 0 44 13.5t26 48.5h94z" />
    <glyph glyph-name="Adieresis" unicode="&#xc4;" horiz-adv-x="812" 
d="M502 0l-10 100h-130l-52 -100h-300l314 499l-8 101h362l124 -600h-300zM502 445h-2l-69 -175h64zM346 660l34 160h170l-34 -160h-170zM576 660l34 160h170l-34 -160h-170z" />
    <glyph glyph-name="Aring" unicode="&#xc5;" horiz-adv-x="812" 
d="M502 0l-10 100h-130l-52 -100h-300l314 499l-8 101h362l124 -600h-300zM502 445h-2l-69 -175h64zM650 755q0 -20 -9 -38.5t-23.5 -32t-33.5 -21.5t-39 -8q-31 0 -50 20.5t-19 49.5q0 20 9 38.5t23.5 32t33.5 21.5t39 8q31 0 50 -20.5t19 -49.5zM609 748q0 16 -9.5 26.5
t-26.5 10.5q-21 0 -38.5 -15.5t-17.5 -37.5q0 -16 10 -26.5t27 -10.5q21 0 38 15.5t17 37.5z" />
    <glyph glyph-name="AE" unicode="&#xc6;" horiz-adv-x="980" 
d="M438 0l21 100h-97l-52 -100h-300l314 499l-8 101h762l-37 -170h-224l-9 -45h164l-36 -170h-164l-10 -45h224l-36 -170h-512zM533 445h-33l-69 -175h64z" />
    <glyph glyph-name="Ccedilla" unicode="&#xc7;" horiz-adv-x="792" 
d="M555 365q3 35 -10 55t-55 20q-30 0 -53 -10.5t-39.5 -35t-25 -64t-8.5 -96.5q0 -34 14 -54t52 -20q42 0 63.5 19.5t33.5 55.5h286q-22 -60 -55.5 -106t-83.5 -76.5t-119 -46.5t-161 -16q-163 0 -239.5 61.5t-76.5 177.5q0 87 26 157t81 120t139.5 77t201.5 27
q92 0 154.5 -16t99 -47t51 -76.5t10.5 -105.5h-286zM415 -48q19 -2 38.5 -6.5t34.5 -13t24.5 -20t9.5 -27.5q0 -24 -19 -42t-49.5 -29t-68.5 -16.5t-76 -5.5q-41 0 -64 5.5t-40 14.5l32 56q16 -8 35.5 -12t33.5 -4q17 0 30 7t13 21t-21 22.5t-69 11.5l61 86h132z" />
    <glyph glyph-name="Egrave" unicode="&#xc8;" horiz-adv-x="702" 
d="M60 0l106 500l-8 100h642l-37 -170h-324l-9 -45h264l-36 -170h-264l-10 -45h324l-36 -170h-612zM546 660l-216 160h270l86 -160h-140z" />
    <glyph glyph-name="Eacute" unicode="&#xc9;" horiz-adv-x="702" 
d="M60 0l106 500l-8 100h642l-37 -170h-324l-9 -45h264l-36 -170h-264l-10 -45h324l-36 -170h-612zM509 660h-140l154 160h270z" />
    <glyph glyph-name="Ecircumflex" unicode="&#xca;" horiz-adv-x="702" 
d="M60 0l106 500l-8 100h642l-37 -170h-324l-9 -45h264l-36 -170h-264l-10 -45h324l-36 -170h-612zM556 660l-47 87l-83 -87h-210l234 160h150l166 -160h-210z" />
    <glyph glyph-name="Edieresis" unicode="&#xcb;" horiz-adv-x="702" 
d="M60 0l106 500l-8 100h642l-37 -170h-324l-9 -45h264l-36 -170h-264l-10 -45h324l-36 -170h-612zM291 660l34 160h170l-34 -160h-170zM521 660l34 160h170l-34 -160h-170z" />
    <glyph glyph-name="Igrave" unicode="&#xcc;" horiz-adv-x="408" 
d="M60 0l106 500l-8 100h318l-128 -600h-288zM288 660l-216 160h270l86 -160h-140z" />
    <glyph glyph-name="Iacute" unicode="&#xcd;" horiz-adv-x="408" 
d="M60 0l106 500l-8 100h318l-128 -600h-288zM395 660h-140l154 160h270z" />
    <glyph glyph-name="Icircumflex" unicode="&#xce;" horiz-adv-x="408" 
d="M60 0l106 500l-8 100h318l-128 -600h-288zM410 660l-47 87l-83 -87h-210l234 160h150l166 -160h-210z" />
    <glyph glyph-name="Idieresis" unicode="&#xcf;" horiz-adv-x="408" 
d="M60 0l106 500l-8 100h318l-128 -600h-288zM145 660l34 160h170l-34 -160h-170zM375 660l34 160h170l-34 -160h-170z" />
    <glyph glyph-name="Eth" unicode="&#xd0;" horiz-adv-x="798" 
d="M60 0l46 215h-60l36 170h60l25 115l-9 100h366q68 0 125.5 -16t99.5 -47.5t66 -77.5t24 -106q0 -84 -36.5 -150t-98 -111t-141.5 -68.5t-167 -23.5h-336zM394 215l-10 -45h48q33 0 56 16.5t37 42t20 56.5t6 61q0 39 -15 61.5t-48 22.5h-48l-10 -45h60l-36 -170h-60z" />
    <glyph glyph-name="Ntilde" unicode="&#xd1;" horiz-adv-x="860" 
d="M452 0l-46 300h-4l-16 -120l-38 -180h-288l106 500l-8 100h378l46 -300h4l15 120l39 180h288l-128 -600h-348zM836 816q-9 -42 -26.5 -71.5t-40.5 -48.5t-50.5 -27.5t-56.5 -8.5q-34 0 -53.5 9.5t-34.5 21.5t-31 21.5t-43 9.5q-28 0 -44.5 -13.5t-24.5 -48.5h-94
q9 42 28.5 72t44.5 49.5t52.5 29t52.5 9.5q30 0 48 -10.5t33.5 -22.5t32 -22.5t43.5 -10.5q26 0 44 13.5t26 48.5h94z" />
    <glyph glyph-name="Ograve" unicode="&#xd2;" horiz-adv-x="804" 
d="M848 371q0 -87 -26 -157t-81 -120t-139.5 -77t-201.5 -27q-163 0 -239.5 61.5t-76.5 177.5q0 87 26 157t81 120t139.5 77t201.5 27q162 0 239 -61.5t77 -177.5zM436 160q30 0 53 10.5t39.5 35t25 64t8.5 96.5q0 34 -14 54t-52 20q-30 0 -53 -10.5t-39.5 -35t-25 -64
t-8.5 -96.5q0 -34 14 -54t52 -20zM513 660l-216 160h270l86 -160h-140z" />
    <glyph glyph-name="Oacute" unicode="&#xd3;" horiz-adv-x="804" 
d="M848 371q0 -87 -26 -157t-81 -120t-139.5 -77t-201.5 -27q-163 0 -239.5 61.5t-76.5 177.5q0 87 26 157t81 120t139.5 77t201.5 27q162 0 239 -61.5t77 -177.5zM436 160q30 0 53 10.5t39.5 35t25 64t8.5 96.5q0 34 -14 54t-52 20q-30 0 -53 -10.5t-39.5 -35t-25 -64
t-8.5 -96.5q0 -34 14 -54t52 -20zM571 660h-140l154 160h270z" />
    <glyph glyph-name="Ocircumflex" unicode="&#xd4;" horiz-adv-x="804" 
d="M848 371q0 -87 -26 -157t-81 -120t-139.5 -77t-201.5 -27q-163 0 -239.5 61.5t-76.5 177.5q0 87 26 157t81 120t139.5 77t201.5 27q162 0 239 -61.5t77 -177.5zM436 160q30 0 53 10.5t39.5 35t25 64t8.5 96.5q0 34 -14 54t-52 20q-30 0 -53 -10.5t-39.5 -35t-25 -64
t-8.5 -96.5q0 -34 14 -54t52 -20zM607 660l-47 87l-83 -87h-210l234 160h150l166 -160h-210z" />
    <glyph glyph-name="Otilde" unicode="&#xd5;" horiz-adv-x="804" 
d="M848 371q0 -87 -26 -157t-81 -120t-139.5 -77t-201.5 -27q-163 0 -239.5 61.5t-76.5 177.5q0 87 26 157t81 120t139.5 77t201.5 27q162 0 239 -61.5t77 -177.5zM436 160q30 0 53 10.5t39.5 35t25 64t8.5 96.5q0 34 -14 54t-52 20q-30 0 -53 -10.5t-39.5 -35t-25 -64
t-8.5 -96.5q0 -34 14 -54t52 -20zM808 816q-9 -42 -26.5 -71.5t-40.5 -48.5t-50.5 -27.5t-56.5 -8.5q-34 0 -53.5 9.5t-34.5 21.5t-31 21.5t-43 9.5q-28 0 -44.5 -13.5t-24.5 -48.5h-94q9 42 28.5 72t44.5 49.5t52.5 29t52.5 9.5q30 0 48 -10.5t33.5 -22.5t32 -22.5
t43.5 -10.5q26 0 44 13.5t26 48.5h94z" />
    <glyph glyph-name="Odieresis" unicode="&#xd6;" horiz-adv-x="804" 
d="M848 371q0 -87 -26 -157t-81 -120t-139.5 -77t-201.5 -27q-163 0 -239.5 61.5t-76.5 177.5q0 87 26 157t81 120t139.5 77t201.5 27q162 0 239 -61.5t77 -177.5zM436 160q30 0 53 10.5t39.5 35t25 64t8.5 96.5q0 34 -14 54t-52 20q-30 0 -53 -10.5t-39.5 -35t-25 -64
t-8.5 -96.5q0 -34 14 -54t52 -20zM342 660l34 160h170l-34 -160h-170zM572 660l34 160h170l-34 -160h-170z" />
    <glyph glyph-name="multiply" unicode="&#xd7;" horiz-adv-x="494" 
d="M409 113l-109 138l-167 -138l-39 49l167 138l-108 138l59 49l109 -138l167 138l39 -49l-168 -138l109 -138z" />
    <glyph glyph-name="Oslash" unicode="&#xd8;" horiz-adv-x="804" 
d="M796 530q26 -27 38.5 -69.5t12.5 -90.5q0 -86 -26 -156.5t-80.5 -120t-139 -76.5t-201.5 -27q-135 0 -212 40l-95 -79l-40 49l82 68q-26 28 -38.5 70t-12.5 90q0 87 26 157.5t81 120.5t139.5 77t201.5 27q135 0 212 -41l97 80l40 -49zM555 413q-7 13 -20.5 20t-38.5 7
q-30 0 -49 -9.5t-31 -27.5t-19.5 -44t-14.5 -59l-7 -35zM376 185q8 -13 22 -19t38 -6q30 0 49 9.5t31 27.5t19.5 44t14.5 59l6 33z" />
    <glyph glyph-name="Ugrave" unicode="&#xd9;" horiz-adv-x="824" 
d="M828 300q-32 -151 -134.5 -230.5t-283.5 -79.5t-249.5 79.5t-36.5 230.5l42 200l-9 100h318l-63 -300q-7 -33 -11 -59t-2 -44t13 -27.5t34 -9.5t38 9.5t25 27.5t17 44t14 59l64 300h287zM542 660l-216 160h270l86 -160h-140z" />
    <glyph glyph-name="Uacute" unicode="&#xda;" horiz-adv-x="824" 
d="M828 300q-32 -151 -134.5 -230.5t-283.5 -79.5t-249.5 79.5t-36.5 230.5l42 200l-9 100h318l-63 -300q-7 -33 -11 -59t-2 -44t13 -27.5t34 -9.5t38 9.5t25 27.5t17 44t14 59l64 300h287zM560 660h-140l154 160h270z" />
    <glyph glyph-name="Ucircumflex" unicode="&#xdb;" horiz-adv-x="824" 
d="M828 300q-32 -151 -134.5 -230.5t-283.5 -79.5t-249.5 79.5t-36.5 230.5l42 200l-9 100h318l-63 -300q-7 -33 -11 -59t-2 -44t13 -27.5t34 -9.5t38 9.5t25 27.5t17 44t14 59l64 300h287zM617 660l-47 87l-83 -87h-210l234 160h150l166 -160h-210z" />
    <glyph glyph-name="Udieresis" unicode="&#xdc;" horiz-adv-x="824" 
d="M828 300q-32 -151 -134.5 -230.5t-283.5 -79.5t-249.5 79.5t-36.5 230.5l42 200l-9 100h318l-63 -300q-7 -33 -11 -59t-2 -44t13 -27.5t34 -9.5t38 9.5t25 27.5t17 44t14 59l64 300h287zM352 660l34 160h170l-34 -160h-170zM582 660l34 160h170l-34 -160h-170z" />
    <glyph glyph-name="Yacute" unicode="&#xdd;" horiz-adv-x="852" 
d="M281 0l45 211l-188 389h330l23 -190l-10 -155l56 155l103 190h330l-356 -389l-45 -211h-288zM597 660h-140l154 160h270z" />
    <glyph glyph-name="Thorn" unicode="&#xde;" horiz-adv-x="778" 
d="M60 0l106 500l-8 100h318l-17 -80q105 0 174.5 -11t110.5 -33t58 -53.5t17 -72.5q0 -72 -24.5 -123t-78.5 -84t-140.5 -48t-210.5 -15l-17 -80h-288zM401 250q37 0 61 3t38 10.5t20 19t6 29.5q0 19 -21 28.5t-83 9.5z" />
    <glyph glyph-name="germandbls" unicode="&#xdf;" horiz-adv-x="812" 
d="M398 0l36 170h42q17 0 31 11t14 34q0 15 -8.5 22.5t-20.5 7.5h-42l28 130h42q16 0 29.5 10t13.5 27q0 15 -13.5 21.5t-33.5 6.5q-27 0 -44 -9.5t-28 -27.5t-18 -44t-14 -59l-64 -300h-288l53 250l-9 100h30q14 64 49.5 112.5t90.5 81.5t127 49.5t158 16.5
q135 0 204.5 -42t69.5 -120q0 -23 -4.5 -44t-16 -39.5t-32.5 -34t-54 -27.5q80 -25 80 -95q0 -96 -91.5 -152t-274.5 -56h-42z" />
    <glyph glyph-name="agrave" unicode="&#xe0;" horiz-adv-x="850" 
d="M660 0q-53 0 -77 24t-29 75h-3q-23 -36 -48.5 -57.5t-54 -33t-60.5 -15t-66 -3.5q-71 0 -117.5 11.5t-74.5 30.5t-39 44t-11 52q0 61 22 99.5t57.5 60.5t81 31.5t93 13t93 4.5t81 6t57.5 18t22 41q0 16 -16 27t-49 11q-34 0 -59.5 -20t-36.5 -55h-288q23 64 57.5 110
t84.5 76t118 44.5t158 14.5q92 0 157.5 -15.5t104.5 -44t53 -67.5t4 -86l-38 -177q-10 -50 20 -50h20l-37 -170h-180zM553 236q-36 -2 -67.5 -3t-55.5 -5.5t-37.5 -13.5t-13.5 -25q0 -9 5.5 -14.5t14.5 -9t19.5 -4.5t20.5 -1q42 0 70.5 18t43.5 58zM564 660l-216 160h270
l86 -160h-140z" />
    <glyph glyph-name="aacute" unicode="&#xe1;" horiz-adv-x="850" 
d="M660 0q-53 0 -77 24t-29 75h-3q-23 -36 -48.5 -57.5t-54 -33t-60.5 -15t-66 -3.5q-71 0 -117.5 11.5t-74.5 30.5t-39 44t-11 52q0 61 22 99.5t57.5 60.5t81 31.5t93 13t93 4.5t81 6t57.5 18t22 41q0 16 -16 27t-49 11q-34 0 -59.5 -20t-36.5 -55h-288q23 64 57.5 110
t84.5 76t118 44.5t158 14.5q92 0 157.5 -15.5t104.5 -44t53 -67.5t4 -86l-38 -177q-10 -50 20 -50h20l-37 -170h-180zM553 236q-36 -2 -67.5 -3t-55.5 -5.5t-37.5 -13.5t-13.5 -25q0 -9 5.5 -14.5t14.5 -9t19.5 -4.5t20.5 -1q42 0 70.5 18t43.5 58zM605 660h-140l154 160
h270z" />
    <glyph glyph-name="acircumflex" unicode="&#xe2;" horiz-adv-x="850" 
d="M660 0q-53 0 -77 24t-29 75h-3q-23 -36 -48.5 -57.5t-54 -33t-60.5 -15t-66 -3.5q-71 0 -117.5 11.5t-74.5 30.5t-39 44t-11 52q0 61 22 99.5t57.5 60.5t81 31.5t93 13t93 4.5t81 6t57.5 18t22 41q0 16 -16 27t-49 11q-34 0 -59.5 -20t-36.5 -55h-288q23 64 57.5 110
t84.5 76t118 44.5t158 14.5q92 0 157.5 -15.5t104.5 -44t53 -67.5t4 -86l-38 -177q-10 -50 20 -50h20l-37 -170h-180zM553 236q-36 -2 -67.5 -3t-55.5 -5.5t-37.5 -13.5t-13.5 -25q0 -9 5.5 -14.5t14.5 -9t19.5 -4.5t20.5 -1q42 0 70.5 18t43.5 58zM630 660l-47 87l-83 -87
h-210l234 160h150l166 -160h-210z" />
    <glyph glyph-name="atilde" unicode="&#xe3;" horiz-adv-x="850" 
d="M660 0q-53 0 -77 24t-29 75h-3q-23 -36 -48.5 -57.5t-54 -33t-60.5 -15t-66 -3.5q-71 0 -117.5 11.5t-74.5 30.5t-39 44t-11 52q0 61 22 99.5t57.5 60.5t81 31.5t93 13t93 4.5t81 6t57.5 18t22 41q0 16 -16 27t-49 11q-34 0 -59.5 -20t-36.5 -55h-288q23 64 57.5 110
t84.5 76t118 44.5t158 14.5q92 0 157.5 -15.5t104.5 -44t53 -67.5t4 -86l-38 -177q-10 -50 20 -50h20l-37 -170h-180zM553 236q-36 -2 -67.5 -3t-55.5 -5.5t-37.5 -13.5t-13.5 -25q0 -9 5.5 -14.5t14.5 -9t19.5 -4.5t20.5 -1q42 0 70.5 18t43.5 58zM831 816
q-9 -42 -26.5 -71.5t-40.5 -48.5t-50.5 -27.5t-56.5 -8.5q-34 0 -53.5 9.5t-34.5 21.5t-31 21.5t-43 9.5q-28 0 -44.5 -13.5t-24.5 -48.5h-94q9 42 28.5 72t44.5 49.5t52.5 29t52.5 9.5q30 0 48 -10.5t33.5 -22.5t32 -22.5t43.5 -10.5q26 0 44 13.5t26 48.5h94z" />
    <glyph glyph-name="adieresis" unicode="&#xe4;" horiz-adv-x="850" 
d="M660 0q-53 0 -77 24t-29 75h-3q-23 -36 -48.5 -57.5t-54 -33t-60.5 -15t-66 -3.5q-71 0 -117.5 11.5t-74.5 30.5t-39 44t-11 52q0 61 22 99.5t57.5 60.5t81 31.5t93 13t93 4.5t81 6t57.5 18t22 41q0 16 -16 27t-49 11q-34 0 -59.5 -20t-36.5 -55h-288q23 64 57.5 110
t84.5 76t118 44.5t158 14.5q92 0 157.5 -15.5t104.5 -44t53 -67.5t4 -86l-38 -177q-10 -50 20 -50h20l-37 -170h-180zM553 236q-36 -2 -67.5 -3t-55.5 -5.5t-37.5 -13.5t-13.5 -25q0 -9 5.5 -14.5t14.5 -9t19.5 -4.5t20.5 -1q42 0 70.5 18t43.5 58zM365 660l34 160h170
l-34 -160h-170zM595 660l34 160h170l-34 -160h-170z" />
    <glyph glyph-name="aring" unicode="&#xe5;" horiz-adv-x="850" 
d="M660 0q-53 0 -77 24t-29 75h-3q-23 -36 -48.5 -57.5t-54 -33t-60.5 -15t-66 -3.5q-71 0 -117.5 11.5t-74.5 30.5t-39 44t-11 52q0 61 22 99.5t57.5 60.5t81 31.5t93 13t93 4.5t81 6t57.5 18t22 41q0 16 -16 27t-49 11q-34 0 -59.5 -20t-36.5 -55h-288q23 64 57.5 110
t84.5 76t118 44.5t158 14.5q92 0 157.5 -15.5t104.5 -44t53 -67.5t4 -86l-38 -177q-10 -50 20 -50h20l-37 -170h-180zM553 236q-36 -2 -67.5 -3t-55.5 -5.5t-37.5 -13.5t-13.5 -25q0 -9 5.5 -14.5t14.5 -9t19.5 -4.5t20.5 -1q42 0 70.5 18t43.5 58zM669 755q0 -20 -9 -38.5
t-23.5 -32t-33.5 -21.5t-39 -8q-31 0 -50 20.5t-19 49.5q0 20 9 38.5t23.5 32t33.5 21.5t39 8q31 0 50 -20.5t19 -49.5zM628 748q0 16 -9.5 26.5t-26.5 10.5q-21 0 -38.5 -15.5t-17.5 -37.5q0 -16 10 -26.5t27 -10.5q21 0 38 15.5t17 37.5z" />
    <glyph glyph-name="ae" unicode="&#xe6;" horiz-adv-x="1236" 
d="M830 278q-6 -28 -7.5 -50t3 -37t17 -23t35.5 -8q37 0 56.5 19.5t30.5 55.5h286q-43 -121 -143 -183t-266 -62q-88 0 -144.5 22t-87.5 65q-28 -28 -60.5 -45t-68.5 -26.5t-76 -12.5t-83 -3q-71 0 -117.5 11.5t-74.5 30.5t-39 44t-11 52q0 61 21 99.5t55.5 61t78 31.5
t89.5 12.5t89.5 4.5t78 6.5t55.5 19t21 41.5q0 15 -11.5 25.5t-34.5 10.5q-34 0 -59.5 -20t-36.5 -55h-288q23 64 57.5 110t84.5 76t118 44.5t158 14.5q66 0 117.5 -9.5t88.5 -26.5q44 17 96.5 26.5t115.5 9.5q186 0 257 -79.5t39 -230.5l-6 -22h-434zM993 366
q4 35 -6.5 54.5t-48.5 19.5t-57 -19.5t-31 -54.5h143zM532 235q-32 -1 -60 -2.5t-48.5 -6t-32.5 -13.5t-12 -24q0 -9 5.5 -14.5t14.5 -9t19.5 -4.5t20.5 -1q32 0 56 18t37 57z" />
    <glyph glyph-name="ccedilla" unicode="&#xe7;" horiz-adv-x="792" 
d="M555 365q3 35 -10 55t-55 20q-30 0 -53 -10.5t-39.5 -35t-25 -64t-8.5 -96.5q0 -34 14 -54t52 -20q42 0 63.5 19.5t33.5 55.5h286q-22 -60 -55.5 -106t-83.5 -76.5t-119 -46.5t-161 -16q-163 0 -239.5 61.5t-76.5 177.5q0 87 26 157t81 120t139.5 77t201.5 27
q92 0 154.5 -16t99 -47t51 -76.5t10.5 -105.5h-286zM415 -48q19 -2 38.5 -6.5t34.5 -13t24.5 -20t9.5 -27.5q0 -24 -19 -42t-49.5 -29t-68.5 -16.5t-76 -5.5q-41 0 -64 5.5t-40 14.5l32 56q16 -8 35.5 -12t33.5 -4q17 0 30 7t13 21t-21 22.5t-69 11.5l61 86h132z" />
    <glyph glyph-name="egrave" unicode="&#xe8;" horiz-adv-x="804" 
d="M377 278q-5 -28 -6 -50t5 -37t20 -23t40 -8q42 0 63.5 19.5t33.5 55.5h286q-44 -120 -147 -182.5t-272 -62.5q-163 0 -239.5 61.5t-76.5 177.5q0 87 26 157t81 120t139.5 77t201.5 27q191 0 265.5 -79.5t40.5 -230.5l-5 -22h-456zM561 366q3 35 -10 54.5t-55 19.5
q-43 0 -64.5 -19.5t-33.5 -54.5h163zM515 660l-216 160h270l86 -160h-140z" />
    <glyph glyph-name="eacute" unicode="&#xe9;" horiz-adv-x="804" 
d="M377 278q-5 -28 -6 -50t5 -37t20 -23t40 -8q42 0 63.5 19.5t33.5 55.5h286q-44 -120 -147 -182.5t-272 -62.5q-163 0 -239.5 61.5t-76.5 177.5q0 87 26 157t81 120t139.5 77t201.5 27q191 0 265.5 -79.5t40.5 -230.5l-5 -22h-456zM561 366q3 35 -10 54.5t-55 19.5
q-43 0 -64.5 -19.5t-33.5 -54.5h163zM566 660h-140l154 160h270z" />
    <glyph glyph-name="ecircumflex" unicode="&#xea;" horiz-adv-x="804" 
d="M377 278q-5 -28 -6 -50t5 -37t20 -23t40 -8q42 0 63.5 19.5t33.5 55.5h286q-44 -120 -147 -182.5t-272 -62.5q-163 0 -239.5 61.5t-76.5 177.5q0 87 26 157t81 120t139.5 77t201.5 27q191 0 265.5 -79.5t40.5 -230.5l-5 -22h-456zM561 366q3 35 -10 54.5t-55 19.5
q-43 0 -64.5 -19.5t-33.5 -54.5h163zM607 660l-47 87l-83 -87h-210l234 160h150l166 -160h-210z" />
    <glyph glyph-name="edieresis" unicode="&#xeb;" horiz-adv-x="804" 
d="M377 278q-5 -28 -6 -50t5 -37t20 -23t40 -8q42 0 63.5 19.5t33.5 55.5h286q-44 -120 -147 -182.5t-272 -62.5q-163 0 -239.5 61.5t-76.5 177.5q0 87 26 157t81 120t139.5 77t201.5 27q191 0 265.5 -79.5t40.5 -230.5l-5 -22h-456zM561 366q3 35 -10 54.5t-55 19.5
q-43 0 -64.5 -19.5t-33.5 -54.5h163zM342 660l34 160h170l-34 -160h-170zM572 660l34 160h170l-34 -160h-170z" />
    <glyph glyph-name="igrave" unicode="&#xec;" horiz-adv-x="408" 
d="M60 0l106 500l-8 100h318l-128 -600h-288zM400 660l-216 160h270l86 -160h-140z" />
    <glyph glyph-name="iacute" unicode="&#xed;" horiz-adv-x="408" 
d="M60 0l106 500l-8 100h318l-128 -600h-288zM396 660h-140l154 160h270z" />
    <glyph glyph-name="icircumflex" unicode="&#xee;" horiz-adv-x="408" 
d="M60 0l106 500l-8 100h318l-128 -600h-288zM410 660l-47 87l-83 -87h-210l234 160h150l166 -160h-210z" />
    <glyph glyph-name="idieresis" unicode="&#xef;" horiz-adv-x="408" 
d="M60 0l106 500l-8 100h318l-128 -600h-288zM145 660l34 160h170l-34 -160h-170zM375 660l34 160h170l-34 -160h-170z" />
    <glyph glyph-name="eth" unicode="&#xf0;" horiz-adv-x="798" 
d="M60 0l46 215h-60l36 170h60l25 115l-9 100h366q68 0 125.5 -16t99.5 -47.5t66 -77.5t24 -106q0 -84 -36.5 -150t-98 -111t-141.5 -68.5t-167 -23.5h-336zM394 215l-10 -45h48q33 0 56 16.5t37 42t20 56.5t6 61q0 39 -15 61.5t-48 22.5h-48l-10 -45h60l-36 -170h-60z" />
    <glyph glyph-name="ntilde" unicode="&#xf1;" horiz-adv-x="824" 
d="M476 0l64 300q7 33 11 59t1.5 44t-13 27.5t-33.5 9.5t-38 -9.5t-25 -27.5t-17 -44t-14 -59l-64 -300h-288l106 500l-8 100h218l7 -95q38 47 91.5 76t128.5 29q54 0 102.5 -16.5t82.5 -49.5t48.5 -81.5t1.5 -112.5l-74 -350h-288zM818 816q-9 -42 -26.5 -71.5t-40.5 -48.5
t-50.5 -27.5t-56.5 -8.5q-34 0 -53.5 9.5t-34.5 21.5t-31 21.5t-43 9.5q-28 0 -44.5 -13.5t-24.5 -48.5h-94q9 42 28.5 72t44.5 49.5t52.5 29t52.5 9.5q30 0 48 -10.5t33.5 -22.5t32 -22.5t43.5 -10.5q26 0 44 13.5t26 48.5h94z" />
    <glyph glyph-name="ograve" unicode="&#xf2;" horiz-adv-x="804" 
d="M848 371q0 -87 -26 -157t-81 -120t-139.5 -77t-201.5 -27q-163 0 -239.5 61.5t-76.5 177.5q0 87 26 157t81 120t139.5 77t201.5 27q162 0 239 -61.5t77 -177.5zM436 160q30 0 53 10.5t39.5 35t25 64t8.5 96.5q0 34 -14 54t-52 20q-30 0 -53 -10.5t-39.5 -35t-25 -64
t-8.5 -96.5q0 -34 14 -54t52 -20zM597 660l-216 160h270l86 -160h-140z" />
    <glyph glyph-name="oacute" unicode="&#xf3;" horiz-adv-x="804" 
d="M848 371q0 -87 -26 -157t-81 -120t-139.5 -77t-201.5 -27q-163 0 -239.5 61.5t-76.5 177.5q0 87 26 157t81 120t139.5 77t201.5 27q162 0 239 -61.5t77 -177.5zM436 160q30 0 53 10.5t39.5 35t25 64t8.5 96.5q0 34 -14 54t-52 20q-30 0 -53 -10.5t-39.5 -35t-25 -64
t-8.5 -96.5q0 -34 14 -54t52 -20zM487 660h-140l154 160h270z" />
    <glyph glyph-name="ocircumflex" unicode="&#xf4;" horiz-adv-x="804" 
d="M848 371q0 -87 -26 -157t-81 -120t-139.5 -77t-201.5 -27q-163 0 -239.5 61.5t-76.5 177.5q0 87 26 157t81 120t139.5 77t201.5 27q162 0 239 -61.5t77 -177.5zM436 160q30 0 53 10.5t39.5 35t25 64t8.5 96.5q0 34 -14 54t-52 20q-30 0 -53 -10.5t-39.5 -35t-25 -64
t-8.5 -96.5q0 -34 14 -54t52 -20zM607 660l-47 87l-83 -87h-210l234 160h150l166 -160h-210z" />
    <glyph glyph-name="otilde" unicode="&#xf5;" horiz-adv-x="804" 
d="M848 371q0 -87 -26 -157t-81 -120t-139.5 -77t-201.5 -27q-163 0 -239.5 61.5t-76.5 177.5q0 87 26 157t81 120t139.5 77t201.5 27q162 0 239 -61.5t77 -177.5zM436 160q30 0 53 10.5t39.5 35t25 64t8.5 96.5q0 34 -14 54t-52 20q-30 0 -53 -10.5t-39.5 -35t-25 -64
t-8.5 -96.5q0 -34 14 -54t52 -20zM808 816q-9 -42 -26.5 -71.5t-40.5 -48.5t-50.5 -27.5t-56.5 -8.5q-34 0 -53.5 9.5t-34.5 21.5t-31 21.5t-43 9.5q-28 0 -44.5 -13.5t-24.5 -48.5h-94q9 42 28.5 72t44.5 49.5t52.5 29t52.5 9.5q30 0 48 -10.5t33.5 -22.5t32 -22.5
t43.5 -10.5q26 0 44 13.5t26 48.5h94z" />
    <glyph glyph-name="odieresis" unicode="&#xf6;" horiz-adv-x="804" 
d="M848 371q0 -87 -26 -157t-81 -120t-139.5 -77t-201.5 -27q-163 0 -239.5 61.5t-76.5 177.5q0 87 26 157t81 120t139.5 77t201.5 27q162 0 239 -61.5t77 -177.5zM436 160q30 0 53 10.5t39.5 35t25 64t8.5 96.5q0 34 -14 54t-52 20q-30 0 -53 -10.5t-39.5 -35t-25 -64
t-8.5 -96.5q0 -34 14 -54t52 -20zM342 660l34 160h170l-34 -160h-170zM572 660l34 160h170l-34 -160h-170z" />
    <glyph glyph-name="divide" unicode="&#xf7;" horiz-adv-x="580" 
d="M100 265v70h460v-70h-460zM295 420v110h70v-110h-70zM295 70v110h70v-110h-70z" />
    <glyph glyph-name="oslash" unicode="&#xf8;" horiz-adv-x="804" 
d="M796 530q26 -27 38.5 -69.5t12.5 -90.5q0 -86 -26 -156.5t-80.5 -120t-139 -76.5t-201.5 -27q-135 0 -212 40l-95 -79l-40 49l82 68q-26 28 -38.5 70t-12.5 90q0 87 26 157.5t81 120.5t139.5 77t201.5 27q135 0 212 -41l97 80l40 -49zM555 413q-7 13 -20.5 20t-38.5 7
q-30 0 -49 -9.5t-31 -27.5t-19.5 -44t-14.5 -59l-7 -35zM376 185q8 -13 22 -19t38 -6q30 0 49 9.5t31 27.5t19.5 44t14.5 59l6 33z" />
    <glyph glyph-name="ugrave" unicode="&#xf9;" horiz-adv-x="824" 
d="M828 300q-32 -151 -134.5 -230.5t-283.5 -79.5t-249.5 79.5t-36.5 230.5l42 200l-9 100h318l-63 -300q-7 -33 -11 -59t-2 -44t13 -27.5t34 -9.5t38 9.5t25 27.5t17 44t14 59l64 300h287zM542 660l-216 160h270l86 -160h-140z" />
    <glyph glyph-name="uacute" unicode="&#xfa;" horiz-adv-x="824" 
d="M828 300q-32 -151 -134.5 -230.5t-283.5 -79.5t-249.5 79.5t-36.5 230.5l42 200l-9 100h318l-63 -300q-7 -33 -11 -59t-2 -44t13 -27.5t34 -9.5t38 9.5t25 27.5t17 44t14 59l64 300h287zM561 660h-140l154 160h270z" />
    <glyph glyph-name="ucircumflex" unicode="&#xfb;" horiz-adv-x="824" 
d="M828 300q-32 -151 -134.5 -230.5t-283.5 -79.5t-249.5 79.5t-36.5 230.5l42 200l-9 100h318l-63 -300q-7 -33 -11 -59t-2 -44t13 -27.5t34 -9.5t38 9.5t25 27.5t17 44t14 59l64 300h287zM617 660l-47 87l-83 -87h-210l234 160h150l166 -160h-210z" />
    <glyph glyph-name="udieresis" unicode="&#xfc;" horiz-adv-x="824" 
d="M828 300q-32 -151 -134.5 -230.5t-283.5 -79.5t-249.5 79.5t-36.5 230.5l42 200l-9 100h318l-63 -300q-7 -33 -11 -59t-2 -44t13 -27.5t34 -9.5t38 9.5t25 27.5t17 44t14 59l64 300h287zM352 660l34 160h170l-34 -160h-170zM582 660l34 160h170l-34 -160h-170z" />
    <glyph glyph-name="yacute" unicode="&#xfd;" horiz-adv-x="852" 
d="M281 0l45 211l-188 389h330l23 -190l-10 -155l56 155l103 190h330l-356 -389l-45 -211h-288zM597 660h-140l154 160h270z" />
    <glyph glyph-name="thorn" unicode="&#xfe;" horiz-adv-x="778" 
d="M60 0l106 500l-8 100h318l-17 -80q105 0 174.5 -11t110.5 -33t58 -53.5t17 -72.5q0 -72 -24.5 -123t-78.5 -84t-140.5 -48t-210.5 -15l-17 -80h-288zM401 250q37 0 61 3t38 10.5t20 19t6 29.5q0 19 -21 28.5t-83 9.5z" />
    <glyph glyph-name="ydieresis" unicode="&#xff;" horiz-adv-x="852" 
d="M281 0l45 211l-188 389h330l23 -190l-10 -155l56 155l103 190h330l-356 -389l-45 -211h-288zM366 660l34 160h170l-34 -160h-170zM596 660l34 160h170l-34 -160h-170z" />
    <glyph glyph-name="Amacron" unicode="&#x100;" horiz-adv-x="812" 
d="M502 0l-10 100h-130l-52 -100h-300l314 499l-8 101h362l124 -600h-300zM502 445h-2l-69 -175h64zM301 680l26 120h500l-26 -120h-500z" />
    <glyph glyph-name="amacron" unicode="&#x101;" horiz-adv-x="850" 
d="M660 0q-53 0 -77 24t-29 75h-3q-23 -36 -48.5 -57.5t-54 -33t-60.5 -15t-66 -3.5q-71 0 -117.5 11.5t-74.5 30.5t-39 44t-11 52q0 61 22 99.5t57.5 60.5t81 31.5t93 13t93 4.5t81 6t57.5 18t22 41q0 16 -16 27t-49 11q-34 0 -59.5 -20t-36.5 -55h-288q23 64 57.5 110
t84.5 76t118 44.5t158 14.5q92 0 157.5 -15.5t104.5 -44t53 -67.5t4 -86l-38 -177q-10 -50 20 -50h20l-37 -170h-180zM553 236q-36 -2 -67.5 -3t-55.5 -5.5t-37.5 -13.5t-13.5 -25q0 -9 5.5 -14.5t14.5 -9t19.5 -4.5t20.5 -1q42 0 70.5 18t43.5 58zM320 680l26 120h500
l-26 -120h-500z" />
    <glyph glyph-name="Abreve" unicode="&#x102;" horiz-adv-x="812" 
d="M502 0l-10 100h-130l-52 -100h-300l314 499l-8 101h362l124 -600h-300zM502 445h-2l-69 -175h64zM818 820q-15 -39 -34 -68.5t-49.5 -50t-76 -30.5t-112.5 -10q-68 0 -109 10t-63 30.5t-28.5 50t-4.5 68.5h176q-3 -28 7.5 -43t43.5 -15t48.5 15t25.5 43h176z" />
    <glyph glyph-name="abreve" unicode="&#x103;" horiz-adv-x="850" 
d="M660 0q-53 0 -77 24t-29 75h-3q-23 -36 -48.5 -57.5t-54 -33t-60.5 -15t-66 -3.5q-71 0 -117.5 11.5t-74.5 30.5t-39 44t-11 52q0 61 22 99.5t57.5 60.5t81 31.5t93 13t93 4.5t81 6t57.5 18t22 41q0 16 -16 27t-49 11q-34 0 -59.5 -20t-36.5 -55h-288q23 64 57.5 110
t84.5 76t118 44.5t158 14.5q92 0 157.5 -15.5t104.5 -44t53 -67.5t4 -86l-38 -177q-10 -50 20 -50h20l-37 -170h-180zM553 236q-36 -2 -67.5 -3t-55.5 -5.5t-37.5 -13.5t-13.5 -25q0 -9 5.5 -14.5t14.5 -9t19.5 -4.5t20.5 -1q42 0 70.5 18t43.5 58zM837 820
q-15 -39 -34 -68.5t-49.5 -50t-76 -30.5t-112.5 -10q-68 0 -109 10t-63 30.5t-28.5 50t-4.5 68.5h176q-3 -28 7.5 -43t43.5 -15t48.5 15t25.5 43h176z" />
    <glyph glyph-name="Aogonek" unicode="&#x104;" horiz-adv-x="812" 
d="M502 445h-2l-69 -175h64zM856 -189q-24 -16 -54 -23.5t-55 -7.5q-44 0 -68.5 20t-24.5 61q0 22 7.5 43.5t18.5 40t22 33t19 22.5h-219l-10 100h-130l-52 -100h-300l314 499l-8 101h362l124 -600q-6 -8 -13 -17.5t-13.5 -20t-11 -22.5t-4.5 -24q0 -18 11 -30t32 -12
q14 0 26.5 3t20.5 5z" />
    <glyph glyph-name="aogonek" unicode="&#x105;" horiz-adv-x="850" 
d="M553 236q-36 -2 -67.5 -3t-55.5 -5.5t-37.5 -13.5t-13.5 -25q0 -9 5.5 -14.5t14.5 -9t19.5 -4.5t20.5 -1q42 0 70.5 18t43.5 58zM894 -189q-23 -16 -53 -23.5t-55 -7.5q-45 0 -69 20t-24 61q0 22 7.5 43.5t18 40t22 33t18.5 22.5h-99q-53 0 -77 24t-29 75h-3
q-23 -36 -48.5 -57.5t-54 -33t-60.5 -15t-66 -3.5q-71 0 -117.5 11.5t-74.5 30.5t-39 44t-11 52q0 61 22 99.5t57.5 60.5t81 31.5t93 13t93 4.5t81 6t57.5 18t22 41q0 16 -16 27t-49 11q-34 0 -59.5 -20t-36.5 -55h-288q23 64 57.5 110t84.5 76t118 44.5t158 14.5
q92 0 157.5 -15.5t104.5 -44t53 -67.5t4 -86l-38 -177q-10 -50 20 -50h20l-37 -170q-5 -8 -12.5 -17.5t-14 -20t-11 -22.5t-4.5 -24q0 -18 11.5 -30t32.5 -12q14 0 26 3l20 5z" />
    <glyph glyph-name="Cacute" unicode="&#x106;" horiz-adv-x="792" 
d="M555 365q3 35 -10 55t-55 20q-30 0 -53 -10.5t-39.5 -35t-25 -64t-8.5 -96.5q0 -34 14 -54t52 -20q42 0 63.5 19.5t33.5 55.5h286q-22 -60 -55.5 -106t-83.5 -76.5t-119 -46.5t-161 -16q-163 0 -239.5 61.5t-76.5 177.5q0 87 26 157t81 120t139.5 77t201.5 27
q92 0 154.5 -16t99 -47t51 -76.5t10.5 -105.5h-286zM566 660h-140l154 160h270z" />
    <glyph glyph-name="cacute" unicode="&#x107;" horiz-adv-x="792" 
d="M555 365q3 35 -10 55t-55 20q-30 0 -53 -10.5t-39.5 -35t-25 -64t-8.5 -96.5q0 -34 14 -54t52 -20q42 0 63.5 19.5t33.5 55.5h286q-22 -60 -55.5 -106t-83.5 -76.5t-119 -46.5t-161 -16q-163 0 -239.5 61.5t-76.5 177.5q0 87 26 157t81 120t139.5 77t201.5 27
q92 0 154.5 -16t99 -47t51 -76.5t10.5 -105.5h-286zM566 660h-140l154 160h270z" />
    <glyph glyph-name="Ccircumflex" unicode="&#x108;" horiz-adv-x="792" 
d="M555 365q3 35 -10 55t-55 20q-30 0 -53 -10.5t-39.5 -35t-25 -64t-8.5 -96.5q0 -34 14 -54t52 -20q42 0 63.5 19.5t33.5 55.5h286q-22 -60 -55.5 -106t-83.5 -76.5t-119 -46.5t-161 -16q-163 0 -239.5 61.5t-76.5 177.5q0 87 26 157t81 120t139.5 77t201.5 27
q92 0 154.5 -16t99 -47t51 -76.5t10.5 -105.5h-286zM601 660l-47 87l-83 -87h-210l234 160h150l166 -160h-210z" />
    <glyph glyph-name="ccircumflex" unicode="&#x109;" horiz-adv-x="792" 
d="M555 365q3 35 -10 55t-55 20q-30 0 -53 -10.5t-39.5 -35t-25 -64t-8.5 -96.5q0 -34 14 -54t52 -20q42 0 63.5 19.5t33.5 55.5h286q-22 -60 -55.5 -106t-83.5 -76.5t-119 -46.5t-161 -16q-163 0 -239.5 61.5t-76.5 177.5q0 87 26 157t81 120t139.5 77t201.5 27
q92 0 154.5 -16t99 -47t51 -76.5t10.5 -105.5h-286zM601 660l-47 87l-83 -87h-210l234 160h150l166 -160h-210z" />
    <glyph glyph-name="Cdotaccent" unicode="&#x10a;" horiz-adv-x="792" 
d="M555 365q3 35 -10 55t-55 20q-30 0 -53 -10.5t-39.5 -35t-25 -64t-8.5 -96.5q0 -34 14 -54t52 -20q42 0 63.5 19.5t33.5 55.5h286q-22 -60 -55.5 -106t-83.5 -76.5t-119 -46.5t-161 -16q-163 0 -239.5 61.5t-76.5 177.5q0 87 26 157t81 120t139.5 77t201.5 27
q92 0 154.5 -16t99 -47t51 -76.5t10.5 -105.5h-286zM451 660l34 160h170l-34 -160h-170z" />
    <glyph glyph-name="cdotaccent" unicode="&#x10b;" horiz-adv-x="792" 
d="M555 365q3 35 -10 55t-55 20q-30 0 -53 -10.5t-39.5 -35t-25 -64t-8.5 -96.5q0 -34 14 -54t52 -20q42 0 63.5 19.5t33.5 55.5h286q-22 -60 -55.5 -106t-83.5 -76.5t-119 -46.5t-161 -16q-163 0 -239.5 61.5t-76.5 177.5q0 87 26 157t81 120t139.5 77t201.5 27
q92 0 154.5 -16t99 -47t51 -76.5t10.5 -105.5h-286zM451 660l34 160h170l-34 -160h-170z" />
    <glyph glyph-name="Ccaron" unicode="&#x10c;" horiz-adv-x="792" 
d="M555 365q3 35 -10 55t-55 20q-30 0 -53 -10.5t-39.5 -35t-25 -64t-8.5 -96.5q0 -34 14 -54t52 -20q42 0 63.5 19.5t33.5 55.5h286q-22 -60 -55.5 -106t-83.5 -76.5t-119 -46.5t-161 -16q-163 0 -239.5 61.5t-76.5 177.5q0 87 26 157t81 120t139.5 77t201.5 27
q92 0 154.5 -16t99 -47t51 -76.5t10.5 -105.5h-286zM611 660h-150l-166 160h210l47 -87l83 87h210z" />
    <glyph glyph-name="ccaron" unicode="&#x10d;" horiz-adv-x="792" 
d="M555 365q3 35 -10 55t-55 20q-30 0 -53 -10.5t-39.5 -35t-25 -64t-8.5 -96.5q0 -34 14 -54t52 -20q42 0 63.5 19.5t33.5 55.5h286q-22 -60 -55.5 -106t-83.5 -76.5t-119 -46.5t-161 -16q-163 0 -239.5 61.5t-76.5 177.5q0 87 26 157t81 120t139.5 77t201.5 27
q92 0 154.5 -16t99 -47t51 -76.5t10.5 -105.5h-286zM611 660h-150l-166 160h210l47 -87l83 87h210z" />
    <glyph glyph-name="Dcaron" unicode="&#x10e;" horiz-adv-x="798" 
d="M432 170q33 0 56 16.5t37 42t20 56.5t6 61q0 39 -15.5 61.5t-48.5 22.5h-48l-55 -260h48zM60 0l106 500l-8 100h366q68 0 125.5 -16t99.5 -47.5t66 -77.5t24 -106q0 -84 -36.5 -150t-98 -111t-141.5 -68.5t-167 -23.5h-336zM592 660h-150l-166 160h210l47 -87l83 87h210z
" />
    <glyph glyph-name="dcaron" unicode="&#x10f;" horiz-adv-x="798" 
d="M432 170q33 0 56 16.5t37 42t20 56.5t6 61q0 39 -15.5 61.5t-48.5 22.5h-48l-55 -260h48zM60 0l106 500l-8 100h366q68 0 125.5 -16t99.5 -47.5t66 -77.5t24 -106q0 -84 -36.5 -150t-98 -111t-141.5 -68.5t-167 -23.5h-336zM592 660h-150l-166 160h210l47 -87l83 87h210z
" />
    <glyph glyph-name="Dcroat" unicode="&#x110;" horiz-adv-x="798" 
d="M60 0l50 235h-60l28 130h60l28 135l-8 100h366q68 0 125.5 -16t99.5 -47.5t66 -77.5t24 -106q0 -84 -36.5 -150t-98 -111t-141.5 -68.5t-167 -23.5h-336zM398 235l-14 -65h48q33 0 56 16.5t37 42t20 56.5t6 61q0 39 -15.5 61.5t-48.5 22.5h-48l-13 -65h66l-28 -130h-66z
" />
    <glyph glyph-name="dcroat" unicode="&#x111;" horiz-adv-x="816" 
d="M60 0l50 235h-60l28 130h60l28 135l-8 100h366q68 0 125.5 -16t99.5 -47.5t66 -77.5t24 -106q0 -84 -36.5 -150t-98 -111t-141.5 -68.5t-167 -23.5h-336zM398 235l-14 -65h48q33 0 56 16.5t37 42t20 56.5t6 61q0 39 -15.5 61.5t-48.5 22.5h-48l-13 -65h66l-28 -130h-66z
" />
    <glyph glyph-name="Emacron" unicode="&#x112;" horiz-adv-x="702" 
d="M60 0l106 500l-8 100h642l-37 -170h-324l-9 -45h264l-36 -170h-264l-10 -45h324l-36 -170h-612zM246 680l26 120h500l-26 -120h-500z" />
    <glyph glyph-name="emacron" unicode="&#x113;" horiz-adv-x="804" 
d="M377 278q-5 -28 -6 -50t5 -37t20 -23t40 -8q42 0 63.5 19.5t33.5 55.5h286q-44 -120 -147 -182.5t-272 -62.5q-163 0 -239.5 61.5t-76.5 177.5q0 87 26 157t81 120t139.5 77t201.5 27q191 0 265.5 -79.5t40.5 -230.5l-5 -22h-456zM561 366q3 35 -10 54.5t-55 19.5
q-43 0 -64.5 -19.5t-33.5 -54.5h163zM297 680l26 120h500l-26 -120h-500z" />
    <glyph glyph-name="Ebreve" unicode="&#x114;" horiz-adv-x="702" 
d="M60 0l106 500l-8 100h642l-37 -170h-324l-9 -45h264l-36 -170h-264l-10 -45h324l-36 -170h-612zM763 820q-15 -39 -34 -68.5t-49.5 -50t-76 -30.5t-112.5 -10q-68 0 -109 10t-63 30.5t-28.5 50t-4.5 68.5h176q-3 -28 7.5 -43t43.5 -15t48.5 15t25.5 43h176z" />
    <glyph glyph-name="ebreve" unicode="&#x115;" horiz-adv-x="804" 
d="M377 278q-5 -28 -6 -50t5 -37t20 -23t40 -8q42 0 63.5 19.5t33.5 55.5h286q-44 -120 -147 -182.5t-272 -62.5q-163 0 -239.5 61.5t-76.5 177.5q0 87 26 157t81 120t139.5 77t201.5 27q191 0 265.5 -79.5t40.5 -230.5l-5 -22h-456zM561 366q3 35 -10 54.5t-55 19.5
q-43 0 -64.5 -19.5t-33.5 -54.5h163zM814 820q-15 -39 -34 -68.5t-49.5 -50t-76 -30.5t-112.5 -10q-68 0 -109 10t-63 30.5t-28.5 50t-4.5 68.5h176q-3 -28 7.5 -43t43.5 -15t48.5 15t25.5 43h176z" />
    <glyph glyph-name="Edotaccent" unicode="&#x116;" horiz-adv-x="702" 
d="M60 0l106 500l-8 100h642l-37 -170h-324l-9 -45h264l-36 -170h-264l-10 -45h324l-36 -170h-612zM406 660l34 160h170l-34 -160h-170z" />
    <glyph glyph-name="edotaccent" unicode="&#x117;" horiz-adv-x="804" 
d="M377 278q-5 -28 -6 -50t5 -37t20 -23t40 -8q42 0 63.5 19.5t33.5 55.5h286q-44 -120 -147 -182.5t-272 -62.5q-163 0 -239.5 61.5t-76.5 177.5q0 87 26 157t81 120t139.5 77t201.5 27q191 0 265.5 -79.5t40.5 -230.5l-5 -22h-456zM561 366q3 35 -10 54.5t-55 19.5
q-43 0 -64.5 -19.5t-33.5 -54.5h163zM457 660l34 160h170l-34 -160h-170z" />
    <glyph glyph-name="Eogonek" unicode="&#x118;" horiz-adv-x="702" 
d="M726 -189q-24 -16 -54 -23.5t-55 -7.5q-44 0 -68.5 20t-24.5 61q0 22 7.5 43.5t18.5 40t22 33t19 22.5h-531l106 500l-8 100h642l-37 -170h-324l-9 -45h264l-36 -170h-264l-10 -45h324l-36 -170q-6 -8 -13 -17.5t-13.5 -20t-11 -22.5t-4.5 -24q0 -18 11 -30t32 -12
q14 0 26.5 3t20.5 5z" />
    <glyph glyph-name="eogonek" unicode="&#x119;" horiz-adv-x="804" 
d="M576 -189q-23 -16 -53.5 -23.5t-55.5 -7.5q-44 0 -68 20t-24 61q0 19 6 38t14.5 36t18.5 31.5t18 24.5q-8 -1 -16 -1h-16q-163 0 -239.5 61.5t-76.5 177.5q0 87 26 157t81 120t139.5 77t201.5 27q191 0 265 -79.5t41 -230.5l-7 -32h-456q-5 -26 -5.5 -46t5.5 -33.5
t20.5 -21t40.5 -7.5q42 0 63.5 19.5t33.5 55.5h286q-35 -97 -108 -156t-189 -79q-6 -8 -13 -17.5t-13.5 -20t-11 -22.5t-4.5 -24q0 -18 11 -30t32 -12q14 0 26.5 3t20.5 5zM561 366q3 35 -10 54.5t-55 19.5q-43 0 -64.5 -19.5t-33.5 -54.5h163z" />
    <glyph glyph-name="Ecaron" unicode="&#x11a;" horiz-adv-x="702" 
d="M60 0l106 500l-8 100h642l-37 -170h-324l-9 -45h264l-36 -170h-264l-10 -45h324l-36 -170h-612zM566 660h-150l-166 160h210l47 -87l83 87h210z" />
    <glyph glyph-name="ecaron" unicode="&#x11b;" horiz-adv-x="804" 
d="M377 278q-5 -28 -6 -50t5 -37t20 -23t40 -8q42 0 63.5 19.5t33.5 55.5h286q-44 -120 -147 -182.5t-272 -62.5q-163 0 -239.5 61.5t-76.5 177.5q0 87 26 157t81 120t139.5 77t201.5 27q191 0 265.5 -79.5t40.5 -230.5l-5 -22h-456zM561 366q3 35 -10 54.5t-55 19.5
q-43 0 -64.5 -19.5t-33.5 -54.5h163zM617 660h-150l-166 160h210l47 -87l83 87h210z" />
    <glyph glyph-name="Gcircumflex" unicode="&#x11c;" horiz-adv-x="824" 
d="M606 0l-7 76q-41 -47 -96.5 -66.5t-132.5 -19.5q-140 0 -215 62.5t-75 181.5q0 84 26.5 153.5t81 119t139 76.5t201.5 27q169 0 245 -63t69 -182h-286q3 35 -10 55t-56 20q-29 0 -52.5 -10.5t-39.5 -35t-24.5 -64t-8.5 -96.5q0 -34 14.5 -54t52.5 -20q40 0 62 16t33 44
h-81l-9 100h395l-68 -320h-158zM617 660l-47 87l-83 -87h-210l234 160h150l166 -160h-210z" />
    <glyph glyph-name="gcircumflex" unicode="&#x11d;" horiz-adv-x="792" 
d="M606 0l-7 76q-41 -47 -96.5 -66.5t-132.5 -19.5q-140 0 -215 62.5t-75 181.5q0 84 26.5 153.5t81 119t139 76.5t201.5 27q169 0 245 -63t69 -182h-286q3 35 -10 55t-56 20q-29 0 -52.5 -10.5t-39.5 -35t-24.5 -64t-8.5 -96.5q0 -34 14.5 -54t52.5 -20q40 0 62 16t33 44
h-81l-9 100h395l-68 -320h-158zM601 660l-47 87l-83 -87h-210l234 160h150l166 -160h-210z" />
    <glyph glyph-name="Gbreve" unicode="&#x11e;" horiz-adv-x="824" 
d="M606 0l-7 76q-41 -47 -96.5 -66.5t-132.5 -19.5q-140 0 -215 62.5t-75 181.5q0 84 26.5 153.5t81 119t139 76.5t201.5 27q169 0 245 -63t69 -182h-286q3 35 -10 55t-56 20q-29 0 -52.5 -10.5t-39.5 -35t-24.5 -64t-8.5 -96.5q0 -34 14.5 -54t52.5 -20q40 0 62 16t33 44
h-81l-9 100h395l-68 -320h-158zM824 820q-15 -39 -34 -68.5t-49.5 -50t-76 -30.5t-112.5 -10q-68 0 -109 10t-63 30.5t-28.5 50t-4.5 68.5h176q-3 -28 7.5 -43t43.5 -15t48.5 15t25.5 43h176z" />
    <glyph glyph-name="gbreve" unicode="&#x11f;" horiz-adv-x="792" 
d="M606 0l-7 76q-41 -47 -96.5 -66.5t-132.5 -19.5q-140 0 -215 62.5t-75 181.5q0 84 26.5 153.5t81 119t139 76.5t201.5 27q169 0 245 -63t69 -182h-286q3 35 -10 55t-56 20q-29 0 -52.5 -10.5t-39.5 -35t-24.5 -64t-8.5 -96.5q0 -34 14.5 -54t52.5 -20q40 0 62 16t33 44
h-81l-9 100h395l-68 -320h-158zM808 820q-15 -39 -34 -68.5t-49.5 -50t-76 -30.5t-112.5 -10q-68 0 -109 10t-63 30.5t-28.5 50t-4.5 68.5h176q-3 -28 7.5 -43t43.5 -15t48.5 15t25.5 43h176z" />
    <glyph glyph-name="Gdotaccent" unicode="&#x120;" horiz-adv-x="824" 
d="M606 0l-7 76q-41 -47 -96.5 -66.5t-132.5 -19.5q-140 0 -215 62.5t-75 181.5q0 84 26.5 153.5t81 119t139 76.5t201.5 27q169 0 245 -63t69 -182h-286q3 35 -10 55t-56 20q-29 0 -52.5 -10.5t-39.5 -35t-24.5 -64t-8.5 -96.5q0 -34 14.5 -54t52.5 -20q40 0 62 16t33 44
h-81l-9 100h395l-68 -320h-158zM467 660l34 160h170l-34 -160h-170z" />
    <glyph glyph-name="gdotaccent" unicode="&#x121;" horiz-adv-x="792" 
d="M606 0l-7 76q-41 -47 -96.5 -66.5t-132.5 -19.5q-140 0 -215 62.5t-75 181.5q0 84 26.5 153.5t81 119t139 76.5t201.5 27q169 0 245 -63t69 -182h-286q3 35 -10 55t-56 20q-29 0 -52.5 -10.5t-39.5 -35t-24.5 -64t-8.5 -96.5q0 -34 14.5 -54t52.5 -20q40 0 62 16t33 44
h-81l-9 100h395l-68 -320h-158zM451 660l34 160h170l-34 -160h-170z" />
    <glyph glyph-name="Gcommaaccent" unicode="&#x122;" horiz-adv-x="824" 
d="M606 0l-7 76q-41 -47 -96.5 -66.5t-132.5 -19.5q-140 0 -215 62.5t-75 181.5q0 84 26.5 153.5t81 119t139 76.5t201.5 27q169 0 245 -63t69 -182h-286q3 35 -10 55t-56 20q-29 0 -52.5 -10.5t-39.5 -35t-24.5 -64t-8.5 -96.5q0 -34 14.5 -54t52.5 -20q40 0 62 16t33 44
h-81l-9 100h395l-68 -320h-158zM480 -66q-19 -94 -73 -139t-131 -45l13 60q36 0 56.5 18t25.5 46h-64l17 80h160z" />
    <glyph glyph-name="gcommaaccent" unicode="&#x123;" horiz-adv-x="792" 
d="M606 0l-7 76q-41 -47 -96.5 -66.5t-132.5 -19.5q-140 0 -215 62.5t-75 181.5q0 84 26.5 153.5t81 119t139 76.5t201.5 27q169 0 245 -63t69 -182h-286q3 35 -10 55t-56 20q-29 0 -52.5 -10.5t-39.5 -35t-24.5 -64t-8.5 -96.5q0 -34 14.5 -54t52.5 -20q40 0 62 16t33 44
h-81l-9 100h395l-68 -320h-158zM465 -66q-19 -94 -73 -139t-131 -45l13 60q36 0 56.5 18t25.5 46h-64l17 80h160z" />
    <glyph glyph-name="Hcircumflex" unicode="&#x124;" horiz-adv-x="820" 
d="M472 0l46 215h-124l-46 -215h-288l106 500l-8 100h318l-46 -215h124l46 215h288l-128 -600h-288zM615 660l-47 87l-83 -87h-210l234 160h150l166 -160h-210z" />
    <glyph glyph-name="hcircumflex" unicode="&#x125;" horiz-adv-x="820" 
d="M472 0l46 215h-124l-46 -215h-288l106 500l-8 100h318l-46 -215h124l46 215h288l-128 -600h-288zM615 660l-47 87l-83 -87h-210l234 160h150l166 -160h-210z" />
    <glyph glyph-name="Hbar" unicode="&#x126;" horiz-adv-x="820" 
d="M472 0l46 215h-124l-46 -215h-288l96 450h-60l10 50h60l-8 100h318l-22 -100h124l22 100h288l-22 -100h60l-10 -50h-60l-96 -450h-288zM568 450h-124l-14 -65h124z" />
    <glyph glyph-name="hbar" unicode="&#x127;" horiz-adv-x="820" 
d="M472 0l46 215h-124l-46 -215h-288l96 450h-60l10 50h60l-8 100h318l-22 -100h124l22 100h288l-22 -100h60l-10 -50h-60l-96 -450h-288zM568 450h-124l-14 -65h124z" />
    <glyph glyph-name="Itilde" unicode="&#x128;" horiz-adv-x="408" 
d="M60 0l106 500l-8 100h318l-128 -600h-288zM611 816q-9 -42 -26.5 -71.5t-40.5 -48.5t-50.5 -27.5t-56.5 -8.5q-34 0 -53.5 9.5t-34.5 21.5t-31 21.5t-43 9.5q-28 0 -44.5 -13.5t-24.5 -48.5h-94q9 42 28.5 72t44.5 49.5t52.5 29t52.5 9.5q30 0 48 -10.5t33.5 -22.5
t32 -22.5t43.5 -10.5q26 0 44 13.5t26 48.5h94z" />
    <glyph glyph-name="itilde" unicode="&#x129;" horiz-adv-x="408" 
d="M60 0l106 500l-8 100h318l-128 -600h-288zM611 816q-9 -42 -26.5 -71.5t-40.5 -48.5t-50.5 -27.5t-56.5 -8.5q-34 0 -53.5 9.5t-34.5 21.5t-31 21.5t-43 9.5q-28 0 -44.5 -13.5t-24.5 -48.5h-94q9 42 28.5 72t44.5 49.5t52.5 29t52.5 9.5q30 0 48 -10.5t33.5 -22.5
t32 -22.5t43.5 -10.5q26 0 44 13.5t26 48.5h94z" />
    <glyph glyph-name="Imacron" unicode="&#x12a;" horiz-adv-x="408" 
d="M60 0l106 500l-8 100h318l-128 -600h-288zM100 680l26 120h500l-26 -120h-500z" />
    <glyph glyph-name="imacron" unicode="&#x12b;" horiz-adv-x="408" 
d="M60 0l106 500l-8 100h318l-128 -600h-288zM100 680l26 120h500l-26 -120h-500z" />
    <glyph glyph-name="Ibreve" unicode="&#x12c;" horiz-adv-x="408" 
d="M60 0l106 500l-8 100h318l-128 -600h-288zM618 820q-15 -39 -34 -68.5t-49.5 -50t-76 -30.5t-112.5 -10q-68 0 -109 10t-63 30.5t-28.5 50t-4.5 68.5h176q-3 -28 7.5 -43t43.5 -15t48.5 15t25.5 43h176z" />
    <glyph glyph-name="ibreve" unicode="&#x12d;" horiz-adv-x="408" 
d="M60 0l106 500l-8 100h318l-128 -600h-288zM618 820q-15 -39 -34 -68.5t-49.5 -50t-76 -30.5t-112.5 -10q-68 0 -109 10t-63 30.5t-28.5 50t-4.5 68.5h176q-3 -28 7.5 -43t43.5 -15t48.5 15t25.5 43h176z" />
    <glyph glyph-name="Iogonek" unicode="&#x12e;" horiz-adv-x="408" 
d="M402 -189q-24 -16 -54 -23.5t-55 -7.5q-44 0 -68.5 20t-24.5 61q0 22 7.5 43.5t18.5 40t22 33t19 22.5h-207l106 500l-8 100h318l-128 -600q-6 -8 -13 -17.5t-13.5 -20t-11 -22.5t-4.5 -24q0 -18 11 -30t32 -12q14 0 26.5 3t20.5 5z" />
    <glyph glyph-name="iogonek" unicode="&#x12f;" horiz-adv-x="408" 
d="M402 -189q-24 -16 -54 -23.5t-55 -7.5q-44 0 -68.5 20t-24.5 61q0 22 7.5 43.5t18.5 40t22 33t19 22.5h-207l106 500l-8 100h318l-128 -600q-6 -8 -13 -17.5t-13.5 -20t-11 -22.5t-4.5 -24q0 -18 11 -30t32 -12q14 0 26.5 3t20.5 5z" />
    <glyph glyph-name="Idotaccent" unicode="&#x130;" horiz-adv-x="408" 
d="M60 0l106 500l-8 100h318l-128 -600h-288zM259 660l34 160h170l-34 -160h-170z" />
    <glyph glyph-name="dotlessi" unicode="&#x131;" horiz-adv-x="408" 
d="M60 0l106 500l-8 100h318l-128 -600h-288z" />
    <glyph glyph-name="IJ" unicode="&#x132;" horiz-adv-x="1202" 
d="M60 0l106 500l-8 100h318l-128 -600h-288zM1206 300q-32 -151 -134.5 -230.5t-283.5 -79.5t-249.5 79.5t-36.5 230.5h288q-7 -33 -11 -59t-2 -44t13 -27.5t34 -9.5t38 9.5t25 27.5t17 44t14 59l42 200l-9 100h319z" />
    <glyph glyph-name="ij" unicode="&#x133;" horiz-adv-x="1202" 
d="M60 0l106 500l-8 100h318l-128 -600h-288zM1206 300q-32 -151 -134.5 -230.5t-283.5 -79.5t-249.5 79.5t-36.5 230.5h288q-7 -33 -11 -59t-2 -44t13 -27.5t34 -9.5t38 9.5t25 27.5t17 44t14 59l42 200l-9 100h319z" />
    <glyph glyph-name="Jcircumflex" unicode="&#x134;" horiz-adv-x="794" 
d="M798 300q-32 -151 -134.5 -230.5t-283.5 -79.5t-249.5 79.5t-36.5 230.5h288q-7 -33 -11 -59t-2 -44t13 -27.5t34 -9.5t38 9.5t25 27.5t17 44t14 59l42 200l-9 100h319zM800 660l-47 87l-83 -87h-210l234 160h150l166 -160h-210z" />
    <glyph glyph-name="jcircumflex" unicode="&#x135;" horiz-adv-x="794" 
d="M798 300q-32 -151 -134.5 -230.5t-283.5 -79.5t-249.5 79.5t-36.5 230.5h288q-7 -33 -11 -59t-2 -44t13 -27.5t34 -9.5t38 9.5t25 27.5t17 44t14 59l42 200l-9 100h319zM800 660l-47 87l-83 -87h-210l234 160h150l166 -160h-210z" />
    <glyph glyph-name="Kcommaaccent" unicode="&#x136;" horiz-adv-x="822" 
d="M60 0l106 500l-8 100h318l-128 -600h-288zM492 0l-56 300l160 300h300l-160 -301l56 -299h-300zM479 -66q-19 -94 -73 -139t-131 -45l13 60q36 0 56.5 18t25.5 46h-64l17 80h160z" />
    <glyph glyph-name="kcommaaccent" unicode="&#x137;" horiz-adv-x="822" 
d="M60 0l106 500l-8 100h318l-128 -600h-288zM492 0l-56 300l160 300h300l-160 -301l56 -299h-300zM479 -66q-19 -94 -73 -139t-131 -45l13 60q36 0 56.5 18t25.5 46h-64l17 80h160z" />
    <glyph glyph-name="kgreenlandic" unicode="&#x138;" horiz-adv-x="822" 
d="M60 0l106 500l-8 100h318l-128 -600h-288zM492 0l-56 300l160 300h300l-160 -301l56 -299h-300z" />
    <glyph glyph-name="Lacute" unicode="&#x139;" horiz-adv-x="682" 
d="M60 0l106 500l-8 100h318l-92 -430h304l-36 -170h-592zM426 660h-140l154 160h270z" />
    <glyph glyph-name="lacute" unicode="&#x13a;" horiz-adv-x="682" 
d="M60 0l106 500l-8 100h318l-92 -430h304l-36 -170h-592zM396 660h-140l154 160h270z" />
    <glyph glyph-name="Lcommaaccent" unicode="&#x13b;" horiz-adv-x="662" 
d="M60 0l106 500l-8 100h318l-92 -430h304l-36 -170h-592zM399 -66q-19 -94 -73 -139t-131 -45l13 60q36 0 56.5 18t25.5 46h-64l17 80h160z" />
    <glyph glyph-name="lcommaaccent" unicode="&#x13c;" horiz-adv-x="662" 
d="M60 0l106 500l-8 100h318l-92 -430h304l-36 -170h-592zM399 -66q-19 -94 -73 -139t-131 -45l13 60q36 0 56.5 18t25.5 46h-64l17 80h160z" />
    <glyph glyph-name="Lcaron" unicode="&#x13d;" horiz-adv-x="682" 
d="M60 0l106 500l-8 100h318l-92 -430h304l-36 -170h-592zM426 660h-150l-166 160h210l47 -87l83 87h210z" />
    <glyph glyph-name="lcaron" unicode="&#x13e;" horiz-adv-x="682" 
d="M60 0l106 500l-8 100h318l-92 -430h304l-36 -170h-592zM426 660h-150l-166 160h210l47 -87l83 87h210z" />
    <glyph glyph-name="Ldot" unicode="&#x13f;" horiz-adv-x="662" 
d="M60 0l106 500l-8 100h318l-92 -430h304l-36 -170h-592zM499 301l34 160h170l-34 -160h-170z" />
    <glyph glyph-name="ldot" unicode="&#x140;" horiz-adv-x="662" 
d="M60 0l106 500l-8 100h318l-92 -430h304l-36 -170h-592zM499 301l34 160h170l-34 -160h-170z" />
    <glyph glyph-name="Lslash" unicode="&#x141;" horiz-adv-x="709" 
d="M107 0l35 165l-66 -28l-26 100l118 50l45 213l-9 100h318l-38 -179l88 37l26 -100l-140 -59l-27 -129h304l-36 -170h-592z" />
    <glyph glyph-name="lslash" unicode="&#x142;" horiz-adv-x="709" 
d="M107 0l35 165l-66 -28l-26 100l118 50l45 213l-9 100h318l-38 -179l88 37l26 -100l-140 -59l-27 -129h304l-36 -170h-592z" />
    <glyph glyph-name="Nacute" unicode="&#x143;" horiz-adv-x="860" 
d="M452 0l-46 300h-4l-16 -120l-38 -180h-288l106 500l-8 100h378l46 -300h4l15 120l39 180h288l-128 -600h-348zM597 660h-140l154 160h270z" />
    <glyph glyph-name="nacute" unicode="&#x144;" horiz-adv-x="824" 
d="M476 0l64 300q7 33 11 59t1.5 44t-13 27.5t-33.5 9.5t-38 -9.5t-25 -27.5t-17 -44t-14 -59l-64 -300h-288l106 500l-8 100h218l7 -95q38 47 91.5 76t128.5 29q54 0 102.5 -16.5t82.5 -49.5t48.5 -81.5t1.5 -112.5l-74 -350h-288zM561 660h-140l154 160h270z" />
    <glyph glyph-name="Ncommaaccent" unicode="&#x145;" horiz-adv-x="860" 
d="M452 0l-46 300h-4l-16 -120l-38 -180h-288l106 500l-8 100h378l46 -300h4l15 120l39 180h288l-128 -600h-348zM498 -66q-19 -94 -73 -139t-131 -45l13 60q36 0 56.5 18t25.5 46h-64l17 80h160z" />
    <glyph glyph-name="ncommaaccent" unicode="&#x146;" horiz-adv-x="824" 
d="M476 0l64 300q7 33 11 59t1.5 44t-13 27.5t-33.5 9.5t-38 -9.5t-25 -27.5t-17 -44t-14 -59l-64 -300h-288l106 500l-8 100h218l7 -95q38 47 91.5 76t128.5 29q54 0 102.5 -16.5t82.5 -49.5t48.5 -81.5t1.5 -112.5l-74 -350h-288zM480 -66q-19 -94 -73 -139t-131 -45
l13 60q36 0 56.5 18t25.5 46h-64l17 80h160z" />
    <glyph glyph-name="Ncaron" unicode="&#x147;" horiz-adv-x="860" 
d="M452 0l-46 300h-4l-16 -120l-38 -180h-288l106 500l-8 100h378l46 -300h4l15 120l39 180h288l-128 -600h-348zM645 660h-150l-166 160h210l47 -87l83 87h210z" />
    <glyph glyph-name="ncaron" unicode="&#x148;" horiz-adv-x="824" 
d="M476 0l64 300q7 33 11 59t1.5 44t-13 27.5t-33.5 9.5t-38 -9.5t-25 -27.5t-17 -44t-14 -59l-64 -300h-288l106 500l-8 100h218l7 -95q38 47 91.5 76t128.5 29q54 0 102.5 -16.5t82.5 -49.5t48.5 -81.5t1.5 -112.5l-74 -350h-288zM627 660h-150l-166 160h210l47 -87l83 87
h210z" />
    <glyph glyph-name="napostrophe" unicode="&#x149;" horiz-adv-x="824" 
d="M476 0l64 300q7 33 11 59t1.5 44t-13 27.5t-33.5 9.5t-38 -9.5t-25 -27.5t-17 -44t-14 -59l-64 -300h-288l106 500l-8 100h218l7 -95q38 47 91.5 76t128.5 29q54 0 102.5 -16.5t82.5 -49.5t48.5 -81.5t1.5 -112.5l-74 -350h-288zM284.595 738.401
q-11.3994 -56.3975 -43.7979 -83.3965t-78.5967 -26.999l7.7998 35.999q21.5986 0 33.8984 10.7998q12.2998 10.7988 15.2988 27.5986h-38.3984l10.2002 47.998h95.9961z" />
    <glyph glyph-name="Eng" unicode="&#x14a;" horiz-adv-x="860" 
d="M365 -110q23 0 37.5 7.5t23.5 21.5t14.5 34.5t11.5 46.5l-46 300h-4l-16 -120l-38 -180h-288l106 500l-8 100h378l46 -300h4l15 120l39 180h288l-115 -540q-32 -151 -149 -230.5t-329 -79.5z" />
    <glyph glyph-name="eng" unicode="&#x14b;" horiz-adv-x="824" 
d="M395 -80q23 0 38 9.5t25 27.5t17 44t14 59l51 240q7 33 11 59t1.5 44t-13 27.5t-33.5 9.5t-38 -9.5t-25 -27.5t-17 -44t-14 -59l-64 -300h-288l106 500l-8 100h218l7 -95q38 47 91.5 76t128.5 29q54 0 102.5 -16.5t82.5 -49.5t48.5 -81.5t1.5 -112.5l-61 -290
q-32 -151 -134.5 -230.5t-283.5 -79.5z" />
    <glyph glyph-name="Omacron" unicode="&#x14c;" horiz-adv-x="804" 
d="M848 371q0 -87 -26 -157t-81 -120t-139.5 -77t-201.5 -27q-163 0 -239.5 61.5t-76.5 177.5q0 87 26 157t81 120t139.5 77t201.5 27q162 0 239 -61.5t77 -177.5zM436 160q30 0 53 10.5t39.5 35t25 64t8.5 96.5q0 34 -14 54t-52 20q-30 0 -53 -10.5t-39.5 -35t-25 -64
t-8.5 -96.5q0 -34 14 -54t52 -20zM297 680l26 120h500l-26 -120h-500z" />
    <glyph glyph-name="omacron" unicode="&#x14d;" horiz-adv-x="804" 
d="M848 371q0 -87 -26 -157t-81 -120t-139.5 -77t-201.5 -27q-163 0 -239.5 61.5t-76.5 177.5q0 87 26 157t81 120t139.5 77t201.5 27q162 0 239 -61.5t77 -177.5zM436 160q30 0 53 10.5t39.5 35t25 64t8.5 96.5q0 34 -14 54t-52 20q-30 0 -53 -10.5t-39.5 -35t-25 -64
t-8.5 -96.5q0 -34 14 -54t52 -20zM297 680l26 120h500l-26 -120h-500z" />
    <glyph glyph-name="Obreve" unicode="&#x14e;" horiz-adv-x="804" 
d="M848 371q0 -87 -26 -157t-81 -120t-139.5 -77t-201.5 -27q-163 0 -239.5 61.5t-76.5 177.5q0 87 26 157t81 120t139.5 77t201.5 27q162 0 239 -61.5t77 -177.5zM436 160q30 0 53 10.5t39.5 35t25 64t8.5 96.5q0 34 -14 54t-52 20q-30 0 -53 -10.5t-39.5 -35t-25 -64
t-8.5 -96.5q0 -34 14 -54t52 -20zM814 820q-15 -39 -34 -68.5t-49.5 -50t-76 -30.5t-112.5 -10q-68 0 -109 10t-63 30.5t-28.5 50t-4.5 68.5h176q-3 -28 7.5 -43t43.5 -15t48.5 15t25.5 43h176z" />
    <glyph glyph-name="obreve" unicode="&#x14f;" horiz-adv-x="804" 
d="M848 371q0 -87 -26 -157t-81 -120t-139.5 -77t-201.5 -27q-163 0 -239.5 61.5t-76.5 177.5q0 87 26 157t81 120t139.5 77t201.5 27q162 0 239 -61.5t77 -177.5zM436 160q30 0 53 10.5t39.5 35t25 64t8.5 96.5q0 34 -14 54t-52 20q-30 0 -53 -10.5t-39.5 -35t-25 -64
t-8.5 -96.5q0 -34 14 -54t52 -20zM814 820q-15 -39 -34 -68.5t-49.5 -50t-76 -30.5t-112.5 -10q-68 0 -109 10t-63 30.5t-28.5 50t-4.5 68.5h176q-3 -28 7.5 -43t43.5 -15t48.5 15t25.5 43h176z" />
    <glyph glyph-name="Ohungarumlaut" unicode="&#x150;" horiz-adv-x="804" 
d="M848 371q0 -87 -26 -157t-81 -120t-139.5 -77t-201.5 -27q-163 0 -239.5 61.5t-76.5 177.5q0 87 26 157t81 120t139.5 77t201.5 27q162 0 239 -61.5t77 -177.5zM436 160q30 0 53 10.5t39.5 35t25 64t8.5 96.5q0 34 -14 54t-52 20q-30 0 -53 -10.5t-39.5 -35t-25 -64
t-8.5 -96.5q0 -34 14 -54t52 -20zM405 660h-110l154 160h240zM685 660h-110l154 160h240z" />
    <glyph glyph-name="ohungarumlaut" unicode="&#x151;" horiz-adv-x="804" 
d="M848 371q0 -87 -26 -157t-81 -120t-139.5 -77t-201.5 -27q-163 0 -239.5 61.5t-76.5 177.5q0 87 26 157t81 120t139.5 77t201.5 27q162 0 239 -61.5t77 -177.5zM436 160q30 0 53 10.5t39.5 35t25 64t8.5 96.5q0 34 -14 54t-52 20q-30 0 -53 -10.5t-39.5 -35t-25 -64
t-8.5 -96.5q0 -34 14 -54t52 -20zM405 660h-110l154 160h240zM685 660h-110l154 160h240z" />
    <glyph glyph-name="OE" unicode="&#x152;" horiz-adv-x="1128" 
d="M523 0q-27 0 -58.5 -5t-64.5 -5q-163 0 -239.5 61.5t-76.5 177.5q0 87 26 157t81 120t139.5 77t201.5 27q33 0 62.5 -5t56.5 -5h575l-36 -170h-324l-10 -45h264l-36 -170h-264l-10 -45h324l-36 -170h-575zM436 160q30 0 53 10.5t39.5 35t25 64t8.5 96.5q0 34 -14 54
t-52 20q-30 0 -53 -10.5t-39.5 -35t-25 -64t-8.5 -96.5q0 -34 14 -54t52 -20z" />
    <glyph glyph-name="oe" unicode="&#x153;" horiz-adv-x="1260" 
d="M833 278q-5 -28 -6.5 -50t4.5 -37t20.5 -23t40.5 -8q42 0 63.5 19.5t33.5 55.5h286q-42 -118 -144.5 -181.5t-266.5 -63.5q-154 0 -223 60q-98 -60 -250 -60q-155 0 -231 62t-76 179q0 87 27.5 157t82.5 119.5t137.5 76t191.5 26.5q152 0 224 -60q94 60 250 60
q182 0 256.5 -79t40.5 -231l-5 -22h-456zM436 160q30 0 53 10.5t39 35t24.5 64t8.5 96.5q0 34 -14 54t-52 20q-30 0 -53 -10.5t-39 -35t-24.5 -64t-8.5 -96.5q0 -34 14 -54t52 -20zM1017 366q3 35 -10.5 54.5t-55.5 19.5q-43 0 -64 -19.5t-33 -54.5h163z" />
    <glyph glyph-name="Racute" unicode="&#x154;" horiz-adv-x="797" 
d="M467 0l-30 160h-55l-34 -160h-288l106 500l-8 100h318q108 0 179.5 -11.5t114 -33t60 -53t17.5 -71.5q0 -45 -9.5 -78t-26 -58.5t-38.5 -43.5t-48 -33l42 -218h-300zM418 330q36 0 62 2t42 8.5t23.5 18.5t7.5 33q0 23 -25 30.5t-89 7.5zM483 660h-140l154 160h270z" />
    <glyph glyph-name="racute" unicode="&#x155;" horiz-adv-x="797" 
d="M467 0l-30 160h-55l-34 -160h-288l106 500l-8 100h318q108 0 179.5 -11.5t114 -33t60 -53t17.5 -71.5q0 -45 -9.5 -78t-26 -58.5t-38.5 -43.5t-48 -33l42 -218h-300zM418 330q36 0 62 2t42 8.5t23.5 18.5t7.5 33q0 23 -25 30.5t-89 7.5zM483 660h-140l154 160h270z" />
    <glyph glyph-name="Rcommaaccent" unicode="&#x156;" horiz-adv-x="797" 
d="M467 0l-30 160h-55l-34 -160h-288l106 500l-8 100h318q108 0 179.5 -11.5t114 -33t60 -53t17.5 -71.5q0 -45 -9.5 -78t-26 -58.5t-38.5 -43.5t-48 -33l42 -218h-300zM418 330q36 0 62 2t42 8.5t23.5 18.5t7.5 33q0 23 -25 30.5t-89 7.5zM467 -66q-19 -94 -73 -139
t-131 -45l13 60q36 0 56.5 18t25.5 46h-64l17 80h160z" />
    <glyph glyph-name="rcommaaccent" unicode="&#x157;" horiz-adv-x="797" 
d="M467 0l-30 160h-55l-34 -160h-288l106 500l-8 100h318q108 0 179.5 -11.5t114 -33t60 -53t17.5 -71.5q0 -45 -9.5 -78t-26 -58.5t-38.5 -43.5t-48 -33l42 -218h-300zM418 330q36 0 62 2t42 8.5t23.5 18.5t7.5 33q0 23 -25 30.5t-89 7.5zM467 -66q-19 -94 -73 -139
t-131 -45l13 60q36 0 56.5 18t25.5 46h-64l17 80h160z" />
    <glyph glyph-name="Rcaron" unicode="&#x158;" horiz-adv-x="797" 
d="M467 0l-30 160h-55l-34 -160h-288l106 500l-8 100h318q108 0 179.5 -11.5t114 -33t60 -53t17.5 -71.5q0 -45 -9.5 -78t-26 -58.5t-38.5 -43.5t-48 -33l42 -218h-300zM418 330q36 0 62 2t42 8.5t23.5 18.5t7.5 33q0 23 -25 30.5t-89 7.5zM613 660h-150l-166 160h210
l47 -87l83 87h210z" />
    <glyph glyph-name="rcaron" unicode="&#x159;" horiz-adv-x="797" 
d="M467 0l-30 160h-55l-34 -160h-288l106 500l-8 100h318q108 0 179.5 -11.5t114 -33t60 -53t17.5 -71.5q0 -45 -9.5 -78t-26 -58.5t-38.5 -43.5t-48 -33l42 -218h-300zM418 330q36 0 62 2t42 8.5t23.5 18.5t7.5 33q0 23 -25 30.5t-89 7.5zM613 660h-150l-166 160h210
l47 -87l83 87h210z" />
    <glyph glyph-name="Sacute" unicode="&#x15a;" horiz-adv-x="779" 
d="M521 366q5 41 -5.5 58t-33.5 17q-24 0 -43 -14t-19 -33q0 -24 27 -33t67.5 -12.5t87.5 -6t87.5 -13.5t67.5 -35.5t27 -71.5q0 -53 -24 -96t-72.5 -73t-122.5 -46.5t-173 -16.5q-88 0 -147.5 14.5t-95.5 44.5t-49.5 76t-9.5 110h286q-5 -38 12 -56.5t44 -18.5
q26 0 45.5 14t19.5 33q0 24 -27 33t-67.5 12.5t-87.5 6t-87.5 13.5t-67.5 35.5t-27 71.5q0 53 24.5 96t73 73t121.5 46.5t169 16.5q84 0 141 -14t90.5 -43.5t46.5 -76t8 -111.5h-286zM566 660h-140l154 160h270z" />
    <glyph glyph-name="sacute" unicode="&#x15b;" horiz-adv-x="779" 
d="M521 366q5 41 -5.5 58t-33.5 17q-24 0 -43 -14t-19 -33q0 -24 27 -33t67.5 -12.5t87.5 -6t87.5 -13.5t67.5 -35.5t27 -71.5q0 -53 -24 -96t-72.5 -73t-122.5 -46.5t-173 -16.5q-88 0 -147.5 14.5t-95.5 44.5t-49.5 76t-9.5 110h286q-5 -38 12 -56.5t44 -18.5
q26 0 45.5 14t19.5 33q0 24 -27 33t-67.5 12.5t-87.5 6t-87.5 13.5t-67.5 35.5t-27 71.5q0 53 24.5 96t73 73t121.5 46.5t169 16.5q84 0 141 -14t90.5 -43.5t46.5 -76t8 -111.5h-286zM566 660h-140l154 160h270z" />
    <glyph glyph-name="Scircumflex" unicode="&#x15c;" horiz-adv-x="779" 
d="M521 366q5 41 -5.5 58t-33.5 17q-24 0 -43 -14t-19 -33q0 -24 27 -33t67.5 -12.5t87.5 -6t87.5 -13.5t67.5 -35.5t27 -71.5q0 -53 -24 -96t-72.5 -73t-122.5 -46.5t-173 -16.5q-88 0 -147.5 14.5t-95.5 44.5t-49.5 76t-9.5 110h286q-5 -38 12 -56.5t44 -18.5
q26 0 45.5 14t19.5 33q0 24 -27 33t-67.5 12.5t-87.5 6t-87.5 13.5t-67.5 35.5t-27 71.5q0 53 24.5 96t73 73t121.5 46.5t169 16.5q84 0 141 -14t90.5 -43.5t46.5 -76t8 -111.5h-286zM594 660l-47 87l-83 -87h-210l234 160h150l166 -160h-210z" />
    <glyph glyph-name="scircumflex" unicode="&#x15d;" horiz-adv-x="779" 
d="M521 366q5 41 -5.5 58t-33.5 17q-24 0 -43 -14t-19 -33q0 -24 27 -33t67.5 -12.5t87.5 -6t87.5 -13.5t67.5 -35.5t27 -71.5q0 -53 -24 -96t-72.5 -73t-122.5 -46.5t-173 -16.5q-88 0 -147.5 14.5t-95.5 44.5t-49.5 76t-9.5 110h286q-5 -38 12 -56.5t44 -18.5
q26 0 45.5 14t19.5 33q0 24 -27 33t-67.5 12.5t-87.5 6t-87.5 13.5t-67.5 35.5t-27 71.5q0 53 24.5 96t73 73t121.5 46.5t169 16.5q84 0 141 -14t90.5 -43.5t46.5 -76t8 -111.5h-286zM594 660l-47 87l-83 -87h-210l234 160h150l166 -160h-210z" />
    <glyph glyph-name="Scedilla" unicode="&#x15e;" horiz-adv-x="779" 
d="M428 -48q19 -2 38.5 -6.5t34.5 -13t24.5 -20t9.5 -27.5q0 -24 -19 -42t-49.5 -29t-68.5 -16.5t-76 -5.5q-41 0 -64 5.5t-40 14.5l32 56q16 -8 35 -12t33 -4q17 0 30.5 7t13.5 21t-21 22.5t-69 11.5l55 79q-69 5 -116 21.5t-75.5 46.5t-39 73t-6.5 101h286
q-5 -38 12 -56.5t44 -18.5q26 0 45 14t19 33q0 24 -27 33t-67 12.5t-87.5 6t-87.5 13.5t-67 35.5t-27 71.5q0 53 24.5 96t73 73t121.5 46.5t169 16.5q84 0 141 -14t90.5 -43.5t46.5 -76t8 -111.5h-286q5 41 -5.5 58t-33.5 17q-24 0 -43 -14t-19 -33q0 -24 27 -33t67.5 -12.5
t87.5 -6t87.5 -13.5t67.5 -35.5t27 -71.5q0 -95 -80.5 -157t-245.5 -73z" />
    <glyph glyph-name="scedilla" unicode="&#x15f;" horiz-adv-x="779" 
d="M428 -48q19 -2 38.5 -6.5t34.5 -13t24.5 -20t9.5 -27.5q0 -24 -19 -42t-49.5 -29t-68.5 -16.5t-76 -5.5q-41 0 -64 5.5t-40 14.5l32 56q16 -8 35 -12t33 -4q17 0 30.5 7t13.5 21t-21 22.5t-69 11.5l55 79q-69 5 -116 21.5t-75.5 46.5t-39 73t-6.5 101h286
q-5 -38 12 -56.5t44 -18.5q26 0 45 14t19 33q0 24 -27 33t-67 12.5t-87.5 6t-87.5 13.5t-67 35.5t-27 71.5q0 53 24.5 96t73 73t121.5 46.5t169 16.5q84 0 141 -14t90.5 -43.5t46.5 -76t8 -111.5h-286q5 41 -5.5 58t-33.5 17q-24 0 -43 -14t-19 -33q0 -24 27 -33t67.5 -12.5
t87.5 -6t87.5 -13.5t67.5 -35.5t27 -71.5q0 -95 -80.5 -157t-245.5 -73z" />
    <glyph glyph-name="Scaron" unicode="&#x160;" horiz-adv-x="779" 
d="M521 366q5 41 -5.5 58t-33.5 17q-24 0 -43 -14t-19 -33q0 -24 27 -33t67.5 -12.5t87.5 -6t87.5 -13.5t67.5 -35.5t27 -71.5q0 -53 -24 -96t-72.5 -73t-122.5 -46.5t-173 -16.5q-88 0 -147.5 14.5t-95.5 44.5t-49.5 76t-9.5 110h286q-5 -38 12 -56.5t44 -18.5
q26 0 45.5 14t19.5 33q0 24 -27 33t-67.5 12.5t-87.5 6t-87.5 13.5t-67.5 35.5t-27 71.5q0 53 24.5 96t73 73t121.5 46.5t169 16.5q84 0 141 -14t90.5 -43.5t46.5 -76t8 -111.5h-286zM604 660h-150l-166 160h210l47 -87l83 87h210z" />
    <glyph glyph-name="scaron" unicode="&#x161;" horiz-adv-x="779" 
d="M521 366q5 41 -5.5 58t-33.5 17q-24 0 -43 -14t-19 -33q0 -24 27 -33t67.5 -12.5t87.5 -6t87.5 -13.5t67.5 -35.5t27 -71.5q0 -53 -24 -96t-72.5 -73t-122.5 -46.5t-173 -16.5q-88 0 -147.5 14.5t-95.5 44.5t-49.5 76t-9.5 110h286q-5 -38 12 -56.5t44 -18.5
q26 0 45.5 14t19.5 33q0 24 -27 33t-67.5 12.5t-87.5 6t-87.5 13.5t-67.5 35.5t-27 71.5q0 53 24.5 96t73 73t121.5 46.5t169 16.5q84 0 141 -14t90.5 -43.5t46.5 -76t8 -111.5h-286zM615 660h-150l-166 160h210l47 -87l83 87h210z" />
    <glyph glyph-name="Tcommaaccent" unicode="&#x162;" horiz-adv-x="732" 
d="M240 0l85 400h-180l-17 200h708l-43 -200h-180l-85 -400h-288zM434 -66q-19 -94 -73 -139t-131 -45l13 60q36 0 56.5 18t25.5 46h-64l17 80h160z" />
    <glyph glyph-name="tcommaaccent" unicode="&#x163;" horiz-adv-x="732" 
d="M240 0l85 400h-180l-17 200h708l-43 -200h-180l-85 -400h-288zM434 -66q-19 -94 -73 -139t-131 -45l13 60q36 0 56.5 18t25.5 46h-64l17 80h160z" />
    <glyph glyph-name="Tcaron" unicode="&#x164;" horiz-adv-x="732" 
d="M240 0l85 400h-180l-17 200h708l-43 -200h-180l-85 -400h-288zM600 660h-150l-166 160h210l47 -87l83 87h210z" />
    <glyph glyph-name="tcaron" unicode="&#x165;" horiz-adv-x="732" 
d="M240 0l85 400h-180l-17 200h708l-43 -200h-180l-85 -400h-288zM600 660h-150l-166 160h210l47 -87l83 87h210z" />
    <glyph glyph-name="Tbar" unicode="&#x166;" horiz-adv-x="732" 
d="M240 0l61 285h-100l11 50h100l13 65h-180l-17 200h708l-43 -200h-180l-13 -65h100l-11 -50h-100l-61 -285h-288z" />
    <glyph glyph-name="tbar" unicode="&#x167;" horiz-adv-x="732" 
d="M240 0l61 285h-100l11 50h100l13 65h-180l-17 200h708l-43 -200h-180l-13 -65h100l-11 -50h-100l-61 -285h-288z" />
    <glyph glyph-name="Utilde" unicode="&#x168;" horiz-adv-x="824" 
d="M828 300q-32 -151 -134.5 -230.5t-283.5 -79.5t-249.5 79.5t-36.5 230.5l42 200l-9 100h318l-63 -300q-7 -33 -11 -59t-2 -44t13 -27.5t34 -9.5t38 9.5t25 27.5t17 44t14 59l64 300h287zM818 816q-9 -42 -26.5 -71.5t-40.5 -48.5t-50.5 -27.5t-56.5 -8.5q-34 0 -53.5 9.5
t-34.5 21.5t-31 21.5t-43 9.5q-28 0 -44.5 -13.5t-24.5 -48.5h-94q9 42 28.5 72t44.5 49.5t52.5 29t52.5 9.5q30 0 48 -10.5t33.5 -22.5t32 -22.5t43.5 -10.5q26 0 44 13.5t26 48.5h94z" />
    <glyph glyph-name="utilde" unicode="&#x169;" horiz-adv-x="824" 
d="M828 300q-32 -151 -134.5 -230.5t-283.5 -79.5t-249.5 79.5t-36.5 230.5l42 200l-9 100h318l-63 -300q-7 -33 -11 -59t-2 -44t13 -27.5t34 -9.5t38 9.5t25 27.5t17 44t14 59l64 300h287zM818 816q-9 -42 -26.5 -71.5t-40.5 -48.5t-50.5 -27.5t-56.5 -8.5q-34 0 -53.5 9.5
t-34.5 21.5t-31 21.5t-43 9.5q-28 0 -44.5 -13.5t-24.5 -48.5h-94q9 42 28.5 72t44.5 49.5t52.5 29t52.5 9.5q30 0 48 -10.5t33.5 -22.5t32 -22.5t43.5 -10.5q26 0 44 13.5t26 48.5h94z" />
    <glyph glyph-name="Umacron" unicode="&#x16a;" horiz-adv-x="824" 
d="M828 300q-32 -151 -134.5 -230.5t-283.5 -79.5t-249.5 79.5t-36.5 230.5l42 200l-9 100h318l-63 -300q-7 -33 -11 -59t-2 -44t13 -27.5t34 -9.5t38 9.5t25 27.5t17 44t14 59l64 300h287zM307 680l26 120h500l-26 -120h-500z" />
    <glyph glyph-name="umacron" unicode="&#x16b;" horiz-adv-x="824" 
d="M828 300q-32 -151 -134.5 -230.5t-283.5 -79.5t-249.5 79.5t-36.5 230.5l42 200l-9 100h318l-63 -300q-7 -33 -11 -59t-2 -44t13 -27.5t34 -9.5t38 9.5t25 27.5t17 44t14 59l64 300h287zM307 680l26 120h500l-26 -120h-500z" />
    <glyph glyph-name="Ubreve" unicode="&#x16c;" horiz-adv-x="824" 
d="M828 300q-32 -151 -134.5 -230.5t-283.5 -79.5t-249.5 79.5t-36.5 230.5l42 200l-9 100h318l-63 -300q-7 -33 -11 -59t-2 -44t13 -27.5t34 -9.5t38 9.5t25 27.5t17 44t14 59l64 300h287zM824 820q-15 -39 -34 -68.5t-49.5 -50t-76 -30.5t-112.5 -10q-68 0 -109 10
t-63 30.5t-28.5 50t-4.5 68.5h176q-3 -28 7.5 -43t43.5 -15t48.5 15t25.5 43h176z" />
    <glyph glyph-name="ubreve" unicode="&#x16d;" horiz-adv-x="824" 
d="M828 300q-32 -151 -134.5 -230.5t-283.5 -79.5t-249.5 79.5t-36.5 230.5l42 200l-9 100h318l-63 -300q-7 -33 -11 -59t-2 -44t13 -27.5t34 -9.5t38 9.5t25 27.5t17 44t14 59l64 300h287zM824 820q-15 -39 -34 -68.5t-49.5 -50t-76 -30.5t-112.5 -10q-68 0 -109 10
t-63 30.5t-28.5 50t-4.5 68.5h176q-3 -28 7.5 -43t43.5 -15t48.5 15t25.5 43h176z" />
    <glyph glyph-name="Uring" unicode="&#x16e;" horiz-adv-x="824" 
d="M828 300q-32 -151 -134.5 -230.5t-283.5 -79.5t-249.5 79.5t-36.5 230.5l42 200l-9 100h318l-63 -300q-7 -33 -11 -59t-2 -44t13 -27.5t34 -9.5t38 9.5t25 27.5t17 44t14 59l64 300h287zM656 755q0 -20 -9 -38.5t-23.5 -32t-33.5 -21.5t-39 -8q-31 0 -50 20.5t-19 49.5
q0 20 9 38.5t23.5 32t33.5 21.5t39 8q31 0 50 -20.5t19 -49.5zM615 748q0 16 -9.5 26.5t-26.5 10.5q-21 0 -38.5 -15.5t-17.5 -37.5q0 -16 10 -26.5t27 -10.5q21 0 38 15.5t17 37.5z" />
    <glyph glyph-name="uring" unicode="&#x16f;" horiz-adv-x="824" 
d="M828 300q-32 -151 -134.5 -230.5t-283.5 -79.5t-249.5 79.5t-36.5 230.5l42 200l-9 100h318l-63 -300q-7 -33 -11 -59t-2 -44t13 -27.5t34 -9.5t38 9.5t25 27.5t17 44t14 59l64 300h287zM656 755q0 -20 -9 -38.5t-23.5 -32t-33.5 -21.5t-39 -8q-31 0 -50 20.5t-19 49.5
q0 20 9 38.5t23.5 32t33.5 21.5t39 8q31 0 50 -20.5t19 -49.5zM615 748q0 16 -9.5 26.5t-26.5 10.5q-21 0 -38.5 -15.5t-17.5 -37.5q0 -16 10 -26.5t27 -10.5q21 0 38 15.5t17 37.5z" />
    <glyph glyph-name="Uhungarumlaut" unicode="&#x170;" horiz-adv-x="824" 
d="M828 300q-32 -151 -134.5 -230.5t-283.5 -79.5t-249.5 79.5t-36.5 230.5l42 200l-9 100h318l-63 -300q-7 -33 -11 -59t-2 -44t13 -27.5t34 -9.5t38 9.5t25 27.5t17 44t14 59l64 300h287zM405 660h-110l154 160h240zM685 660h-110l154 160h240z" />
    <glyph glyph-name="uhungarumlaut" unicode="&#x171;" horiz-adv-x="824" 
d="M828 300q-32 -151 -134.5 -230.5t-283.5 -79.5t-249.5 79.5t-36.5 230.5l42 200l-9 100h318l-63 -300q-7 -33 -11 -59t-2 -44t13 -27.5t34 -9.5t38 9.5t25 27.5t17 44t14 59l64 300h287zM405 660h-110l154 160h240zM685 660h-110l154 160h240z" />
    <glyph glyph-name="Uogonek" unicode="&#x172;" horiz-adv-x="824" 
d="M581 -189q-24 -16 -54 -23.5t-55 -7.5q-44 0 -68.5 20t-24.5 61q0 19 6 38t15 36t19 31.5t18 24.5q-7 -1 -13.5 -1h-13.5q-181 0 -249.5 79.5t-36.5 230.5l42 200l-9 100h319l-64 -300q-7 -33 -11 -59t-1.5 -44t13 -27.5t33.5 -9.5t38 9.5t25 27.5t17 44t14 59l64 300
h288l-64 -300q-26 -125 -100 -201t-201 -99q-6 -8 -13 -17.5t-13.5 -20t-11 -22.5t-4.5 -24q0 -18 11 -30t32 -12q14 0 26.5 3t20.5 5z" />
    <glyph glyph-name="uogonek" unicode="&#x173;" horiz-adv-x="824" 
d="M581 -189q-24 -16 -54 -23.5t-55 -7.5q-44 0 -68.5 20t-24.5 61q0 19 6 38t15 36t19 31.5t18 24.5q-7 -1 -13.5 -1h-13.5q-181 0 -249.5 79.5t-36.5 230.5l42 200l-9 100h319l-64 -300q-7 -33 -11 -59t-1.5 -44t13 -27.5t33.5 -9.5t38 9.5t25 27.5t17 44t14 59l64 300
h288l-64 -300q-26 -125 -100 -201t-201 -99q-6 -8 -13 -17.5t-13.5 -20t-11 -22.5t-4.5 -24q0 -18 11 -30t32 -12q14 0 26.5 3t20.5 5z" />
    <glyph glyph-name="Wcircumflex" unicode="&#x174;" horiz-adv-x="1194" 
d="M664 0l-2 304l-132 -304h-288l-104 600h300l-1 -300l-13 -145l49 145l107 300h290l-21 -300l-13 -145l49 145l127 300h300l-370 -600h-278zM802 660l-47 87l-83 -87h-210l234 160h150l166 -160h-210z" />
    <glyph glyph-name="wcircumflex" unicode="&#x175;" horiz-adv-x="1194" 
d="M664 0l-2 304l-132 -304h-288l-104 600h300l-1 -300l-13 -145l49 145l107 300h290l-21 -300l-13 -145l49 145l127 300h300l-370 -600h-278zM802 660l-47 87l-83 -87h-210l234 160h150l166 -160h-210z" />
    <glyph glyph-name="Ycircumflex" unicode="&#x176;" horiz-adv-x="852" 
d="M281 0l45 211l-188 389h330l23 -190l-10 -155l56 155l103 190h330l-356 -389l-45 -211h-288zM631 660l-47 87l-83 -87h-210l234 160h150l166 -160h-210z" />
    <glyph glyph-name="ycircumflex" unicode="&#x177;" horiz-adv-x="852" 
d="M281 0l45 211l-188 389h330l23 -190l-10 -155l56 155l103 190h330l-356 -389l-45 -211h-288zM631 660l-47 87l-83 -87h-210l234 160h150l166 -160h-210z" />
    <glyph glyph-name="Ydieresis" unicode="&#x178;" horiz-adv-x="852" 
d="M281 0l45 211l-188 389h330l23 -190l-10 -155l56 155l103 190h330l-356 -389l-45 -211h-288zM366 660l34 160h170l-34 -160h-170zM596 660l34 160h170l-34 -160h-170z" />
    <glyph glyph-name="Zacute" unicode="&#x179;" horiz-adv-x="760" 
d="M50 0l36 170l310 256v4h-250l37 170h655l-37 -170l-309 -256l-1 -4h260l-36 -170h-665zM544 660h-140l154 160h270z" />
    <glyph glyph-name="zacute" unicode="&#x17a;" horiz-adv-x="760" 
d="M50 0l36 170l310 256v4h-250l37 170h655l-37 -170l-309 -256l-1 -4h260l-36 -170h-665zM544 660h-140l154 160h270z" />
    <glyph glyph-name="Zdotaccent" unicode="&#x17b;" horiz-adv-x="760" 
d="M50 0l36 170l310 256v4h-250l37 170h655l-37 -170l-309 -256l-1 -4h260l-36 -170h-665zM435 660l34 160h170l-34 -160h-170z" />
    <glyph glyph-name="zdotaccent" unicode="&#x17c;" horiz-adv-x="760" 
d="M50 0l36 170l310 256v4h-250l37 170h655l-37 -170l-309 -256l-1 -4h260l-36 -170h-665zM435 660l34 160h170l-34 -160h-170z" />
    <glyph glyph-name="Zcaron" unicode="&#x17d;" horiz-adv-x="760" 
d="M50 0l36 170l310 256v4h-250l37 170h655l-37 -170l-309 -256l-1 -4h260l-36 -170h-665zM595 660h-150l-166 160h210l47 -87l83 87h210z" />
    <glyph glyph-name="zcaron" unicode="&#x17e;" horiz-adv-x="760" 
d="M50 0l36 170l310 256v4h-250l37 170h655l-37 -170l-309 -256l-1 -4h260l-36 -170h-665zM595 660h-150l-166 160h210l47 -87l83 87h210z" />
    <glyph glyph-name="florin" unicode="&#x192;" horiz-adv-x="536" 
d="M458 215l-33 -155q-32 -151 -139.5 -230.5t-298.5 -79.5l36 170q30 0 48.5 9.5t31 27.5t20 44t14.5 59l33 155h-83l-15 170h134l12 55q33 151 140 230.5t298 79.5l-37 -170q-30 0 -48.5 -9.5t-30.5 -27.5t-19.5 -44t-14.5 -59l-12 -55h114l-36 -170h-114z" />
    <glyph glyph-name="Ohorn" unicode="&#x1a0;" horiz-adv-x="804" 
d="M1007 622q8 -13 11 -32.5t3 -36.5q0 -63 -34 -104t-100 -41q-22 0 -41 6q1 -8 1.5 -21.5t0.5 -23.5q0 -86 -26 -156t-81 -119.5t-139.5 -76.5t-201.5 -27q-163 0 -239.5 61.5t-76.5 177.5q0 87 26 157t81 120t139.5 77t201.5 27q97 0 160 -23.5t106 -58.5q11 -8 29 -16.5
t39 -8.5q26 0 46.5 18.5t20.5 55.5q0 7 -0.5 13.5t-0.5 10.5zM436 160q30 0 53 10.5t39.5 35t25 64t8.5 96.5q0 34 -14 54t-52 20q-30 0 -53 -10.5t-39.5 -35t-25 -64t-8.5 -96.5q0 -34 14 -54t52 -20z" />
    <glyph glyph-name="ohorn" unicode="&#x1a1;" horiz-adv-x="804" 
d="M1007 622q8 -13 11 -32.5t3 -36.5q0 -63 -34 -104t-100 -41q-22 0 -41 6q1 -8 1.5 -21.5t0.5 -23.5q0 -86 -26 -156t-81 -119.5t-139.5 -76.5t-201.5 -27q-163 0 -239.5 61.5t-76.5 177.5q0 87 26 157t81 120t139.5 77t201.5 27q97 0 160 -23.5t106 -58.5q11 -8 29 -16.5
t39 -8.5q26 0 46.5 18.5t20.5 55.5q0 7 -0.5 13.5t-0.5 10.5zM436 160q30 0 53 10.5t39.5 35t25 64t8.5 96.5q0 34 -14 54t-52 20q-30 0 -53 -10.5t-39.5 -35t-25 -64t-8.5 -96.5q0 -34 14 -54t52 -20z" />
    <glyph glyph-name="Uhorn" unicode="&#x1af;" horiz-adv-x="824" 
d="M828 300q-32 -151 -134.5 -230.5t-283.5 -79.5t-249.5 79.5t-36.5 230.5l42 200l-9 100h319l-64 -300q-7 -33 -11 -59t-1.5 -44t13 -27.5t33.5 -9.5t38 9.5t25 27.5t17 44t14 59l64 300h287l-19 -92q15 -5 30 -5q26 0 46.5 18.5t20.5 55.5q0 7 -0.5 13.5t-0.5 10.5l75 21
q8 -13 11 -32.5t3 -36.5q0 -63 -34 -104t-100 -41q-21 0 -39 8t-28 16z" />
    <glyph glyph-name="uhorn" unicode="&#x1b0;" horiz-adv-x="824" 
d="M828 300q-32 -151 -134.5 -230.5t-283.5 -79.5t-249.5 79.5t-36.5 230.5l42 200l-9 100h319l-64 -300q-7 -33 -11 -59t-1.5 -44t13 -27.5t33.5 -9.5t38 9.5t25 27.5t17 44t14 59l64 300h287l-19 -92q15 -5 30 -5q26 0 46.5 18.5t20.5 55.5q0 7 -0.5 13.5t-0.5 10.5l75 21
q8 -13 11 -32.5t3 -36.5q0 -63 -34 -104t-100 -41q-21 0 -39 8t-28 16z" />
    <glyph glyph-name="AEacute" unicode="&#x1fc;" horiz-adv-x="980" 
d="M438 0l21 100h-97l-52 -100h-300l314 499l-8 101h762l-37 -170h-224l-9 -45h164l-36 -170h-164l-10 -45h224l-36 -170h-512zM533 445h-33l-69 -175h64zM686 660h-140l154 160h270z" />
    <glyph glyph-name="aeacute" unicode="&#x1fd;" horiz-adv-x="1236" 
d="M830 278q-6 -28 -7.5 -50t3 -37t17 -23t35.5 -8q37 0 56.5 19.5t30.5 55.5h286q-43 -121 -143 -183t-266 -62q-88 0 -144.5 22t-87.5 65q-28 -28 -60.5 -45t-68.5 -26.5t-76 -12.5t-83 -3q-71 0 -117.5 11.5t-74.5 30.5t-39 44t-11 52q0 61 21 99.5t55.5 61t78 31.5
t89.5 12.5t89.5 4.5t78 6.5t55.5 19t21 41.5q0 15 -11.5 25.5t-34.5 10.5q-34 0 -59.5 -20t-36.5 -55h-288q23 64 57.5 110t84.5 76t118 44.5t158 14.5q66 0 117.5 -9.5t88.5 -26.5q44 17 96.5 26.5t115.5 9.5q186 0 257 -79.5t39 -230.5l-6 -22h-434zM993 366
q4 35 -6.5 54.5t-48.5 19.5t-57 -19.5t-31 -54.5h143zM532 235q-32 -1 -60 -2.5t-48.5 -6t-32.5 -13.5t-12 -24q0 -9 5.5 -14.5t14.5 -9t19.5 -4.5t20.5 -1q32 0 56 18t37 57zM800 660h-140l154 160h270z" />
    <glyph glyph-name="Oslashacute" unicode="&#x1fe;" horiz-adv-x="804" 
d="M796 530q26 -27 38.5 -69.5t12.5 -90.5q0 -86 -26 -156.5t-80.5 -120t-139 -76.5t-201.5 -27q-135 0 -212 40l-95 -79l-40 49l82 68q-26 28 -38.5 70t-12.5 90q0 87 26 157.5t81 120.5t139.5 77t201.5 27q135 0 212 -41l97 80l40 -49zM555 413q-7 13 -20.5 20t-38.5 7
q-30 0 -49 -9.5t-31 -27.5t-19.5 -44t-14.5 -59l-7 -35zM376 185q8 -13 22 -19t38 -6q30 0 49 9.5t31 27.5t19.5 44t14.5 59l6 33zM571 660h-140l154 160h270z" />
    <glyph glyph-name="oslashacute" unicode="&#x1ff;" horiz-adv-x="804" 
d="M796 530q26 -27 38.5 -69.5t12.5 -90.5q0 -86 -26 -156.5t-80.5 -120t-139 -76.5t-201.5 -27q-135 0 -212 40l-95 -79l-40 49l82 68q-26 28 -38.5 70t-12.5 90q0 87 26 157.5t81 120.5t139.5 77t201.5 27q135 0 212 -41l97 80l40 -49zM555 413q-7 13 -20.5 20t-38.5 7
q-30 0 -49 -9.5t-31 -27.5t-19.5 -44t-14.5 -59l-7 -35zM376 185q8 -13 22 -19t38 -6q30 0 49 9.5t31 27.5t19.5 44t14.5 59l6 33zM570 660h-140l154 160h270z" />
    <glyph glyph-name="Scommaaccent" unicode="&#x218;" horiz-adv-x="779" 
d="M521 366q5 41 -5.5 58t-33.5 17q-24 0 -43 -14t-19 -33q0 -24 27 -33t67.5 -12.5t87.5 -6t87.5 -13.5t67.5 -35.5t27 -71.5q0 -53 -24 -96t-72.5 -73t-122.5 -46.5t-173 -16.5q-88 0 -147.5 14.5t-95.5 44.5t-49.5 76t-9.5 110h286q-5 -38 12 -56.5t44 -18.5
q26 0 45.5 14t19.5 33q0 24 -27 33t-67.5 12.5t-87.5 6t-87.5 13.5t-67.5 35.5t-27 71.5q0 53 24.5 96t73 73t121.5 46.5t169 16.5q84 0 141 -14t90.5 -43.5t46.5 -76t8 -111.5h-286zM458 -66q-19 -94 -73 -139t-131 -45l13 60q36 0 56.5 18t25.5 46h-64l17 80h160z" />
    <glyph glyph-name="scommaaccent" unicode="&#x219;" horiz-adv-x="779" 
d="M521 366q5 41 -5.5 58t-33.5 17q-24 0 -43 -14t-19 -33q0 -24 27 -33t67.5 -12.5t87.5 -6t87.5 -13.5t67.5 -35.5t27 -71.5q0 -53 -24 -96t-72.5 -73t-122.5 -46.5t-173 -16.5q-88 0 -147.5 14.5t-95.5 44.5t-49.5 76t-9.5 110h286q-5 -38 12 -56.5t44 -18.5
q26 0 45.5 14t19.5 33q0 24 -27 33t-67.5 12.5t-87.5 6t-87.5 13.5t-67.5 35.5t-27 71.5q0 53 24.5 96t73 73t121.5 46.5t169 16.5q84 0 141 -14t90.5 -43.5t46.5 -76t8 -111.5h-286zM458 -66q-19 -94 -73 -139t-131 -45l13 60q36 0 56.5 18t25.5 46h-64l17 80h160z" />
    <glyph glyph-name="circumflex" unicode="&#x2c6;" horiz-adv-x="670" 
d="M540 660l-47 87l-83 -87h-210l234 160h150l166 -160h-210z" />
    <glyph glyph-name="caron" unicode="&#x2c7;" horiz-adv-x="670" 
d="M550 660h-150l-166 160h210l47 -87l83 87h210z" />
    <glyph glyph-name="breve" unicode="&#x2d8;" horiz-adv-x="537" 
d="M681 820q-15 -39 -34 -68.5t-49.5 -50t-76 -30.5t-112.5 -10q-68 0 -109 10t-63 30.5t-28.5 50t-4.5 68.5h176q-3 -28 7.5 -43t43.5 -15t48.5 15t25.5 43h176z" />
    <glyph glyph-name="dotaccent" unicode="&#x2d9;" horiz-adv-x="290" 
d="M200 660l34 160h170l-34 -160h-170z" />
    <glyph glyph-name="ring" unicode="&#x2da;" horiz-adv-x="290" 
d="M389 755q0 -20 -9 -38.5t-23.5 -32t-33.5 -21.5t-39 -8q-31 0 -50 20.5t-19 49.5q0 20 9 38.5t23.5 32t33.5 21.5t39 8q31 0 50 -20.5t19 -49.5zM348 748q0 16 -9.5 26.5t-26.5 10.5q-21 0 -38.5 -15.5t-17.5 -37.5q0 -16 10 -26.5t27 -10.5q21 0 38 15.5t17 37.5z" />
    <glyph glyph-name="ogonek" unicode="&#x2db;" horiz-adv-x="314" 
d="M223 -189q-23 -16 -53 -23.5t-55 -7.5q-45 0 -69 20t-24 61q0 22 7.5 43.5t18.5 40t22 33t19 22.5h81q-6 -8 -13 -17.5t-13.5 -20t-11 -22.5t-4.5 -24q0 -18 11 -30t32 -12q14 0 26.5 3t20.5 5z" />
    <glyph glyph-name="tilde" unicode="&#x2dc;" horiz-adv-x="586" 
d="M699 816q-9 -42 -26.5 -71.5t-40.5 -48.5t-50.5 -27.5t-56.5 -8.5q-34 0 -53.5 9.5t-34.5 21.5t-31 21.5t-43 9.5q-28 0 -44.5 -13.5t-24.5 -48.5h-94q9 42 28.5 72t44.5 49.5t52.5 29t52.5 9.5q30 0 48 -10.5t33.5 -22.5t32 -22.5t43.5 -10.5q26 0 44 13.5t26 48.5h94z
" />
    <glyph glyph-name="hungarumlaut" unicode="&#x2dd;" horiz-adv-x="760" 
d="M310 660h-110l154 160h240zM590 660h-110l154 160h240z" />
    <glyph glyph-name="afii10023" unicode="&#x401;" horiz-adv-x="702" 
d="M60 0l106 500l-8 100h642l-37 -170h-324l-9 -45h264l-36 -170h-264l-10 -45h324l-36 -170h-612zM291 660l34 160h170l-34 -160h-170zM521 660l34 160h170l-34 -160h-170z" />
    <glyph glyph-name="afii10051" unicode="&#x402;" horiz-adv-x="860" 
d="M468 0l37 170h38q16 0 29.5 9t13.5 29q0 14 -8.5 20.5t-21.5 6.5h-88l-50 -235h-288l92 430h-80l-14 170h594l-36 -170h-176l-10 -45h88q144 0 216.5 -36t72.5 -117q0 -119 -91 -175.5t-280 -56.5h-38z" />
    <glyph glyph-name="afii10052" unicode="&#x403;" horiz-adv-x="644" 
d="M60 0l106 500l-8 100h604l-37 -170h-286l-91 -430h-288zM483 660h-140l154 160h270z" />
    <glyph glyph-name="afii10053" unicode="&#x404;" horiz-adv-x="792" 
d="M555 365q3 35 -10 55t-55 20t-63 -18.5t-33 -51.5h105l-30 -139h-105q-2 -34 11 -52.5t55 -18.5t63.5 19.5t33.5 55.5h286q-44 -120 -147 -182.5t-272 -62.5q-163 0 -239.5 61.5t-76.5 177.5q0 87 26 157t81 120t139.5 77t201.5 27q169 0 245.5 -63t69.5 -182h-286z" />
    <glyph glyph-name="afii10054" unicode="&#x405;" horiz-adv-x="779" 
d="M521 366q5 41 -5.5 58t-33.5 17q-17 0 -31.5 -7.5t-22.5 -18.5t-6.5 -23.5t16.5 -21.5q19 -12 52 -15t72 -4.5t79 -4.5t72.5 -14t53 -34t20.5 -64q0 -52 -24.5 -96.5t-74 -77.5t-123.5 -51.5t-172 -18.5q-88 0 -148 14.5t-96 44.5t-49.5 76t-9.5 110h286q-5 -38 12 -56.5
t44 -18.5q19 0 34.5 7.5t23.5 18.5t6 23.5t-17 21.5q-19 12 -52 15t-72 4.5t-79 4.5t-72.5 14.5t-53 34.5t-20.5 64q0 52 25 96.5t74.5 77t122 51t168.5 18.5q85 0 142 -14t91 -43.5t46.5 -76t7.5 -111.5h-286z" />
    <glyph glyph-name="afii10055" unicode="&#x406;" horiz-adv-x="408" 
d="M60 0l106 500l-8 100h318l-128 -600h-288z" />
    <glyph glyph-name="afii10056" unicode="&#x407;" horiz-adv-x="408" 
d="M60 0l106 500l-8 100h318l-128 -600h-288zM145 660l34 160h170l-34 -160h-170zM375 660l34 160h170l-34 -160h-170z" />
    <glyph glyph-name="afii10057" unicode="&#x408;" horiz-adv-x="794" 
d="M798 300q-32 -151 -134.5 -230.5t-283.5 -79.5t-249.5 79.5t-36.5 230.5h288q-7 -33 -11 -59t-2 -44t13 -27.5t34 -9.5t38 9.5t25 27.5t17 44t14 59l42 200l-9 100h319z" />
    <glyph glyph-name="afii10058" unicode="&#x409;" horiz-adv-x="1174" 
d="M456 0l91 430h-69l-30 -120q-22 -75 -57 -133t-88 -97t-125 -59.5t-168 -20.5l36 170q31 0 49.5 9.5t30 27.5t19.5 44t19 59l56 190l-8 100h660l-34 -160q106 0 175.5 -14t110 -38t57 -56.5t16.5 -69.5q0 -61 -24 -109.5t-78 -82.5t-140.5 -52t-210.5 -18h-288zM780 170
q33 0 57 2t39 8.5t22 19t7 33.5q0 23 -23 30t-81 7z" />
    <glyph glyph-name="afii10059" unicode="&#x40a;" horiz-adv-x="1190" 
d="M472 0l46 215h-124l-46 -215h-288l106 500l-8 100h318l-46 -215h124l46 215h288l-34 -160q106 0 175.5 -14t110 -38t57 -56.5t16.5 -69.5q0 -61 -24 -109.5t-78 -82.5t-140.5 -52t-210.5 -18h-288zM796 170q33 0 57 2t39 8.5t22 19t7 33.5q0 23 -23 30t-81 7z" />
    <glyph glyph-name="afii10060" unicode="&#x40b;" horiz-adv-x="890" 
d="M543 0l35 165q5 22 2.5 36t-13.5 21.5t-32.5 10t-54.5 2.5h-12l-50 -235h-288l92 430h-80l-14 170h594l-36 -170h-176l-10 -45h88q162 0 234 -44t50 -145l-42 -196h-287z" />
    <glyph glyph-name="afii10061" unicode="&#x40c;" horiz-adv-x="802" 
d="M60 0l106 500l-8 100h318l-128 -600h-288zM472 0l-56 300l160 300h300l-160 -301l56 -299h-300zM486 660h-140l154 160h270z" />
    <glyph glyph-name="afii10062" unicode="&#x40e;" horiz-adv-x="832" 
d="M607 172q-33 -40 -70 -72t-86.5 -54t-115 -34t-155.5 -12l37 170q33 0 52.5 3t29 8t11 11.5t-2.5 14.5l-169 393h330l23 -190l-8 -155l54 155l83 190h330zM828 820q-15 -39 -34 -68.5t-49.5 -50t-76 -30.5t-112.5 -10q-68 0 -109 10t-63 30.5t-28.5 50t-4.5 68.5h176
q-3 -28 7.5 -43t43.5 -15t48.5 15t25.5 43h176z" />
    <glyph glyph-name="afii10145" unicode="&#x40f;" horiz-adv-x="820" 
d="M554 0l-32 -150h-288l32 150h-206l106 500l-8 100h318l-92 -430h124l92 430h288l-128 -600h-206z" />
    <glyph glyph-name="afii10017" unicode="&#x410;" horiz-adv-x="812" 
d="M502 0l-10 100h-130l-52 -100h-300l314 499l-8 101h362l124 -600h-300zM502 445h-2l-69 -175h64z" />
    <glyph glyph-name="afii10018" unicode="&#x411;" horiz-adv-x="790" 
d="M60 0l106 500l-8 100h694l-37 -170h-376l-9 -45h88q144 0 216.5 -36t72.5 -117q0 -119 -91 -175.5t-280 -56.5h-376zM398 235l-14 -65h88q17 0 30.5 9t13.5 29q0 14 -8.5 20.5t-21.5 6.5h-88z" />
    <glyph glyph-name="afii10019" unicode="&#x412;" horiz-adv-x="812" 
d="M60 0l106 500l-8 100h410q133 0 199 -39t66 -114q0 -51 -23.5 -86.5t-83.5 -57.5q81 -25 81 -94q0 -98 -91 -153.5t-276 -55.5h-380zM398 235l-14 -65h92q17 0 30.5 9t13.5 29q0 14 -8.5 20.5t-21.5 6.5h-92zM439 430l-13 -65h92q16 0 29.5 10t13.5 29q0 14 -8.5 20
t-21.5 6h-92z" />
    <glyph glyph-name="afii10020" unicode="&#x413;" horiz-adv-x="644" 
d="M60 0l106 500l-8 100h604l-37 -170h-286l-91 -430h-288z" />
    <glyph glyph-name="afii10021" unicode="&#x414;" horiz-adv-x="831" 
d="M619 -150l-28 150h-351l-92 -150h-170l68 320h81l207 327l-9 103h362l89 -430h81l-68 -320h-170zM503 300l7 145l-53 -145l-60 -130h109z" />
    <glyph glyph-name="afii10022" unicode="&#x415;" horiz-adv-x="702" 
d="M60 0l106 500l-8 100h642l-37 -170h-324l-9 -45h264l-36 -170h-264l-10 -45h324l-36 -170h-612z" />
    <glyph glyph-name="afii10024" unicode="&#x416;" horiz-adv-x="1196" 
d="M454 0l128 600h288l-128 -600h-288zM866 0l-56 300l160 300h300l-160 -301l56 -299h-300zM30 0l184 299l-32 301h300l32 -300l-184 -300h-300z" />
    <glyph glyph-name="afii10025" unicode="&#x417;" horiz-adv-x="759" 
d="M682 303q47 -17 68.5 -39t21.5 -56q0 -44 -25 -83.5t-73.5 -69.5t-121.5 -47.5t-169 -17.5q-162 0 -236.5 58.5t-66.5 186.5h286q-2 -21 2 -35.5t12 -23.5t19.5 -12.5t24.5 -3.5q25 0 42.5 11t24.5 24.5t2 24.5t-24 11h-60l30 139h50q19 0 29.5 11t10 24.5t-12.5 24.5
t-37 11q-27 0 -45.5 -17t-29.5 -58h-286q46 130 141 187.5t250 57.5q76 0 133 -13t94.5 -36t56 -54.5t18.5 -67.5q0 -28 -8 -48t-24 -35t-40.5 -27t-56.5 -23v-4z" />
    <glyph glyph-name="afii10026" unicode="&#x418;" horiz-adv-x="860" 
d="M512 0l38 180l36 120h-4l-174 -300h-348l106 500l-8 100h318l-39 -180l-35 -120h4l174 300h348l-128 -600h-288z" />
    <glyph glyph-name="afii10027" unicode="&#x419;" horiz-adv-x="860" 
d="M512 0l38 180l36 120h-4l-174 -300h-348l106 500l-8 100h318l-39 -180l-35 -120h4l174 300h348l-128 -600h-288zM842 820q-15 -39 -34 -68.5t-49.5 -50t-76 -30.5t-112.5 -10q-68 0 -109 10t-63 30.5t-28.5 50t-4.5 68.5h176q-3 -28 7.5 -43t43.5 -15t48.5 15t25.5 43
h176z" />
    <glyph glyph-name="afii10028" unicode="&#x41a;" horiz-adv-x="802" 
d="M60 0l106 500l-8 100h318l-128 -600h-288zM472 0l-56 300l160 300h300l-160 -301l56 -299h-300z" />
    <glyph glyph-name="afii10029" unicode="&#x41b;" horiz-adv-x="812" 
d="M502 0l-9 300l8 145l-54 -145l-137 -300h-300l314 497l-8 103h362l124 -600h-300z" />
    <glyph glyph-name="afii10030" unicode="&#x41c;" horiz-adv-x="1040" 
d="M692 0l38 180l36 120h-4l-174 -300h-136l-46 300h-4l-16 -120l-38 -180h-288l106 500l-8 100h378l46 -300h4l174 300l348 1l-128 -601h-288z" />
    <glyph glyph-name="afii10031" unicode="&#x41d;" horiz-adv-x="820" 
d="M472 0l46 215h-124l-46 -215h-288l106 500l-8 100h318l-46 -215h124l46 215h288l-128 -600h-288z" />
    <glyph glyph-name="afii10032" unicode="&#x41e;" horiz-adv-x="792" 
d="M842 371q0 -87 -26 -157t-81 -120t-139.5 -77t-201.5 -27q-163 0 -239.5 61.5t-76.5 177.5q0 87 26 157t81 120t139.5 77t201.5 27q162 0 239 -61.5t77 -177.5zM430 160q30 0 53 10.5t39.5 35t25 64t8.5 96.5q0 34 -14 54t-52 20q-30 0 -53 -10.5t-39.5 -35t-25 -64
t-8.5 -96.5q0 -34 14 -54t52 -20z" />
    <glyph glyph-name="afii10033" unicode="&#x41f;" horiz-adv-x="820" 
d="M472 0l91 430h-124l-91 -430h-288l106 500l-8 100h730l-128 -600h-288z" />
    <glyph glyph-name="afii10034" unicode="&#x420;" horiz-adv-x="772" 
d="M60 0l106 500l-8 100h318q105 0 173.5 -15t109 -40.5t57 -60.5t16.5 -75q0 -68 -25 -121.5t-79.5 -91t-142 -57t-211.5 -19.5l-26 -120h-288zM410 290q33 0 57.5 3t40.5 12.5t24 28t8 48.5t-22.5 39t-78.5 9z" />
    <glyph glyph-name="afii10035" unicode="&#x421;" horiz-adv-x="792" 
d="M555 365q3 35 -10 55t-55 20q-30 0 -53 -10.5t-39.5 -35t-25 -64t-8.5 -96.5q0 -34 14 -54t52 -20q42 0 63.5 19.5t33.5 55.5h286q-22 -60 -55.5 -106t-83.5 -76.5t-119 -46.5t-161 -16q-163 0 -239.5 61.5t-76.5 177.5q0 87 26 157t81 120t139.5 77t201.5 27
q92 0 154.5 -16t99 -47t51 -76.5t10.5 -105.5h-286z" />
    <glyph glyph-name="afii10036" unicode="&#x422;" horiz-adv-x="732" 
d="M240 0l85 400h-180l-17 200h708l-43 -200h-180l-85 -400h-288z" />
    <glyph glyph-name="afii10037" unicode="&#x423;" horiz-adv-x="832" 
d="M607 172q-33 -40 -70 -72t-86.5 -54t-115 -34t-155.5 -12l37 170q33 0 52.5 3t29 8t11 11.5t-2.5 14.5l-169 393h330l23 -190l-8 -155l54 155l83 190h330z" />
    <glyph glyph-name="afii10038" unicode="&#x424;" horiz-adv-x="1096" 
d="M404 0l17 80q-99 0 -165 11t-105 32.5t-55 53t-16 71.5q0 73 23 124.5t74 84t132.5 47.5t198.5 16l-7 80h318l-17 -80q99 0 165 -11t105 -32.5t55 -53t16 -71.5q0 -73 -23.5 -124.5t-75 -84.5t-134.5 -48t-201 -15l-17 -80h-288zM478 350q-60 0 -82.5 -13.5t-22.5 -50.5
q0 -19 17 -27.5t67 -8.5zM745 250q60 0 82.5 13.5t22.5 50.5q0 19 -17 27.5t-67 8.5z" />
    <glyph glyph-name="afii10039" unicode="&#x425;" horiz-adv-x="800" 
d="M490 0l-42 225l-138 -225h-300l184 299l-32 301h300l22 -207l110 207h300l-160 -301l56 -299h-300z" />
    <glyph glyph-name="afii10040" unicode="&#x426;" horiz-adv-x="845" 
d="M638 -150l-28 150h-550l106 500l-8 100h318l-92 -430h124l92 430h288l-92 -430h80l-68 -320h-170z" />
    <glyph glyph-name="afii10041" unicode="&#x427;" horiz-adv-x="808" 
d="M460 0l25 120q-125 0 -199 19t-110.5 51.5t-43.5 76t4 93.5l30 140l-9 100h318l-51 -240q-5 -22 -2.5 -36t13.5 -21.5t32 -10t54 -2.5l66 310h288l-127 -600h-288z" />
    <glyph glyph-name="afii10042" unicode="&#x428;" horiz-adv-x="1232" 
d="M60 0l106 500l-8 100h318l-92 -430h124l92 430h288l-92 -430h124l92 430h288l-128 -600h-1112z" />
    <glyph glyph-name="afii10043" unicode="&#x429;" horiz-adv-x="1257" 
d="M1050 -150l-28 150h-962l106 500l-8 100h318l-92 -430h124l92 430h288l-92 -430h124l92 430h288l-92 -430h80l-68 -320h-170z" />
    <glyph glyph-name="afii10044" unicode="&#x42a;" horiz-adv-x="908" 
d="M190 0l85 400h-130l-17 200h478l-34 -160q106 0 175.5 -14t110.5 -38t57 -56.5t16 -69.5q0 -61 -24 -109.5t-78 -82.5t-140.5 -52t-210.5 -18h-288zM515 170q33 0 56.5 2t38.5 8.5t22 19t7 33.5q0 23 -22.5 30t-80.5 7z" />
    <glyph glyph-name="afii10045" unicode="&#x42b;" horiz-adv-x="1156" 
d="M60 0l106 500l-8 100h318l-34 -160q106 0 175.5 -14t110 -38t57 -56.5t16.5 -69.5q0 -61 -24 -109.5t-78 -82.5t-140.5 -52t-210.5 -18h-288zM384 170q33 0 57 2t39 8.5t22 19t7 33.5q0 23 -23 30t-81 7zM808 0l106 500l-8 100h318l-128 -600h-288z" />
    <glyph glyph-name="afii10046" unicode="&#x42c;" horiz-adv-x="778" 
d="M60 0l106 500l-8 100h318l-34 -160q106 0 175.5 -14t110 -38t57 -56.5t16.5 -69.5q0 -61 -24 -109.5t-78 -82.5t-140.5 -52t-210.5 -18h-288zM384 170q33 0 57 2t39 8.5t22 19t7 33.5q0 23 -23 30t-81 7z" />
    <glyph glyph-name="afii10047" unicode="&#x42d;" horiz-adv-x="799" 
d="M422 231l30 139h104q2 33 -11 51.5t-54 18.5q-42 0 -63.5 -20t-33.5 -55h-286q43 119 146 182t273 63q162 0 239 -61.5t77 -177.5q0 -87 -26 -157t-81 -120t-139.5 -77t-201.5 -27q-170 0 -246.5 62.5t-68.5 182.5h286q-3 -36 10 -55.5t55 -19.5t63 18.5t33 52.5h-105z
" />
    <glyph glyph-name="afii10048" unicode="&#x42e;" horiz-adv-x="1153" 
d="M60 0l106 500l-8 100h318l-46 -215h39q46 110 147 167.5t265 57.5q163 0 239.5 -61.5t76.5 -177.5q0 -87 -26 -157t-81 -120t-139.5 -77t-201.5 -27q-163 0 -240.5 57.5t-75.5 167.5h-39l-46 -215h-288zM785 160q30 0 53 10.5t39.5 35t25 64t8.5 96.5q0 34 -14 54t-52 20
q-30 0 -53 -10.5t-39.5 -35t-25 -64t-8.5 -96.5q0 -34 14 -54t52 -20z" />
    <glyph glyph-name="afii10049" unicode="&#x42f;" horiz-adv-x="797" 
d="M449 0l34 160h-55l-98 -160h-300l133 218q-26 20 -37.5 51t-11.5 66q0 70 25 120t80 82.5t143 47.5t215 15h288l-128 -600h-288zM540 430q-36 0 -61.5 -2t-41.5 -8.5t-23.5 -19t-7.5 -32.5q0 -24 25 -31t88 -7z" />
    <glyph glyph-name="afii10065" unicode="&#x430;" horiz-adv-x="850" 
d="M660 0q-53 0 -77 24t-29 75h-3q-23 -36 -48.5 -57.5t-54 -33t-60.5 -15t-66 -3.5q-71 0 -117.5 11.5t-74.5 30.5t-39 44t-11 52q0 61 22 99.5t57.5 60.5t81 31.5t93 13t93 4.5t81 6t57.5 18t22 41q0 16 -16 27t-49 11q-34 0 -59.5 -20t-36.5 -55h-288q23 64 57.5 110
t84.5 76t118 44.5t158 14.5q92 0 157.5 -15.5t104.5 -44t53 -67.5t4 -86l-38 -177q-10 -50 20 -50h20l-37 -170h-180zM553 236q-36 -2 -67.5 -3t-55.5 -5.5t-37.5 -13.5t-13.5 -25q0 -9 5.5 -14.5t14.5 -9t19.5 -4.5t20.5 -1q42 0 70.5 18t43.5 58z" />
    <glyph glyph-name="afii10066" unicode="&#x431;" horiz-adv-x="790" 
d="M60 0l106 500l-8 100h694l-37 -170h-376l-9 -45h88q144 0 216.5 -36t72.5 -117q0 -119 -91 -175.5t-280 -56.5h-376zM398 235l-14 -65h88q17 0 30.5 9t13.5 29q0 14 -8.5 20.5t-21.5 6.5h-88z" />
    <glyph glyph-name="afii10067" unicode="&#x432;" horiz-adv-x="812" 
d="M60 0l106 500l-8 100h410q133 0 199 -39t66 -114q0 -51 -23.5 -86.5t-83.5 -57.5q81 -25 81 -94q0 -98 -91 -153.5t-276 -55.5h-380zM398 235l-14 -65h92q17 0 30.5 9t13.5 29q0 14 -8.5 20.5t-21.5 6.5h-92zM439 430l-13 -65h92q16 0 29.5 10t13.5 29q0 14 -8.5 20
t-21.5 6h-92z" />
    <glyph glyph-name="afii10068" unicode="&#x433;" horiz-adv-x="644" 
d="M60 0l106 500l-8 100h604l-37 -170h-286l-91 -430h-288z" />
    <glyph glyph-name="afii10069" unicode="&#x434;" horiz-adv-x="831" 
d="M619 -150l-28 150h-351l-92 -150h-170l68 320h81l207 327l-9 103h362l89 -430h81l-68 -320h-170zM503 300l7 145l-53 -145l-60 -130h109z" />
    <glyph glyph-name="afii10070" unicode="&#x435;" horiz-adv-x="792" 
d="M372 278q-5 -28 -6 -50t5 -37t20 -23t40 -8q42 0 63.5 19.5t33.5 55.5h286q-44 -120 -147 -182.5t-272 -62.5q-163 0 -239.5 61.5t-76.5 177.5q0 87 26 157t81 120t139.5 77t201.5 27q191 0 265.5 -79.5t40.5 -230.5l-5 -22h-456zM556 366q3 35 -10 54.5t-55 19.5
q-43 0 -64.5 -19.5t-33.5 -54.5h163z" />
    <glyph glyph-name="afii10072" unicode="&#x436;" horiz-adv-x="1196" 
d="M454 0l128 600h288l-128 -600h-288zM866 0l-56 300l160 300h300l-160 -301l56 -299h-300zM30 0l184 299l-32 301h300l32 -300l-184 -300h-300z" />
    <glyph glyph-name="afii10073" unicode="&#x437;" horiz-adv-x="759" 
d="M682 303q47 -17 68.5 -39t21.5 -56q0 -44 -25 -83.5t-73.5 -69.5t-121.5 -47.5t-169 -17.5q-162 0 -236.5 58.5t-66.5 186.5h286q-2 -21 2 -35.5t12 -23.5t19.5 -12.5t24.5 -3.5q25 0 42.5 11t24.5 24.5t2 24.5t-24 11h-60l30 139h50q19 0 29.5 11t10 24.5t-12.5 24.5
t-37 11q-27 0 -45.5 -17t-29.5 -58h-286q46 130 141 187.5t250 57.5q76 0 133 -13t94.5 -36t56 -54.5t18.5 -67.5q0 -28 -8 -48t-24 -35t-40.5 -27t-56.5 -23v-4z" />
    <glyph glyph-name="afii10074" unicode="&#x438;" horiz-adv-x="860" 
d="M512 0l38 180l36 120h-4l-174 -300h-348l106 500l-8 100h318l-39 -180l-35 -120h4l174 300h348l-128 -600h-288z" />
    <glyph glyph-name="afii10075" unicode="&#x439;" horiz-adv-x="860" 
d="M512 0l38 180l36 120h-4l-174 -300h-348l106 500l-8 100h318l-39 -180l-35 -120h4l174 300h348l-128 -600h-288zM842 820q-15 -39 -34 -68.5t-49.5 -50t-76 -30.5t-112.5 -10q-68 0 -109 10t-63 30.5t-28.5 50t-4.5 68.5h176q-3 -28 7.5 -43t43.5 -15t48.5 15t25.5 43
h176z" />
    <glyph glyph-name="afii10076" unicode="&#x43a;" horiz-adv-x="802" 
d="M60 0l106 500l-8 100h318l-128 -600h-288zM472 0l-56 300l160 300h300l-160 -301l56 -299h-300z" />
    <glyph glyph-name="afii10077" unicode="&#x43b;" horiz-adv-x="812" 
d="M502 0l-9 300l8 145l-54 -145l-137 -300h-300l314 497l-8 103h362l124 -600h-300z" />
    <glyph glyph-name="afii10078" unicode="&#x43c;" horiz-adv-x="1040" 
d="M692 0l38 180l36 120h-4l-174 -300h-136l-46 300h-4l-16 -120l-38 -180h-288l106 500l-8 100h378l46 -300h4l174 300l348 1l-128 -601h-288z" />
    <glyph glyph-name="afii10079" unicode="&#x43d;" horiz-adv-x="820" 
d="M472 0l46 215h-124l-46 -215h-288l106 500l-8 100h318l-46 -215h124l46 215h288l-128 -600h-288z" />
    <glyph glyph-name="afii10080" unicode="&#x43e;" horiz-adv-x="792" 
d="M842 371q0 -87 -26 -157t-81 -120t-139.5 -77t-201.5 -27q-163 0 -239.5 61.5t-76.5 177.5q0 87 26 157t81 120t139.5 77t201.5 27q162 0 239 -61.5t77 -177.5zM430 160q30 0 53 10.5t39.5 35t25 64t8.5 96.5q0 34 -14 54t-52 20q-30 0 -53 -10.5t-39.5 -35t-25 -64
t-8.5 -96.5q0 -34 14 -54t52 -20z" />
    <glyph glyph-name="afii10081" unicode="&#x43f;" horiz-adv-x="820" 
d="M472 0l91 430h-124l-91 -430h-288l106 500l-8 100h730l-128 -600h-288z" />
    <glyph glyph-name="afii10082" unicode="&#x440;" horiz-adv-x="772" 
d="M60 0l106 500l-8 100h318q105 0 173.5 -15t109 -40.5t57 -60.5t16.5 -75q0 -68 -25 -121.5t-79.5 -91t-142 -57t-211.5 -19.5l-26 -120h-288zM410 290q33 0 57.5 3t40.5 12.5t24 28t8 48.5t-22.5 39t-78.5 9z" />
    <glyph glyph-name="afii10083" unicode="&#x441;" horiz-adv-x="792" 
d="M555 365q3 35 -10 55t-55 20q-30 0 -53 -10.5t-39.5 -35t-25 -64t-8.5 -96.5q0 -34 14 -54t52 -20q42 0 63.5 19.5t33.5 55.5h286q-44 -120 -147 -182.5t-272 -62.5q-163 0 -239.5 61.5t-76.5 177.5q0 87 26 157t81 120t139.5 77t201.5 27q169 0 245.5 -63t69.5 -182
h-286z" />
    <glyph glyph-name="afii10084" unicode="&#x442;" horiz-adv-x="732" 
d="M240 0l85 400h-180l-17 200h708l-43 -200h-180l-85 -400h-288z" />
    <glyph glyph-name="afii10085" unicode="&#x443;" horiz-adv-x="832" 
d="M607 172q-33 -40 -70 -72t-86.5 -54t-115 -34t-155.5 -12l37 170q33 0 52.5 3t29 8t11 11.5t-2.5 14.5l-169 393h330l23 -190l-8 -155l54 155l83 190h330z" />
    <glyph glyph-name="afii10086" unicode="&#x444;" horiz-adv-x="1096" 
d="M404 0l17 80q-99 0 -165 11t-105 32.5t-55 53t-16 71.5q0 73 23 124.5t74 84t132.5 47.5t198.5 16l-7 80h318l-17 -80q99 0 165 -11t105 -32.5t55 -53t16 -71.5q0 -73 -23.5 -124.5t-75 -84.5t-134.5 -48t-201 -15l-17 -80h-288zM478 350q-60 0 -82.5 -13.5t-22.5 -50.5
q0 -19 17 -27.5t67 -8.5zM745 250q60 0 82.5 13.5t22.5 50.5q0 19 -17 27.5t-67 8.5z" />
    <glyph glyph-name="afii10087" unicode="&#x445;" horiz-adv-x="800" 
d="M490 0l-42 225l-138 -225h-300l184 299l-32 301h300l22 -207l110 207h300l-160 -301l56 -299h-300z" />
    <glyph glyph-name="afii10088" unicode="&#x446;" horiz-adv-x="845" 
d="M638 -150l-28 150h-550l106 500l-8 100h318l-92 -430h124l92 430h288l-92 -430h80l-68 -320h-170z" />
    <glyph glyph-name="afii10089" unicode="&#x447;" horiz-adv-x="808" 
d="M460 0l25 120q-125 0 -199 19t-110.5 51.5t-43.5 76t4 93.5l30 140l-9 100h318l-51 -240q-5 -22 -2.5 -36t13.5 -21.5t32 -10t54 -2.5l66 310h288l-127 -600h-288z" />
    <glyph glyph-name="afii10090" unicode="&#x448;" horiz-adv-x="1232" 
d="M60 0l106 500l-8 100h318l-92 -430h124l92 430h288l-92 -430h124l92 430h288l-128 -600h-1112z" />
    <glyph glyph-name="afii10091" unicode="&#x449;" horiz-adv-x="1257" 
d="M1050 -150l-28 150h-962l106 500l-8 100h318l-92 -430h124l92 430h288l-92 -430h124l92 430h288l-92 -430h80l-68 -320h-170z" />
    <glyph glyph-name="afii10092" unicode="&#x44a;" horiz-adv-x="908" 
d="M190 0l85 400h-130l-17 200h478l-34 -160q106 0 175.5 -14t110.5 -38t57 -56.5t16 -69.5q0 -61 -24 -109.5t-78 -82.5t-140.5 -52t-210.5 -18h-288zM515 170q33 0 56.5 2t38.5 8.5t22 19t7 33.5q0 23 -22.5 30t-80.5 7z" />
    <glyph glyph-name="afii10093" unicode="&#x44b;" horiz-adv-x="1156" 
d="M60 0l106 500l-8 100h318l-34 -160q106 0 175.5 -14t110 -38t57 -56.5t16.5 -69.5q0 -61 -24 -109.5t-78 -82.5t-140.5 -52t-210.5 -18h-288zM384 170q33 0 57 2t39 8.5t22 19t7 33.5q0 23 -23 30t-81 7zM808 0l106 500l-8 100h318l-128 -600h-288z" />
    <glyph glyph-name="afii10094" unicode="&#x44c;" horiz-adv-x="778" 
d="M60 0l106 500l-8 100h318l-34 -160q106 0 175.5 -14t110 -38t57 -56.5t16.5 -69.5q0 -61 -24 -109.5t-78 -82.5t-140.5 -52t-210.5 -18h-288zM384 170q33 0 57 2t39 8.5t22 19t7 33.5q0 23 -23 30t-81 7z" />
    <glyph glyph-name="afii10095" unicode="&#x44d;" horiz-adv-x="799" 
d="M422 231l30 139h104q2 33 -11 51.5t-54 18.5q-42 0 -63.5 -20t-33.5 -55h-286q43 119 146 182t273 63q162 0 239 -61.5t77 -177.5q0 -87 -26 -157t-81 -120t-139.5 -77t-201.5 -27q-170 0 -246.5 62.5t-68.5 182.5h286q-3 -36 10 -55.5t55 -19.5t63 18.5t33 52.5h-105z
" />
    <glyph glyph-name="afii10096" unicode="&#x44e;" horiz-adv-x="1153" 
d="M60 0l106 500l-8 100h318l-46 -215h39q46 110 147 167.5t265 57.5q163 0 239.5 -61.5t76.5 -177.5q0 -87 -26 -157t-81 -120t-139.5 -77t-201.5 -27q-163 0 -240.5 57.5t-75.5 167.5h-39l-46 -215h-288zM785 160q30 0 53 10.5t39.5 35t25 64t8.5 96.5q0 34 -14 54t-52 20
q-30 0 -53 -10.5t-39.5 -35t-25 -64t-8.5 -96.5q0 -34 14 -54t52 -20z" />
    <glyph glyph-name="afii10097" unicode="&#x44f;" horiz-adv-x="797" 
d="M449 0l34 160h-55l-98 -160h-300l133 218q-26 20 -37.5 51t-11.5 66q0 70 25 120t80 82.5t143 47.5t215 15h288l-128 -600h-288zM540 430q-36 0 -61.5 -2t-41.5 -8.5t-23.5 -19t-7.5 -32.5q0 -24 25 -31t88 -7z" />
    <glyph glyph-name="afii10071" unicode="&#x451;" horiz-adv-x="792" 
d="M372 278q-5 -28 -6 -50t5 -37t20 -23t40 -8q42 0 63.5 19.5t33.5 55.5h286q-44 -120 -147 -182.5t-272 -62.5q-163 0 -239.5 61.5t-76.5 177.5q0 87 26 157t81 120t139.5 77t201.5 27q191 0 265.5 -79.5t40.5 -230.5l-5 -22h-456zM556 366q3 35 -10 54.5t-55 19.5
q-43 0 -64.5 -19.5t-33.5 -54.5h163zM336 660l34 160h170l-34 -160h-170zM566 660l34 160h170l-34 -160h-170z" />
    <glyph glyph-name="afii10099" unicode="&#x452;" horiz-adv-x="860" 
d="M468 0l37 170h38q16 0 29.5 9t13.5 29q0 14 -8.5 20.5t-21.5 6.5h-88l-50 -235h-288l92 430h-80l-14 170h594l-36 -170h-176l-10 -45h88q144 0 216.5 -36t72.5 -117q0 -119 -91 -175.5t-280 -56.5h-38z" />
    <glyph glyph-name="afii10100" unicode="&#x453;" horiz-adv-x="644" 
d="M60 0l106 500l-8 100h604l-37 -170h-286l-91 -430h-288zM483 660h-140l154 160h270z" />
    <glyph glyph-name="afii10101" unicode="&#x454;" horiz-adv-x="792" 
d="M555 365q3 35 -10 55t-55 20t-63 -18.5t-33 -51.5h105l-30 -139h-105q-2 -34 11 -52.5t55 -18.5t63.5 19.5t33.5 55.5h286q-44 -120 -147 -182.5t-272 -62.5q-163 0 -239.5 61.5t-76.5 177.5q0 87 26 157t81 120t139.5 77t201.5 27q169 0 245.5 -63t69.5 -182h-286z" />
    <glyph glyph-name="afii10102" unicode="&#x455;" horiz-adv-x="779" 
d="M521 366q5 41 -5.5 58t-33.5 17q-17 0 -31.5 -7.5t-22.5 -18.5t-6.5 -23.5t16.5 -21.5q19 -12 52 -15t72 -4.5t79 -4.5t72.5 -14t53 -34t20.5 -64q0 -52 -24.5 -96.5t-74 -77.5t-123.5 -51.5t-172 -18.5q-88 0 -148 14.5t-96 44.5t-49.5 76t-9.5 110h286q-5 -38 12 -56.5
t44 -18.5q19 0 34.5 7.5t23.5 18.5t6 23.5t-17 21.5q-19 12 -52 15t-72 4.5t-79 4.5t-72.5 14.5t-53 34.5t-20.5 64q0 52 25 96.5t74.5 77t122 51t168.5 18.5q85 0 142 -14t91 -43.5t46.5 -76t7.5 -111.5h-286z" />
    <glyph glyph-name="afii10103" unicode="&#x456;" horiz-adv-x="408" 
d="M60 0l106 500l-8 100h318l-128 -600h-288z" />
    <glyph glyph-name="afii10104" unicode="&#x457;" horiz-adv-x="408" 
d="M60 0l106 500l-8 100h318l-128 -600h-288zM145 660l34 160h170l-34 -160h-170zM375 660l34 160h170l-34 -160h-170z" />
    <glyph glyph-name="afii10105" unicode="&#x458;" horiz-adv-x="794" 
d="M798 300q-32 -151 -134.5 -230.5t-283.5 -79.5t-249.5 79.5t-36.5 230.5h288q-7 -33 -11 -59t-2 -44t13 -27.5t34 -9.5t38 9.5t25 27.5t17 44t14 59l42 200l-9 100h319z" />
    <glyph glyph-name="afii10106" unicode="&#x459;" horiz-adv-x="1174" 
d="M456 0l91 430h-69l-30 -120q-22 -75 -57 -133t-88 -97t-125 -59.5t-168 -20.5l36 170q31 0 49.5 9.5t30 27.5t19.5 44t19 59l56 190l-8 100h660l-34 -160q106 0 175.5 -14t110 -38t57 -56.5t16.5 -69.5q0 -61 -24 -109.5t-78 -82.5t-140.5 -52t-210.5 -18h-288zM780 170
q33 0 57 2t39 8.5t22 19t7 33.5q0 23 -23 30t-81 7z" />
    <glyph glyph-name="afii10107" unicode="&#x45a;" horiz-adv-x="1190" 
d="M472 0l46 215h-124l-46 -215h-288l106 500l-8 100h318l-46 -215h124l46 215h288l-34 -160q106 0 175.5 -14t110 -38t57 -56.5t16.5 -69.5q0 -61 -24 -109.5t-78 -82.5t-140.5 -52t-210.5 -18h-288zM796 170q33 0 57 2t39 8.5t22 19t7 33.5q0 23 -23 30t-81 7z" />
    <glyph glyph-name="afii10108" unicode="&#x45b;" horiz-adv-x="890" 
d="M543 0l35 165q5 22 2.5 36t-13.5 21.5t-32.5 10t-54.5 2.5h-12l-50 -235h-288l92 430h-80l-14 170h594l-36 -170h-176l-10 -45h88q162 0 234 -44t50 -145l-42 -196h-287z" />
    <glyph glyph-name="afii10109" unicode="&#x45c;" horiz-adv-x="802" 
d="M60 0l106 500l-8 100h318l-128 -600h-288zM472 0l-56 300l160 300h300l-160 -301l56 -299h-300zM533 660h-140l154 160h270z" />
    <glyph glyph-name="afii10110" unicode="&#x45e;" horiz-adv-x="832" 
d="M607 172q-33 -40 -70 -72t-86.5 -54t-115 -34t-155.5 -12l37 170q33 0 52.5 3t29 8t11 11.5t-2.5 14.5l-169 393h330l23 -190l-8 -155l54 155l83 190h330zM828 820q-15 -39 -34 -68.5t-49.5 -50t-76 -30.5t-112.5 -10q-68 0 -109 10t-63 30.5t-28.5 50t-4.5 68.5h176
q-3 -28 7.5 -43t43.5 -15t48.5 15t25.5 43h176z" />
    <glyph glyph-name="afii10193" unicode="&#x45f;" horiz-adv-x="820" 
d="M554 0l-32 -150h-288l32 150h-206l106 500l-8 100h318l-92 -430h124l92 430h288l-128 -600h-206z" />
    <glyph glyph-name="afii10146" unicode="&#x462;" horiz-adv-x="860" 
d="M130 0l92 430h-80l-14 170h594l-36 -170h-176l-10 -45h88q144 0 216.5 -36t72.5 -117q0 -119 -91 -175.5t-280 -56.5h-376zM468 235l-13 -65h88q16 0 29.5 9t13.5 29q0 14 -8.5 20.5t-21.5 6.5h-88z" />
    <glyph glyph-name="afii10194" unicode="&#x463;" horiz-adv-x="860" 
d="M130 0l92 430h-80l-14 170h594l-36 -170h-176l-10 -45h88q144 0 216.5 -36t72.5 -117q0 -119 -91 -175.5t-280 -56.5h-376zM468 235l-13 -65h88q16 0 29.5 9t13.5 29q0 14 -8.5 20.5t-21.5 6.5h-88z" />
    <glyph glyph-name="afii10050" unicode="&#x490;" horiz-adv-x="644" 
d="M60 0l106 500l-8 100h374l91 150h170l-68 -320h-286l-91 -430h-288z" />
    <glyph glyph-name="afii10098" unicode="&#x491;" horiz-adv-x="644" 
d="M60 0l106 500l-8 100h374l91 150h170l-68 -320h-286l-91 -430h-288z" />
    <glyph glyph-name="afii10846" unicode="&#x4d9;" horiz-adv-x="804" 
d="M113 365q43 120 146 182.5t273 62.5q162 0 239 -61.5t77 -177.5q0 -87 -26 -157t-81 -120t-139.5 -77t-201.5 -27q-191 0 -265 79.5t-41 230.5l7 32h456q4 25 5 45.5t-5.5 34t-21 21t-40.5 7.5q-42 0 -63 -19.5t-33 -55.5h-286zM371 234q-3 -35 10 -54.5t55 -19.5
q43 0 64.5 19.5t33.5 54.5h-163z" />
    <glyph glyph-name="Wgrave" unicode="&#x1e80;" horiz-adv-x="1194" 
d="M664 0l-2 304l-132 -304h-288l-104 600h300l-1 -300l-13 -145l49 145l107 300h290l-21 -300l-13 -145l49 145l127 300h300l-370 -600h-278zM711 660l-216 160h270l86 -160h-140z" />
    <glyph glyph-name="wgrave" unicode="&#x1e81;" horiz-adv-x="1194" 
d="M664 0l-2 304l-132 -304h-288l-104 600h300l-1 -300l-13 -145l49 145l107 300h290l-21 -300l-13 -145l49 145l127 300h300l-370 -600h-278zM703 660l-216 160h270l86 -160h-140z" />
    <glyph glyph-name="Wacute" unicode="&#x1e82;" horiz-adv-x="1194" 
d="M664 0l-2 304l-132 -304h-288l-104 600h300l-1 -300l-13 -145l49 145l107 300h290l-21 -300l-13 -145l49 145l127 300h300l-370 -600h-278zM759 660h-140l154 160h270z" />
    <glyph glyph-name="wacute" unicode="&#x1e83;" horiz-adv-x="1194" 
d="M664 0l-2 304l-132 -304h-288l-104 600h300l-1 -300l-13 -145l49 145l107 300h290l-21 -300l-13 -145l49 145l127 300h300l-370 -600h-278zM760 660h-140l154 160h270z" />
    <glyph glyph-name="Wdieresis" unicode="&#x1e84;" horiz-adv-x="1194" 
d="M664 0l-2 304l-132 -304h-288l-104 600h300l-1 -300l-13 -145l49 145l107 300h290l-21 -300l-13 -145l49 145l127 300h300l-370 -600h-278zM537 660l34 160h170l-34 -160h-170zM767 660l34 160h170l-34 -160h-170z" />
    <glyph glyph-name="wdieresis" unicode="&#x1e85;" horiz-adv-x="1194" 
d="M664 0l-2 304l-132 -304h-288l-104 600h300l-1 -300l-13 -145l49 145l107 300h290l-21 -300l-13 -145l49 145l127 300h300l-370 -600h-278zM537 660l34 160h170l-34 -160h-170zM767 660l34 160h170l-34 -160h-170z" />
    <glyph glyph-name="Ygrave" unicode="&#x1ef2;" horiz-adv-x="852" 
d="M281 0l45 211l-188 389h330l23 -190l-10 -155l56 155l103 190h330l-356 -389l-45 -211h-288zM535 660l-216 160h270l86 -160h-140z" />
    <glyph glyph-name="ygrave" unicode="&#x1ef3;" horiz-adv-x="852" 
d="M281 0l45 211l-188 389h330l23 -190l-10 -155l56 155l103 190h330l-356 -389l-45 -211h-288zM535 660l-216 160h270l86 -160h-140z" />
    <glyph glyph-name="endash" unicode="&#x2013;" horiz-adv-x="584" 
d="M100 215v170h464v-170h-464z" />
    <glyph glyph-name="emdash" unicode="&#x2014;" horiz-adv-x="684" 
d="M100 215v170h564v-170h-564z" />
    <glyph glyph-name="quoteleft" unicode="&#x2018;" horiz-adv-x="307" 
d="M97 220l32 150q25 117 92 173.5t164 56.5l-21 -100q-45 0 -71.5 -22.5t-32.5 -57.5h80l-43 -200h-200z" />
    <glyph glyph-name="quoteright" unicode="&#x2019;" horiz-adv-x="307" 
d="M118 320q45 0 71 22.5t33 57.5h-80l43 200h200l-32 -150q-25 -117 -92 -173.5t-164 -56.5z" />
    <glyph glyph-name="quotesinglbase" unicode="&#x201a;" horiz-adv-x="307" 
d="M34 -80q45 0 71 22.5t33 57.5h-80l43 200h200l-32 -150q-25 -117 -92 -173.5t-164 -56.5z" />
    <glyph glyph-name="quotedblleft" unicode="&#x201c;" horiz-adv-x="567" 
d="M97 220l32 150q25 117 92 173.5t164 56.5l-21 -100q-45 0 -71.5 -22.5t-32.5 -57.5h80l-43 -200h-200zM357 220l32 150q25 117 92 173.5t164 56.5l-21 -100q-45 0 -71.5 -22.5t-32.5 -57.5h80l-43 -200h-200z" />
    <glyph glyph-name="quotedblright" unicode="&#x201d;" horiz-adv-x="567" 
d="M378 320q45 0 71 22.5t33 57.5h-80l43 200h200l-32 -150q-25 -117 -92 -173.5t-164 -56.5zM118 320q45 0 71 22.5t33 57.5h-80l43 200h200l-32 -150q-25 -117 -92 -173.5t-164 -56.5z" />
    <glyph glyph-name="quotedblbase" unicode="&#x201e;" horiz-adv-x="567" 
d="M293 -80q45 0 71 22.5t33 57.5h-80l43 200h200l-32 -150q-25 -117 -92 -173.5t-164 -56.5zM33 -80q45 0 71 22.5t33 57.5h-80l43 200h200l-32 -150q-25 -117 -92 -173.5t-164 -56.5z" />
    <glyph glyph-name="dagger" unicode="&#x2020;" horiz-adv-x="408" 
d="M147 -100l131 615h-147l15 70h147l24 115h70l-24 -115h147l-15 -70h-147l-131 -615h-70z" />
    <glyph glyph-name="daggerdbl" unicode="&#x2021;" horiz-adv-x="408" 
d="M242 15l-24 -115h-70l24 115h-147l15 70h147l91 430h-147l15 70h147l25 115h70l-25 -115h147l-15 -70h-147l-91 -430h147l-15 -70h-147z" />
    <glyph glyph-name="bullet" unicode="&#x2022;" 
d="M351 321q0 -52 -33 -83t-102 -31q-49 0 -72 18.5t-23 53.5q0 52 32 83t103 31q48 0 71.5 -18.5t23.5 -53.5z" />
    <glyph glyph-name="ellipsis" unicode="&#x2026;" horiz-adv-x="960" 
d="M60 0l43 200h200l-43 -200h-200zM380 0l43 200h200l-43 -200h-200zM700 0l43 200h200l-43 -200h-200z" />
    <glyph glyph-name="perthousand" unicode="&#x2030;" horiz-adv-x="1056" 
d="M743 22q-44 -32 -121 -32q-72 0 -107.5 30.5t-35.5 88.5q0 86 52.5 138.5t156.5 52.5q75 0 108 -33q46 33 121 33q72 0 108 -31t36 -88q0 -88 -52 -139.5t-158 -51.5q-76 0 -108 32zM483 492q0 -87 -51 -139.5t-163 -52.5q-76 0 -112 30.5t-36 87.5q0 43 12.5 78.5
t38.5 60.5t66.5 39t96.5 14q76 0 112 -30.5t36 -87.5zM193 30l529 580l49 -40l-530 -580zM287 385q23 0 38.5 23t15.5 83q0 15 -5 24.5t-19 9.5q-23 0 -38.5 -23.5t-15.5 -83.5q0 -15 5 -24t19 -9zM865 75q23 0 38.5 23t15.5 83q0 15 -5 24.5t-19 9.5q-23 0 -38.5 -23.5
t-15.5 -83.5q0 -15 5 -24t19 -9zM645 75q23 0 38.5 23t15.5 83q0 15 -5 24.5t-19 9.5q-23 0 -38.5 -23.5t-15.5 -83.5q0 -15 5 -24t19 -9z" />
    <glyph glyph-name="guilsinglleft" unicode="&#x2039;" horiz-adv-x="406" 
d="M148 84l-24 216l116 216h216l-116 -216l24 -216h-216z" />
    <glyph glyph-name="guilsinglright" unicode="&#x203a;" horiz-adv-x="406" 
d="M78 84l116 216l-24 216h216l24 -216l-116 -216h-216z" />
    <glyph glyph-name="exclamdbl" unicode="&#x203c;" horiz-adv-x="726" 
d="M135 245l23 355h308l-130 -355h-201zM84 0l43 200h200l-43 -200h-200zM493 245l23 355h308l-130 -355h-201zM442 0l43 200h200l-43 -200h-200z" />
    <glyph glyph-name="fraction" unicode="&#x2044;" horiz-adv-x="516" 
d="M-2 -8l598 656l49 -40l-599 -656z" />
    <glyph glyph-name="zerosuperior" unicode="&#x2070;" horiz-adv-x="412" 
d="M507 604q0 -87 -51 -139.5t-163 -52.5q-76 0 -112 30.5t-36 87.5q0 43 12.5 78.5t38.5 60.5t66.5 39t96.5 14q76 0 112 -30.5t36 -87.5zM311 497q23 0 38.5 23t15.5 83q0 15 -5 24.5t-19 9.5q-23 0 -38.5 -23.5t-15.5 -83.5q0 -15 5 -24t19 -9z" />
    <glyph glyph-name="foursuperior" unicode="&#x2074;" horiz-adv-x="419" 
d="M461 464l-10 -47h-144l10 47h-188l16 73l106 180h185l-180 -168h79l9 43l61 50h94l-20 -93h47l-18 -85h-47z" />
    <glyph glyph-name="fivesuperior" unicode="&#x2075;" horiz-adv-x="409" 
d="M323 632l-9 -27q19 8 50 8q59 0 93 -21.5t34 -60.5q0 -25 -12 -46.5t-36.5 -37.5t-62.5 -25.5t-89 -9.5q-86 0 -119.5 30t-28.5 92h143q-3 -37 26 -37q15 0 27 10t12 39q0 8 -4.5 15t-18.5 7q-11 0 -20.5 -3t-11.5 -8h-139l53 160h311l-18 -85h-180z" />
    <glyph glyph-name="sixsuperior" unicode="&#x2076;" horiz-adv-x="416" 
d="M358 600q3 20 -2.5 28.5t-16.5 8.5q-8 0 -16.5 -4.5t-13.5 -15.5q-2 -5 -6 -17t-6 -23q11 5 27 7t37 2q64 0 99.5 -15.5t35.5 -50.5q0 -44 -48 -76t-144 -32q-83 0 -121 29.5t-38 87.5q0 43 12 79t39 61t69.5 39t102.5 14q79 0 109 -28t24 -94h-143zM355 527q0 5 -5 10.5
t-22 5.5t-25.5 -5.5t-11.5 -13.5t1 -20t26 -12q15 0 26 8t11 27z" />
    <glyph glyph-name="sevensuperior" unicode="&#x2077;" horiz-adv-x="348" 
d="M151 417l158 213v2h-165l18 85h328l-18 -85l-159 -215h-162z" />
    <glyph glyph-name="eightsuperior" unicode="&#x2078;" horiz-adv-x="410" 
d="M445 568q45 -16 45 -47q0 -22 -12.5 -42t-37.5 -35t-62 -23.5t-85 -8.5q-81 0 -118.5 24.5t-37.5 60.5q0 27 14.5 43t55.5 28v2q-23 9 -32 19.5t-9 24.5q0 22 12.5 41.5t37 34.5t60.5 23.5t83 8.5q76 0 113.5 -24.5t37.5 -60.5q0 -10 -1 -18.5t-7 -16.5t-19.5 -15.5
t-37.5 -16.5v-2zM351 515q2 9 -8.5 14t-24.5 5q-15 0 -27.5 -5.5t-12.5 -15.5q0 -8 9 -12t23 -4t26.5 4.5t14.5 13.5zM369 619q2 10 -7.5 14t-20.5 4q-14 0 -25 -5t-11 -15q0 -8 8.5 -12t19.5 -4t22.5 4.5t13.5 13.5z" />
    <glyph glyph-name="ninesuperior" unicode="&#x2079;" horiz-adv-x="412" 
d="M286 534q-2 -22 6.5 -30t19.5 -8q8 0 17 4.5t14 15.5q2 6 6.5 17.5t6.5 22.5q-12 -5 -28.5 -6.5t-36.5 -1.5q-62 0 -95.5 15.5t-33.5 51.5q0 51 46 79t137 28q85 0 123.5 -29.5t38.5 -87.5q0 -45 -12.5 -80.5t-39.5 -60.5t-69.5 -38.5t-103.5 -13.5q-83 0 -113.5 29
t-25.5 93h143zM364 625q0 5 -4.5 11t-20.5 6q-13 0 -24 -6t-11 -24q0 -5 4.5 -13.5t18.5 -8.5q18 0 27.5 10.5t9.5 24.5z" />
    <glyph glyph-name="parenleftsuperior" unicode="&#x207d;" horiz-adv-x="251" 
d="M271 368q-18 -24 -41 -21.5t-42.5 23.5t-33 55t-13.5 73q0 62 14 116.5t44.5 95t78 64t113.5 23.5l-18 -85q-17 0 -33.5 -11.5t-30 -38t-22 -70t-8.5 -108.5q0 -28 7.5 -45t25.5 -17z" />
    <glyph glyph-name="parenrightsuperior" unicode="&#x207e;" horiz-adv-x="251" 
d="M120 422q16 0 33 11.5t30.5 38t22 70t8.5 108.5q0 28 -7.5 45t-24.5 17l18 85q78 0 115 -42t37 -119q0 -62 -14 -116.5t-44 -95t-77.5 -64t-114.5 -23.5z" />
    <glyph glyph-name="zeroinferior" unicode="&#x2080;" horiz-adv-x="412" 
d="M394 70q0 -87 -51.5 -139.5t-162.5 -52.5q-76 0 -112 30.5t-36 87.5q0 43 12.5 78.5t38.5 60.5t66.5 39t96.5 14q76 0 112 -30.5t36 -87.5zM198 -37q23 0 38.5 23t15.5 83q0 15 -5 24.5t-19 9.5q-23 0 -38.5 -23.5t-15.5 -83.5q0 -15 5 -24t19 -9z" />
    <glyph glyph-name="oneinferior" unicode="&#x2081;" horiz-adv-x="219" 
d="M20 -117l41 195h-35l13 60l36 5q32 5 48 12t21 28h84l-64 -300h-144z" />
    <glyph glyph-name="twoinferior" unicode="&#x2082;" horiz-adv-x="405" 
d="M6 -117l2 12q9 55 30.5 85t48.5 44.5t55.5 17.5t52 5.5t39 9t15.5 27.5q0 11 -6 15t-14 4q-26 0 -36 -37h-143q11 32 27 55t39.5 38t55 22t74.5 7q75 0 111.5 -24t36.5 -68q0 -34 -12 -53.5t-31 -29.5t-42.5 -13t-47.5 -4.5t-45 -3.5t-35 -9q-10 -5 -13 -15h200l-18 -85
h-344z" />
    <glyph glyph-name="threeinferior" unicode="&#x2083;" horiz-adv-x="409" 
d="M330 34q24 -8 34.5 -19t10.5 -28q0 -22 -12 -41.5t-36.5 -34.5t-61 -24t-84.5 -9q-81 0 -118.5 29t-32.5 93h143q-2 -20 6.5 -28.5t22.5 -8.5t24 5t10 16q0 5 -2 9.5t-9 4.5h-30l15 70h25q9 0 14 7t5 13q0 8 -7.5 11.5t-16.5 3.5q-28 0 -38 -37h-143q23 65 70 93.5
t125 28.5q77 0 114 -24.5t37 -60.5q0 -29 -16 -42.5t-48 -24.5z" />
    <glyph glyph-name="fourinferior" unicode="&#x2084;" horiz-adv-x="419" 
d="M347 -70l-10 -47h-144l10 47h-188l16 73l106 180h185l-180 -168h79l9 43l61 50h94l-20 -93h47l-18 -85h-47z" />
    <glyph glyph-name="fiveinferior" unicode="&#x2085;" horiz-adv-x="409" 
d="M210 98l-9 -27q19 8 50 8q59 0 93 -21.5t34 -60.5q0 -25 -12 -46.5t-36.5 -37.5t-62.5 -25.5t-89 -9.5q-86 0 -119.5 30t-28.5 92h143q-3 -37 26 -37q14 0 26.5 10t12.5 39q0 8 -4.5 15t-18.5 7q-11 0 -20.5 -3t-11.5 -8h-139l53 160h311l-18 -85h-180z" />
    <glyph glyph-name="sixinferior" unicode="&#x2086;" horiz-adv-x="416" 
d="M245 66q3 20 -2.5 28.5t-16.5 8.5q-8 0 -16.5 -4.5t-13.5 -15.5q-2 -5 -6 -17t-6 -23q11 5 27 7t37 2q64 0 99.5 -15.5t35.5 -50.5q0 -44 -47.5 -76t-144.5 -32q-83 0 -121 29.5t-38 87.5q0 43 12 79t39 61t69.5 39t102.5 14q79 0 109 -28t24 -94h-143zM242 -7
q0 5 -5 10.5t-22 5.5t-25.5 -5.5t-11.5 -13.5t1 -20t26 -12q15 0 26 8t11 27z" />
    <glyph glyph-name="seveninferior" unicode="&#x2087;" horiz-adv-x="348" 
d="M38 -117l158 213v2h-165l18 85h328l-18 -85l-159 -215h-162z" />
    <glyph glyph-name="eightinferior" unicode="&#x2088;" horiz-adv-x="410" 
d="M331 34q45 -16 45 -47q0 -22 -12.5 -42t-37.5 -35t-62 -23.5t-85 -8.5q-81 0 -118.5 24.5t-37.5 60.5q0 27 14.5 43t55.5 28v2q-23 9 -32 19.5t-9 24.5q0 22 12.5 41.5t37 34.5t60.5 23.5t83 8.5q76 0 113.5 -24.5t37.5 -60.5q0 -10 -1 -18.5t-7 -16.5t-19.5 -15.5
t-37.5 -16.5v-2zM237 -19q2 9 -8.5 14t-24.5 5q-15 0 -27.5 -5.5t-12.5 -15.5q0 -8 9 -12t23 -4t26.5 4.5t14.5 13.5zM255 85q2 10 -7.5 14t-20.5 4q-14 0 -25 -5t-11 -15q0 -8 8.5 -12t19.5 -4t22.5 4.5t13.5 13.5z" />
    <glyph glyph-name="nineinferior" unicode="&#x2089;" horiz-adv-x="412" 
d="M173 0q-2 -22 6.5 -30t19.5 -8q8 0 17 4.5t14 15.5q2 6 6.5 17.5t6.5 22.5q-12 -5 -28.5 -6.5t-36.5 -1.5q-62 0 -95.5 15.5t-33.5 51.5q0 51 46 79t137 28q85 0 123.5 -29.5t38.5 -87.5q0 -45 -12.5 -80.5t-39.5 -60.5t-69.5 -38.5t-103.5 -13.5q-83 0 -113.5 29
t-25.5 93h143zM251 91q0 5 -4.5 11t-20.5 6q-13 0 -24 -6t-11 -24q0 -5 4.5 -13.5t18.5 -8.5q18 0 27.5 10.5t9.5 24.5z" />
    <glyph glyph-name="parenleftinferior" unicode="&#x208d;" horiz-adv-x="251" 
d="M157 -166q-18 -24 -41 -21.5t-42.5 23.5t-33 55t-13.5 73q0 62 14 116.5t44.5 95t78 64t113.5 23.5l-18 -85q-17 0 -33.5 -11.5t-30 -38t-22 -70t-8.5 -108.5q0 -28 7.5 -45t25.5 -17z" />
    <glyph glyph-name="parenrightinferior" unicode="&#x208e;" horiz-adv-x="251" 
d="M6 -112q16 0 33 11.5t30.5 38t22 70t8.5 108.5q0 28 -7.5 45t-24.5 17l18 85q78 0 115 -42t37 -119q0 -62 -14 -116.5t-44 -95t-77.5 -64t-114.5 -23.5z" />
    <glyph glyph-name="dong" unicode="&#x20ab;" horiz-adv-x="825" 
d="M430 0q-106 0 -175.5 14t-110 38t-57 56.5t-16.5 69.5q0 61 24 109.5t78 82.5t140 52t211 18l9 46h-129l35 70h109l10 44h288l-10 -44h107l-35 -70h-87l-103 -486h-288zM104 -170l26 120h500l-26 -120h-500zM488 270q-33 0 -57 -2t-39 -9t-22 -19t-7 -33q0 -23 23 -30
t80 -7z" />
    <glyph glyph-name="Euro" unicode="&#x20ac;" horiz-adv-x="898" 
d="M660 365q3 35 -10 55t-55 20q-35 0 -55 -13t-33 -37h127l-35 -70h-114l-8 -40h114l-35 -70h-87q2 -24 16.5 -37t49.5 -13q42 0 63.5 19.5t33.5 55.5h286q-22 -60 -55.5 -106t-83.5 -76.5t-119 -46.5t-161 -16q-161 0 -237.5 56t-78.5 164h-108l35 70h79l8 40h-79l35 70
h68q48 108 148.5 164t261.5 56q92 0 154.5 -16t99 -47t51 -76.5t10.5 -105.5h-286z" />
    <glyph glyph-name="afii61352" unicode="&#x2116;" horiz-adv-x="1262" 
d="M452 0l-46 300h-4l-16 -120l-38 -180h-288l106 500l-8 100h378l46 -300h4l15 120l39 180h288l-128 -600h-348zM1334 491q0 -87 -54 -138.5t-170 -51.5q-81 0 -119.5 30.5t-38.5 88.5q0 43 13 78.5t40 60.5t69.5 38.5t101.5 13.5q81 0 119.5 -31t38.5 -89zM1128 386
q29 0 46 22.5t17 79.5q0 17 -7 27.5t-26 10.5q-30 0 -46.5 -23t-16.5 -80q0 -17 7 -27t26 -10zM901 176l17 78h364l-17 -78h-364z" />
    <glyph glyph-name="uni2117" unicode="&#x2117;" horiz-adv-x="590" 
d="M632 452q0 -57 -17 -103.5t-53 -79.5t-92 -51t-133 -18q-107 0 -157.5 40.5t-50.5 117.5q0 57 17 103.5t53 79.5t92 51t133 18q107 0 157.5 -40.5t50.5 -117.5zM389 460q26 0 37 -3t11 -13q0 -17 -13.5 -21.5t-43.5 -4.5zM365 346q54 1 91 8t60 21t33.5 35t10.5 50
q0 17 -7.5 30t-25.5 22t-48 14t-75 5h-134l4 -42l-44 -210h121z" />
    <glyph glyph-name="uni2120" unicode="&#x2120;" horiz-adv-x="562" 
d="M266 590q3 22 -12 22q-8 0 -13 -4t-5 -10q0 -11 17 -12.5t37 -3t37 -8t17 -27.5q0 -32 -28.5 -51t-88.5 -19q-53 0 -73 17.5t-17 55.5h86q-2 -11 3 -16.5t13 -5.5t14 4t6 10q0 11 -17 12.5t-37.5 3t-37.5 8t-17 27.5q0 32 29 51t87 19q51 0 69.5 -17t15.5 -56h-85z
M558 480l4 18q7 35 19 71l4 10h-2l-57 -99h-40l-15 99h-2v-10q-2 -18 -4.5 -35t-6.5 -36l-4 -18h-86l32 150l-3 30h113l14 -90h2l52 90h104l-38 -180h-86z" />
    <glyph glyph-name="uni2121" unicode="&#x2121;" horiz-adv-x="626" 
d="M174 480l25 120h-54l-5 60h213l-13 -60h-54l-25 -120h-87zM331 480l32 150l-3 30h192l-11 -51h-97l-3 -14h79l-11 -51h-79l-2 -13h97l-11 -51h-183zM540 480l32 150l-3 30h96l-27 -129h91l-11 -51h-178z" />
    <glyph glyph-name="trademark" unicode="&#x2122;" horiz-adv-x="524" 
d="M174 480l25 120h-54l-5 60h213l-13 -60h-54l-25 -120h-87zM529 480l11 54l11 36h-1l-52 -90h-41l-14 90h-1l-5 -36l-11 -54h-86l32 150l-3 30h113l14 -90h1l52 90h105l-38 -180h-87z" />
    <glyph glyph-name="estimated" unicode="&#x212e;" horiz-adv-x="773" 
d="M653 115q-46 -54 -115.5 -85.5t-150.5 -31.5q-69 0 -130.5 23.5t-107.5 64.5t-72.5 96t-26.5 118t26.5 118t72.5 96t107.5 64.5t130.5 23.5t130.5 -23.5t107 -64.5t72 -96t26.5 -118v-8h-545q-4 0 -4 -4v-164q0 -11 8 -19q38 -42 91.5 -65.5t114.5 -23.5q65 0 121 26.5
t95 72.5h49zM600 479q0 11 -9 20q-39 39 -91 62t-112 23q-61 0 -113.5 -23.5t-91.5 -64.5q-9 -8 -9 -21v-162q0 -4 4 -4h418q4 0 4 4v166z" />
    <glyph glyph-name="onethird" unicode="&#x2153;" horiz-adv-x="657" 
d="M185 417l41 195h-35l13 60l36 5q32 5 48 12t21 28h84l-64 -300h-144zM28 -8l598 656l49 -40l-599 -656zM578 34q24 -8 34.5 -19t10.5 -28q0 -22 -12 -41.5t-36.5 -34.5t-61 -24t-84.5 -9q-81 0 -118.5 29t-32.5 93h143q-2 -20 6.5 -28.5t22.5 -8.5t24 5t10 16q0 5 -2 9.5
t-9 4.5h-30l15 70h25q9 0 14 7t5 13q0 8 -7.5 11.5t-16.5 3.5q-28 0 -38 -37h-143q23 65 70 93.5t125 28.5q77 0 114 -24.5t37 -60.5q0 -29 -16 -42.5t-48 -24.5z" />
    <glyph glyph-name="twothirds" unicode="&#x2154;" horiz-adv-x="771" 
d="M120 417l2 12q9 55 30.5 85t48.5 44.5t55.5 17.5t52 5.5t39 9t15.5 27.5q0 11 -6 15t-14 4q-26 0 -36 -37h-143q11 32 27 55t39.5 38t55 22t74.5 7q75 0 111.5 -24t36.5 -68q0 -34 -12 -53.5t-31 -29.5t-42.5 -13t-47.5 -4.5t-45 -3.5t-35 -9q-10 -5 -13 -15h200l-18 -85
h-344zM142 -8l598 656l49 -40l-599 -656zM692 34q24 -8 34.5 -19t10.5 -28q0 -22 -12 -41.5t-36.5 -34.5t-61 -24t-84.5 -9q-81 0 -118.5 29t-32.5 93h143q-2 -20 6.5 -28.5t22.5 -8.5t24 5t10 16q0 5 -2 9.5t-9 4.5h-30l15 70h25q9 0 14 7t5 13q0 8 -7.5 11.5t-16.5 3.5
q-28 0 -38 -37h-143q23 65 70 93.5t125 28.5q77 0 114 -24.5t37 -60.5q0 -29 -16 -42.5t-48 -24.5z" />
    <glyph glyph-name="oneeighth" unicode="&#x215b;" horiz-adv-x="658" 
d="M185 417l41 195h-35l13 60l36 5q32 5 48 12t21 28h84l-64 -300h-144zM28 -8l598 656l49 -40l-599 -656zM579 34q45 -16 45 -47q0 -22 -12.5 -42t-37.5 -35t-62 -23.5t-85 -8.5q-81 0 -118.5 24.5t-37.5 60.5q0 27 14.5 43t55.5 28v2q-23 9 -32 19.5t-9 24.5
q0 22 12.5 41.5t37 34.5t60.5 23.5t83 8.5q76 0 113.5 -24.5t37.5 -60.5q0 -10 -1 -18.5t-7 -16.5t-19.5 -15.5t-37.5 -16.5v-2zM485 -19q2 9 -8.5 14t-24.5 5q-15 0 -27.5 -5.5t-12.5 -15.5q0 -8 9 -12t23 -4t26.5 4.5t14.5 13.5zM503 85q2 10 -7.5 14t-20.5 4
q-14 0 -25 -5t-11 -15q0 -8 8.5 -12t19.5 -4t22.5 4.5t13.5 13.5z" />
    <glyph glyph-name="threeeighths" unicode="&#x215c;" horiz-adv-x="787" 
d="M443 568q24 -8 34.5 -19t10.5 -28q0 -22 -12 -41.5t-36.5 -34.5t-61 -24t-84.5 -9q-81 0 -118.5 29t-32.5 93h143q-2 -20 6.5 -28.5t22.5 -8.5t24 5t10 16q0 5 -2 9.5t-9 4.5h-30l15 70h25q9 0 14 7t5 13q0 8 -7.5 11.5t-16.5 3.5q-28 0 -38 -37h-143q23 65 70 93.5
t125 28.5q77 0 114 -24.5t37 -60.5q0 -29 -16 -42.5t-48 -24.5zM132 -8l598 656l49 -40l-599 -656zM708 34q45 -16 45 -47q0 -22 -12.5 -42t-37.5 -35t-62 -23.5t-85 -8.5q-81 0 -118.5 24.5t-37.5 60.5q0 27 14.5 43t55.5 28v2q-23 9 -32 19.5t-9 24.5q0 22 12.5 41.5
t37 34.5t60.5 23.5t83 8.5q76 0 113.5 -24.5t37.5 -60.5q0 -10 -1 -18.5t-7 -16.5t-19.5 -15.5t-37.5 -16.5v-2zM614 -19q2 9 -8.5 14t-24.5 5q-15 0 -27.5 -5.5t-12.5 -15.5q0 -8 9 -12t23 -4t26.5 4.5t14.5 13.5zM632 85q2 10 -7.5 14t-20.5 4q-14 0 -25 -5t-11 -15
q0 -8 8.5 -12t19.5 -4t22.5 4.5t13.5 13.5z" />
    <glyph glyph-name="fiveeighths" unicode="&#x215d;" horiz-adv-x="787" 
d="M323 632l-9 -27q19 8 50 8q59 0 93 -21.5t34 -60.5q0 -25 -12 -46.5t-36.5 -37.5t-62.5 -25.5t-89 -9.5q-86 0 -119.5 30t-28.5 92h143q-3 -37 26 -37q15 0 27 10t12 39q0 8 -4.5 15t-18.5 7q-11 0 -20.5 -3t-11.5 -8h-139l53 160h311l-18 -85h-180zM132 -8l598 656
l49 -40l-599 -656zM708 34q45 -16 45 -47q0 -22 -12.5 -42t-37.5 -35t-62 -23.5t-85 -8.5q-81 0 -118.5 24.5t-37.5 60.5q0 27 14.5 43t55.5 28v2q-23 9 -32 19.5t-9 24.5q0 22 12.5 41.5t37 34.5t60.5 23.5t83 8.5q76 0 113.5 -24.5t37.5 -60.5q0 -10 -1 -18.5t-7 -16.5
t-19.5 -15.5t-37.5 -16.5v-2zM614 -19q2 9 -8.5 14t-24.5 5q-15 0 -27.5 -5.5t-12.5 -15.5q0 -8 9 -12t23 -4t26.5 4.5t14.5 13.5zM632 85q2 10 -7.5 14t-20.5 4q-14 0 -25 -5t-11 -15q0 -8 8.5 -12t19.5 -4t22.5 4.5t13.5 13.5z" />
    <glyph glyph-name="seveneighths" unicode="&#x215e;" horiz-adv-x="735" 
d="M171 417l158 213v2h-165l18 85h328l-18 -85l-159 -215h-162zM80 -8l598 656l49 -40l-599 -656zM656 34q45 -16 45 -47q0 -22 -12.5 -42t-37.5 -35t-62 -23.5t-85 -8.5q-81 0 -118.5 24.5t-37.5 60.5q0 27 14.5 43t55.5 28v2q-23 9 -32 19.5t-9 24.5q0 22 12.5 41.5
t37 34.5t60.5 23.5t83 8.5q76 0 113.5 -24.5t37.5 -60.5q0 -10 -1 -18.5t-7 -16.5t-19.5 -15.5t-37.5 -16.5v-2zM562 -19q2 9 -8.5 14t-24.5 5q-15 0 -27.5 -5.5t-12.5 -15.5q0 -8 9 -12t23 -4t26.5 4.5t14.5 13.5zM580 85q2 10 -7.5 14t-20.5 4q-14 0 -25 -5t-11 -15
q0 -8 8.5 -12t19.5 -4t22.5 4.5t13.5 13.5z" />
    <glyph glyph-name="minus" unicode="&#x2212;" horiz-adv-x="580" 
d="M100 265v70h460v-70h-460z" />
    <glyph glyph-name="filledbox" unicode="&#x25a0;" horiz-adv-x="688" 
d="M43 0v602h602v-602h-602z" />
    <glyph glyph-name="H22073" unicode="&#x25a1;" horiz-adv-x="688" 
d="M43 0v602h602v-602h-602zM619 576h-550v-550h550v550z" />
    <glyph glyph-name="uni25A2" unicode="&#x25a2;" horiz-adv-x="430" 
d="M43 129v344h344v-344h-344zM361 447h-292v-292h292v292z" />
    <glyph glyph-name="uni25A3" unicode="&#x25a3;" horiz-adv-x="430" 
d="M43 129v344h344v-344h-344zM361 447h-292v-292h292v292zM172 258v86h86v-86h-86z" />
    <glyph glyph-name="uni25A4" unicode="&#x25a4;" 
d="M43 172v258h258v-258h-258zM275 232h-206v-34h206v34zM275 288h-206v-34h206v34zM275 348h-206v-34h206v34zM275 404h-206v-34h206v34z" />
    <glyph glyph-name="uni25A5" unicode="&#x25a5;" 
d="M43 172v258h258v-258h-258zM103 404h-34v-206h34v206zM159 404h-34v-206h34v206zM219 404h-34v-206h34v206zM275 404h-34v-206h34v206z" />
    <glyph glyph-name="uni25A6" unicode="&#x25a6;" 
d="M43 172v258h258v-258h-258zM275 404h-34v-34h34v34zM219 348h-34v-34h34v34zM219 288h-34v-34h34v34zM219 232h-34v-34h34v34zM159 232h-34v-34h34v34zM275 232h-34v-34h34v34zM159 288h-34v-34h34v34zM159 348h-34v-34h34v34zM103 232h-34v-34h34v34zM275 288h-34v-34
h34v34zM103 288h-34v-34h34v34zM103 404h-34v-34h34v34zM159 404h-34v-34h34v34zM275 348h-34v-34h34v34zM103 348h-34v-34h34v34zM219 404h-34v-34h34v34z" />
    <glyph glyph-name="uni25A7" unicode="&#x25a7;" 
d="M43 172v258h258v-258h-258zM275 216l-188 188h-18v-18l188 -188h18v18zM69 338v-31l109 -109h31zM275 404h-61l61 -61v61zM69 259v-61h61zM275 295l-109 109h-31l140 -140v31z" />
    <glyph glyph-name="uni25A8" unicode="&#x25a8;" 
d="M43 172v258h258v-258h-258zM275 404h-18l-188 -188v-18h18l188 188v18zM275 338l-140 -140h31l109 109v31zM69 404v-61l61 61h-61zM275 259l-61 -61h61v61zM209 404h-31l-109 -109v-31z" />
    <glyph glyph-name="uni25A9" unicode="&#x25a9;" 
d="M43 172v258h258v-258h-258zM90 237l-21 -21v-18h18l21 21zM275 404h-18l-21 -21l18 -18l21 21v18zM275 216l-21 21l-18 -18l21 -21h18v18zM87 404h-18v-18l21 -21l18 18zM172 319l-18 -18l18 -18l18 18zM132 359l-18 -18l16 -16l18 18zM212 359l-16 -16l18 -18l16 16z
M214 277l-18 -18l16 -16l18 18zM130 277l-16 -16l18 -18l16 16zM172 235l-15 -16l15 -15l15 15zM187 383l-15 15l-15 -15l15 -16zM90 316l-15 -15l15 -15l16 15zM254 316l-16 -15l16 -15l15 15z" />
    <glyph glyph-name="H18543" unicode="&#x25aa;" horiz-adv-x="206" 
d="M43 241v120h120v-120h-120z" />
    <glyph glyph-name="H18551" unicode="&#x25ab;" horiz-adv-x="206" 
d="M43 241v120h120v-120h-120zM138 335h-69v-68h69v68z" />
    <glyph glyph-name="filledrect" unicode="&#x25ac;" horiz-adv-x="722" 
d="M43 267v68h636v-68h-636z" />
    <glyph glyph-name="uni25AD" unicode="&#x25ad;" horiz-adv-x="430" 
d="M43 215v172h344v-172h-344zM361 361h-292v-120h292v120z" />
    <glyph glyph-name="uni25AE" unicode="&#x25ae;" horiz-adv-x="258" 
d="M43 129v344h172v-344h-172z" />
    <glyph glyph-name="uni25AF" unicode="&#x25af;" horiz-adv-x="258" 
d="M43 129v344h172v-344h-172zM189 447h-120v-292h120v292z" />
    <glyph glyph-name="uni25B0" unicode="&#x25b0;" horiz-adv-x="601" 
d="M43 215l171 172h344l-172 -172h-343z" />
    <glyph glyph-name="uni25B1" unicode="&#x25b1;" horiz-adv-x="601" 
d="M43 215l171 172h344l-172 -172h-343zM224 361l-119 -120h271l120 120h-272z" />
    <glyph glyph-name="triagup" unicode="&#x25b2;" horiz-adv-x="516" 
d="M43 0l215 430l215 -430h-430z" />
    <glyph glyph-name="uni25B3" unicode="&#x25b3;" horiz-adv-x="433" 
d="M43 83l173 347l174 -347h-347zM348 109l-33.5 67l-31 62t-32 63t-35.5 71l-132 -263h264z" />
    <glyph glyph-name="uni25B4" unicode="&#x25b4;" horiz-adv-x="350" 
d="M43 167l132 263l132 -263h-264z" />
    <glyph glyph-name="uni25B5" unicode="&#x25b5;" horiz-adv-x="350" 
d="M43 167l132 263l132 -263h-264zM175 372l-91 -179h182z" />
    <glyph glyph-name="uni25B6" unicode="&#x25b6;" horiz-adv-x="433" 
d="M43 83v347l347 -174z" />
    <glyph glyph-name="uni25B7" unicode="&#x25b7;" horiz-adv-x="433" 
d="M43 83v347l347 -174zM69 389v-264l263 131z" />
    <glyph glyph-name="uni25B8" unicode="&#x25b8;" horiz-adv-x="349" 
d="M43 166v264l67 -33.5t61.5 -31t63 -32t71.5 -35.5z" />
    <glyph glyph-name="uni25B9" unicode="&#x25b9;" horiz-adv-x="349" 
d="M43 166v264l67 -33.5t61.5 -31t63 -32t71.5 -35.5zM69 389v-182l180 91z" />
    <glyph glyph-name="triagrt" unicode="&#x25ba;" horiz-adv-x="516" 
d="M43 0v430l430 -215z" />
    <glyph glyph-name="uni25BB" unicode="&#x25bb;" horiz-adv-x="433" 
d="M43 83v347l347 -174zM69 389v-264l263 131z" />
    <glyph glyph-name="triagdn" unicode="&#x25bc;" horiz-adv-x="516" 
d="M43 430h430l-215 -430z" />
    <glyph glyph-name="uni25BD" unicode="&#x25bd;" horiz-adv-x="433" 
d="M43 430h347l-174 -347zM84 404l132 -263q19 39 35.5 71.5t32 63t31 61.5l33.5 67h-264z" />
    <glyph glyph-name="uni25BE" unicode="&#x25be;" horiz-adv-x="350" 
d="M175 167q-19 39 -35.5 71.5t-32 63t-31 61.5l-33.5 67h264z" />
    <glyph glyph-name="uni25BF" unicode="&#x25bf;" horiz-adv-x="350" 
d="M175 167q-19 39 -35.5 71.5t-32 63t-31 61.5l-33.5 67h264zM266 404h-182l91 -180z" />
    <glyph glyph-name="uni25C0" unicode="&#x25c0;" horiz-adv-x="433" 
d="M43 256l347 174v-347z" />
    <glyph glyph-name="uni25C1" unicode="&#x25c1;" horiz-adv-x="433" 
d="M43 256l347 174v-347zM364 389l-263 -133l263 -131v264z" />
    <glyph glyph-name="uni25C2" unicode="&#x25c2;" horiz-adv-x="349" 
d="M43 298l263 132v-264z" />
    <glyph glyph-name="uni25C3" unicode="&#x25c3;" horiz-adv-x="349" 
d="M43 298l263 132v-264zM280 389l-179 -91l179 -91v182z" />
    <glyph glyph-name="triaglf" unicode="&#x25c4;" horiz-adv-x="516" 
d="M43 215l430 215v-430z" />
    <glyph glyph-name="uni25C5" unicode="&#x25c5;" horiz-adv-x="433" 
d="M43 256l347 174v-347zM364 389l-263 -133l263 -131v264z" />
    <glyph glyph-name="uni25C6" unicode="&#x25c6;" horiz-adv-x="451" 
d="M225 119l-182 182l182 182l183 -182z" />
    <glyph glyph-name="uni25C7" unicode="&#x25c7;" horiz-adv-x="451" 
d="M225 119l-182 182l182 182l183 -182zM225 447l-146 -146l146 -146l147 146z" />
    <glyph glyph-name="uni25C8" unicode="&#x25c8;" horiz-adv-x="451" 
d="M225 119l-182 182l182 182l183 -182zM225 447l-146 -146l146 -146l147 146zM225 249q-21 0 -36 15.5t-15 36.5t15 36.5t36 15.5q22 0 37 -15.5t15 -36.5t-15 -36.5t-37 -15.5z" />
    <glyph glyph-name="uni25C9" unicode="&#x25c9;" 
d="M172 172q-27 0 -50.5 10t-41 27.5t-27.5 41t-10 50.5t10 50.5t27.5 41t41 27.5t50.5 10t50.5 -10t41 -27.5t27.5 -41t10 -50.5t-10 -50.5t-27.5 -41t-41 -27.5t-50.5 -10zM69 301q0 -21 8 -40t22 -33t33 -22t40 -8t40 8t33 22t22 33t8 40t-8 40t-22 33t-33 22t-40 8
t-40 -8t-33 -22t-22 -33t-8 -40zM172 249q-21 0 -36.5 15.5t-15.5 36.5t15.5 36.5t36.5 15.5t36.5 -15.5t15.5 -36.5t-15.5 -36.5t-36.5 -15.5z" />
    <glyph glyph-name="lozenge" unicode="&#x25ca;" horiz-adv-x="451" 
d="M43 301l182 268l183 -268l-183 -268zM377 301l-152 222l-151 -222l151 -222z" />
    <glyph glyph-name="circle" unicode="&#x25cb;" 
d="M172 172q-27 0 -50.5 10t-41 27.5t-27.5 41t-10 50.5t10 50.5t27.5 41t41 27.5t50.5 10t50.5 -10t41 -27.5t27.5 -41t10 -50.5t-10 -50.5t-27.5 -41t-41 -27.5t-50.5 -10zM69 301q0 -21 8 -40t22 -33t33 -22t40 -8t40 8t33 22t22 33t8 40t-8 40t-22 33t-33 22t-40 8
t-40 -8t-33 -22t-22 -33t-8 -40z" />
    <glyph glyph-name="uni25CC" unicode="&#x25cc;" 
d="M172 198q13 0 13 -13t-13 -13t-13 13t13 13zM288 314q13 0 13 -13t-13 -13t-13 13t13 13zM56 314q13 0 13 -13t-13 -13t-13 13t13 13zM172 430q13 0 13 -13t-13 -13t-13 13t13 13zM245 228q9 9 18 0t0 -18t-18 0t0 18zM245 392q9 9 18 0t0 -18t-18 0t0 18zM81 228
q9 9 18 0t0 -18t-18 0t0 18zM81 392q9 9 18 0t0 -18t-18 0t0 18zM291 250q-2 -5 -7 -6.5t-10 0.5q-12 5 -7 17q5 11 17 6q5 -2 7 -7t0 -10zM206 413q2 5 7 7t10 0t6.5 -7t-0.5 -10q-5 -12 -17 -7q-11 5 -6 17zM115 199q5 12 17 7q11 -5 6 -17q-2 -5 -7 -7t-10 0t-6.5 7
t0.5 10zM53 352q2 5 7 6.5t10 -0.5q12 -5 7 -17q-5 -11 -17 -6q-5 2 -7 7t0 10zM211 206q11 4 16 -8q2 -5 0 -10t-7 -7t-9.5 0t-6.5 7t0 10.5t7 7.5zM275 356q5 2 10 0t7 -7t0 -9.5t-7 -6.5t-10.5 0t-7.5 7q-4 11 8 16zM59 269q5 2 10.5 0t7.5 -7q4 -11 -8 -16q-5 -2 -10 0
t-7 7t0 9.5t7 6.5zM124 421q5 2 9.5 0t6.5 -7t0 -10.5t-7 -7.5q-11 -4 -16 8q-2 5 0 10t7 7z" />
    <glyph glyph-name="uni25CD" unicode="&#x25cd;" 
d="M172 146q-32 0 -60.5 12t-49.5 33t-33 49.5t-12 60.5t12 60.5t33 49.5t49.5 33t60.5 12t60.5 -12t49.5 -33t33 -49.5t12 -60.5t-12 -60.5t-33 -49.5t-49.5 -33t-60.5 -12zM185 429q-3 1 -6.5 1h-6.5h-6.5t-6.5 -1v-257h26v257zM245 407q-6 5 -12.5 8t-13.5 6v-240
q7 2 13.5 5.5t12.5 7.5v213zM125 421q-7 -3 -13 -6t-13 -8v-213q7 -4 13 -7.5t13 -5.5v240zM65 372q-22 -31 -22 -71t22 -71v142zM280 230q21 32 21 71t-21 71v-142z" />
    <glyph glyph-name="uni25CE" unicode="&#x25ce;" 
d="M172 172q-27 0 -50.5 10t-41 27.5t-27.5 41t-10 50.5t10 50.5t27.5 41t41 27.5t50.5 10t50.5 -10t41 -27.5t27.5 -41t10 -50.5t-10 -50.5t-27.5 -41t-41 -27.5t-50.5 -10zM275 301q0 21 -8 40t-22 33t-33 22t-40 8t-40 -8t-33 -22t-22 -33t-8 -40t8 -40t22 -33t33 -22
t40 -8t40 8t33 22t22 33t8 40zM249 301q0 -32 -22.5 -54.5t-54.5 -22.5t-54.5 22.5t-22.5 54.5t22.5 54.5t54.5 22.5t54.5 -22.5t22.5 -54.5zM172 249q21 0 36.5 15.5t15.5 36.5t-15.5 36.5t-36.5 15.5t-36.5 -15.5t-15.5 -36.5t15.5 -36.5t36.5 -15.5z" />
    <glyph glyph-name="H18533" unicode="&#x25cf;" 
d="M172 172q-27 0 -50.5 10t-41 27.5t-27.5 41t-10 50.5t10 50.5t27.5 41t41 27.5t50.5 10t50.5 -10t41 -27.5t27.5 -41t10 -50.5t-10 -50.5t-27.5 -41t-41 -27.5t-50.5 -10z" />
    <glyph glyph-name="uni25D0" unicode="&#x25d0;" 
d="M172 172q-27 0 -50.5 10t-41 27.5t-27.5 41t-10 50.5t10 50.5t27.5 41t41 27.5t50.5 10t50.5 -10t41 -27.5t27.5 -41t10 -50.5t-10 -50.5t-27.5 -41t-41 -27.5t-50.5 -10zM172 198q21 0 40 8t33 22t22 33t8 40t-8 40t-22 33t-33 22t-40 8v-206z" />
    <glyph glyph-name="uni25D1" unicode="&#x25d1;" 
d="M301 301q0 -27 -10 -50.5t-27.5 -41t-41 -27.5t-50.5 -10t-50.5 10t-41 27.5t-27.5 41t-10 50.5t10 50.5t27.5 41t41 27.5t50.5 10t50.5 -10t41 -27.5t27.5 -41t10 -50.5zM172 404q-21 0 -40 -8t-33 -22t-22 -33t-8 -40t8 -40t22 -33t33 -22t40 -8v206z" />
    <glyph glyph-name="uni25D2" unicode="&#x25d2;" 
d="M172 172q-27 0 -50.5 10t-41 27.5t-27.5 41t-10 50.5t10 50.5t27.5 41t41 27.5t50.5 10t50.5 -10t41 -27.5t27.5 -41t10 -50.5t-10 -50.5t-27.5 -41t-41 -27.5t-50.5 -10zM275 301q0 21 -8 40t-22 33t-33 22t-40 8t-40 -8t-33 -22t-22 -33t-8 -40h206z" />
    <glyph glyph-name="uni25D3" unicode="&#x25d3;" 
d="M172 430q27 0 50.5 -10t41 -27.5t27.5 -41t10 -50.5t-10 -50.5t-27.5 -41t-41 -27.5t-50.5 -10t-50.5 10t-41 27.5t-27.5 41t-10 50.5t10 50.5t27.5 41t41 27.5t50.5 10zM69 301q0 -21 8 -40t22 -33t33 -22t40 -8t40 8t33 22t22 33t8 40h-206z" />
    <glyph glyph-name="uni25D4" unicode="&#x25d4;" 
d="M172 172q-27 0 -50.5 10t-41 27.5t-27.5 41t-10 50.5t10 50.5t27.5 41t41 27.5t50.5 10t50.5 -10t41 -27.5t27.5 -41t10 -50.5t-10 -50.5t-27.5 -41t-41 -27.5t-50.5 -10zM172 301v103q-21 0 -40 -8t-33 -22t-22 -33t-8 -40t8 -40t22 -33t33 -22t40 -8t40 8t33 22t22 33
t8 40h-103z" />
    <glyph glyph-name="uni25D5" unicode="&#x25d5;" 
d="M172 172q-27 0 -50.5 10t-41 27.5t-27.5 41t-10 50.5t10 50.5t27.5 41t41 27.5t50.5 10t50.5 -10t41 -27.5t27.5 -41t10 -50.5t-10 -50.5t-27.5 -41t-41 -27.5t-50.5 -10zM172 404q-21 0 -40 -8t-33 -22t-22 -33t-8 -40h103v103z" />
    <glyph glyph-name="uni25D6" unicode="&#x25d6;" horiz-adv-x="215" 
d="M172 172q-27 0 -50.5 10t-41 27.5t-27.5 41t-10 50.5t10 50.5t27.5 41t41 27.5t50.5 10v-258z" />
    <glyph glyph-name="uni25D7" unicode="&#x25d7;" horiz-adv-x="215" 
d="M43 430q27 0 50.5 -10t41 -27.5t27.5 -41t10 -50.5t-10 -50.5t-27.5 -41t-41 -27.5t-50.5 -10v258z" />
    <glyph glyph-name="invbullet" unicode="&#x25d8;" 
d="M43 172v258h258v-258h-258zM172 258q18 0 30.5 12.5t12.5 30.5t-12.5 30.5t-30.5 12.5t-30.5 -12.5t-12.5 -30.5t12.5 -30.5t30.5 -12.5z" />
    <glyph glyph-name="invcircle" unicode="&#x25d9;" 
d="M43 172v258h258v-258h-258zM224 301q0 -21 -15.5 -36.5t-36.5 -15.5t-36.5 15.5t-15.5 36.5t15.5 36.5t36.5 15.5t36.5 -15.5t15.5 -36.5zM172 224q32 0 54.5 22.5t22.5 54.5t-22.5 54.5t-54.5 22.5t-54.5 -22.5t-22.5 -54.5t22.5 -54.5t54.5 -22.5z" />
    <glyph glyph-name="uni25DA" unicode="&#x25da;" 
d="M120 301q0 21 15.5 36.5t36.5 15.5t36.5 -15.5t15.5 -36.5h-104zM249 301q0 32 -22.5 54.5t-54.5 22.5t-54.5 -22.5t-22.5 -54.5h-52v129h258v-129h-52z" />
    <glyph glyph-name="uni25DB" unicode="&#x25db;" 
d="M224 301q0 -21 -15.5 -36.5t-36.5 -15.5t-36.5 15.5t-15.5 36.5h104zM43 172v129h52q0 -32 22.5 -54.5t54.5 -22.5t54.5 22.5t22.5 54.5h52v-129h-258z" />
    <glyph glyph-name="uni25DC" unicode="&#x25dc;" horiz-adv-x="215" 
d="M43 301q0 27 10 50.5t27.5 41t41 27.5t50.5 10v-26q-21 0 -40 -8t-33 -22t-22 -33t-8 -40h-26z" />
    <glyph glyph-name="uni25DD" unicode="&#x25dd;" horiz-adv-x="215" 
d="M146 301q0 21 -8 40t-22 33t-33 22t-40 8v26q27 0 50.5 -10t41 -27.5t27.5 -41t10 -50.5h-26z" />
    <glyph glyph-name="uni25DE" unicode="&#x25de;" horiz-adv-x="215" 
d="M43 198q21 0 40 8t33 22t22 33t8 40h26q0 -27 -10 -50.5t-27.5 -41t-41 -27.5t-50.5 -10v26z" />
    <glyph glyph-name="uni25DF" unicode="&#x25df;" horiz-adv-x="215" 
d="M172 172q-27 0 -50.5 10t-41 27.5t-27.5 41t-10 50.5h26q0 -21 8 -40t22 -33t33 -22t40 -8v-26z" />
    <glyph glyph-name="uni25E0" unicode="&#x25e0;" 
d="M275 301q0 21 -8 40t-22 33t-33 22t-40 8t-40 -8t-33 -22t-22 -33t-8 -40h-26q0 27 10 50.5t27.5 41t41 27.5t50.5 10t50.5 -10t41 -27.5t27.5 -41t10 -50.5h-26z" />
    <glyph glyph-name="uni25E1" unicode="&#x25e1;" 
d="M301 301q0 -27 -10 -50.5t-27.5 -41t-41 -27.5t-50.5 -10t-50.5 10t-41 27.5t-27.5 41t-10 50.5h26q0 -21 8 -40t22 -33t33 -22t40 -8t40 8t33 22t22 33t8 40h26z" />
    <glyph glyph-name="uni25E2" unicode="&#x25e2;" 
d="M43 172l258 258v-258h-258z" />
    <glyph glyph-name="uni25E3" unicode="&#x25e3;" 
d="M43 172v258l258 -258h-258z" />
    <glyph glyph-name="uni25E4" unicode="&#x25e4;" 
d="M43 172v258h258z" />
    <glyph glyph-name="uni25E5" unicode="&#x25e5;" 
d="M43 430h258v-258z" />
    <glyph glyph-name="openbullet" unicode="&#x25e6;" horiz-adv-x="241" 
d="M198 301q0 -32 -23 -54.5t-55 -22.5t-54.5 22.5t-22.5 54.5t22.5 54.5t54.5 22.5t55 -22.5t23 -54.5zM120 249q22 0 37 15.5t15 36.5t-15 36.5t-37 15.5q-21 0 -36 -15.5t-15 -36.5t15 -36.5t36 -15.5z" />
    <glyph glyph-name="uni25E7" unicode="&#x25e7;" 
d="M43 172v258h258v-258h-258zM275 404h-103v-206h103v206z" />
    <glyph glyph-name="uni25E8" unicode="&#x25e8;" 
d="M43 172v258h258v-258h-258zM172 404h-103v-206h103v206z" />
    <glyph glyph-name="uni25E9" unicode="&#x25e9;" 
d="M43 172v258h258v-258h-258zM275 404l-206 -206h206v206z" />
    <glyph glyph-name="uni25EA" unicode="&#x25ea;" 
d="M43 172v258h258v-258h-258zM275 404h-206v-206z" />
    <glyph glyph-name="uni25EB" unicode="&#x25eb;" 
d="M43 172v258h258v-258h-258zM275 404h-90v-206h90v206zM159 404h-90v-206h90v206z" />
    <glyph glyph-name="uni25EC" unicode="&#x25ec;" 
d="M43 172l129 258l129 -258h-258zM152 250v39h39v-39h-39zM172 372l-87 -174h175z" />
    <glyph glyph-name="uni25ED" unicode="&#x25ed;" 
d="M43 172l129 258l129 -258h-258zM172 372v-174h88z" />
    <glyph glyph-name="uni25EE" unicode="&#x25ee;" 
d="M43 172l129 258l129 -258h-258zM172 372l-88 -174h88v174z" />
    <glyph glyph-name="uni25EF" unicode="&#x25ef;" horiz-adv-x="447" 
d="M224 120q-38 0 -71 14t-57.5 38.5t-38.5 57.5t-14 71t14 71t38.5 57.5t57.5 38.5t71 14q37 0 70 -14t57.5 -38.5t38.5 -57.5t14 -71t-14 -71t-38.5 -57.5t-57.5 -38.5t-70 -14zM224 146q32 0 60 12t49 33t33 49.5t12 60.5t-12 60.5t-33 49.5t-49 33t-60 12t-60.5 -12
t-49.5 -33t-33 -49.5t-12 -60.5t12 -60.5t33 -49.5t49.5 -33t60.5 -12z" />
    <glyph glyph-name="uni25F0" unicode="&#x25f0;" 
d="M43 172v258h258v-258h-258zM275 404h-90v-116h-116v-90h206v206zM159 404h-90v-90h90v90z" />
    <glyph glyph-name="uni25F1" unicode="&#x25f1;" 
d="M43 172v258h258v-258h-258zM275 404h-206v-90h116v-116h90v206zM159 288h-90v-90h90v90z" />
    <glyph glyph-name="uni25F2" unicode="&#x25f2;" 
d="M43 172v258h258v-258h-258zM275 404h-206v-206h90v116h116v90zM275 288h-90v-90h90v90z" />
    <glyph glyph-name="uni25F3" unicode="&#x25f3;" 
d="M43 172v258h258v-258h-258zM275 288h-116v116h-90v-206h206v90zM275 404h-90v-90h90v90z" />
    <glyph glyph-name="uni25F4" unicode="&#x25f4;" 
d="M172 172q-27 0 -50.5 10t-41 27.5t-27.5 41t-10 50.5t10 50.5t27.5 41t41 27.5t50.5 10t50.5 -10t41 -27.5t27.5 -41t10 -50.5t-10 -50.5t-27.5 -41t-41 -27.5t-50.5 -10zM70 288q5 -38 34 -64t68 -26q21 0 40 8t33 22t22 33t8 40q0 19 -7 36.5t-19 31t-28.5 22.5
t-35.5 12v-115h-115zM159 403q-35 -5 -59.5 -29.5t-29.5 -59.5h89v89z" />
    <glyph glyph-name="uni25F5" unicode="&#x25f5;" 
d="M172 172q-27 0 -50.5 10t-41 27.5t-27.5 41t-10 50.5t10 50.5t27.5 41t41 27.5t50.5 10t50.5 -10t41 -27.5t27.5 -41t10 -50.5t-10 -50.5t-27.5 -41t-41 -27.5t-50.5 -10zM185 199q19 3 35.5 12t28.5 22.5t19 30.5t7 37q0 21 -8 40t-22 33t-33 22t-40 8q-39 0 -68 -26
t-34 -64h115v-115zM159 288h-89q5 -35 29.5 -59.5t59.5 -29.5v89z" />
    <glyph glyph-name="uni25F6" unicode="&#x25f6;" 
d="M172 430q27 0 50.5 -10t41 -27.5t27.5 -41t10 -50.5t-10 -50.5t-27.5 -41t-41 -27.5t-50.5 -10t-50.5 10t-41 27.5t-27.5 41t-10 50.5t10 50.5t27.5 41t41 27.5t50.5 10zM159 314h115q-5 38 -34 64t-68 26q-21 0 -40 -8t-33 -22t-22 -33t-8 -40q0 -20 7 -37t19 -30.5
t28.5 -22.5t35.5 -12v115zM185 288v-89q35 5 59.5 29.5t29.5 59.5h-89z" />
    <glyph glyph-name="uni25F7" unicode="&#x25f7;" 
d="M172 172q-27 0 -50.5 10t-41 27.5t-27.5 41t-10 50.5t10 50.5t27.5 41t41 27.5t50.5 10t50.5 -10t41 -27.5t27.5 -41t10 -50.5t-10 -50.5t-27.5 -41t-41 -27.5t-50.5 -10zM159 288v115q-19 -3 -35.5 -12t-28.5 -22.5t-19 -31t-7 -36.5q0 -21 8 -40t22 -33t33 -22t40 -8
q39 0 68 26t34 64h-115zM274 314q-5 35 -29.5 59.5t-59.5 29.5v-89h89z" />
    <glyph glyph-name="uni25F8" unicode="&#x25f8;" 
d="M43 172v258h258zM239 404h-170v-170z" />
    <glyph glyph-name="uni25F9" unicode="&#x25f9;" 
d="M43 430h258v-258zM275 404h-170l170 -170v170z" />
    <glyph glyph-name="uni25FA" unicode="&#x25fa;" 
d="M43 172v258l258 -258h-258zM69 368v-170h170z" />
    <glyph glyph-name="uni25FB" unicode="&#x25fb;" 
d="M43 172v258h258v-258h-258zM275 404h-206v-206h206v206z" />
    <glyph glyph-name="uni25FC" unicode="&#x25fc;" 
d="M43 172v258h258v-258h-258z" />
    <glyph glyph-name="uni25FD" unicode="&#x25fd;" horiz-adv-x="258" 
d="M43 215v172h172v-172h-172zM189 361h-120v-120h120v120z" />
    <glyph glyph-name="uni25FE" unicode="&#x25fe;" horiz-adv-x="258" 
d="M43 215v172h172v-172h-172z" />
    <glyph glyph-name="uni25FF" unicode="&#x25ff;" 
d="M43 172l258 258v-258h-258zM275 368l-170 -170h170v170z" />
    <glyph glyph-name="three.salt" unicode="&#xe033;" horiz-adv-x="799" 
d="M672 376q59 -18 91 -55.5t32 -91.5q0 -50 -24 -93.5t-73.5 -75.5t-124.5 -51t-177 -19q-86 0 -144.5 15t-94 45.5t-49 76.5t-8.5 108h286q-4 -33 7 -54t45 -21q13 0 27 4t25 14t18 27t7 43q0 17 -9.5 31t-37.5 14q-23 0 -41.5 -7t-22.5 -16h-40l-23 82l185 74l1 4h-370
l36 170h665l-36 -170z" />
    <glyph glyph-name="afii10021.salt" unicode="&#xe414;" horiz-adv-x="868" 
d="M656 -150l-28 150h-388l-92 -150h-170l68 320h34q31 0 49.5 9.5t30.5 27.5t20 44t18 59l56 190l-9 100h660l-91 -430h80l-68 -320h-170zM581 430h-69l-30 -120q-26 -85 -79 -140h123z" />
    <glyph glyph-name="afii10029.salt" unicode="&#xe41b;" horiz-adv-x="804" 
d="M456 0l91 430h-68l-32 -120q-20 -75 -55 -133t-88 -97.5t-125.5 -59.5t-168.5 -20l36 170q31 0 49.5 9.5t30.5 27.5t19.5 44t17.5 59l57 190l-8 100h660l-128 -600h-288z" />
    <glyph glyph-name="ff" unicode="&#xfb00;" horiz-adv-x="1262" 
d="M394 215l-46 -215h-288l106 500l-8 100h642l-37 -170h-324l-9 -45h264l-36 -170h-264zM1096 215l-46 -215h-288l106 500l-8 100h642l-37 -170h-324l-9 -45h264l-36 -170h-264z" />
    <glyph glyph-name="fi" unicode="&#xfb01;" horiz-adv-x="1110" 
d="M394 215l-46 -215h-288l106 500l-8 100h642l-37 -170h-324l-9 -45h264l-36 -170h-264zM762 0l106 500l-8 100h318l-128 -600h-288z" />
    <glyph glyph-name="fl" unicode="&#xfb02;" horiz-adv-x="1262" 
d="M394 215l-46 -215h-288l106 500l-8 100h642l-37 -170h-324l-9 -45h264l-36 -170h-264zM762 0l106 500l-8 100h318l-92 -430h304l-36 -170h-592z" />
    <glyph glyph-name="ffi" unicode="&#xfb03;" horiz-adv-x="1262" 
d="M394 215l-46 -215h-288l106 500l-8 100h642l-37 -170h-324l-9 -45h264l-36 -170h-264zM1096 215l-46 -215h-288l106 500l-8 100h642l-37 -170h-324l-9 -45h264l-36 -170h-264zM1464 0l106 500l-8 100h318l-128 -600h-288z" />
    <glyph glyph-name="ffl" unicode="&#xfb04;" horiz-adv-x="1262" 
d="M394 215l-46 -215h-288l106 500l-8 100h642l-37 -170h-324l-9 -45h264l-36 -170h-264zM1096 215l-46 -215h-288l106 500l-8 100h642l-37 -170h-324l-9 -45h264l-36 -170h-264zM1464 0l106 500l-8 100h318l-92 -430h304l-36 -170h-592z" />
    <glyph glyph-name="commaaccent" horiz-adv-x="265" 
d="M201 -66q-19 -94 -73 -139t-131 -45l13 60q36 0 56.5 18t25.5 46h-64l17 80h160z" />
    <glyph glyph-name="00A0" horiz-adv-x="408" 
 />
    </font>
</defs>
</svg>
