<?xml version="1.0" standalone="no"?>
<!DOCTYPE svg PUBLIC "-//W3C//DTD SVG 1.1//EN" "http://www.w3.org/Graphics/SVG/1.1/DTD/svg11.dtd" >
<svg>
<metadata>
Created by FontForge 20120731 at Mon Oct 30 11:09:19 2017
 By www-data
(c) 2010 by Sergiy S. Tkachenko / 4th february (info@4thfebruary.com.ua).
All rights reserved. This font software is the property of Sergiy S. Tkachenko (Kremenchuk, Ukraine). You may not reproduce, modify, adapt, translate, alter nor create derivative works of the font software. You may not reverse engineer, decompile, decrypt, disassemble, nor seek to discover the source code of the font software.
</metadata>
<defs>
<font id="Republica4FWideBlack" horiz-adv-x="660" >
  <font-face 
    font-family="Republica4FWideBlack"
    font-weight="400"
    font-stretch="normal"
    units-per-em="1000"
    panose-1="2 0 0 0 0 0 0 0 0 0"
    ascent="859"
    descent="-141"
    x-height="500"
    cap-height="550"
    bbox="-179 -284.002 1310 910.001"
    underline-thickness="50"
    underline-position="-50"
    unicode-range="U+0020-FB06"
  />
<missing-glyph horiz-adv-x="636" 
d="M306 0v100h-276v95l73 355h259l-141 -300h85v150h240v-150h60v-150h-60v-100h-240zM412 300h-27v9c0 5.33301 4.33301 8 13 8c9.33301 0 14 -2.66699 14 -8v-9zM470 300l-25.999 0.000976562v10c0 3.33301 0.666992 5.66602 2 6.99902s4.66602 2 9.99902 2
c9.33301 0 14 -3 14 -9v-10zM509.001 81.001h-59v43h-44v-43h-15v50h-44v-98h162v48zM509.001 241.001h-45v-50h-14v44h-44v-44h-15v50h-44v-99h162v99zM509.001 317.001c0 5.33301 -0.667969 11.001 -2.00098 17.001s-3.83301 11.5 -7.5 16.5s-8.5 9 -14.5 12
s-13.667 4.5 -23 4.5c-14 0 -22.667 -3.16699 -26 -9.5s-6.33301 -11.833 -9 -16.5c-2.66699 4.66699 -5.5 9.5 -8.5 14.5s-10.167 7.5 -21.5 7.5h-3c-10 0 -18.167 -1.66699 -24.5 -5s-11.166 -7.5 -14.499 -12.5s-5.5 -10.333 -6.5 -16s-1.5 -10.834 -1.5 -15.501v-63h162
v66z" />
    <glyph glyph-name="s_t" unicode="st" horiz-adv-x="1220" 
d="M1162 500l-0.000976562 -139.993h-238v-130c0 -34.667 0.833008 -60 2.5 -76s8.16699 -24 19.5 -24c9.33301 0 15.333 6 18 18s4.66699 36 6 72l222 -38c-6 -41.333 -15.5 -74.5 -28.5 -99.5s-29.5 -44.333 -49.5 -58s-43.833 -22.834 -71.5 -27.501
s-59.834 -7 -96.501 -7c-43.333 0 -81.333 4.5 -114 13.5s-60 23.667 -82 44s-38.5 47 -49.5 80s-16.5 73.833 -16.5 122.5v110h-60v140h61c0 10 -0.833008 19.833 -2.5 29.5s-4.16699 18.5 -7.5 26.5s-8 14.333 -14 19s-13 7 -21 7c-7.33301 0 -14.833 -2.16699 -22.5 -6.5
s-14.834 -11.833 -21.501 -22.5s-12.167 -24.834 -16.5 -42.501s-6.5 -39.5 -6.5 -65.5c0 -7.33301 0.333008 -15 1 -23s1.33398 -16.333 2.00098 -25l7 -79l-234 -38c-0.666992 21.333 -2 38 -4 50s-4.33301 21 -7 27s-5.5 9.66699 -8.5 11s-6.16699 2 -9.5 2
c-9.33301 0 -18.333 -2.66699 -27 -8s-13 -16.666 -13 -33.999c0 -20.667 7.16699 -35.5 21.5 -44.5s32.333 -15.5 54 -19.5s45.334 -6.83301 71.001 -8.5s49.667 -5.33398 72 -11.001s41.5 -14.834 57.5 -27.501s25 -31.667 27 -57v-10c0 -22 -6.33301 -42.667 -19 -62
s-31.334 -36.166 -56.001 -50.499s-55.5 -25.833 -92.5 -34.5s-79.5 -13 -127.5 -13c-34 0 -65.167 2.66699 -93.5 8s-53.166 15.166 -74.499 29.499s-38.833 33.833 -52.5 58.5s-23.5 56.667 -29.5 96l234 38c0.666992 -20 1.83398 -36 3.50098 -48s3.66699 -21 6 -27
s5.33301 -10 9 -12s7.5 -3 11.5 -3c8.66699 0 16.167 2.66699 22.5 8s9.5 15.666 9.5 30.999c0 21.333 -6.16699 37.166 -18.5 47.499s-28.166 18.166 -47.499 23.499s-40.5 9.16602 -63.5 11.499s-45.5 6.33301 -67.5 12s-41.667 14.167 -59 25.5s-30 28.333 -38 51l-2 7
c0 19.333 5 38.666 15 57.999s26.5 36.833 49.5 52.5s52.667 28.334 89 38.001s81.166 14.5 134.499 14.5c28.667 0 56 -2 82 -6c3.33301 24.667 10.333 47.834 21 69.501s25.834 40.5 45.501 56.5s44 28.667 73 38s63.167 14 102.5 14c27.333 0 55.333 -2.83301 84 -8.5
s55.5 -15.334 80.5 -29.001s47.167 -32.167 66.5 -55.5s33.666 -53 42.999 -89h238z" />
    <glyph glyph-name="g_k" unicode="gk" horiz-adv-x="1305" 
d="M925 304l108.998 196.001h265l-200 -250l200 -250h-265l-109 196v-196h-240v501c0 11.333 -0.333008 21.833 -1 31.5s-2.5 18.167 -5.5 25.5s-7.66699 13.166 -14 17.499s-15.5 6.5 -27.5 6.5c-17.333 0 -29.333 -6 -36 -18s-10 -25.333 -10 -40
c0 -7.33301 0.833008 -14.666 2.5 -21.999s3.83398 -13.666 6.50098 -18.999l36 -78l-60 -22c2 -11.333 3 -22.666 3 -33.999c0 -17.333 -2.33301 -33.833 -7 -49.5s-12.667 -30 -24 -43s-26.333 -24.333 -45 -34s-42.334 -17.167 -71.001 -22.5
c61.333 -10.667 105.166 -29.167 131.499 -55.5s39.5 -57.833 39.5 -94.5c0 -24 -4.83301 -45.833 -14.5 -65.5s-25.5 -36.5 -47.5 -50.5s-51 -24.833 -87 -32.5s-80.333 -11.5 -133 -11.5c-39.333 0 -75.5 2.66699 -108.5 8s-62 15.166 -87 29.499s-45.5 34 -61.5 59
s-27 56.833 -33 95.5l234 38c0.666992 -18.667 2.33398 -33.834 5.00098 -45.501s6.33398 -20.834 11.001 -27.501s10.5 -11.167 17.5 -13.5s15.167 -3.5 24.5 -3.5c3.33301 0 7.5 0.333008 12.5 1s10 2.5 15 5.5s9.16699 7.66699 12.5 14s5 15.166 5 26.499
s-1.83301 20.666 -5.5 27.999s-8 13 -13 17s-10.5 6.83301 -16.5 8.5s-11 2.5 -15 2.5c-24.667 1.33301 -52.167 3.83301 -82.5 7.5s-58.666 11.834 -84.999 24.501s-48.5 31.5 -66.5 56.5s-27 59.5 -27 103.5c0 25.333 3.5 49.166 10.5 71.499s20.5 42 40.5 59
s47.667 30.333 83 40s81.333 14.5 138 14.5c21.333 0 48 -1 80 -3c2.66699 22.667 8.16699 44.5 16.5 65.5s21.5 39.667 39.5 56s41.5 29.333 70.5 39s66.167 14.5 111.5 14.5c28.667 0 59.334 -2.66699 92.001 -8s62.667 -14.666 90 -27.999s50.166 -31.666 68.499 -54.999
s27.5 -53.333 27.5 -90v-197zM317.998 267.001c4 0 7.6709 0.666992 11.0039 2s6.16602 4 8.49902 8s4 9.66699 5 17s1.5 17.333 1.5 30c0 24.667 -2.16699 40.167 -6.5 46.5s-10.833 9.5 -19.5 9.5s-15.334 -3.16699 -20.001 -9.5s-7 -21.833 -7 -46.5
c0 -12.667 0.666992 -22.667 2 -30s3.16602 -13 5.49902 -17s5.16602 -6.66699 8.49902 -8s7 -2 11 -2z" />
    <glyph glyph-name="c_h" unicode="ch" horiz-adv-x="1277" 
d="M312 510c15.333 0 30.5 -0.5 45.5 -1.5s29.167 -2.83301 42.5 -5.5c2.66699 23.333 8 45.833 16 67.5s20.833 40.667 38.5 57s41.334 29.5 71.001 39.5s67.167 15 112.5 15c28.667 0 59.334 -2.66699 92.001 -8s62.5 -14.666 89.5 -27.999s49.5 -31.666 67.5 -54.999
s27 -53.333 27 -90l-9 -51c0 0.666992 0.666992 2.33398 2 5.00098l8 16c3.33301 6.66699 9.33301 13 18 19s20.167 11.167 34.5 15.5s33.5 6.5 57.5 6.5c26 0 50.667 -4.83301 74 -14.5s43.833 -25.334 61.5 -47.001s31.5 -49.5 41.5 -83.5s15 -75.333 15 -124v-243h-240
v250c0 42 -1.83301 72.5 -5.5 91.5s-11.834 28.5 -24.501 28.5s-20.834 -9.5 -24.501 -28.5s-5.5 -49.5 -5.5 -91.5v-250h-240v501c0 11.333 -0.333008 21.833 -1 31.5s-2.5 18.167 -5.5 25.5s-7.66699 13.166 -14 17.499s-15.5 6.5 -27.5 6.5
c-21.333 0 -37.5 -8.33301 -48.5 -25s-16.5 -46.667 -16.5 -90c0 -10 0.333008 -20.833 1 -32.5s1.66699 -24.167 3 -37.5l7 -79l-234 -38c-1.33301 36 -4.16602 60 -8.49902 72s-11.166 18 -20.499 18c-12.667 0 -20.834 -9.5 -24.501 -28.5s-5.5 -49.5 -5.5 -91.5
s1.83301 -72.5 5.5 -91.5s11.834 -28.5 24.501 -28.5c9.33301 0 16.166 6 20.499 18s7.16602 36 8.49902 72l234 -38c-6 -41.333 -16.333 -74.5 -31 -99.5s-33.167 -44.333 -55.5 -58s-48.333 -22.834 -78 -27.501s-62.5 -7 -98.5 -7c-43.333 0 -81.666 4.5 -114.999 13.5
s-61.5 23.667 -84.5 44s-40.5 47 -52.5 80s-18 73.833 -18 122.5s6 89.5 18 122.5s29.5 59.667 52.5 80s51.167 35 84.5 44s71.666 13.5 114.999 13.5z" />
    <glyph glyph-name="s_k" unicode="sk" horiz-adv-x="1323" 
d="M685 501c0 11.333 -0.329102 21.833 -0.996094 31.5s-2.5 18.167 -5.5 25.5s-7.66699 13.166 -14 17.499s-15.5 6.5 -27.5 6.5c-21.333 0 -37.5 -8.33301 -48.5 -25s-16.5 -46.667 -16.5 -90c0 -10 0.333008 -20.833 1 -32.5s1.66699 -24.167 3 -37.5l7 -79l-234 -38
c-0.666992 21.333 -2 38 -4 50s-4.33301 21 -7 27s-5.5 9.66699 -8.5 11s-6.16699 2 -9.5 2c-9.33301 0 -18.333 -2.66699 -27 -8s-13 -16.666 -13 -33.999c0 -20.667 7.5 -35.5 22.5 -44.5s33.667 -15.5 56 -19.5s46.666 -6.83301 72.999 -8.5
s50.666 -5.33398 72.999 -11.001s41 -14.834 56 -27.501s22.5 -31.667 22.5 -57v-10c0 -22 -6.33301 -42.667 -19 -62s-31.334 -36.166 -56.001 -50.499s-55.5 -25.833 -92.5 -34.5s-79.5 -13 -127.5 -13c-34 0 -65.167 2.66699 -93.5 8s-53.166 15.166 -74.499 29.499
s-38.833 33.833 -52.5 58.5s-23.5 56.667 -29.5 96l234 38c0.666992 -20 1.83398 -36 3.50098 -48s3.66699 -21 6 -27s5.33301 -10 9 -12s7.5 -3 11.5 -3c8.66699 0 16.167 2.66699 22.5 8s9.5 15.666 9.5 30.999c0 21.333 -7.33301 36.833 -22 46.5s-33 16.667 -55 21
s-45.667 7.33301 -71 9s-49 5.33398 -71 11.001s-40.333 14.667 -55 27s-22 31.166 -22 56.499v7c0 19.333 5 38.666 15 57.999s26.5 36.833 49.5 52.5s52.667 28.334 89 38.001s81.166 14.5 134.499 14.5c28.667 0 56 -2 82 -6c2.66699 22.667 8 44.834 16 66.501
s21 40.667 39 57s41.667 29.5 71 39.5s66.666 15 111.999 15c28.667 0 59.5 -2.66699 92.5 -8s63.167 -14.666 90.5 -27.999s50.166 -31.666 68.499 -54.999s27.5 -53.333 27.5 -90v-197l109 196h265l-200 -250l200 -250h-265l-109 196v-196h-240v501z" />
    <glyph glyph-name="c_l" unicode="cl" horiz-adv-x="977" 
d="M312 510c15.333 0 30.5 -0.5 45.5 -1.5s29.167 -2.83301 42.5 -5.5c2.66699 23.333 8 45.833 16 67.5s20.833 40.667 38.5 57s41.334 29.5 71.001 39.5s67.167 15 112.5 15c28.667 0 59.5 -2.66699 92.5 -8s63.167 -14.666 90.5 -27.999s50.166 -31.666 68.499 -54.999
s27.5 -53.333 27.5 -90v-501h-240v501c0 11.333 -0.333008 21.833 -1 31.5s-2.5 18.167 -5.5 25.5s-7.66699 13.166 -14 17.499s-15.5 6.5 -27.5 6.5c-21.333 0 -37.5 -8.33301 -48.5 -25s-16.5 -46.667 -16.5 -90c0 -10 0.333008 -20.833 1 -32.5s1.66699 -24.167 3 -37.5
l7 -79l-234 -38c-1.33301 36 -4.16602 60 -8.49902 72s-11.166 18 -20.499 18c-12.667 0 -20.834 -9.5 -24.501 -28.5s-5.5 -49.5 -5.5 -91.5s1.83301 -72.5 5.5 -91.5s11.834 -28.5 24.501 -28.5c9.33301 0 16.166 6 20.499 18s7.16602 36 8.49902 72l234 -38
c-6 -41.333 -16.333 -74.5 -31 -99.5s-33.167 -44.333 -55.5 -58s-48.333 -22.834 -78 -27.501s-62.5 -7 -98.5 -7c-43.333 0 -81.666 4.5 -114.999 13.5s-61.5 23.667 -84.5 44s-40.5 47 -52.5 80s-18 73.833 -18 122.5s6 89.5 18 122.5s29.5 59.667 52.5 80
s51.167 35 84.5 44s71.666 13.5 114.999 13.5z" />
    <glyph glyph-name="g_h" unicode="gh" horiz-adv-x="1285" 
d="M329 510c21.333 0 48.002 -0.999023 80.002 -2.99902c2.66699 22.667 8.16699 44.5 16.5 65.5s21.5 39.667 39.5 56s41.5 29.333 70.5 39s66.167 14.5 111.5 14.5c28.667 0 59.167 -2.66699 91.5 -8s62.166 -14.666 89.499 -27.999s50 -31.666 68 -54.999
s27 -53.333 27 -90l-10 -51c0 0.666992 0.666992 2.33398 2 5.00098l8 16c3.33301 6.66699 9.33301 13 18 19s20.167 11.167 34.5 15.5s33.5 6.5 57.5 6.5c26.667 0 51.667 -4.83301 75 -14.5s43.666 -25.334 60.999 -47.001s31 -49.5 41 -83.5s15 -75.333 15 -124v-243
h-240v250c0 42 -1.83301 72.5 -5.5 91.5s-11.834 28.5 -24.501 28.5s-20.834 -9.5 -24.501 -28.5s-5.5 -49.5 -5.5 -91.5v-250h-240v501c0 11.333 -0.333008 21.833 -1 31.5s-2.5 18.167 -5.5 25.5s-7.66699 13.166 -14 17.499s-15.5 6.5 -27.5 6.5
c-17.333 0 -29.333 -6 -36 -18s-10 -25.333 -10 -40c0 -7.33301 0.833008 -14.666 2.5 -21.999s3.83398 -13.666 6.50098 -18.999l36 -78l-60 -22c2 -11.333 3 -22.666 3 -33.999c0 -17.333 -2.33301 -33.833 -7 -49.5s-12.667 -30 -24 -43s-26.333 -24.333 -45 -34
s-42.334 -17.167 -71.001 -22.5c61.333 -10.667 105.166 -29.167 131.499 -55.5s39.5 -57.833 39.5 -94.5c0 -24 -4.83301 -45.833 -14.5 -65.5s-25.5 -36.5 -47.5 -50.5s-51 -24.833 -87 -32.5s-80.333 -11.5 -133 -11.5c-39.333 0 -75.5 2.66699 -108.5 8
s-62 15.166 -87 29.499s-45.5 34 -61.5 59s-27 56.833 -33 95.5l234 38c0.666992 -18.667 2.33398 -33.834 5.00098 -45.501s6.33398 -20.834 11.001 -27.501s10.5 -11.167 17.5 -13.5s15.167 -3.5 24.5 -3.5c3.33301 0 7.5 0.333008 12.5 1s10 2.5 15 5.5
s9.16699 7.66699 12.5 14s5 15.166 5 26.499s-1.83301 20.666 -5.5 27.999s-8 13 -13 17s-10.5 6.83301 -16.5 8.5s-11 2.5 -15 2.5c-24.667 1.33301 -52.167 3.83301 -82.5 7.5s-58.666 11.834 -84.999 24.501s-48.5 31.5 -66.5 56.5s-27 59.5 -27 103.5
c0 25.333 3.5 49.166 10.5 71.499s20.5 42 40.5 59s47.667 30.333 83 40s81.333 14.5 138 14.5zM318.002 267.001c4 0 7.6709 0.666992 11.0039 2s6.16602 4 8.49902 8s4 9.66699 5 17s1.5 17.333 1.5 30c0 24.667 -2.16699 40.167 -6.5 46.5s-10.833 9.5 -19.5 9.5
s-15.334 -3.16699 -20.001 -9.5s-7 -21.833 -7 -46.5c0 -12.667 0.666992 -22.667 2 -30s3.16602 -13 5.49902 -17s5.16602 -6.66699 8.49902 -8s7 -2 11 -2z" />
    <glyph glyph-name="g_l" unicode="gl" horiz-adv-x="985" 
d="M329 510c21.333 0 47.998 -0.999023 79.998 -2.99902c2.66699 22.667 8.16699 44.5 16.5 65.5s21.5 39.667 39.5 56s41.5 29.333 70.5 39s66.167 14.5 111.5 14.5c28.667 0 59.334 -2.66699 92.001 -8s62.667 -14.666 90 -27.999s50.166 -31.666 68.499 -54.999
s27.5 -53.333 27.5 -90v-501h-240v501c0 11.333 -0.333008 21.833 -1 31.5s-2.5 18.167 -5.5 25.5s-7.66699 13.166 -14 17.499s-15.5 6.5 -27.5 6.5c-17.333 0 -29.333 -6 -36 -18s-10 -25.333 -10 -40c0 -7.33301 0.833008 -14.666 2.5 -21.999
s3.83398 -13.666 6.50098 -18.999l36 -78l-60 -22c2 -11.333 3 -22.666 3 -33.999c0 -17.333 -2.33301 -33.833 -7 -49.5s-12.667 -30 -24 -43s-26.333 -24.333 -45 -34s-42.334 -17.167 -71.001 -22.5c61.333 -10.667 105.166 -29.167 131.499 -55.5
s39.5 -57.833 39.5 -94.5c0 -24 -4.83301 -45.833 -14.5 -65.5s-25.5 -36.5 -47.5 -50.5s-51 -24.833 -87 -32.5s-80.333 -11.5 -133 -11.5c-39.333 0 -75.5 2.66699 -108.5 8s-62 15.166 -87 29.499s-45.5 34 -61.5 59s-27 56.833 -33 95.5l234 38
c0.666992 -18.667 2.33398 -33.834 5.00098 -45.501s6.33398 -20.834 11.001 -27.501s10.5 -11.167 17.5 -13.5s15.167 -3.5 24.5 -3.5c3.33301 0 7.5 0.333008 12.5 1s10 2.5 15 5.5s9.16699 7.66699 12.5 14s5 15.166 5 26.499s-1.83301 20.666 -5.5 27.999s-8 13 -13 17
s-10.5 6.83301 -16.5 8.5s-11 2.5 -15 2.5c-24.667 1.33301 -52.167 3.83301 -82.5 7.5s-58.666 11.834 -84.999 24.501s-48.5 31.5 -66.5 56.5s-27 59.5 -27 103.5c0 25.333 3.5 49.166 10.5 71.499s20.5 42 40.5 59s47.667 30.333 83 40s81.333 14.5 138 14.5z
M317.998 267.001c4 0 7.6709 0.666992 11.0039 2s6.16602 4 8.49902 8s4 9.66699 5 17s1.5 17.333 1.5 30c0 24.667 -2.16699 40.167 -6.5 46.5s-10.833 9.5 -19.5 9.5s-15.334 -3.16699 -20.001 -9.5s-7 -21.833 -7 -46.5c0 -12.667 0.666992 -22.667 2 -30
s3.16602 -13 5.49902 -17s5.16602 -6.66699 8.49902 -8s7 -2 11 -2z" />
    <glyph glyph-name="s_h" unicode="sh" horiz-adv-x="1285" 
d="M913 450c0 0.666992 0.670898 2.33398 2.00391 5.00098l8 16c3.33301 6.66699 9.33301 13 18 19s20.167 11.167 34.5 15.5s33.5 6.5 57.5 6.5c26 0 50.667 -4.83301 74 -14.5s43.833 -25.334 61.5 -47.001s31.5 -49.5 41.5 -83.5s15 -75.333 15 -124v-243h-240v250
c0 42 -1.83301 72.5 -5.5 91.5s-11.834 28.5 -24.501 28.5s-20.834 -9.5 -24.501 -28.5s-5.5 -49.5 -5.5 -91.5v-250h-240v501c0 11.333 -0.333008 21.833 -1 31.5s-2.5 18.167 -5.5 25.5s-7.66699 13.166 -14 17.499s-15.5 6.5 -27.5 6.5
c-21.333 0 -37.5 -8.33301 -48.5 -25s-16.5 -46.667 -16.5 -90c0 -10 0.333008 -20.833 1 -32.5s1.66699 -24.167 3 -37.5l7 -79l-234 -38c-0.666992 21.333 -2 38 -4 50s-4.33301 21 -7 27s-5.5 9.66699 -8.5 11s-6.16699 2 -9.5 2c-9.33301 0 -18.333 -2.66699 -27 -8
s-13 -16.666 -13 -33.999c0 -20.667 7.5 -35.5 22.5 -44.5s33.667 -15.5 56 -19.5s46.666 -6.83301 72.999 -8.5s50.666 -5.33398 72.999 -11.001s41 -14.834 56 -27.501s22.5 -31.667 22.5 -57v-10c0 -22 -6.33301 -42.667 -19 -62s-31.334 -36.166 -56.001 -50.499
s-55.5 -25.833 -92.5 -34.5s-79.5 -13 -127.5 -13c-34 0 -65.167 2.66699 -93.5 8s-53.166 15.166 -74.499 29.499s-38.833 33.833 -52.5 58.5s-23.5 56.667 -29.5 96l234 38c0.666992 -20 1.83398 -36 3.50098 -48s3.66699 -21 6 -27s5.33301 -10 9 -12s7.5 -3 11.5 -3
c8.66699 0 16.167 2.66699 22.5 8s9.5 15.666 9.5 30.999c0 21.333 -7.33301 36.833 -22 46.5s-33 16.667 -55 21s-45.667 7.33301 -71 9s-49 5.33398 -71 11.001s-40.333 14.667 -55 27s-22 31.166 -22 56.499v7c0 19.333 5 38.666 15 57.999s26.5 36.833 49.5 52.5
s52.667 28.334 89 38.001s81.166 14.5 134.499 14.5c28.667 0 56 -2 82 -6c2.66699 22.667 8 44.834 16 66.501s21 40.667 39 57s41.667 29.5 71 39.5s66.666 15 111.999 15c28.667 0 59.334 -2.66699 92.001 -8s62.5 -14.666 89.5 -27.999s49.5 -31.666 67.5 -54.999
s27 -53.333 27 -90z" />
    <glyph glyph-name="c_k" unicode="ck" horiz-adv-x="1311" 
d="M917 304l109 196h265l-200 -250l200 -250h-265l-109 196v-196h-240v501c0 11.333 -0.333008 21.833 -1 31.5s-2.5 18.167 -5.5 25.5s-7.66699 13.166 -14 17.499s-15.5 6.5 -27.5 6.5c-21.333 0 -37.5 -8.33301 -48.5 -25s-16.5 -46.667 -16.5 -90
c0 -10 0.333008 -20.833 1 -32.5s1.66699 -24.167 3 -37.5l7 -79l-234 -38c-1.33301 36 -4.16602 60 -8.49902 72s-11.166 18 -20.499 18c-12.667 0 -20.834 -9.5 -24.501 -28.5s-5.5 -49.5 -5.5 -91.5s1.83301 -72.5 5.5 -91.5s11.834 -28.5 24.501 -28.5
c9.33301 0 16.166 6 20.499 18s7.16602 36 8.49902 72l234 -38c-6 -41.333 -16.333 -74.5 -31 -99.5s-33.167 -44.333 -55.5 -58s-48.333 -22.834 -78 -27.501s-62.5 -7 -98.5 -7c-43.333 0 -81.666 4.5 -114.999 13.5s-61.5 23.667 -84.5 44s-40.5 47 -52.5 80
s-18 73.833 -18 122.5s6 89.5 18 122.5s29.5 59.667 52.5 80s51.167 35 84.5 44s71.666 13.5 114.999 13.5c15.333 0 30.5 -0.5 45.5 -1.5s29.167 -2.83301 42.5 -5.5c2.66699 23.333 8 45.833 16 67.5s20.833 40.667 38.5 57s41.334 29.5 71.001 39.5s67.167 15 112.5 15
c28.667 0 59.5 -2.66699 92.5 -8s63.167 -14.666 90.5 -27.999s50.166 -31.666 68.499 -54.999s27.5 -53.333 27.5 -90v-197z" />
    <glyph glyph-name="s_l" unicode="sl" horiz-adv-x="985" 
d="M685 501c0 11.333 -0.329102 21.833 -0.996094 31.5s-2.5 18.167 -5.5 25.5s-7.66699 13.166 -14 17.499s-15.5 6.5 -27.5 6.5c-21.333 0 -37.5 -8.33301 -48.5 -25s-16.5 -46.667 -16.5 -90c0 -10 0.333008 -20.833 1 -32.5s1.66699 -24.167 3 -37.5l7 -79l-234 -38
c-0.666992 21.333 -2 38 -4 50s-4.33301 21 -7 27s-5.5 9.66699 -8.5 11s-6.16699 2 -9.5 2c-9.33301 0 -18.333 -2.66699 -27 -8s-13 -16.666 -13 -33.999c0 -20.667 7.5 -35.5 22.5 -44.5s33.667 -15.5 56 -19.5s46.666 -6.83301 72.999 -8.5
s50.666 -5.33398 72.999 -11.001s41 -14.834 56 -27.501s22.5 -31.667 22.5 -57v-10c0 -22 -6.33301 -42.667 -19 -62s-31.334 -36.166 -56.001 -50.499s-55.5 -25.833 -92.5 -34.5s-79.5 -13 -127.5 -13c-34 0 -65.167 2.66699 -93.5 8s-53.166 15.166 -74.499 29.499
s-38.833 33.833 -52.5 58.5s-23.5 56.667 -29.5 96l234 38c0.666992 -20 1.83398 -36 3.50098 -48s3.66699 -21 6 -27s5.33301 -10 9 -12s7.5 -3 11.5 -3c8.66699 0 16.167 2.66699 22.5 8s9.5 15.666 9.5 30.999c0 21.333 -7.33301 36.833 -22 46.5s-33 16.667 -55 21
s-45.667 7.33301 -71 9s-49 5.33398 -71 11.001s-40.333 14.667 -55 27s-22 31.166 -22 56.499v7c0 19.333 5 38.666 15 57.999s26.5 36.833 49.5 52.5s52.667 28.334 89 38.001s81.166 14.5 134.499 14.5c28.667 0 56 -2 82 -6c2.66699 22.667 8 44.834 16 66.501
s21 40.667 39 57s41.667 29.5 71 39.5s66.666 15 111.999 15c28.667 0 59.5 -2.66699 92.5 -8s63.167 -14.666 90.5 -27.999s50.166 -31.666 68.499 -54.999s27.5 -53.333 27.5 -90v-501h-240v501z" />
    <glyph glyph-name="c_t" unicode="ct" horiz-adv-x="1215" 
d="M313 510c15.333 0 30.5029 -0.499023 45.5029 -1.49902s29.5 -2.83301 43.5 -5.5c3.33301 24.667 10.333 47.834 21 69.501s25.667 40.667 45 57s43.5 29.166 72.5 38.499s63.5 14 103.5 14c27.333 0 55.333 -2.66699 84 -8s55.5 -15 80.5 -29s47.167 -32.667 66.5 -56
s33.666 -53 42.999 -89h239v-140h-239v-130c0 -34.667 1 -60 3 -76s8.66699 -24 20 -24c8.66699 0 14.5 6 17.5 18s5.16699 36 6.5 72l222 -38c-6.66699 -41.333 -16.334 -74.5 -29.001 -99.5s-29 -44.333 -49 -58s-44 -22.834 -72 -27.501s-60 -7 -96 -7
c-43.333 0 -81.333 4.5 -114 13.5s-60 23.667 -82 44s-38.667 47 -50 80s-17 73.833 -17 122.5v110h-60v140h61c0 20 -3.33301 38.667 -10 56s-18 26 -34 26c-7.33301 0 -14.833 -2.33301 -22.5 -7s-14.834 -12.5 -21.501 -23.5s-12 -25.667 -16 -44s-6 -41.166 -6 -68.499
v-20.5c0 -7 0.333008 -14.167 1 -21.5l6 -79l-234 -38c-1.33301 36 -4.16602 60 -8.49902 72s-11.166 18 -20.499 18c-12.667 0 -20.834 -9.5 -24.501 -28.5s-5.5 -49.5 -5.5 -91.5s1.83301 -72.5 5.5 -91.5s11.834 -28.5 24.501 -28.5c9.33301 0 16.166 6 20.499 18
s7.16602 36 8.49902 72l234 -38c-6 -41.333 -16.333 -74.5 -31 -99.5s-33.167 -44.333 -55.5 -58s-48.333 -22.834 -78 -27.501s-62.5 -7 -98.5 -7c-43.333 0 -81.666 4.5 -114.999 13.5s-61.5 23.667 -84.5 44s-40.5 47 -52.5 80s-18 73.833 -18 122.5s6 89.5 18 122.5
s29.5 59.667 52.5 80s51.167 35 84.5 44s71.666 13.5 114.999 13.5z" />
    <glyph glyph-name="g_y" unicode="gy" horiz-adv-x="1285" 
d="M925 326l0.996094 -13.5c0.666992 -9 2.16699 -18.667 4.5 -29s5.5 -19.833 9.5 -28.5s9 -13 15 -13c12.667 0 20.834 6.66699 24.501 20s5.5 34.666 5.5 63.999v175h240v-350c0 -48.667 -6 -89.5 -18 -122.5s-29.5 -59.667 -52.5 -80s-51.167 -35 -84.5 -44
s-71.666 -13.5 -114.999 -13.5c-36 0 -68.833 2.33301 -98.5 7s-55.667 13.834 -78 27.501s-40.833 33 -55.5 58s-25 58.167 -31 99.5l234 38c1.33301 -36 4.16602 -60 8.49902 -72s11.166 -18 20.499 -18c6 0 10.667 1.5 14 4.5s6.33301 8.83301 9 17.5
s4.83398 21 6.50098 37s3.83398 37.333 6.50098 64l18 50c-2 -3.33301 -4.16699 -7.83301 -6.5 -13.5s-6.5 -11.667 -12.5 -18s-14.833 -12.166 -26.5 -17.499s-27.834 -9 -48.501 -11c-5.33301 -0.666992 -10.166 -1.16699 -14.499 -1.5s-8.83301 -0.5 -13.5 -0.5
c-25.333 0 -50 3.5 -74 10.5s-45.5 18 -64.5 33s-34.333 34.333 -46 58s-17.5 52.167 -17.5 85.5v172c0 11.333 -0.333008 21.833 -1 31.5s-2.5 18.167 -5.5 25.5s-7.66699 13.166 -14 17.499s-15.5 6.5 -27.5 6.5c-17.333 0 -29.333 -6 -36 -18s-10 -25.333 -10 -40
c0 -7.33301 0.833008 -14.666 2.5 -21.999s3.83398 -13.666 6.50098 -18.999l36 -78l-60 -22c2 -11.333 3 -22.666 3 -33.999c0 -17.333 -2.33301 -33.833 -7 -49.5s-12.667 -30 -24 -43s-26.333 -24.333 -45 -34s-42.334 -17.167 -71.001 -22.5
c61.333 -10.667 105.166 -29.167 131.499 -55.5s39.5 -57.833 39.5 -94.5c0 -24 -4.83301 -45.833 -14.5 -65.5s-25.5 -36.5 -47.5 -50.5s-51 -24.833 -87 -32.5s-80.333 -11.5 -133 -11.5c-39.333 0 -75.5 2.66699 -108.5 8s-62 15.166 -87 29.499s-45.5 34 -61.5 59
s-27 56.833 -33 95.5l234 38c0.666992 -18.667 2.33398 -33.834 5.00098 -45.501s6.33398 -20.834 11.001 -27.501s10.5 -11.167 17.5 -13.5s15.167 -3.5 24.5 -3.5c3.33301 0 7.5 0.333008 12.5 1s10 2.5 15 5.5s9.16699 7.66699 12.5 14s5 15.166 5 26.499
s-1.83301 20.666 -5.5 27.999s-8 13 -13 17s-10.5 6.83301 -16.5 8.5s-11 2.5 -15 2.5c-24.667 1.33301 -52.167 3.83301 -82.5 7.5s-58.666 11.834 -84.999 24.501s-48.5 31.5 -66.5 56.5s-27 59.5 -27 103.5c0 25.333 3.5 49.166 10.5 71.499s20.5 42 40.5 59
s47.667 30.333 83 40s81.333 14.5 138 14.5c21.333 0 48 -1 80 -3c2.66699 22.667 8.16699 44.5 16.5 65.5s21.5 39.667 39.5 56s41.5 29.333 70.5 39s66.167 14.5 111.5 14.5c28.667 0 59.334 -2.66699 92.001 -8s62.667 -14.666 90 -27.999s50.166 -31.666 68.499 -54.999
s27.5 -53.333 27.5 -90v-175zM317.996 267c4 0 7.6709 0.666992 11.0039 2s6.16602 4 8.49902 8s4 9.66699 5 17s1.5 17.333 1.5 30c0 24.667 -2.16699 40.167 -6.5 46.5s-10.833 9.5 -19.5 9.5s-15.334 -3.16699 -20.001 -9.5s-7 -21.833 -7 -46.5
c0 -12.667 0.666992 -22.667 2 -30s3.16602 -13 5.49902 -17s5.16602 -6.66699 8.49902 -8s7 -2 11 -2z" />
    <glyph glyph-name="s_b" unicode="sb" horiz-adv-x="1284" 
d="M682 501c0 11.333 -0.166992 21.8359 -0.5 31.5029s-1.66602 18.167 -3.99902 25.5s-6.66602 13.166 -12.999 17.499s-15.5 6.5 -27.5 6.5c-21.333 0 -37.5 -8.33301 -48.5 -25s-16.5 -46.667 -16.5 -90c0 -10 0.333008 -20.833 1 -32.5s1.66699 -24.167 3 -37.5l7 -79
l-234 -38c-0.666992 21.333 -2 38 -4 50s-4.33301 21 -7 27s-5.5 9.66699 -8.5 11s-6.16699 2 -9.5 2c-9.33301 0 -18.333 -2.66699 -27 -8s-13 -16.666 -13 -33.999c0 -20.667 7.5 -35.5 22.5 -44.5s33.667 -15.5 56 -19.5s46.666 -6.83301 72.999 -8.5
s50.666 -5.33398 72.999 -11.001s41 -14.834 56 -27.501s22.5 -31.667 22.5 -57v-10c0 -22 -6.33301 -42.667 -19 -62s-31.334 -36.166 -56.001 -50.499s-55.5 -25.833 -92.5 -34.5s-79.5 -13 -127.5 -13c-34 0 -65.167 2.66699 -93.5 8s-53.166 15.166 -74.499 29.499
s-38.833 33.833 -52.5 58.5s-23.5 56.667 -29.5 96l234 38c0.666992 -20 1.83398 -36 3.50098 -48s3.66699 -21 6 -27s5.33301 -10 9 -12s7.5 -3 11.5 -3c8.66699 0 16.167 2.66699 22.5 8s9.5 15.666 9.5 30.999c0 21.333 -7.33301 36.833 -22 46.5s-33 16.667 -55 21
s-45.667 7.33301 -71 9s-49 5.33398 -71 11.001s-40.333 14.667 -55 27s-22 31.166 -22 56.499v7c0 19.333 5 38.666 15 57.999s26.5 36.833 49.5 52.5s52.667 28.334 89 38.001s81.166 14.5 134.499 14.5c28.667 0 56 -2 82 -6c2.66699 22.667 8 44.834 16 66.501
s21 40.667 39 57s41.667 29.5 71 39.5s66.666 15 111.999 15c28.667 0 59.334 -2.66699 92.001 -8s62.5 -14.833 89.5 -28.5s49.5 -32.167 67.5 -55.5s27 -53.333 27 -90l-12 -50c2 2.66699 4.5 7.5 7.5 14.5s8.5 14 16.5 21s19.5 13.167 34.5 18.5s35.5 8 61.5 8
c26.667 0 51.667 -4.83301 75 -14.5s43.666 -25.334 60.999 -47.001s31 -49.5 41 -83.5s15 -75.333 15 -124c0 -47.333 -5.16699 -87.166 -15.5 -119.499s-25.5 -58.333 -45.5 -78s-45 -33.834 -75 -42.501s-64.667 -13 -104 -13c-40 0 -72.667 4.83301 -98 14.5
s-44.666 27.5 -57.999 53.5l-30 -58h-114v501zM922 250.003c0 -42 1.83301 -72.5 5.5 -91.5s11.834 -28.5 24.501 -28.5c13.333 0 21.666 9.5 24.999 28.5s5 49.5 5 91.5s-1.66699 72.5 -5 91.5s-11.666 28.5 -24.999 28.5c-12.667 0 -20.834 -9.5 -24.501 -28.5
s-5.5 -49.5 -5.5 -91.5z" />
    <glyph glyph-name="c_b" unicode="cb" horiz-adv-x="1250" 
d="M341 280c-1.33301 36 -4.16797 60.002 -8.50098 72.002s-11.166 18 -20.499 18c-12.667 0 -20.834 -9.5 -24.501 -28.5s-5.5 -49.5 -5.5 -91.5s1.83301 -72.5 5.5 -91.5s11.834 -28.5 24.501 -28.5c9.33301 0 16.166 6 20.499 18s7.16602 36 8.49902 72l234 -38
c-6 -41.333 -16.333 -74.5 -31 -99.5s-33.167 -44.333 -55.5 -58s-48.333 -22.834 -78 -27.501s-62.5 -7 -98.5 -7c-43.333 0 -81.666 4.5 -114.999 13.5s-61.5 23.667 -84.5 44s-40.5 47 -52.5 80s-18 73.833 -18 122.5s6 89.5 18 122.5s29.5 59.667 52.5 80
s51.167 35 84.5 44s71.666 13.5 114.999 13.5c28.667 0 56 -2 82 -6c2.66699 22.667 8 44.834 16 66.501s21 40.667 39 57s41.667 29.5 71 39.5s66.666 15 111.999 15c28.667 0 59.334 -2.66699 92.001 -8s62.5 -14.833 89.5 -28.5s49.5 -32.167 67.5 -55.5
s27 -53.333 27 -90l-12 -50c2 2.66699 4.5 7.5 7.5 14.5s8.5 14 16.5 21s19.5 13.167 34.5 18.5s35.5 8 61.5 8c26.667 0 51.667 -4.83301 75 -14.5s43.666 -25.334 60.999 -47.001s31 -49.5 41 -83.5s15 -75.333 15 -124c0 -47.333 -5.16699 -87.166 -15.5 -119.499
s-25.5 -58.333 -45.5 -78s-45 -33.834 -75 -42.501s-64.667 -13 -104 -13c-40 0 -72.667 4.83301 -98 14.5s-44.666 27.5 -57.999 53.5l-30 -58h-114v501c0 11.333 -0.166992 21.833 -0.5 31.5s-1.66602 18.167 -3.99902 25.5s-6.66602 13.166 -12.999 17.499
s-15.5 6.5 -27.5 6.5c-21.333 0 -37.5 -8.33301 -48.5 -25s-16.5 -46.667 -16.5 -90v-32.5c0 -11.667 1.33301 -24.167 4 -37.5l13 -79zM922.998 250.002c0 -42 1.83301 -72.5 5.5 -91.5s11.834 -28.5 24.501 -28.5s20.834 9.5 24.501 28.5s5.5 49.5 5.5 91.5
s-1.83301 72.5 -5.5 91.5s-11.834 28.5 -24.501 28.5s-20.834 -9.5 -24.501 -28.5s-5.5 -49.5 -5.5 -91.5z" />
    <glyph glyph-name="s_y" unicode="sy" horiz-adv-x="1285" 
d="M685 500c0 11.333 -0.332031 22.001 -0.999023 32.001s-2.5 18.667 -5.5 26s-7.66699 13.166 -14 17.499s-15.5 6.5 -27.5 6.5c-21.333 0 -37.5 -8.33301 -48.5 -25s-16.5 -46.667 -16.5 -90c0 -10 0.333008 -20.833 1 -32.5s1.66699 -24.167 3 -37.5l7 -79l-234 -38
c-0.666992 21.333 -2 38 -4 50s-4.33301 21 -7 27s-5.5 9.66699 -8.5 11s-6.16699 2 -9.5 2c-9.33301 0 -18.333 -2.66699 -27 -8s-13 -16.666 -13 -33.999c0 -20.667 7.5 -35.5 22.5 -44.5s33.667 -15.5 56 -19.5s46.666 -6.83301 72.999 -8.5
s50.666 -5.33398 72.999 -11.001s41 -14.834 56 -27.501s22.5 -31.667 22.5 -57v-10c0 -22 -6.33301 -42.667 -19 -62s-31.334 -36.166 -56.001 -50.499s-55.5 -25.833 -92.5 -34.5s-79.5 -13 -127.5 -13c-34 0 -65.167 2.66699 -93.5 8s-53.166 15.166 -74.499 29.499
s-38.833 33.833 -52.5 58.5s-23.5 56.667 -29.5 96l234 38c0.666992 -20 1.83398 -36 3.50098 -48s3.66699 -21 6 -27s5.33301 -10 9 -12s7.5 -3 11.5 -3c8.66699 0 16.167 2.66699 22.5 8s9.5 15.666 9.5 30.999c0 21.333 -7.33301 36.833 -22 46.5s-33 16.667 -55 21
s-45.667 7.33301 -71 9s-49 5.33398 -71 11.001s-40.333 14.667 -55 27s-22 31.166 -22 56.499v7c0 19.333 5 38.666 15 57.999s26.5 36.833 49.5 52.5s52.667 28.334 89 38.001s81.166 14.5 134.499 14.5c28.667 0 56 -2 82 -6c2.66699 22.667 8 44.834 16 66.501
s21 40.667 39 57s41.667 29.5 71 39.5s66.666 15 111.999 15c28.667 0 59.5 -2.66699 92.5 -8s63.167 -14.833 90.5 -28.5s50.166 -32.167 68.499 -55.5s27.5 -53.333 27.5 -90v-175l1 -13.5c0.666992 -9 2.16699 -18.667 4.5 -29s5.5 -19.833 9.5 -28.5s9 -13 15 -13
c12.667 0 20.834 6.66699 24.501 20s5.5 34.666 5.5 63.999v175h240v-350c0 -48.667 -6 -89.5 -18 -122.5s-29.5 -59.667 -52.5 -80s-51.167 -35 -84.5 -44s-71.666 -13.5 -114.999 -13.5c-36 0 -68.833 2.33301 -98.5 7s-55.667 13.834 -78 27.501s-40.833 33 -55.5 58
s-25 58.167 -31 99.5l234 38c1.33301 -36 4.16602 -60 8.49902 -72s11.166 -18 20.499 -18c6 0 10.667 1.5 14 4.5s6.33301 8.83301 9 17.5s4.83398 21 6.50098 37s3.83398 37.333 6.50098 64l18 50c-2 -3.33301 -4.16699 -7.83301 -6.5 -13.5s-6.5 -11.667 -12.5 -18
s-14.833 -12.166 -26.5 -17.499s-27.834 -9 -48.501 -11c-5.33301 -0.666992 -10.166 -1.16699 -14.499 -1.5s-9.16602 -0.5 -14.499 -0.5c-24.667 0 -49 3.5 -73 10.5s-45.5 18 -64.5 33s-34.333 34.333 -46 58s-17.5 52.167 -17.5 85.5v172v0z" />
    <glyph glyph-name="c_y" unicode="cy" horiz-adv-x="1265" 
d="M905 325c0 -0.666992 0.333008 -5.50195 1 -14.502s2.16699 -18.667 4.5 -29s5.83301 -19.666 10.5 -27.999s11 -12.5 19 -12.5c10 0 16.667 7.66699 20 23s5 35.666 5 60.999v175h240v-350c0 -49.333 -6 -90.666 -18 -123.999s-29.833 -60 -53.5 -80
s-52.834 -34.333 -87.501 -43s-75 -13 -121 -13c-35.333 0 -67.333 2.66699 -96 8s-53.667 15.166 -75 29.499s-38.833 34 -52.5 59s-23.5 56.833 -29.5 95.5l234 38c0.666992 -20 1.83398 -35.833 3.50098 -47.5s3.66699 -20.667 6 -27s5.33301 -10.5 9 -12.5
s7.5 -3 11.5 -3c4.66699 0 8.66699 1.33301 12 4s6.33301 8.33398 9 17.001s5 21 7 37s4.33301 37.667 7 65l18 50c-2.66699 -4 -5.16699 -9 -7.5 -15s-6.5 -11.833 -12.5 -17.5s-14.667 -11 -26 -16s-27.333 -8.83301 -48 -11.5c-4 -0.666992 -8.66699 -1.16699 -14 -1.5
s-11.333 -0.5 -18 -0.5c-24 0 -47.667 3.5 -71 10.5s-44.5 18 -63.5 33s-34.333 34.333 -46 58s-17.5 52.167 -17.5 85.5v172c0 11.333 -0.333008 22 -1 32s-2.5 18.667 -5.5 26s-7.66699 13.166 -14 17.499s-15.5 6.5 -27.5 6.5c-20.667 0 -34.667 -8 -42 -24
s-11 -45 -11 -87c0 -13.333 0.333008 -25.666 1 -36.999s1.66699 -23.666 3 -36.999l7 -79l-234 -38c-1.33301 36 -4.16602 60 -8.49902 72s-11.166 18 -20.499 18c-12.667 0 -20.834 -9.5 -24.501 -28.5s-5.5 -49.5 -5.5 -91.5s1.83301 -72.5 5.5 -91.5
s11.834 -28.5 24.501 -28.5c9.33301 0 16.166 6 20.499 18s7.16602 36 8.49902 72l234 -38c-6 -38.667 -15.833 -70.5 -29.5 -95.5s-31.167 -44.667 -52.5 -59s-46.333 -24.166 -75 -29.499s-60.667 -8 -96 -8c-46 0 -86.333 4.33301 -121 13s-63.834 23 -87.501 43
s-41.5 46.5 -53.5 79.5s-18 74.167 -18 123.5c0 48.667 5.83301 89.667 17.5 123s29 60.166 52 80.499s51.333 35 85 44s72.167 13.5 115.5 13.5c15.333 0 30.5 -0.5 45.5 -1.5s29.167 -2.83301 42.5 -5.5c2.66699 24 7.5 46.833 14.5 68.5s18.833 40.667 35.5 57
s39 29.333 67 39s64 14.5 108 14.5c29.333 0 60.333 -2.66699 93 -8s62.834 -14.833 90.501 -28.5s50.667 -32.167 69 -55.5s27.5 -53.333 27.5 -90v-175z" />
    <glyph glyph-name="r_y" unicode="ry" horiz-adv-x="1265" 
d="M361 280c0 26.667 -1.83301 48.332 -5.5 64.999s-11.834 25 -24.501 25s-20.834 -9.5 -24.501 -28.5s-5.5 -49.5 -5.5 -91.5v-250h-241v500h114l30 -58c17.333 28.667 38 47.167 62 55.5s52.667 12.5 86 12.5c9.33301 0 17.833 -0.166992 25.5 -0.5
s15.167 -0.833008 22.5 -1.5c2.66699 23.333 7.83398 45.5 15.501 66.5s19.667 39.5 36 55.5s38.5 28.667 66.5 38s63.667 14 107 14c29.333 0 60.333 -2.66699 93 -8s62.834 -14.833 90.501 -28.5s50.667 -32.167 69 -55.5s27.5 -53.333 27.5 -90v-175
c0 -0.666992 0.333008 -5.5 1 -14.5s2.16699 -18.667 4.5 -29s5.83301 -19.666 10.5 -27.999s11 -12.5 19 -12.5c10 0 16.667 7.66699 20 23s5 35.666 5 60.999v175h240v-350c0 -49.333 -6 -90.666 -18 -123.999s-29.833 -60 -53.5 -80s-52.834 -34.333 -87.501 -43
s-75 -13 -121 -13c-35.333 0 -67.333 2.66699 -96 8s-53.667 15.166 -75 29.499s-38.833 34 -52.5 59s-23.5 56.833 -29.5 95.5l234 38c0.666992 -20 1.83398 -35.833 3.50098 -47.5s3.66699 -20.667 6 -27s5.33301 -10.5 9 -12.5s7.5 -3 11.5 -3
c4.66699 0 8.66699 1.33301 12 4s6.33301 8.33398 9 17.001s5 21 7 37s4.33301 37.667 7 65l18 50c-2.66699 -4 -5.16699 -9 -7.5 -15s-6.5 -11.833 -12.5 -17.5s-14.667 -11 -26 -16s-27.333 -8.83301 -48 -11.5c-4 -0.666992 -8.66699 -1.16699 -14 -1.5
s-11.333 -0.5 -18 -0.5c-24 0 -47.667 3.5 -71 10.5s-44.5 18 -63.5 33s-34.333 34.333 -46 58s-17.5 52.167 -17.5 85.5v172c0 10.667 -0.166992 21 -0.5 31s-2 18.833 -5 26.5s-7.66699 13.667 -14 18s-15.5 6.5 -27.5 6.5c-20 0 -34 -7.33301 -42 -22
s-12 -40.667 -12 -78c0 -20 1 -36.333 3 -49s4.5 -24.5 7.5 -35.5s6.33301 -22.5 10 -34.5s7.16699 -27 10.5 -45z" />
    <glyph glyph-name="r_a" unicode="ra" horiz-adv-x="1230" 
d="M620 682c40.667 0 73.8379 -4.50098 99.5049 -13.501s46.334 -21.5 62.001 -37.5s27.167 -34.5 34.5 -55.5s12.666 -43.5 15.999 -67.5c7.33301 0.666992 15.833 1.16699 25.5 1.5s20.167 0.5 31.5 0.5c46 0 86.5 -4.33301 121.5 -13s64.333 -23 88 -43
s41.5 -46.667 53.5 -80s18 -74.666 18 -123.999v-250h-114l-30 58c-8 -9.33301 -14.333 -18.166 -19 -26.499s-11.5 -15.5 -20.5 -21.5s-21.833 -10.833 -38.5 -14.5s-40.334 -5.5 -71.001 -5.5c-36.667 0 -70.5 2.83301 -101.5 8.5s-57.667 14.667 -80 27
s-39.833 28 -52.5 47s-19 41.5 -19 67.5c0 26.667 6.5 48.5 19.5 65.5s31.5 30.167 55.5 39.5s53 15.833 87 19.5s72 5.5 114 5.5h30c-0.666992 34 -3 59.167 -7 75.5s-11.667 24.5 -23 24.5c-12.667 0 -20.834 -8.33301 -24.501 -25s-5.5 -38.334 -5.5 -65.001l-234 38
c2 8.66699 4.33301 19.667 7 33l8.5 42.5c3 15 6 30.167 9 45.5s5.16699 29.666 6.5 42.999c4.66699 38.667 2.16699 65 -7.5 79s-23.834 21 -42.501 21c-23.333 0 -38.833 -8.5 -46.5 -25.5s-9.83398 -41.833 -6.50098 -74.5c2.66699 -26.667 6.83398 -52.5 12.501 -77.5
s11.834 -53.833 18.501 -86.5l-234 -38c0 26.667 -1.83301 48.334 -5.5 65.001s-11.834 25 -24.501 25s-20.834 -9.5 -24.501 -28.5s-5.5 -49.5 -5.5 -91.5v-250h-241v500h114l30 -58c17.333 28.667 38 47.167 62 55.5s52.667 12.5 86 12.5
c9.33301 0 17.833 -0.166992 25.5 -0.5s15.167 -0.833008 22.5 -1.5c2.66699 22.667 7.83398 44.5 15.501 65.5s19.667 39.5 36 55.5s38.166 28.833 65.499 38.5s61.666 14.5 102.999 14.5zM930.004 191.999c-8.66699 2.66699 -16.998 4 -24.998 4
c-14 0 -24.333 -3.66699 -31 -11s-10 -15.333 -10 -24s3.16699 -16 9.5 -22s15.166 -9 26.499 -9c13.333 0 21.666 5.33301 24.999 16s5 26 5 46z" />
    <glyph glyph-name="s_a" unicode="sa" horiz-adv-x="1266" 
d="M966 192c-8.66699 2.66699 -17.3311 4 -25.998 4c-13.333 0 -23.333 -3.66699 -30 -11s-10 -15.333 -10 -24s3.16699 -16 9.5 -22s15.166 -9 26.499 -9c13.333 0 21.666 5.33301 24.999 16s5 26 5 46zM326.003 510c9.33301 0 20.0088 -0.169922 32.0088 -0.50293
s21.667 -0.833008 29 -1.5c2.66699 22.667 9.16699 44.5 19.5 65.5s25.166 39.5 44.499 55.5s43.833 28.833 73.5 38.5s65.5 14.5 107.5 14.5c40.667 0 75.167 -4.5 103.5 -13.5s51.666 -21.5 69.999 -37.5s32.333 -34.5 42 -55.5s16.167 -43.5 19.5 -67.5
c7.33301 0.666992 16 1.16699 26 1.5s20.667 0.5 32 0.5c46 0 86.5 -4.33301 121.5 -13s64.333 -23 88 -43s41.5 -46.667 53.5 -80s18 -74.666 18 -123.999v-250h-114l-30 58c-8 -9.33301 -14.5 -18.166 -19.5 -26.499s-12 -15.5 -21 -21.5s-21.667 -10.833 -38 -14.5
s-39.833 -5.5 -70.5 -5.5c-37.333 0 -71.333 2.83301 -102 8.5s-57.334 14.667 -80.001 27s-40.167 28 -52.5 47s-18.5 41.5 -18.5 67.5c0 26.667 6.5 48.5 19.5 65.5s31.5 30.167 55.5 39.5s53 15.833 87 19.5s72 5.5 114 5.5h30c-1.33301 34 -3.83301 59.167 -7.5 75.5
s-11.167 24.5 -22.5 24.5c-13.333 0 -21.666 -8.33301 -24.999 -25s-5 -38.334 -5 -65.001l-234 38c2 8.66699 4.33301 19.667 7 33l8.5 42.5c3 15 6 30.167 9 45.5s5.16699 29.666 6.5 42.999c2 19.333 1 35.333 -3 48s-9.66699 22.834 -17 30.501s-16 13.167 -26 16.5
s-19.667 5 -29 5c-11.333 0 -22 -2.16699 -32 -6.5s-18.5 -10.666 -25.5 -18.999s-12.167 -18.833 -15.5 -31.5s-4.33301 -27 -3 -43c2.66699 -26.667 6.83398 -52.5 12.501 -77.5s11.834 -53.833 18.501 -86.5l-234 -38c-0.666992 20 -1.83398 35.833 -3.50098 47.5
s-3.83398 20.667 -6.50098 27s-5.66699 10.5 -9 12.5s-7 3 -11 3c-8.66699 0 -17.334 -2.83301 -26.001 -8.5s-13 -14.834 -13 -27.501c0 -22.667 7.5 -39 22.5 -49s33.667 -17.167 56 -21.5s46.666 -7.33301 72.999 -9s50.666 -5.16699 72.999 -10.5s41 -14.166 56 -26.499
s22.5 -31.5 22.5 -57.5v-9c0 -23.333 -6.83301 -44.833 -20.5 -64.5s-32.834 -36.667 -57.501 -51s-54.334 -25.5 -89.001 -33.5s-73.334 -12 -116.001 -12c-36.667 0 -69.667 2.33301 -99 7s-55 13.834 -77 27.501s-40.333 33 -55 58s-25 58.167 -31 99.5l234 38
c1.33301 -36 4.16602 -60 8.49902 -72s11.166 -18 20.499 -18s17.166 2.66699 23.499 8s9.5 14.333 9.5 27c0 22.667 -7.33301 39.167 -22 49.5s-33 17.833 -55 22.5s-45.667 7.83398 -71 9.50098s-49 5.16699 -71 10.5s-40.333 14 -55 26s-22 31 -22 57v9
c0 18.667 5.16699 37.667 15.5 57s26.833 36.666 49.5 51.999s52.334 27.833 89.001 37.5s81.334 14.5 134.001 14.5z" />
    <glyph glyph-name="c_a" unicode="ca" horiz-adv-x="1258" 
d="M958 192c-8.66699 2.66699 -17.3311 4 -25.998 4c-13.333 0 -23.333 -3.66699 -30 -11s-10 -15.333 -10 -24s3.16699 -16 9.5 -22s15.166 -9 26.499 -9c13.333 0 21.666 5.33301 24.999 16s5 26 5 46zM312.003 510c9.33301 0 21 -0.167969 35 -0.500977
s24.667 -0.833008 32 -1.5c2.66699 22.667 9.16699 44.5 19.5 65.5s25.166 39.5 44.499 55.5s43.833 28.833 73.5 38.5s65.5 14.5 107.5 14.5c40.667 0 75.167 -4.5 103.5 -13.5s51.666 -21.5 69.999 -37.5s32.333 -34.5 42 -55.5s16.167 -43.5 19.5 -67.5
c7.33301 0.666992 16 1.16699 26 1.5s20.667 0.5 32 0.5c46 0 86.5 -4.33301 121.5 -13s64.333 -23 88 -43s41.5 -46.667 53.5 -80s18 -74.666 18 -123.999v-250h-114l-30 58c-8 -9.33301 -14.5 -18.166 -19.5 -26.499s-12 -15.5 -21 -21.5s-21.667 -10.833 -38 -14.5
s-39.833 -5.5 -70.5 -5.5c-37.333 0 -71.333 2.83301 -102 8.5s-57.334 14.667 -80.001 27s-40.167 28 -52.5 47s-18.5 41.5 -18.5 67.5c0 26.667 6.5 48.5 19.5 65.5s31.5 30.167 55.5 39.5s53 15.833 87 19.5s72 5.5 114 5.5h30c-1.33301 34 -3.83301 59.167 -7.5 75.5
s-11.167 24.5 -22.5 24.5c-13.333 0 -21.666 -8.33301 -24.999 -25s-5 -38.334 -5 -65.001l-234 38c2 8.66699 4.33301 19.667 7 33l8.5 42.5c3 15 6 30.167 9 45.5s5.16699 29.666 6.5 42.999c2 19.333 1 35.333 -3 48s-9.66699 22.834 -17 30.501s-16 13.167 -26 16.5
s-19.667 5 -29 5c-11.333 0 -22 -2.16699 -32 -6.5s-18.5 -10.666 -25.5 -18.999s-12.167 -18.833 -15.5 -31.5s-4.33301 -27 -3 -43c2.66699 -26.667 6.83398 -52.5 12.501 -77.5s11.834 -53.833 18.501 -86.5l-234 -38c-1.33301 36 -4.16602 60 -8.49902 72
s-11.166 18 -20.499 18c-12.667 0 -20.834 -9.5 -24.501 -28.5s-5.5 -49.5 -5.5 -91.5s1.83301 -72.5 5.5 -91.5s11.834 -28.5 24.501 -28.5c9.33301 0 16.166 6 20.499 18s7.16602 36 8.49902 72l234 -38c-6 -41.333 -16.333 -74.5 -31 -99.5s-33.167 -44.333 -55.5 -58
s-48.333 -22.834 -78 -27.501s-62.5 -7 -98.5 -7c-43.333 0 -81.666 4.5 -114.999 13.5s-61.5 23.667 -84.5 44s-40.5 47 -52.5 80s-18 73.833 -18 122.5s6 89.5 18 122.5s29.5 59.667 52.5 80s51.167 35 84.5 44s71.666 13.5 114.999 13.5z" />
    <glyph glyph-name="g_a" unicode="ga" horiz-adv-x="1274" 
d="M642 682c38.667 0 72.0029 -4.16602 100.003 -12.499s51.167 -20 69.5 -35s32.666 -33.333 42.999 -55s17.5 -45.5 21.5 -71.5c7.33301 0.666992 15.833 1.16699 25.5 1.5s20.167 0.5 31.5 0.5c46 0 86.5 -4.33301 121.5 -13s64.333 -23 88 -43s41.5 -46.667 53.5 -80
s18 -74.666 18 -123.999v-250h-114l-30 58c-8 -9.33301 -14.333 -18.166 -19 -26.499s-11.5 -15.5 -20.5 -21.5s-21.833 -10.833 -38.5 -14.5s-40.334 -5.5 -71.001 -5.5c-36.667 0 -70.5 2.83301 -101.5 8.5s-57.667 14.667 -80 27s-39.833 28 -52.5 47s-19 41.5 -19 67.5
c0 26.667 6.5 48.5 19.5 65.5s31.5 30.167 55.5 39.5s53 15.833 87 19.5s72 5.5 114 5.5h30c-0.666992 34 -3 59.167 -7 75.5s-11.667 24.5 -23 24.5c-12.667 0 -20.834 -8.33301 -24.501 -25s-5.5 -38.334 -5.5 -65.001l-234 38c2 10 5 22.833 9 38.5s7.66699 32 11 49
s6.33301 33.833 9 50.5s4 31 4 43c0 16 -2.33301 29.167 -7 39.5s-10.667 18.833 -18 25.5s-15.333 11.334 -24 14.001s-17 4 -25 4c-18.667 0 -31.334 -6 -38.001 -18s-10 -25.333 -10 -40c0 -8 0.833008 -15.5 2.5 -22.5s3.83398 -13.167 6.50098 -18.5l36 -78l-60 -22
c2 -11.333 3 -23 3 -35c0 -17.333 -2.33301 -33.666 -7 -48.999s-12.667 -29.5 -24 -42.5s-26.333 -24.333 -45 -34s-42.334 -17.167 -71.001 -22.5c61.333 -10.667 105.166 -29.167 131.499 -55.5s39.5 -58.5 39.5 -96.5c0 -23.333 -4.83301 -44.666 -14.5 -63.999
s-25.667 -36 -48 -50s-51.5 -24.833 -87.5 -32.5s-80 -11.5 -132 -11.5c-39.333 0 -75.5 2.66699 -108.5 8s-62 15.166 -87 29.499s-45.5 34 -61.5 59s-27 56.833 -33 95.5l234 38c0.666992 -18.667 2.33398 -33.834 5.00098 -45.501s6.33398 -20.834 11.001 -27.501
s10.5 -11.167 17.5 -13.5s15.167 -3.5 24.5 -3.5c3.33301 0 7.5 0.333008 12.5 1s10 2.5 15 5.5s9.16699 7.66699 12.5 14s5 15.166 5 26.499s-1.83301 20.666 -5.5 27.999s-8 13 -13 17s-10.5 6.83301 -16.5 8.5s-11 2.5 -15 2.5c-26.667 1.33301 -55.167 4 -85.5 8
s-58.5 12.333 -84.5 25s-47.667 31.667 -65 57s-26 60 -26 104c0 24.667 3.66699 48.167 11 70.5s20.833 41.833 40.5 58.5s47 29.834 82 39.501s80.167 14.5 135.5 14.5c23.333 0 51 -1 83 -3c2.66699 21.333 8 42.5 16 63.5s20.667 39.667 38 56s40.5 29.666 69.5 39.999
s65.5 15.5 109.5 15.5zM318.003 267.001c4 0 7.6709 0.666992 11.0039 2s6.16602 4 8.49902 8s4 9.66699 5 17s1.5 17.333 1.5 30c0 24.667 -2.16699 40.167 -6.5 46.5s-10.833 9.5 -19.5 9.5s-15.334 -3.16699 -20.001 -9.5s-7 -21.833 -7 -46.5
c0 -12.667 0.666992 -22.667 2 -30s3.16602 -13 5.49902 -17s5.16602 -6.66699 8.49902 -8s7 -2 11 -2zM974.007 192.001c-8 2.66699 -16.333 4 -25 4c-14 0 -24.333 -3.66699 -31 -11s-10 -15.333 -10 -24s3.33301 -16 10 -22s15.334 -9 26.001 -9
c13.333 0 21.666 5.33301 24.999 16s5 26 5 46z" />
    <glyph glyph-name="c_soft" unicode="&#x441;&#x44c;" horiz-adv-x="1247" 
d="M905 384l60 -0.000976562c30.667 0 60.334 -2.5 89.001 -7.5s54.167 -14.5 76.5 -28.5s40.333 -33.5 54 -58.5s20.5 -57.5 20.5 -97.5s-6.83301 -72.5 -20.5 -97.5s-31.667 -44.5 -54 -58.5s-47.833 -23.5 -76.5 -28.5s-58.334 -7.5 -89.001 -7.5h-300v500
c0 11.333 -0.333008 22 -1 32s-2.5 18.667 -5.5 26s-7.66699 13.166 -14 17.499s-15.5 6.5 -27.5 6.5c-20.667 0 -34.667 -8 -42 -24s-11 -45 -11 -87c0 -13.333 0.333008 -25.666 1 -36.999s1.66699 -23.666 3 -36.999l7 -79l-234 -38c-1.33301 36 -4.16602 60 -8.49902 72
s-11.166 18 -20.499 18c-12.667 0 -20.834 -9.5 -24.501 -28.5s-5.5 -49.5 -5.5 -91.5s1.83301 -72.5 5.5 -91.5s11.834 -28.5 24.501 -28.5c9.33301 0 16.166 6 20.499 18s7.16602 36 8.49902 72l234 -38c-6 -38.667 -15.833 -70.5 -29.5 -95.5s-31.167 -44.667 -52.5 -59
s-46.333 -24.166 -75 -29.499s-60.667 -8 -96 -8c-46 0 -86.333 4.33301 -121 13s-63.834 23 -87.501 43s-41.5 46.5 -53.5 79.5s-18 74.167 -18 123.5c0 48.667 5.83301 89.667 17.5 123s29 60.166 52 80.499s51.333 35 85 44s72.167 13.5 115.5 13.5
c15.333 0 30.5 -0.5 45.5 -1.5s29.167 -2.83301 42.5 -5.5c2.66699 24 7.5 46.833 14.5 68.5s18.833 40.667 35.5 57s39 29.333 67 39s64 14.5 108 14.5c29.333 0 60.333 -2.66699 93 -8s62.834 -14.833 90.501 -28.5s50.667 -32.167 69 -55.5s27.5 -53.333 27.5 -90v-116z
M935 129.999c12.667 0 21.834 4.16699 27.501 12.5s8.5 25.833 8.5 52.5s-2.83301 44.167 -8.5 52.5s-14.834 12.5 -27.501 12.5h-30v-130h30z" />
    <glyph glyph-name="y_k" unicode="yk" horiz-adv-x="1334" 
d="M658 682c28.667 0 59.335 -2.66992 92.002 -8.00293s62.667 -14.666 90 -27.999s50.166 -31.666 68.499 -54.999s27.5 -53.333 27.5 -90v-197l109 196h265l-200 -250l200 -250h-265l-109 196v-196h-240v501c0 11.333 -0.333008 21.833 -1 31.5s-2.5 18.167 -5.5 25.5
s-7.66699 13.166 -14 17.499s-15.5 6.5 -27.5 6.5s-21.333 -2.16699 -28 -6.5s-11.5 -10.166 -14.5 -17.499s-4.66699 -16 -5 -26s-0.5 -20.667 -0.5 -32v-350c0 -49.333 -6 -90.666 -18 -123.999s-29.833 -60 -53.5 -80s-52.834 -34.333 -87.501 -43s-75 -13 -121 -13
c-35.333 0 -67.333 2.66699 -96 8s-53.667 15.166 -75 29.499s-38.833 34 -52.5 59s-23.5 56.833 -29.5 95.5l234 38c0.666992 -20 1.83398 -35.833 3.50098 -47.5s3.66699 -20.667 6 -27s5.33301 -10.5 9 -12.5s7.5 -3 11.5 -3c5.33301 0 9.66602 1.33301 12.999 4
s6.16602 8.33398 8.49902 17.001s4.5 21 6.5 37s4.33301 37.667 7 65l18 50c-2.66699 -4 -5.5 -9.5 -8.5 -16.5s-8.5 -13.833 -16.5 -20.5s-19.833 -12.5 -35.5 -17.5s-37.5 -7.5 -65.5 -7.5c-24 0 -47.667 3.5 -71 10.5s-44.5 18 -63.5 33s-34.333 34.333 -46 58
s-17.5 52.167 -17.5 85.5v172h240v-175c0 -0.666992 0.333008 -5.5 1 -14.5s2.16699 -18.667 4.5 -29s5.83301 -19.666 10.5 -27.999s11 -12.5 19 -12.5c10 0 16.667 7.66699 20 23s5 35.666 5 60.999v175c0 36.667 9.16699 66.667 27.5 90s41.333 41.833 69 55.5
s57.834 23.167 90.501 28.5s63.667 8 93 8h18z" />
    <glyph glyph-name="y_l" unicode="yl" horiz-adv-x="996" 
d="M658 682c28.667 0 59.335 -2.66992 92.002 -8.00293s62.667 -14.666 90 -27.999s50.166 -31.666 68.499 -54.999s27.5 -53.333 27.5 -90v-501h-240v501c0 11.333 -0.333008 21.833 -1 31.5s-2.5 18.167 -5.5 25.5s-7.66699 13.166 -14 17.499s-15.5 6.5 -27.5 6.5
s-21.333 -2.16699 -28 -6.5s-11.5 -10.166 -14.5 -17.499s-4.66699 -16 -5 -26s-0.5 -20.667 -0.5 -32v-350c0 -49.333 -6 -90.666 -18 -123.999s-29.833 -60 -53.5 -80s-52.834 -34.333 -87.501 -43s-75 -13 -121 -13c-35.333 0 -67.333 2.66699 -96 8
s-53.667 15.166 -75 29.499s-38.833 34 -52.5 59s-23.5 56.833 -29.5 95.5l234 38c0.666992 -20 1.83398 -35.833 3.50098 -47.5s3.66699 -20.667 6 -27s5.33301 -10.5 9 -12.5s7.5 -3 11.5 -3c5.33301 0 9.66602 1.33301 12.999 4s6.16602 8.33398 8.49902 17.001
s4.5 21 6.5 37s4.33301 37.667 7 65l18 50c-2.66699 -4 -5.5 -9.5 -8.5 -16.5s-8.5 -13.833 -16.5 -20.5s-19.833 -12.5 -35.5 -17.5s-37.5 -7.5 -65.5 -7.5c-24 0 -47.667 3.5 -71 10.5s-44.5 18 -63.5 33s-34.333 34.333 -46 58s-17.5 52.167 -17.5 85.5v172h240v-175
c0 -0.666992 0.333008 -5.5 1 -14.5s2.16699 -18.667 4.5 -29s5.83301 -19.666 10.5 -27.999s11 -12.5 19 -12.5c10 0 16.667 7.66699 20 23s5 35.666 5 60.999v175c0 36.667 9.16699 66.667 27.5 90s41.333 41.833 69 55.5s57.834 23.167 90.501 28.5s63.667 8 93 8h18z
" />
    <glyph glyph-name=".notdef" horiz-adv-x="636" 
d="M306 0v100h-276v95l73 355h259l-141 -300h85v150h240v-150h60v-150h-60v-100h-240zM412 300h-27v9c0 5.33301 4.33301 8 13 8c9.33301 0 14 -2.66699 14 -8v-9zM470 300l-25.999 0.000976562v10c0 3.33301 0.666992 5.66602 2 6.99902s4.66602 2 9.99902 2
c9.33301 0 14 -3 14 -9v-10zM509.001 81.001h-59v43h-44v-43h-15v50h-44v-98h162v48zM509.001 241.001h-45v-50h-14v44h-44v-44h-15v50h-44v-99h162v99zM509.001 317.001c0 5.33301 -0.667969 11.001 -2.00098 17.001s-3.83301 11.5 -7.5 16.5s-8.5 9 -14.5 12
s-13.667 4.5 -23 4.5c-14 0 -22.667 -3.16699 -26 -9.5s-6.33301 -11.833 -9 -16.5c-2.66699 4.66699 -5.5 9.5 -8.5 14.5s-10.167 7.5 -21.5 7.5h-3c-10 0 -18.167 -1.66699 -24.5 -5s-11.166 -7.5 -14.499 -12.5s-5.5 -10.333 -6.5 -16s-1.5 -10.834 -1.5 -15.501v-63h162
v66z" />
    <glyph glyph-name="space" unicode=" " horiz-adv-x="359" 
 />
    <glyph glyph-name="exclam" unicode="!" horiz-adv-x="360" 
d="M90 160l-30 390h240l-30 -390h-180zM305 54c0 -20 -9.16699 -35.667 -27.5 -47s-51.166 -17 -98.499 -17s-80.166 5.66699 -98.499 17s-27.5 27 -27.5 47c0 20.667 9.16699 36.667 27.5 48s51.166 17 98.499 17s80.166 -5.66699 98.499 -17s27.5 -27.333 27.5 -48z" />
    <glyph glyph-name="quotedbl" unicode="&#x22;" horiz-adv-x="396" 
d="M74 405l-14 195h120l-16 -195h-90zM230 405l-14 195h120l-16 -195h-90z" />
    <glyph glyph-name="numbersign" unicode="#" horiz-adv-x="756" 
d="M78 0l50 115h-86v100h130l44 100h-78v100h121l66 149l113 -34l-50 -115h111l66 149l113 -34l-50 -115h86v-100h-131l-43 -100h78v-100h-122l-65 -149l-113 34l50 115h-112l-65 -149zM300 215h112l44 100h-113z" />
    <glyph glyph-name="dollar" unicode="$" horiz-adv-x="629" 
d="M230 -100l0.00878906 93.999c-26 2.66699 -50.167 7.66699 -72.5 15s-42 18.333 -59 33s-31.5 33.334 -43.5 56.001s-20.333 50.667 -25 84l234 38c1.33301 -36 7.16602 -60 17.499 -72s20.166 -18 29.499 -18s19.166 2.66699 29.499 8s15.5 14 15.5 26
c0 22 -8 38.167 -24 48.5s-36.167 18.166 -60.5 23.499s-50.5 9.83301 -78.5 13.5s-54.167 10 -78.5 19s-44.5 22.167 -60.5 39.5s-24 42.333 -24 75c0 18.667 3.66699 37.167 11 55.5s19 35 35 50s36.667 28.167 62 39.5s56 19.666 92 24.999v97h168v-94
c26.667 -3.33301 51.167 -9 73.5 -17s42.166 -19.333 59.499 -34s31.833 -33.167 43.5 -55.5s19.834 -49.5 24.501 -81.5l-234 -38c-0.666992 20 -2.83398 35.833 -6.50098 47.5s-7.83398 20.667 -12.501 27s-9.66699 10.5 -15 12.5s-10 3 -14 3
c-8.66699 0 -18.334 -2.83301 -29.001 -8.5s-16 -14.5 -16 -26.5c0 -21.333 8 -37.166 24 -47.499s36.167 -18.166 60.5 -23.499s50.666 -9.83301 78.999 -13.5s54.666 -10 78.999 -19s44.5 -22.167 60.5 -39.5s24 -42.333 24 -75c0 -46 -17.833 -83.5 -53.5 -112.5
s-84.834 -48.167 -147.501 -57.5v-97h-168z" />
    <glyph glyph-name="percent" unicode="%" horiz-adv-x="776" 
d="M95 78l479 472l109 -78l-479 -472zM581 -10c-44 0 -77.5 9.5 -100.5 28.5s-34.5 52.833 -34.5 101.5s11.5 82.5 34.5 101.5s56.5 28.5 100.5 28.5c43.333 0 76.666 -9.5 99.999 -28.5s35 -52.833 35 -101.5s-11.667 -82.5 -35 -101.5s-56.666 -28.5 -99.999 -28.5z
M566 120c0 -21.333 1 -36.666 3 -45.999s6 -14 12 -14c6.66699 0 10.834 4.66699 12.501 14s2.5 24.666 2.5 45.999c0 20.667 -0.833008 35.834 -2.5 45.501s-5.83398 14.5 -12.501 14.5c-6 0 -10 -4.83301 -12 -14.5s-3 -24.834 -3 -45.501zM196 300
c-44 0 -77.667 9.5 -101 28.5s-35 52.833 -35 101.5s11.667 82.5 35 101.5s57 28.5 101 28.5c43.333 0 76.5 -9.5 99.5 -28.5s34.5 -52.833 34.5 -101.5s-11.5 -82.5 -34.5 -101.5s-56.167 -28.5 -99.5 -28.5zM196 370c6 0 9.83301 4.83301 11.5 14.5s2.5 24.834 2.5 45.501
c0 21.333 -0.833008 36.666 -2.5 45.999s-5.5 14 -11.5 14c-7.33301 0 -11.833 -4.66699 -13.5 -14s-2.5 -24.666 -2.5 -45.999c0 -20.667 0.833008 -35.834 2.5 -45.501s6.16699 -14.5 13.5 -14.5z" />
    <glyph glyph-name="ampersand" unicode="&#x26;" horiz-adv-x="806" 
d="M624 -10c-8.66699 4 -15.5 7.66309 -20.5 10.9961s-9.66699 6.83301 -14 10.5s-8.83301 7.16699 -13.5 10.5s-10.667 7 -18 11c-30.667 -17.333 -63.667 -28.833 -99 -34.5s-74 -8.5 -116 -8.5c-42.667 0 -82.334 2.5 -119.001 7.5s-68.5 13.833 -95.5 26.5
s-48.167 29.834 -63.5 51.501s-23 49.167 -23 82.5c0 17.333 2.5 34 7.5 50s13.333 30.833 25 44.5s27.167 26.167 46.5 37.5s43.666 21.666 72.999 30.999c-21.333 9.33301 -38.333 21.333 -51 36s-19 34.334 -19 59.001s6.66699 46 20 64s31.5 33 54.5 45
s49.833 20.833 80.5 26.5s63.667 8.5 99 8.5c70 0 125.333 -11 166 -33s61 -54.667 61 -98c0 -20 -4.16699 -36.833 -12.5 -50.5s-18.666 -25.167 -30.999 -34.5s-25.5 -17.166 -39.5 -23.499s-26.333 -12.166 -37 -17.499l78 -67c4 7.33301 8 14.833 12 22.5
s7.66699 15.834 11 24.501l160 -46c-7.33301 -20 -14.166 -36.5 -20.499 -49.5s-15.5 -27.833 -27.5 -44.5l54 -38zM377 399.996c10.667 5.33301 19.332 11.168 25.999 17.501s10 12.5 10 18.5c0 5.33301 -2.66699 10.166 -8 14.499s-12.666 6.5 -21.999 6.5
s-16.833 -2.16699 -22.5 -6.5s-8.5 -9.83301 -8.5 -16.5c0 -5.33301 2 -10.5 6 -15.5s10.333 -11.167 19 -18.5zM340.998 192.998c-11.333 -7.33301 -19 -13.168 -23 -17.501s-6 -9.16602 -6 -14.499c0 -9.33301 4.5 -17 13.5 -23s20.167 -9 33.5 -9
c14 0 30.667 4.33301 50 13z" />
    <glyph glyph-name="quotesingle" unicode="'" horiz-adv-x="240" 
d="M74 405l-14 195h120l-16 -195h-90z" />
    <glyph glyph-name="parenleft" unicode="(" horiz-adv-x="390" 
d="M360 610v-139.999h-28c-6.66699 0 -13.667 -3.5 -21 -10.5s-14 -18.167 -20 -33.5s-11 -35.333 -15 -60s-6 -55 -6 -91s2 -66.333 6 -91s9 -44.667 15 -60s12.667 -26.5 20 -33.5s14.333 -10.5 21 -10.5h28v-140h-19c-46 0 -88 6.83301 -126 20.5
s-70.833 34.167 -98.5 61.5s-49 62 -64 104s-22.5 91.667 -22.5 149c0 56.667 7.5 106.167 22.5 148.5s36.333 77.166 64 104.499s60.5 47.833 98.5 61.5s80 20.5 126 20.5h19z" />
    <glyph glyph-name="parenright" unicode=")" horiz-adv-x="390" 
d="M30 -60v139.999h28c6.66699 0 13.667 3.5 21 10.5s14 18.167 20 33.5s11 35.333 15 60s6 55 6 91s-2 66.333 -6 91s-9 44.667 -15 60s-12.667 26.5 -20 33.5s-14.333 10.5 -21 10.5h-28v140h19c46 0 88 -6.83301 126 -20.5s70.833 -34.167 98.5 -61.5
s49 -62.166 64 -104.499s22.5 -91.833 22.5 -148.5c0 -57.333 -7.5 -107 -22.5 -149s-36.333 -76.667 -64 -104s-60.5 -47.833 -98.5 -61.5s-80 -20.5 -126 -20.5h-19z" />
    <glyph glyph-name="asterisk" unicode="*" horiz-adv-x="571" 
d="M336 322l10 -112h-120l8 113l-106 -71l-68 82l138 71l-138 71l68 82l106 -71l-8 113h120l-10 -113l107 71l68 -82l-141 -71l141 -71l-68 -82z" />
    <glyph glyph-name="plus" unicode="+" horiz-adv-x="600" 
d="M210 75v125h-150v150h150v125h180v-125h150v-150h-150v-125h-180z" />
    <glyph glyph-name="comma" unicode="," horiz-adv-x="348" 
d="M107 -34c1.33301 0 3.50195 -0.166016 6.50195 -0.499023s6.83301 -0.5 11.5 -0.5s10 0.333008 16 1s11.5 2.33398 16.5 5.00098s9.16699 6.33398 12.5 11.001s5 10.667 5 18c-24 0 -43.333 1.5 -58 4.5s-26.334 7.16699 -35.001 12.5s-14.5 12.166 -17.5 20.499
s-4.5 17.5 -4.5 27.5s1.5 19.5 4.5 28.5s8.83301 16.833 17.5 23.5s20.5 12 35.5 16s34.5 6 58.5 6s43.333 -2 58 -6s26 -9.83301 34 -17.5s13.333 -16.834 16 -27.501s4 -22.334 4 -35.001c0 -36.667 -6.66699 -65.167 -20 -85.5s-29.833 -35.5 -49.5 -45.5
s-40.834 -16.167 -63.501 -18.5s-43 -3.5 -61 -3.5z" />
    <glyph glyph-name="hyphen" unicode="-" horiz-adv-x="480" 
d="M60 200v150h360v-150h-360z" />
    <glyph glyph-name="period" unicode="." horiz-adv-x="348" 
d="M288 64c0 -10 -1.5 -19.5 -4.5 -28.5s-8.66699 -16.833 -17 -23.5s-20 -12 -35 -16s-34.167 -6 -57.5 -6s-42.5 2 -57.5 6s-26.667 9.33301 -35 16s-14 14.5 -17 23.5s-4.5 18.5 -4.5 28.5s1.5 19.667 4.5 29s8.66699 17.333 17 24s20 12 35 16s34.167 6 57.5 6
s42.5 -2 57.5 -6s26.667 -9.33301 35 -16s14 -14.667 17 -24s4.5 -19 4.5 -29z" />
    <glyph glyph-name="slash" unicode="/" horiz-adv-x="542" 
d="M0 -33l380 680l162 -64l-380 -680z" />
    <glyph glyph-name="zero" unicode="0" horiz-adv-x="612" 
d="M306 -10c-43.333 0 -81.666 4.33301 -114.999 13s-61.5 23.834 -84.5 45.501s-40.5 50.834 -52.5 87.501s-18 83 -18 139s6 102.333 18 139s29.5 65.834 52.5 87.501s51.167 36.834 84.5 45.501s71.666 13 114.999 13s81.666 -4.33301 114.999 -13
s61.5 -23.834 84.5 -45.501s40.5 -50.834 52.5 -87.501s18 -83 18 -139s-6 -102.333 -18 -139s-29.5 -65.834 -52.5 -87.501s-51.167 -36.834 -84.5 -45.501s-71.666 -13 -114.999 -13zM276 275c0 -20.667 0.333008 -39.834 1 -57.501s2.16699 -33 4.5 -46
s5.5 -23.167 9.5 -30.5s9 -11 15 -11s11 3.66699 15 11s7.16699 17.5 9.5 30.5s3.83301 28.333 4.5 46s1 36.834 1 57.501s-0.333008 39.834 -1 57.501s-2.16699 33 -4.5 46s-5.5 23.167 -9.5 30.5s-9 11 -15 11s-11 -3.66699 -15 -11s-7.16699 -17.5 -9.5 -30.5
s-3.83301 -28.333 -4.5 -46s-1 -36.834 -1 -57.501z" />
    <glyph glyph-name="one" unicode="1" horiz-adv-x="360" 
d="M60 0v330h-60v70l181 150h119v-550h-240z" />
    <glyph glyph-name="two" unicode="2" horiz-adv-x="658" 
d="M62 368c6 38.667 15.834 70.502 29.501 95.502s31 44.667 52 59s45.833 24.166 74.5 29.499s61 8 97 8c54 0 99 -5 135 -15s64.833 -23.333 86.5 -40s36.834 -35.834 45.501 -57.501s13 -44.5 13 -68.5c0 -34.667 -6.66699 -61.167 -20 -79.5s-30 -32.5 -50 -42.5
s-41.5 -17 -64.5 -21s-44.5 -8.83301 -64.5 -14.5s-36.667 -13.667 -50 -24s-20 -26.166 -20 -47.499h274v-150h-538c0 46 4.16699 84.667 12.5 116s19.333 57.666 33 78.999s29.167 38.5 46.5 51.5s35.166 23.667 53.499 32s36 15.333 53 21s32.333 12 46 19
s24.667 15.5 33 25.5s12.5 23.333 12.5 40c0 24 -8.66699 36 -26 36c-4 0 -7.83301 -1 -11.5 -3s-6.66699 -6.16699 -9 -12.5s-4.33301 -15.333 -6 -27s-2.83398 -27.5 -3.50098 -47.5z" />
    <glyph glyph-name="three" unicode="3" horiz-adv-x="604" 
d="M440 320c14 -4 28.502 -10.665 43.502 -19.998s28.667 -20.833 41 -34.5s22.333 -29 30 -46s11.5 -35.5 11.5 -55.5c0 -54.667 -20.833 -97.334 -62.5 -128.001s-109.5 -46 -203.5 -46c-36 0 -68.833 2.66699 -98.5 8s-55.834 15.166 -78.501 29.499
s-41.334 34 -56.001 59s-25 56.833 -31 95.5l234 38c1.33301 -34 3.83301 -57.5 7.5 -70.5s11.167 -19.5 22.5 -19.5c17.333 0 26 11.333 26 34c0 20.667 -1.66699 37.5 -5 50.5s-8.33301 23.5 -15 31.5s-15.167 14 -25.5 18s-22.5 7.33301 -36.5 10v50l87 76h-265v150h491
v-95z" />
    <glyph glyph-name="four" unicode="4" horiz-adv-x="636" 
d="M306 0v100h-276v95l73 355h259l-141 -300h85v150h240v-150h60v-150h-60v-100h-240z" />
    <glyph glyph-name="five" unicode="5" horiz-adv-x="605" 
d="M246 400l0.00292969 -59.998c11.333 0.666992 22.333 1.16699 33 1.5s21.334 0.5 32.001 0.5c51.333 0 93.666 -3.66699 126.999 -11s59.666 -18.333 78.999 -33s32.833 -33.167 40.5 -55.5s11.5 -48.5 11.5 -78.5c0 -54.667 -21.333 -97.334 -64 -128.001
s-111 -46 -205 -46c-36 0 -68.833 2.66699 -98.5 8s-55.834 15.166 -78.501 29.499s-41.334 34 -56.001 59s-25 56.833 -31 95.5l234 38c1.33301 -34 3.83301 -57.5 7.5 -70.5s11.167 -19.5 22.5 -19.5c17.333 0 26 11.333 26 34c0 21.333 -2 38 -6 50s-14.5 21 -31.5 27
s-42.833 9.66699 -77.5 11s-83 2 -145 2v296h479v-150h-299z" />
    <glyph glyph-name="six" unicode="6" horiz-adv-x="614" 
d="M335 330c-0.666992 22 -1.83301 39.167 -3.5 51.5s-3.66699 21.333 -6 27s-5 9 -8 10s-6.5 1.5 -10.5 1.5c-5.33301 0 -9.66602 -0.666992 -12.999 -2s-6 -5.33301 -8 -12s-3.66699 -17.334 -5 -32.001s-2.66602 -35 -3.99902 -61c7.33301 0.666992 13.5 1.5 18.5 2.5
s10.167 2 15.5 3s11.333 1.66699 18 2s15 0.5 25 0.5c24 0 49.167 -1.83301 75.5 -5.5s50.5 -10.5 72.5 -20.5s40.167 -24.333 54.5 -43s21.5 -43 21.5 -73c0 -23.333 -5 -46.333 -15 -69s-25.833 -42.834 -47.5 -60.501s-49.834 -32 -84.501 -43s-76.667 -16.5 -126 -16.5
c-38.667 0 -74.5 4.33301 -107.5 13s-61.5 23.834 -85.5 45.501s-42.667 50.834 -56 87.501s-20 83.334 -20 140.001s6.83301 103.334 20.5 140.001s32.834 65.667 57.501 87s54.167 36.166 88.5 44.499s72.166 12.5 113.499 12.5c28.667 0 57 -2.33301 85 -7
s53.5 -13.834 76.5 -27.501s42.667 -33.167 59 -58.5s27.166 -58.333 32.499 -99zM283.001 187c0 -12.667 0.50293 -22.668 1.50293 -30.001s2.83301 -13 5.5 -17s5.66699 -6.66699 9 -8s7.66602 -2 12.999 -2c2 0 4.66699 0.333008 8 1s6.66602 2.83398 9.99902 6.50098
s6.16602 9.5 8.49902 17.5s3.5 19 3.5 33c0 18 -2.83301 29.333 -8.5 34s-17.167 7 -34.5 7h-16v-42z" />
    <glyph glyph-name="seven" unicode="7" horiz-adv-x="587" 
d="M82 0l255 400h-307v150h527v-95l-222 -455h-253z" />
    <glyph glyph-name="eight" unicode="8" horiz-adv-x="624" 
d="M312 420c-12 0 -19 -5 -21 -15s-3 -19.667 -3 -29v-4c0 -9.33301 1 -18.666 3 -27.999s9 -14 21 -14s19 5 21 15s3 19.667 3 29v4c0 9.33301 -1 18.666 -3 27.999s-9 14 -21 14zM462 275c10 -4.66699 22.3389 -9.16699 37.0059 -13.5s28.5 -10.333 41.5 -18
s24.167 -18 33.5 -31s14 -30.5 14 -52.5c0 -34.667 -9.33301 -63 -28 -85s-41.834 -39.333 -69.501 -52s-57.5 -21.334 -89.5 -26.001s-61.667 -7 -89 -7s-57 2.33301 -89 7s-61.833 13.334 -89.5 26.001s-50.834 30 -69.501 52s-28 50.333 -28 85
c0 22 4.66699 39.5 14 52.5s20.5 23.333 33.5 31s26.833 13.667 41.5 18s27 8.83301 37 13.5c-10 4 -21 8.33301 -33 13s-23.167 10.667 -33.5 18s-18.833 16.666 -25.5 27.999s-10 26 -10 44v14c0 35.333 8.66699 64 26 86s38.666 39 63.999 51s52.666 20.167 81.999 24.5
s56 6.5 80 6.5s50.667 -2.16699 80 -6.5s56.666 -12.5 81.999 -24.5s46.666 -29 63.999 -51s26 -50.667 26 -86v-14c0 -18 -3.33301 -32.667 -10 -44s-15.167 -20.666 -25.5 -27.999s-21.5 -13.333 -33.5 -18s-23 -9 -33 -13zM312.006 130c12.667 0 21.834 2.5 27.501 7.5
s8.5 17.5 8.5 37.5s-2.83301 32.5 -8.5 37.5s-14.834 7.5 -27.501 7.5s-21.834 -2.5 -27.501 -7.5s-8.5 -17.5 -8.5 -37.5s2.83301 -32.5 8.5 -37.5s14.834 -7.5 27.501 -7.5z" />
    <glyph glyph-name="nine" unicode="9" horiz-adv-x="614" 
d="M280 220c0.666992 -22 1.66797 -39.167 3.00098 -51.5s3.16602 -21.333 5.49902 -27s5 -9 8 -10s6.5 -1.5 10.5 -1.5c5.33301 0 9.66602 0.666992 12.999 2s6 5.33301 8 12s3.66699 17.334 5 32.001s2.66602 35 3.99902 61c-7.33301 -1.33301 -13.5 -2.33301 -18.5 -3
s-10.167 -1.5 -15.5 -2.5s-11.333 -1.66699 -18 -2s-15 -0.5 -25 -0.5c-23.333 0 -48.166 1.83301 -74.499 5.5s-50.5 10.5 -72.5 20.5s-40.333 24.333 -55 43s-22 43 -22 73c0 23.333 5 46.333 15 69s26 42.834 48 60.501s50.333 32 85 43s76.667 16.5 126 16.5
c38.667 0 74.334 -4.33301 107.001 -13s61 -23.834 85 -45.501s42.667 -50.834 56 -87.501s20 -83.334 20 -140.001s-6.83301 -103.334 -20.5 -140.001s-32.834 -65.667 -57.501 -87s-54.167 -36.166 -88.5 -44.499s-71.833 -12.5 -112.5 -12.5c-28.667 0 -57 2.33301 -85 7
s-53.5 13.834 -76.5 27.501s-42.667 33 -59 58s-27.166 58.167 -32.499 99.5zM331.001 363c0 24.667 -2.16895 40.334 -6.50195 47.001s-11.833 10 -22.5 10c-2 0 -4.66699 -0.333008 -8 -1s-6.66602 -2.83398 -9.99902 -6.50098s-6.16602 -9.5 -8.49902 -17.5
s-3.5 -19 -3.5 -33c0 -18 3 -29.333 9 -34s17.667 -7 35 -7h15v42z" />
    <glyph glyph-name="colon" unicode=":" horiz-adv-x="348" 
d="M288 314c0 -10 -1.5 -19.5 -4.5 -28.5s-8.66699 -16.833 -17 -23.5s-20 -12 -35 -16s-34.167 -6 -57.5 -6s-42.5 2 -57.5 6s-26.667 9.33301 -35 16s-14 14.5 -17 23.5s-4.5 18.5 -4.5 28.5s1.5 19.667 4.5 29s8.66699 17.333 17 24s20 12 35 16s34.167 6 57.5 6
s42.5 -2 57.5 -6s26.667 -9.33301 35 -16s14 -14.667 17 -24s4.5 -19 4.5 -29zM288 64c0 -10 -1.5 -19.5 -4.5 -28.5s-8.66699 -16.833 -17 -23.5s-20 -12 -35 -16s-34.167 -6 -57.5 -6s-42.5 2 -57.5 6s-26.667 9.33301 -35 16s-14 14.5 -17 23.5s-4.5 18.5 -4.5 28.5
s1.5 19.667 4.5 29s8.66699 17.333 17 24s20 12 35 16s34.167 6 57.5 6s42.5 -2 57.5 -6s26.667 -9.33301 35 -16s14 -14.667 17 -24s4.5 -19 4.5 -29z" />
    <glyph glyph-name="semicolon" unicode=";" horiz-adv-x="348" 
d="M288 314c0 -10 -1.5 -19.5 -4.5 -28.5s-8.66699 -16.833 -17 -23.5s-20 -12 -35 -16s-34.167 -6 -57.5 -6s-42.5 2 -57.5 6s-26.667 9.33301 -35 16s-14 14.5 -17 23.5s-4.5 18.5 -4.5 28.5s1.5 19.667 4.5 29s8.66699 17.333 17 24s20 12 35 16s34.167 6 57.5 6
s42.5 -2 57.5 -6s26.667 -9.33301 35 -16s14 -14.667 17 -24s4.5 -19 4.5 -29zM107 -34c1.33301 0 3.50195 -0.166016 6.50195 -0.499023s6.83301 -0.5 11.5 -0.5s10 0.333008 16 1s11.5 2.33398 16.5 5.00098s9.16699 6.33398 12.5 11.001s5 10.667 5 18
c-24 0 -43.333 1.5 -58 4.5s-26.334 7.16699 -35.001 12.5s-14.5 12.166 -17.5 20.499s-4.5 17.5 -4.5 27.5s1.5 19.5 4.5 28.5s8.83301 16.833 17.5 23.5s20.5 12 35.5 16s34.5 6 58.5 6s43.333 -2 58 -6s26 -9.83301 34 -17.5s13.333 -16.834 16 -27.501
s4 -22.334 4 -35.001c0 -36.667 -6.66699 -65.167 -20 -85.5s-29.833 -35.5 -49.5 -45.5s-40.834 -16.167 -63.501 -18.5s-43 -3.5 -61 -3.5z" />
    <glyph glyph-name="less" unicode="&#x3c;" horiz-adv-x="493" 
d="M305 41l-275 229l275 230l128 -106l-149 -124l149 -123z" />
    <glyph glyph-name="equal" unicode="=" horiz-adv-x="480" 
d="M60 300v100h360v-100h-360zM60 150v100h360v-100h-360z" />
    <glyph glyph-name="greater" unicode="&#x3e;" horiz-adv-x="493" 
d="M60 147l149 123l-149 124l128 106l275 -230l-275 -229z" />
    <glyph glyph-name="question" unicode="?" horiz-adv-x="657" 
d="M214 160c-2 12.667 -2.99707 24.6719 -2.99707 36.0049c0 19.333 3.5 35 10.5 47s15.667 22 26 30s21.666 15 33.999 21s23.666 12.667 33.999 20s19 16.166 26 26.499s10.5 24.166 10.5 41.499c0 25.333 -8.66699 38 -26 38c-4 0 -7.83301 -1 -11.5 -3
s-6.66699 -6.16699 -9 -12.5s-4.33301 -15.333 -6 -27s-2.83398 -27.5 -3.50098 -47.5l-234 38c6 37.333 15.333 68.333 28 93s29.5 44.334 50.5 59.001s46.167 25 75.5 31s63.333 9 102 9c54.667 0 100 -5 136 -15s64.333 -23.833 85 -41.5s35.167 -38.334 43.5 -62.001
s12.5 -48.834 12.5 -75.501c0 -30 -3.83301 -52.833 -11.5 -68.5s-17.167 -27.834 -28.5 -36.501s-23.5 -14.834 -36.5 -18.501s-25.167 -8.16699 -36.5 -13.5s-20.833 -13 -28.5 -23s-11.5 -25.333 -11.5 -46h-228zM454.003 54.0049c0 -20 -9.16699 -35.667 -27.5 -47
s-51.166 -17 -98.499 -17c-46.667 0 -79.334 5.66699 -98.001 17s-28 27 -28 47c0 20.667 9.33301 36.667 28 48s51.334 17 98.001 17c47.333 0 80.166 -5.66699 98.499 -17s27.5 -27.333 27.5 -48z" />
    <glyph glyph-name="at" unicode="@" horiz-adv-x="780" 
d="M415 290c0 50.667 -7.66699 76.001 -23 76.001c-6.66699 0 -11.667 -4.5 -15 -13.5s-5.33301 -27.167 -6 -54.5l-178 29c4.66699 31.333 12.834 56.666 24.501 75.999s25.667 34.166 42 44.499s34.833 17.166 55.5 20.499s42 5 64 5c46 0 83.333 -5 112 -15
s50.667 -23.167 66 -39.5s25.666 -34.833 30.999 -55.5s8 -42 8 -64c0 -23.333 -1.5 -46.333 -4.5 -69s-4.5 -42.334 -4.5 -59.001c0 -13.333 2 -24 6 -32s12 -12 24 -12c22 0 39.667 14.333 53 43s20 67.667 20 117c0 52.667 -7.83301 96.667 -23.5 132s-37 63.333 -64 84
s-59 35.334 -96 44.001s-76.5 13 -118.5 13c-43.333 0 -83.166 -4.5 -119.499 -13.5s-67.833 -24.5 -94.5 -46.5s-47.334 -51.5 -62.001 -88.5s-22 -83.5 -22 -139.5c0 -58.667 8.16699 -106.334 24.5 -143.001s38.833 -65.334 67.5 -86.001s62.834 -34.667 102.501 -42
s82.834 -11 129.501 -11c14 0 33 0.833008 57 2.5s49.833 3.83398 77.5 6.50098s55.167 5.83398 82.5 9.50098s51 7.5 71 11.5v-50c-14.667 -3.33301 -34.334 -6.66602 -59.001 -9.99902s-50.667 -6.5 -78 -9.5s-54.5 -5.5 -81.5 -7.5s-49.833 -3 -68.5 -3
c-58 0 -110.833 4.83301 -158.5 14.5s-88.167 26.834 -121.5 51.501s-59.166 58.5 -77.499 101.5s-27.5 97.833 -27.5 164.5s9 121.667 27 165s42.833 77.833 74.5 103.5s69.5 43.667 113.5 54s92 15.5 144 15.5c51.333 0 99 -5.16699 143 -15.5s82.167 -28 114.5 -53
s57.666 -58.833 75.999 -101.5s27.5 -96.334 27.5 -161.001c0 -46 -4.66699 -82.5 -14 -109.5s-21.5 -47.5 -36.5 -61.5s-32 -22.833 -51 -26.5s-38.5 -5.5 -58.5 -5.5c-27.333 0 -48.333 4.5 -63 13.5s-27.667 22.167 -39 39.5c-6 -6.66699 -10.833 -13.167 -14.5 -19.5
s-8.83398 -11.833 -15.501 -16.5s-16.167 -8.5 -28.5 -11.5s-29.833 -4.5 -52.5 -4.5c-27.333 0 -52.666 2.33301 -75.999 7s-43.5 11.5 -60.5 20.5s-30.333 20.333 -40 34s-14.5 29.834 -14.5 48.501c0 18 3.33301 33.5 10 46.5s18 23.667 34 32s37.167 14.5 63.5 18.5
s59.166 6 98.499 6h23zM415 231.001c-7.33301 2 -13.333 3 -18 3c-9.33301 0 -16.166 -2.5 -20.499 -7.5s-6.5 -10.833 -6.5 -17.5c0 -6 2 -11.667 6 -17s10 -8 18 -8c9.33301 0 15.166 4.16699 17.499 12.5s3.5 19.833 3.5 34.5z" />
    <glyph glyph-name="A" unicode="A" horiz-adv-x="689" 
d="M424 0l-14 70h-132l-13 -70h-259l218 550h240l219 -550h-259zM344 420l-38 -200h76z" />
    <glyph glyph-name="B" unicode="B" 
d="M60 0l0.000976562 549.999h312c24 0 50 -1.66699 78 -5s54 -10.333 78 -21s44 -26.5 60 -47.5s24 -48.833 24 -83.5v-15c0 -18 -3.33301 -32.667 -10 -44s-15.167 -20.666 -25.5 -27.999s-21.5 -13.333 -33.5 -18s-23 -9 -33 -13c10 -4.66699 22.333 -9.16699 37 -13.5
s28.5 -10.333 41.5 -18s24.167 -18 33.5 -31s14 -30.5 14 -52.5c0 -34.667 -8 -62.5 -24 -83.5s-36.333 -37.167 -61 -48.5s-51.834 -18.833 -81.501 -22.5s-58.167 -5.5 -85.5 -5.5h-324zM348.001 329.999c12.667 0 21.834 3.33105 27.501 9.99805s8.5 18.334 8.5 35.001
s-2.83301 28.334 -8.5 35.001s-14.834 10 -27.501 10h-48v-90h48zM354.001 129.997c12.667 0 22.834 3.33105 30.501 9.99805s11.5 18.334 11.5 35.001s-3.83301 28.334 -11.5 35.001s-17.834 10 -30.501 10h-54v-90h54z" />
    <glyph glyph-name="C" unicode="C" horiz-adv-x="653" 
d="M389 330c-0.666992 22.667 -3.33398 40.002 -8.00098 52.002s-10 20.833 -16 26.5s-12 9 -18 10s-11 1.5 -15 1.5c-6.66699 0 -13.667 -0.833008 -21 -2.5s-14 -7.16699 -20 -16.5s-11 -23.666 -15 -42.999s-6 -47 -6 -83s2 -63.667 6 -83s9 -33.666 15 -42.999
s12.667 -14.833 20 -16.5s14.333 -2.5 21 -2.5c4 0 9 0.5 15 1.5s12 4.33301 18 10s11.333 14.5 16 26.5s7.33398 29.333 8.00098 52l234 -38c-6 -41.333 -18 -74.5 -36 -99.5s-40 -44.333 -66 -58s-54.5 -22.834 -85.5 -27.501s-62.5 -7 -94.5 -7
c-46 0 -88 4.16699 -126 12.5s-70.833 23.166 -98.5 44.499s-49 50.333 -64 87s-22.5 83.667 -22.5 141c0 56.667 7.5 103.5 22.5 140.5s36.333 66.167 64 87.5s60.5 36.166 98.5 44.499s80 12.5 126 12.5c32 0 63.5 -2.33301 94.5 -7s59.5 -13.834 85.5 -27.501
s48 -33.167 66 -58.5s30 -58.333 36 -99z" />
    <glyph glyph-name="D" unicode="D" horiz-adv-x="684" 
d="M342 130c6 0 12.5 0.834961 19.5 2.50195s13.5 7.16699 19.5 16.5s11 23.666 15 42.999s6 47 6 83s-2 63.667 -6 83s-9 33.666 -15 42.999s-12.5 14.833 -19.5 16.5s-13.5 2.5 -19.5 2.5h-42v-290h42zM60 0.00195312v550h282c43.333 0 83.333 -3.83301 120 -11.5
s68.334 -21.667 95.001 -42s47.5 -48.333 62.5 -84s22.5 -81.5 22.5 -137.5s-7.5 -101.833 -22.5 -137.5s-35.833 -63.667 -62.5 -84s-58.334 -34.333 -95.001 -42s-76.667 -11.5 -120 -11.5h-282z" />
    <glyph glyph-name="E" unicode="E" horiz-adv-x="594" 
d="M60 0v550h486v-150h-246v-50h216v-150h-216v-50h246v-150h-486z" />
    <glyph glyph-name="F" unicode="F" horiz-adv-x="594" 
d="M60 0v550h486v-150h-246v-50h216v-150h-216v-200h-240z" />
    <glyph glyph-name="G" unicode="G" horiz-adv-x="690" 
d="M516 0l-29.999 58.001c-14.667 -10 -26.834 -19.167 -36.501 -27.5s-20 -15.5 -31 -21.5s-24.333 -10.667 -40 -14s-36.5 -5 -62.5 -5c-40 0 -77.333 4.5 -112 13.5s-64.834 24.5 -90.501 46.5s-46 51.5 -61 88.5s-22.5 83.5 -22.5 139.5s7.5 102.333 22.5 139
s36.333 65.5 64 86.5s60.5 35.667 98.5 44s80 12.5 126 12.5c32 0 63.5 -2.33301 94.5 -7s59.333 -13.834 85 -27.501s47.667 -33 66 -58s30.5 -58.167 36.5 -99.5l-234 -38c-0.666992 22 -3.16699 39.167 -7.5 51.5s-9.5 21.333 -15.5 27s-12.167 9 -18.5 10
s-11.5 1.5 -15.5 1.5c-6.66699 0 -13.667 -0.666992 -21 -2s-14 -6.5 -20 -15.5s-11 -23 -15 -42s-6 -46.167 -6 -81.5s2 -63 6 -83s9.16699 -34.833 15.5 -44.5s13.666 -15.667 21.999 -18s16.5 -3.5 24.5 -3.5c2.66699 0 6.33398 0.5 11.001 1.5
s9.33398 3.83301 14.001 8.5s9.16699 12 13.5 22s7.5 24.333 9.5 43l-55 20v75h299v-300h-114z" />
    <glyph glyph-name="H" unicode="H" horiz-adv-x="684" 
d="M384 0v200h-84v-200h-240v550h240v-200h84v200h240v-550h-240z" />
    <glyph glyph-name="I" unicode="I" horiz-adv-x="360" 
d="M60 0v550h240v-550h-240z" />
    <glyph glyph-name="J" unicode="J" horiz-adv-x="617" 
d="M317 400l-119 -0.000976562v150h359v-300c0 -48.667 -6 -89.5 -18 -122.5s-29.5 -59.667 -52.5 -80s-51.167 -35 -84.5 -44s-71.666 -13.5 -114.999 -13.5c-36 0 -68.833 2.33301 -98.5 7s-55.667 13.834 -78 27.501s-40.833 33 -55.5 58s-25 58.167 -31 99.5l234 38
c1.33301 -36 4.16602 -60 8.49902 -72s11.166 -18 20.499 -18c12.667 0 20.834 9.5 24.501 28.5s5.5 49.5 5.5 91.5v150z" />
    <glyph glyph-name="K" unicode="K" horiz-adv-x="710" 
d="M409 0l-109 221v-221h-240v550h240v-221l109 221h265l-200 -275l200 -275h-265z" />
    <glyph glyph-name="L" unicode="L" horiz-adv-x="538" 
d="M60 0v550h240v-400h204v-150h-444z" />
    <glyph glyph-name="M" unicode="M" horiz-adv-x="870" 
d="M594 0v209l-114 -159h-90l-114 159v-209h-240l24 550h138l236 -289l238 289h138l24 -550h-240z" />
    <glyph glyph-name="N" unicode="N" horiz-adv-x="708" 
d="M510 0l-210 220v-220h-240v550h138l210 -220v220h240v-550h-138z" />
    <glyph glyph-name="O" unicode="O" 
d="M330 -10c-43.333 0 -83.333 4.33301 -120 13s-68.334 23.834 -95.001 45.501s-47.5 50.834 -62.5 87.501s-22.5 83 -22.5 139s7.5 102.333 22.5 139s35.833 65.834 62.5 87.501s58.334 36.834 95.001 45.501s76.667 13 120 13s83.333 -4.33301 120 -13
s68.334 -23.834 95.001 -45.501s47.5 -50.834 62.5 -87.501s22.5 -83 22.5 -139s-7.5 -102.333 -22.5 -139s-35.833 -65.834 -62.5 -87.501s-58.334 -36.834 -95.001 -45.501s-76.667 -13 -120 -13zM270 275c0 -36 2 -63.667 6 -83s9 -33.666 15 -42.999
s12.5 -14.833 19.5 -16.5s13.5 -2.5 19.5 -2.5s12.5 0.833008 19.5 2.5s13.5 7.16699 19.5 16.5s11 23.666 15 42.999s6 47 6 83s-2 63.667 -6 83s-9 33.666 -15 42.999s-12.5 14.833 -19.5 16.5s-13.5 2.5 -19.5 2.5s-12.5 -0.833008 -19.5 -2.5
s-13.5 -7.16699 -19.5 -16.5s-11 -23.666 -15 -42.999s-6 -47 -6 -83z" />
    <glyph glyph-name="P" unicode="P" 
d="M354 230c24 0 36 31.667 36 95s-12 95 -36 95h-54v-190h54zM60 0v550h324c30.667 0 60.334 -3.66699 89.001 -11s54.167 -19.5 76.5 -36.5s40.333 -39.667 54 -68s20.5 -63.833 20.5 -106.5s-6.83301 -78.167 -20.5 -106.5s-31.667 -51 -54 -68
s-47.833 -29.167 -76.5 -36.5s-58.334 -11 -89.001 -11h-84v-106h-240z" />
    <glyph glyph-name="Q" unicode="Q" 
d="M433 -100l-45.001 92.998c-20 -2 -39.333 -3 -58 -3c-43.333 0 -83.333 4.33301 -120 13s-68.334 23.834 -95.001 45.501s-47.5 50.834 -62.5 87.501s-22.5 83 -22.5 139s7.5 102.333 22.5 139s35.833 65.834 62.5 87.501s58.334 36.834 95.001 45.501s76.667 13 120 13
s83.333 -4.33301 120 -13s68.334 -23.834 95.001 -45.501s47.5 -50.834 62.5 -87.501s22.5 -83 22.5 -139c0 -46 -5.16699 -85.5 -15.5 -118.5s-24.833 -60.5 -43.5 -82.5l127 -174h-265zM329.999 129.998c6 0 12.5 0.833008 19.5 2.5s13.5 7.16699 19.5 16.5
s11 23.666 15 42.999s6 47 6 83s-2 63.667 -6 83s-9 33.666 -15 42.999s-12.5 14.833 -19.5 16.5s-13.5 2.5 -19.5 2.5s-12.5 -0.833008 -19.5 -2.5s-13.5 -7.16699 -19.5 -16.5s-11 -23.666 -15 -42.999s-6 -47 -6 -83s2 -63.667 6 -83s9 -33.666 15 -42.999
s12.5 -14.833 19.5 -16.5s13.5 -2.5 19.5 -2.5z" />
    <glyph glyph-name="R" unicode="R" 
d="M385 0l-72.001 146h-13v-146h-240v550h324c30.667 0 60.334 -2.5 89.001 -7.5s54.167 -14.833 76.5 -29.5s40.333 -35.167 54 -61.5s20.5 -60.833 20.5 -103.5c0 -49.333 -9.16699 -88 -27.5 -116s-41.833 -48.667 -70.5 -62l124 -170h-265zM353.999 270
c12.667 0 21.834 7.16895 27.501 21.502s8.5 32.166 8.5 53.499s-2.83301 39.166 -8.5 53.499s-14.834 21.5 -27.501 21.5h-54v-150h54z" />
    <glyph glyph-name="S" unicode="S" horiz-adv-x="629" 
d="M365 330c-0.666992 20 -2.83203 35.8311 -6.49902 47.498s-7.83398 20.667 -12.501 27s-9.66699 10.5 -15 12.5s-10 3 -14 3c-8.66699 0 -18.334 -2.83301 -29.001 -8.5s-16 -14.5 -16 -26.5c0 -21.333 8 -37.166 24 -47.499s36.167 -18.166 60.5 -23.499
s50.666 -9.83301 78.999 -13.5s54.666 -10 78.999 -19s44.5 -22.167 60.5 -39.5s24 -42.333 24 -75c0 -28 -6.83301 -53 -20.5 -75s-33.167 -40.5 -58.5 -55.5s-55.666 -26.5 -90.999 -34.5s-75 -12 -119 -12c-36.667 0 -70.667 2.33301 -102 7
s-59.166 13.834 -83.499 27.501s-44.666 33 -60.999 58s-27.5 58.167 -33.5 99.5l234 38c1.33301 -36 7.16602 -60 17.499 -72s20.166 -18 29.499 -18s19.166 2.66699 29.499 8s15.5 14 15.5 26c0 22 -8 38.167 -24 48.5s-36.167 18.166 -60.5 23.499
s-50.5 9.83301 -78.5 13.5s-54.167 10 -78.5 19s-44.5 22.167 -60.5 39.5s-24 42.333 -24 75c0 22.667 5.33301 44.667 16 66s27.834 40.166 51.501 56.499s54.334 29.5 92.001 39.5s83.834 15 138.501 15c35.333 0 68.333 -2.66699 99 -8s57.667 -15.166 81 -29.499
s42.833 -34 58.5 -59s26.5 -56.833 32.5 -95.5z" />
    <glyph glyph-name="T" unicode="T" horiz-adv-x="600" 
d="M180 0v400h-150v150h540v-150h-150v-400h-240z" />
    <glyph glyph-name="U" unicode="U" 
d="M384 550h240.002v-300c0 -48.667 -6.5 -89.5 -19.5 -122.5s-31.833 -59.667 -56.5 -80s-54.334 -35 -89.001 -44s-73.667 -13.5 -117 -13.5s-82.333 4.5 -117 13.5s-64.334 23.667 -89.001 44s-43.5 47 -56.5 80s-19.5 73.833 -19.5 122.5v300h240v-300
c0 -26 1 -46.833 3 -62.5s4.83301 -27.667 8.5 -36s8.16699 -14 13.5 -17s11 -4.5 17 -4.5s11.667 1.5 17 4.5s9.83301 8.66699 13.5 17s6.5 20.333 8.5 36s3 36.5 3 62.5v300z" />
    <glyph glyph-name="V" unicode="V" horiz-adv-x="689" 
d="M260 0l-254 550h259l64 -272l15 -138l16 138l64 272h259l-255 -550h-168z" />
    <glyph glyph-name="W" unicode="W" horiz-adv-x="810" 
d="M546 0l-142 249l-140 -249h-138l-120 550h240l24 -219l90 169h90l90 -169l24 219h240l-120 -550h-138z" />
    <glyph glyph-name="X" unicode="X" horiz-adv-x="689" 
d="M394 0l-50 200l-49 -200h-265l170 275l-170 275h265l49 -200l50 200h265l-171 -275l171 -275h-265z" />
    <glyph glyph-name="Y" unicode="Y" horiz-adv-x="689" 
d="M224 0v149l-218 401h265l73 -260l74 260h265l-219 -401v-149h-240z" />
    <glyph glyph-name="Z" unicode="Z" 
d="M60 0v95l228 305h-228v150h540v-95l-228 -305h228v-150h-540z" />
    <glyph glyph-name="bracketleft" unicode="[" horiz-adv-x="564" 
d="M60 -100v750h444v-150h-204v-450h204v-150h-444z" />
    <glyph glyph-name="backslash" unicode="\" horiz-adv-x="542" 
d="M380 -97l-380 680l162 64l380 -680z" />
    <glyph glyph-name="bracketright" unicode="]" horiz-adv-x="564" 
d="M60 -100v150h204v450h-204v150h444v-750h-444z" />
    <glyph glyph-name="asciicircum" unicode="^" horiz-adv-x="662" 
d="M395 325l-52 136l-12 69l-12 -69l-51 -136h-208l204 275h134l204 -275h-207z" />
    <glyph glyph-name="underscore" unicode="_" horiz-adv-x="564" 
d="M0 -150v50h564v-50h-564z" />
    <glyph glyph-name="grave" unicode="`" horiz-adv-x="451" 
d="M270 535l-198 132h194l124 -132h-120z" />
    <glyph glyph-name="a" unicode="a" horiz-adv-x="666" 
d="M492 0l-30.0029 57.9971c-7.33301 -8 -13.333 -16.167 -18 -24.5s-11.5 -15.666 -20.5 -21.999s-21.167 -11.5 -36.5 -15.5s-37 -6 -65 -6c-82.667 0 -147 12 -193 36s-69 63 -69 117c0 26 6.83301 47.167 20.5 63.5s32.667 29.333 57 39s53.333 16.167 87 19.5
s70.834 5 111.501 5h30c-0.666992 34 -3 59.167 -7 75.5s-11.667 24.5 -23 24.5c-9.33301 0 -16.166 -6 -20.499 -18s-7.16602 -36 -8.49902 -72l-234 38c6 41.333 16.5 74.5 31.5 99.5s33.5 44.333 55.5 58s46.833 22.834 74.5 27.501s57.167 7 88.5 7
c46.667 0 87.667 -4.33301 123 -13s64.833 -23 88.5 -43s41.5 -46.667 53.5 -80s18 -74.666 18 -123.999v-250h-114zM365.997 191.997c-8.66699 2.66699 -17 4 -25 4c-14 0 -24.333 -3.66699 -31 -11s-10 -15.333 -10 -24c0 -8 3 -15.167 9 -21.5s15.333 -9.5 28 -9.5
s20.667 5.5 24 16.5s5 26.167 5 45.5z" />
    <glyph glyph-name="b" unicode="b" horiz-adv-x="642" 
d="M60 0v600.001h240v-100l-12 -50c2 2.66699 4.33301 7.5 7 14.5s8 14 16 21s19.5 13.167 34.5 18.5s35.833 8 62.5 8s51.667 -4.83301 75 -14.5s43.666 -25.334 60.999 -47.001s31 -49.5 41 -83.5s15 -75.333 15 -124c0 -47.333 -5.16699 -87.166 -15.5 -119.499
s-25.5 -58.333 -45.5 -78s-45 -33.834 -75 -42.501s-64.667 -13 -104 -13c-40 0 -72.667 4.83301 -98 14.5s-44.666 27.5 -57.999 53.5l-30 -58h-114zM300 250.001c0 -42 1.83301 -72.5 5.5 -91.5s11.834 -28.5 24.501 -28.5s20.834 9.5 24.501 28.5s5.5 49.5 5.5 91.5
s-1.83301 72.5 -5.5 91.5s-11.834 28.5 -24.501 28.5s-20.834 -9.5 -24.501 -28.5s-5.5 -49.5 -5.5 -91.5z" />
    <glyph glyph-name="c" unicode="c" horiz-adv-x="617" 
d="M341 280c-1.33301 36 -4.16602 60.002 -8.49902 72.002s-11.166 18 -20.499 18c-12.667 0 -20.834 -9.5 -24.501 -28.5s-5.5 -49.5 -5.5 -91.5s1.83301 -72.5 5.5 -91.5s11.834 -28.5 24.501 -28.5c9.33301 0 16.166 6 20.499 18s7.16602 36 8.49902 72l234 -38
c-6 -41.333 -16.333 -74.5 -31 -99.5s-33.167 -44.333 -55.5 -58s-48.333 -22.834 -78 -27.501s-62.5 -7 -98.5 -7c-43.333 0 -81.666 4.5 -114.999 13.5s-61.5 23.667 -84.5 44s-40.5 47 -52.5 80s-18 73.833 -18 122.5s6 89.5 18 122.5s29.5 59.667 52.5 80
s51.167 35 84.5 44s71.666 13.5 114.999 13.5c36 0 68.833 -2.33301 98.5 -7s55.667 -13.834 78 -27.501s40.833 -33.167 55.5 -58.5s25 -58.333 31 -99z" />
    <glyph glyph-name="d" unicode="d" horiz-adv-x="636" 
d="M462 0l-30 57.999c-13.333 -26 -32.666 -43.833 -57.999 -53.5s-58 -14.5 -98 -14.5c-39.333 0 -74 4.33301 -104 13s-55 22.834 -75 42.501s-35.167 45.667 -45.5 78s-15.5 72.166 -15.5 119.499c0 48.667 5 90 15 124s23.667 61.833 41 83.5
s37.666 37.334 60.999 47.001s48.333 14.5 75 14.5s47.5 -2.66699 62.5 -8s26.5 -11.5 34.5 -18.5s13.333 -14 16 -21s5 -11.833 7 -14.5l-12 50v100h240v-600h-114zM336 249.999c0 42 -1.83301 72.5 -5.5 91.5s-11.834 28.5 -24.501 28.5s-20.834 -9.5 -24.501 -28.5
s-5.5 -49.5 -5.5 -91.5s1.83301 -72.5 5.5 -91.5s11.834 -28.5 24.501 -28.5s20.834 9.5 24.501 28.5s5.5 49.5 5.5 91.5z" />
    <glyph glyph-name="e" unicode="e" horiz-adv-x="607" 
d="M276 221c0.666992 -32 3.00293 -55.168 7.00293 -69.501s11.667 -21.5 23 -21.5c9.33301 0 16.166 6 20.499 18s7.16602 36 8.49902 72l234 -38c-6 -38.667 -15.833 -70.5 -29.5 -95.5s-31.167 -44.667 -52.5 -59s-46.333 -24.166 -75 -29.499s-60.667 -8 -96 -8
c-46 0 -86.333 4.16699 -121 12.5s-63.834 22.5 -87.501 42.5s-41.5 46.667 -53.5 80s-18 75 -18 125s6 91.667 18 125s29.833 60 53.5 80s53.167 34.167 88.5 42.5s76 12.5 122 12.5c37.333 0 71.5 -4.5 102.5 -13.5s57.5 -22.333 79.5 -40s39.167 -39.667 51.5 -66
s18.5 -56.5 18.5 -90.5v-15c0 -4.66699 -0.333008 -9.66699 -1 -15zM334.003 302.999c-2 26.667 -5.16797 44.5 -9.50098 53.5s-10.5 13.5 -18.5 13.5c-10 0 -17.167 -6.16699 -21.5 -18.5s-7.16602 -31.5 -8.49902 -57.5z" />
    <glyph glyph-name="f" unicode="f" horiz-adv-x="653" 
d="M90 0v210.001h-60v140h60c0 48.667 6 89.5 18 122.5s29.5 59.667 52.5 80s51.167 35 84.5 44s71.666 13.5 114.999 13.5c36 0 68.833 -2.33301 98.5 -7s55.667 -13.834 78 -27.501s40.833 -33.167 55.5 -58.5s25 -58.333 31 -99l-234 -38
c-1.33301 36 -4.16602 60 -8.49902 72s-11.166 18 -20.499 18c-12.667 0 -20.834 -9.5 -24.501 -28.5s-5.5 -49.5 -5.5 -91.5h239v-140h-239v-210h-240z" />
    <glyph glyph-name="g" unicode="g" horiz-adv-x="636" 
d="M576 383c2 -11.333 3 -22.6631 3 -33.9961c0 -17.333 -2.33301 -33.833 -7 -49.5s-12.667 -30 -24 -43s-26.333 -24.333 -45 -34s-42.334 -17.167 -71.001 -22.5c61.333 -10.667 105.166 -29.167 131.499 -55.5s39.5 -57.833 39.5 -94.5
c0 -24 -4.83301 -45.833 -14.5 -65.5s-25.5 -36.5 -47.5 -50.5s-51 -24.833 -87 -32.5s-80.333 -11.5 -133 -11.5c-39.333 0 -75.5 2.66699 -108.5 8s-62 15.166 -87 29.499s-45.5 34 -61.5 59s-27 56.833 -33 95.5l234 38
c0.666992 -18.667 2.33398 -33.834 5.00098 -45.501s6.33398 -20.834 11.001 -27.501s10.5 -11.167 17.5 -13.5s15.167 -3.5 24.5 -3.5c3.33301 0 7.5 0.333008 12.5 1s10 2.5 15 5.5s9.16699 7.66699 12.5 14s5 15.166 5 26.499s-1.83301 20.666 -5.5 27.999s-8 13 -13 17
s-10.5 6.83301 -16.5 8.5s-11 2.5 -15 2.5c-24.667 1.33301 -52.167 3.83301 -82.5 7.5s-58.666 11.834 -84.999 24.501s-48.5 31.5 -66.5 56.5s-27 59.5 -27 103.5c0 25.333 3.5 49.166 10.5 71.499s20.5 42 40.5 59s47.667 30.333 83 40s81.333 14.5 138 14.5
c11.333 0 22.666 -0.166992 33.999 -0.5s27.5 -1 48.5 -2s49 -2.16699 84 -3.5s81.833 -2.66602 140.5 -3.99902v-95zM318 267.003c4 0 7.6709 0.666992 11.0039 2s6.16602 4 8.49902 8s4 9.66699 5 17s1.5 17.333 1.5 30c0 24.667 -2.16699 40.167 -6.5 46.5
s-10.833 9.5 -19.5 9.5s-15.334 -3.16699 -20.001 -9.5s-7 -21.833 -7 -46.5c0 -12.667 0.666992 -22.667 2 -30s3.16602 -13 5.49902 -17s5.16602 -6.66699 8.49902 -8s7 -2 11 -2z" />
    <glyph glyph-name="h" unicode="h" 
d="M360 0l0.00292969 250c0 42 -1.83301 72.5 -5.5 91.5s-11.834 28.5 -24.501 28.5s-20.834 -9.5 -24.501 -28.5s-5.5 -49.5 -5.5 -91.5v-250h-240v600h240v-100l-12 -50c0 0.666992 0.666992 2.33398 2 5.00098l8 16c3.33301 6.66699 9.33301 13 18 19
s20.167 11.167 34.5 15.5s33.5 6.5 57.5 6.5c26.667 0 51.667 -4.83301 75 -14.5s43.666 -25.334 60.999 -47.001s31 -49.5 41 -83.5s15 -75.333 15 -124v-243h-240z" />
    <glyph glyph-name="i" unicode="i" horiz-adv-x="360" 
d="M60 0v500h240v-500h-240zM305 605c0 -20.667 -9.16699 -36.667 -27.5 -48s-51.166 -17 -98.499 -17s-80.166 5.66699 -98.499 17s-27.5 27.333 -27.5 48c0 20 9.16699 35.667 27.5 47s51.166 17 98.499 17s80.166 -5.66699 98.499 -17s27.5 -27 27.5 -47z" />
    <glyph glyph-name="j" unicode="j" horiz-adv-x="623" 
d="M323 360l-119 -0.000976562v140h359v-350c0 -48.667 -6 -89.5 -18 -122.5s-29.5 -59.667 -52.5 -80s-51.167 -35 -84.5 -44s-71.666 -13.5 -114.999 -13.5c-36 0 -68.833 2.33301 -98.5 7s-55.667 13.834 -78 27.501s-40.833 33 -55.5 58s-25 58.167 -31 99.5l234 38
c1.33301 -36 4.16602 -60 8.49902 -72s11.166 -18 20.499 -18c12.667 0 20.834 9.5 24.501 28.5s5.5 49.5 5.5 91.5v210zM568 604.999c0 -20.667 -9.33301 -36.667 -28 -48s-51.334 -17 -98.001 -17c-47.333 0 -80.166 5.66699 -98.499 17s-27.5 27.333 -27.5 48
c0 20 9.16699 35.667 27.5 47s51.166 17 98.499 17c46.667 0 79.334 -5.66699 98.001 -17s28 -27 28 -47z" />
    <glyph glyph-name="k" unicode="k" horiz-adv-x="698" 
d="M409 0l-109 196v-196h-240v580l240 20v-296l109 196h265l-200 -250l200 -250h-265z" />
    <glyph glyph-name="l" unicode="l" horiz-adv-x="360" 
d="M60 0v600h240v-600h-240z" />
    <glyph glyph-name="m" unicode="m" horiz-adv-x="960" 
d="M660 0l0.00292969 249.999c0 42 -1.83301 72.5 -5.5 91.5s-11.834 28.5 -24.501 28.5s-20.834 -9.5 -24.501 -28.5s-5.5 -49.5 -5.5 -91.5v-250h-240v250c0 42 -1.83301 72.5 -5.5 91.5s-11.834 28.5 -24.501 28.5s-20.834 -9.5 -24.501 -28.5s-5.5 -49.5 -5.5 -91.5
v-250h-240v500h114l30 -58c16.667 27.333 36.834 45.5 60.501 54.5s50.167 13.5 79.5 13.5c21.333 0 40.5 -1.66699 57.5 -5s32.5 -7.83301 46.5 -13.5s27 -12.167 39 -19.5s24 -15.333 36 -24c12.667 12.667 24.667 23 36 31s22.5 14.333 33.5 19
s22.5 7.83398 34.5 9.50098s25.667 2.5 41 2.5c82.667 0 142 -20.667 178 -62s54 -107.333 54 -198v-250h-240z" />
    <glyph glyph-name="n" unicode="n" horiz-adv-x="661" 
d="M360 0l0.00292969 250c0 42 -1.83301 72.5 -5.5 91.5s-11.834 28.5 -24.501 28.5s-20.834 -9.5 -24.501 -28.5s-5.5 -49.5 -5.5 -91.5v-250h-240v500h114l30 -58c9.33301 14.667 19.333 26.5 30 35.5s22.167 16 34.5 21s25.5 8.16699 39.5 9.5s28.667 2 44 2
c45.333 0 83.666 -4.66699 114.999 -14s56.833 -24.333 76.5 -45s34 -47.5 43 -80.5s13.5 -73.167 13.5 -120.5v-250h-240z" />
    <glyph glyph-name="o" unicode="o" horiz-adv-x="588" 
d="M294 -10c-43.333 0 -81.666 4.5 -114.999 13.5s-61.5 23.667 -84.5 44s-40.5 47 -52.5 80s-18 73.833 -18 122.5s6 89.5 18 122.5s29.5 59.667 52.5 80s51.167 35 84.5 44s71.666 13.5 114.999 13.5s81.666 -4.5 114.999 -13.5s61.5 -23.667 84.5 -44s40.5 -47 52.5 -80
s18 -73.833 18 -122.5s-6 -89.5 -18 -122.5s-29.5 -59.667 -52.5 -80s-51.167 -35 -84.5 -44s-71.666 -13.5 -114.999 -13.5zM264 250c0 -42 1.83301 -72.5 5.5 -91.5s11.834 -28.5 24.501 -28.5s20.834 9.5 24.501 28.5s5.5 49.5 5.5 91.5s-1.83301 72.5 -5.5 91.5
s-11.834 28.5 -24.501 28.5s-20.834 -9.5 -24.501 -28.5s-5.5 -49.5 -5.5 -91.5z" />
    <glyph glyph-name="p" unicode="p" 
d="M300 250c0 -42 1.83301 -72.5 5.5 -91.5s11.834 -28.5 24.501 -28.5s20.834 9.5 24.501 28.5s5.5 49.5 5.5 91.5s-1.83301 72.5 -5.5 91.5s-11.834 28.5 -24.501 28.5s-20.834 -9.5 -24.501 -28.5s-5.5 -49.5 -5.5 -91.5zM60 -100v600.001h114l30 -58
c13.333 26 32.666 43.833 57.999 53.5s58 14.5 98 14.5c39.333 0 74 -4.33301 104 -13s55 -22.834 75 -42.501s35.167 -45.667 45.5 -78s15.5 -72.166 15.5 -119.499c0 -48.667 -5 -90 -15 -124s-23.667 -61.833 -41 -83.5s-37.666 -37.334 -60.999 -47.001
s-48.333 -14.5 -75 -14.5s-47.5 2.66699 -62.5 8s-26.5 11.5 -34.5 18.5s-13.333 13.833 -16 20.5s-5 11.667 -7 15l12 -50v-100h-240z" />
    <glyph glyph-name="q" unicode="q" 
d="M360 250c0 42 -1.83301 72.5 -5.5 91.5s-11.834 28.5 -24.501 28.5s-20.834 -9.5 -24.501 -28.5s-5.5 -49.5 -5.5 -91.5s1.83301 -72.5 5.5 -91.5s11.834 -28.5 24.501 -28.5s20.834 9.5 24.501 28.5s5.5 49.5 5.5 91.5zM360 -100v99.999l12 50
c-2 -3.33301 -4.33301 -8.33301 -7 -15s-8 -13.5 -16 -20.5s-19.5 -13.167 -34.5 -18.5s-35.833 -8 -62.5 -8s-51.667 4.83301 -75 14.5s-43.666 25.334 -60.999 47.001s-31 49.5 -41 83.5s-15 75.333 -15 124c0 47.333 5.16699 87.166 15.5 119.499s25.5 58.333 45.5 78
s45 33.834 75 42.501s64.667 13 104 13c40 0 72.667 -4.83301 98 -14.5s44.666 -27.5 57.999 -53.5l30 58h114v-600h-240z" />
    <glyph glyph-name="r" unicode="r" horiz-adv-x="625" 
d="M60 0l0.00195312 499.999h114l30 -58c17.333 28.667 37.833 47.167 61.5 55.5s53.167 12.5 88.5 12.5c30 0 58.333 -2.33301 85 -7s50.667 -14 72 -28s39.333 -33.5 54 -58.5s24.667 -57.833 30 -98.5l-234 -38c0 26.667 -1.83301 48.334 -5.5 65.001
s-11.834 25 -24.501 25s-20.834 -9.5 -24.501 -28.5s-5.5 -49.5 -5.5 -91.5v-250h-241z" />
    <glyph glyph-name="s" unicode="s" horiz-adv-x="619" 
d="M348 280c-0.666992 20 -1.8252 35.8311 -3.49219 47.498s-3.83398 20.667 -6.50098 27s-5.66699 10.5 -9 12.5s-7 3 -11 3c-8.66699 0 -17.334 -2.83301 -26.001 -8.5s-13 -14.834 -13 -27.501c0 -22.667 7.5 -39 22.5 -49s33.667 -17.167 56 -21.5
s46.666 -7.33301 72.999 -9s50.666 -5.16699 72.999 -10.5s41 -14.166 56 -26.499s22.5 -31.5 22.5 -57.5v-9c0 -23.333 -6.83301 -44.833 -20.5 -64.5s-32.834 -36.667 -57.501 -51s-54.334 -25.5 -89.001 -33.5s-73.334 -12 -116.001 -12c-36.667 0 -69.667 2.33301 -99 7
s-55 13.834 -77 27.501s-40.333 33 -55 58s-25 58.167 -31 99.5l234 38c1.33301 -36 4.16602 -60 8.49902 -72s11.166 -18 20.499 -18s17.166 2.66699 23.499 8s9.5 14.333 9.5 27c0 22.667 -7.33301 39.167 -22 49.5s-33 17.833 -55 22.5s-45.667 7.83398 -71 9.50098
s-49 5.16699 -71 10.5s-40.333 14 -55 26s-22 31 -22 57v9c0 18.667 5.16699 37.667 15.5 57s26.833 36.666 49.5 51.999s52.334 27.833 89.001 37.5s81.334 14.5 134.001 14.5c34.667 0 66.5 -2.66699 95.5 -8s54.5 -15.166 76.5 -29.499s40.167 -34 54.5 -59
s24.5 -56.833 30.5 -95.5z" />
    <glyph glyph-name="t" unicode="t" horiz-adv-x="617" 
d="M324 360v-129.999c0 -34.667 1 -60 3 -76s8.66699 -24 20 -24c8.66699 0 14.5 6 17.5 18s5.16699 36 6.5 72l222 -38c-6 -41.333 -15.5 -74.5 -28.5 -99.5s-29.5 -44.333 -49.5 -58s-44 -22.834 -72 -27.501s-60 -7 -96 -7c-43.333 0 -81.333 4.5 -114 13.5
s-60 23.667 -82 44s-38.667 47 -50 80s-17 73.833 -17 122.5v110h-60v140h60v70l240 30v-100h239v-140h-239z" />
    <glyph glyph-name="u" unicode="u" horiz-adv-x="661" 
d="M486 0l-30.002 58.001c-7.33301 -13.333 -14.5 -24.333 -21.5 -33s-15.167 -15.5 -24.5 -20.5s-20.666 -8.66699 -33.999 -11s-30.333 -3.5 -51 -3.5c-40.667 0 -77.334 4.33301 -110.001 13s-60.5 23 -83.5 43s-40.667 46.667 -53 80s-18.5 74.666 -18.5 123.999v250
h240v-250c0 -42 1.83301 -72.5 5.5 -91.5s11.834 -28.5 24.501 -28.5s20.834 9.5 24.501 28.5s5.5 49.5 5.5 91.5v250h240v-500h-114z" />
    <glyph glyph-name="v" unicode="v" horiz-adv-x="629" 
d="M194 0l-188 500h253l55 -370l56 370h253l-189 -500h-240z" />
    <glyph glyph-name="w" unicode="w" horiz-adv-x="762" 
d="M486 0l-106 199l-104 -199h-138l-132 500h240l24 -219l66 169h90l66 -169l24 219h240l-132 -500h-138z" />
    <glyph glyph-name="x" unicode="x" horiz-adv-x="665" 
d="M382 0l-50 175l-49 -175h-253l158 250l-158 250h253l49 -175l50 175h253l-171 -250l171 -250h-253z" />
    <glyph glyph-name="y" unicode="y" horiz-adv-x="630" 
d="M354 203c-2 -3.33301 -4.16895 -7.83398 -6.50195 -13.501s-6.5 -11.667 -12.5 -18s-14.833 -12.166 -26.5 -17.499s-27.834 -9 -48.501 -11c-5.33301 -0.666992 -10.166 -1.16699 -14.499 -1.5s-8.83301 -0.5 -13.5 -0.5c-25.333 0 -50 3.5 -74 10.5s-45.5 18 -64.5 33
s-34.333 34.333 -46 58s-17.5 52.167 -17.5 85.5v172h240v-175l1 -13.5c0.666992 -9 2.16699 -18.667 4.5 -29s5.5 -19.833 9.5 -28.5s9 -13 15 -13c12.667 0 20.834 6.66699 24.501 20s5.5 34.666 5.5 63.999v175h240v-350c0 -48.667 -6 -89.5 -18 -122.5
s-29.5 -59.667 -52.5 -80s-51.167 -35 -84.5 -44s-71.666 -13.5 -114.999 -13.5c-36 0 -68.833 2.33301 -98.5 7s-55.667 13.834 -78 27.501s-40.833 33 -55.5 58s-25 58.167 -31 99.5l234 38c1.33301 -36 4.16602 -60 8.49902 -72s11.166 -18 20.499 -18
c6 0 10.667 1.5 14 4.5s6.33301 8.83301 9 17.5s4.83398 21 6.50098 37s3.83398 37.333 6.50098 64z" />
    <glyph glyph-name="z" unicode="z" horiz-adv-x="636" 
d="M60 0v95l216 255h-216v150h516v-95l-216 -255h216v-150h-516z" />
    <glyph glyph-name="braceleft" unicode="{" horiz-adv-x="451" 
d="M391 -10c-36.667 0 -72.002 2.6709 -106.002 8.00391s-64.167 14.833 -90.5 28.5s-47.833 32.5 -64.5 56.5s-26 54.667 -28 92c0 4.66699 -0.5 9.66699 -1.5 15s-2.83301 10.166 -5.5 14.499s-6.83398 8 -12.501 11s-13.167 4.5 -22.5 4.5h-24v110h24
c9.33301 0 16.833 1.5 22.5 4.5s9.83398 6.66699 12.501 11s4.5 9.16602 5.5 14.499s1.5 10.333 1.5 15c0.666992 8 1.83398 18.333 3.50098 31s5.5 25.834 11.5 39.501s15 27.334 27 41.001s28.5 26 49.5 37s47.667 19.833 80 26.5s71.5 10 117.5 10l-8 -140
c-10 0 -18 -0.666992 -24 -2s-10.5 -3.33301 -13.5 -6s-5 -5.83398 -6 -9.50098s-1.83301 -7.83398 -2.5 -12.501c-2.66699 -24 -7.5 -42 -14.5 -54s-15.833 -21.167 -26.5 -27.5s-23.167 -11.5 -37.5 -15.5s-30.166 -10 -47.499 -18c16.667 -7.33301 32.167 -13 46.5 -17
s26.833 -9.33301 37.5 -16s19.667 -16 27 -28s12.333 -30 15 -54c0.666992 -4.66699 1.5 -8.83398 2.5 -12.501s3 -6.83398 6 -9.50098s7.5 -4.66699 13.5 -6s14 -2 24 -2z" />
    <glyph glyph-name="bar" unicode="|" horiz-adv-x="300" 
d="M60 -100v750h180v-750h-180z" />
    <glyph glyph-name="braceright" unicode="}" horiz-adv-x="451" 
d="M391 220c-9.33301 0 -16.835 -1.50391 -22.502 -4.50391s-9.83398 -6.66699 -12.501 -11s-4.5 -9.16602 -5.5 -14.499s-1.5 -10.333 -1.5 -15c-2 -37.333 -11.333 -68 -28 -92s-38.167 -42.833 -64.5 -56.5s-56.5 -23.167 -90.5 -28.5s-69.333 -8 -106 -8l8 140
c10 0 18 0.666992 24 2s10.5 3.33301 13.5 6s5 5.83398 6 9.50098s1.83301 7.83398 2.5 12.501c2.66699 24 7.66699 42 15 54s16.333 21.333 27 28s23.167 12 37.5 16s29.833 9.66699 46.5 17c-17.333 8 -33.166 14 -47.499 18s-26.833 9.16699 -37.5 15.5
s-19.5 15.5 -26.5 27.5s-11.833 30 -14.5 54c-0.666992 4.66699 -1.5 8.83398 -2.5 12.501s-3 6.83398 -6 9.50098s-7.5 4.66699 -13.5 6s-14 2 -24 2l-8 140c46 0 85.167 -3.33301 117.5 -10s59 -15.5 80 -26.5s37.5 -23.333 49.5 -37s21 -27.334 27 -41.001
s9.83301 -26.834 11.5 -39.501s2.83398 -23 3.50098 -31c0 -4.66699 0.5 -9.66699 1.5 -15s2.83301 -10.166 5.5 -14.499s6.83398 -8 12.501 -11s13.167 -4.5 22.5 -4.5h24v-110h-24z" />
    <glyph glyph-name="asciitilde" unicode="~" horiz-adv-x="998" 
d="M705 490l233.998 -38l-16 -96c-6.66699 -38.667 -17.167 -70.5 -31.5 -95.5s-32.5 -44.667 -54.5 -59s-47.333 -24.166 -76 -29.499s-60.334 -8 -95.001 -8c-55.333 0 -101.333 5.16699 -138 15.5s-66.167 23.666 -88.5 39.999s-38.166 34.666 -47.499 54.999
s-14 40.166 -14 59.499c0 12.667 -4.33301 21.834 -13 27.501s-17 8.5 -25 8.5c-4 0 -7.33301 -1 -10 -3s-4.83398 -6.16699 -6.50098 -12.5s-3.5 -15.5 -5.5 -27.5s-4.66699 -27.667 -8 -47l-16 -96l-234 38l16 96c6.66699 38.667 17.167 70.5 31.5 95.5
s32.333 44.667 54 59s46.834 24.166 75.501 29.499s60.334 8 95.001 8c54.667 0 100.5 -5.16699 137.5 -15.5s66.667 -23.666 89 -39.999s38.166 -34.666 47.499 -54.999s14 -40.166 14 -59.499c0 -12.667 4.33301 -21.834 13 -27.501s17.334 -8.5 26.001 -8.5
c4 0 7.33301 1 10 3s4.83398 6.16699 6.50098 12.5s3.5 15.5 5.5 27.5s4.66699 27.667 8 47z" />
    <glyph glyph-name="exclamdown" unicode="&#xa1;" horiz-adv-x="360" 
d="M60 -100l30 390h180l30 -390h-240zM305 396c0 -20.667 -9.16699 -36.667 -27.5 -48s-51.166 -17 -98.499 -17s-80.166 5.66699 -98.499 17s-27.5 27.333 -27.5 48c0 20 9.16699 35.667 27.5 47s51.166 17 98.499 17s80.166 -5.66699 98.499 -17s27.5 -27 27.5 -47z" />
    <glyph glyph-name="cent" unicode="&#xa2;" horiz-adv-x="617" 
d="M224 -100v98.0039c-29.333 5.33301 -55.333 14 -78 26s-41.667 28.167 -57 48.5s-27 45.166 -35 74.499s-12 63.666 -12 102.999c0 78.667 15.667 137.667 47 177s76.333 64.333 135 75v98h168v-94c24.667 -3.33301 47.167 -8.83301 67.5 -16.5
s38.166 -18.834 53.499 -33.501s28.166 -33.167 38.499 -55.5s18.166 -49.833 23.499 -82.5l-234 -38c-1.33301 36 -4.16602 60 -8.49902 72s-11.166 18 -20.499 18c-12.667 0 -20.834 -9.5 -24.501 -28.5s-5.5 -49.5 -5.5 -91.5s1.83301 -72.5 5.5 -91.5
s11.834 -28.5 24.501 -28.5c9.33301 0 16.166 6 20.499 18s7.16602 36 8.49902 72l234 -38c-5.33301 -32.667 -13.166 -60.334 -23.499 -83.001s-23.166 -41.167 -38.499 -55.5s-33.166 -25.5 -53.499 -33.5s-42.833 -13.333 -67.5 -16v-94h-168z" />
    <glyph glyph-name="sterling" unicode="&#xa3;" horiz-adv-x="852" 
d="M791 177c0.666992 -4.66699 1.00195 -8.99805 1.00195 -12.998v-12c0 -32 -6.66699 -58.5 -20 -79.5s-31.166 -37.5 -53.499 -49.5s-48 -20.5 -77 -25.5s-59.5 -7.5 -91.5 -7.5c-55.333 0 -97.833 2.66699 -127.5 8s-48.5 18.666 -56.5 39.999
c-4 10 -9.33301 16.5 -16 19.5s-13.667 4.5 -21 4.5c-5.33301 0 -10.5 -0.333008 -15.5 -1s-9.33301 -2.83398 -13 -6.50098s-6.66699 -9.33398 -9 -17.001s-3.5 -18.5 -3.5 -32.5v-5h-157v280h-71l12 60h62c6 42 17.5 77.167 34.5 105.5s38.167 51 63.5 68s54.5 29 87.5 36
s68.167 10.5 105.5 10.5c26.667 0 55.167 -2 85.5 -6s58.333 -12 84 -24s47 -28.5 64 -49.5s25.5 -48.5 25.5 -82.5v-11c0 -4 -0.333008 -8 -1 -12h-228c0 16.667 -2.83301 28.334 -8.5 35.001s-14.834 10 -27.501 10s-23.834 -3.33301 -33.501 -10
s-14.5 -18.334 -14.5 -35.001v-35h91l-12 -60h-79v-104c33.333 0 59.833 -0.333008 79.5 -1s35.167 -2.5 46.5 -5.5s19.833 -7.66699 25.5 -14s11.167 -15.166 16.5 -26.499c3.33301 -8 6.83301 -14.167 10.5 -18.5s9.16699 -6.5 16.5 -6.5c4 0 8 0.333008 12 1
s7.66699 3 11 7s6.16602 10.333 8.49902 19s3.5 20.667 3.5 36v13z" />
    <glyph glyph-name="currency" unicode="&#xa4;" horiz-adv-x="926" 
d="M739 -41l-101 84c-24.667 -12 -51.667 -20.5 -81 -25.5s-60.666 -7.5 -93.999 -7.5c-34 0 -65.667 2.5 -95 7.5s-56 13.5 -80 25.5l-101 -84l-127 106l121 101c-6 17.333 -10.5 33.5 -13.5 48.5s-4.5 35.167 -4.5 60.5s1.5 45.333 4.5 60s7.5 30.667 13.5 48l-121 102
l127 106l101 -84c24 12 50.667 20.5 80 25.5s61 7.5 95 7.5c33.333 0 64.666 -2.5 93.999 -7.5s56.333 -13.5 81 -25.5l101 84l127 -106l-122 -102c6 -17.333 10.667 -33.333 14 -48s5 -34.667 5 -60s-1.66699 -45.5 -5 -60.5s-8 -31.167 -14 -48.5l122 -101zM403 275
c0 -30.667 2 -54.5 6 -71.5s9 -29.5 15 -37.5s12.5 -12.667 19.5 -14s13.5 -2 19.5 -2s12.5 0.666992 19.5 2s13.5 6 19.5 14s11 20.5 15 37.5s6 40.833 6 71.5s-2 54.5 -6 71.5s-9 29.5 -15 37.5s-12.5 12.667 -19.5 14s-13.5 2 -19.5 2s-12.5 -0.666992 -19.5 -2
s-13.5 -6 -19.5 -14s-11 -20.5 -15 -37.5s-6 -40.833 -6 -71.5z" />
    <glyph glyph-name="yen" unicode="&#xa5;" horiz-adv-x="689" 
d="M224 0v50h-180v100h179l-26 50h-153v100h98l-136 250h265l73 -260l74 260h265l-137 -250h98v-100h-152l-28 -50h180v-100h-180v-50h-240z" />
    <glyph glyph-name="brokenbar" unicode="&#xa6;" horiz-adv-x="300" 
d="M60 -100v340h180v-340h-180zM60 310v340h180v-340h-180z" />
    <glyph glyph-name="dieresis" unicode="&#xa8;" horiz-adv-x="360" 
d="M88 540c-23.333 0 -40.833 5.66699 -52.5 17s-17.5 27.333 -17.5 48c0 20 5.83301 35.667 17.5 47s29.167 17 52.5 17s40.5 -5.66699 51.5 -17s16.5 -27 16.5 -47c0 -20.667 -5.5 -36.667 -16.5 -48s-28.167 -17 -51.5 -17zM274 540c-23.333 0 -40.833 5.66699 -52.5 17
s-17.5 27.333 -17.5 48c0 20 5.83301 35.667 17.5 47s29.167 17 52.5 17s40.5 -5.66699 51.5 -17s16.5 -27 16.5 -47c0 -20.667 -5.5 -36.667 -16.5 -48s-28.167 -17 -51.5 -17z" />
    <glyph glyph-name="copyright" unicode="&#xa9;" horiz-adv-x="840" 
d="M420 -60c-52 0 -100 5.16699 -144 15.5s-82 28.166 -114 53.499s-57 59.5 -75 102.5s-27 97.5 -27 163.5s9 120.5 27 163.5s43 77.167 75 102.5s70 43.166 114 53.499s92 15.5 144 15.5s100 -5.16699 144 -15.5s82 -28.166 114 -53.499s57 -59.5 75 -102.5
s27 -97.5 27 -163.5s-9 -120.5 -27 -163.5s-43 -77.167 -75 -102.5s-70 -43.166 -114 -53.499s-92 -15.5 -144 -15.5zM420 -10c43.333 0 83.333 4.33301 120 13s68.334 23.834 95.001 45.501s47.5 50.834 62.5 87.501s22.5 83 22.5 139s-7.5 102.333 -22.5 139
s-35.833 65.834 -62.5 87.501s-58.334 36.834 -95.001 45.501s-76.667 13 -120 13s-83.333 -4.33301 -120 -13s-68.334 -23.834 -95.001 -45.501s-47.5 -50.834 -62.5 -87.501s-22.5 -83 -22.5 -139s7.5 -102.333 22.5 -139s35.833 -65.834 62.5 -87.501
s58.334 -36.834 95.001 -45.501s76.667 -13 120 -13zM445 298c-1.33301 27.333 -3.66602 45.501 -6.99902 54.501s-8.66602 13.5 -15.999 13.5c-9.33301 0 -15.333 -7.16699 -18 -21.5s-4 -37.5 -4 -69.5s1.33301 -55.167 4 -69.5s8.66699 -21.5 18 -21.5
c7.33301 0 12.666 4.5 15.999 13.5s5.66602 27.167 6.99902 54.5l178 -29c-4.66699 -31.333 -12.667 -56.5 -24 -75.5s-25.5 -33.667 -42.5 -44s-36.667 -17.333 -59 -21s-47.5 -5.5 -75.5 -5.5c-32.667 0 -61.667 3.5 -87 10.5s-46.833 18.167 -64.5 33.5
s-31 35.666 -40 60.999s-13.5 56.333 -13.5 93s4.5 67.667 13.5 93s22.333 45.666 40 60.999s39.167 26.5 64.5 33.5s54.333 10.5 87 10.5c28 0 53.167 -1.83301 75.5 -5.5s42 -10.667 59 -21s31.167 -25.166 42.5 -44.499s19.333 -44.333 24 -75z" />
    <glyph glyph-name="ordfeminine" unicode="&#xaa;" horiz-adv-x="447" 
d="M319 300l-18.002 34.998c-4 -5.33301 -7.5 -10.333 -10.5 -15s-7 -9 -12 -13s-12.333 -7.16699 -22 -9.5s-22.834 -3.5 -39.501 -3.5c-49.333 0 -87.666 7.16699 -114.999 21.5s-41 37.833 -41 70.5v10c0 13.333 4.33301 24.333 13 33s20.5 15.5 35.5 20.5
s32.333 8.33301 52 10s40.834 2.5 63.501 2.5h18c0 20.667 -1.16699 35.834 -3.5 45.501s-7.16602 14.5 -14.499 14.5c-5.33301 0 -9.16602 -3.66699 -11.499 -11s-3.83301 -21.666 -4.5 -42.999l-141 23c4 24.667 10.5 44.5 19.5 59.5s20.167 26.667 33.5 35
s28.166 13.833 44.499 16.5s33.833 4 52.5 4c28 0 52.5 -2.5 73.5 -7.5s38.667 -13.5 53 -25.5s25 -28 32 -48s10.5 -45 10.5 -75v-150h-68zM242.998 414.998c-6 2 -10.667 2.99902 -14 2.99902c-8 0 -14 -2.16699 -18 -6.5s-6 -9.16602 -6 -14.499
s1.83301 -9.83301 5.5 -13.5s9.16699 -5.5 16.5 -5.5s11.833 3.33301 13.5 10s2.5 15.667 2.5 27z" />
    <glyph glyph-name="guillemotleft" unicode="&#xab;" horiz-adv-x="736" 
d="M577 41l-212 177.002c-8 7.33301 -13.5 15.333 -16.5 24s-4.5 18 -4.5 28s1.5 19.333 4.5 28s8.5 16.667 16.5 24l212 178l129 -106l-118 -98c-7.33301 -6.66699 -11 -15.334 -11 -26.001s3.66699 -19.334 11 -26.001l118 -97zM263 41.002l-213 176.999
c-7.33301 7.33301 -12.5 15.333 -15.5 24s-4.5 18 -4.5 28s1.5 19.333 4.5 28s8.5 16.667 16.5 24l212 178l128 -106l-117 -98c-7.33301 -6.66699 -11 -15.334 -11 -26.001c0 -5.33301 0.666992 -10.166 2 -14.499s4.33301 -8.16602 9 -11.499l117 -97z" />
    <glyph glyph-name="registered" unicode="&#xae;" horiz-adv-x="840" 
d="M420 -60c-52 0 -100 5.16699 -144 15.5s-82 28.166 -114 53.499s-57 59.5 -75 102.5s-27 97.5 -27 163.5s9 120.5 27 163.5s43 77.167 75 102.5s70 43.166 114 53.499s92 15.5 144 15.5s100 -5.16699 144 -15.5s82 -28.166 114 -53.499s57 -59.5 75 -102.5
s27 -97.5 27 -163.5s-9 -120.5 -27 -163.5s-43 -77.167 -75 -102.5s-70 -43.166 -114 -53.499s-92 -15.5 -144 -15.5zM420 -10c43.333 0 83.333 4.33301 120 13s68.334 23.834 95.001 45.501s47.5 50.834 62.5 87.501s22.5 83 22.5 139s-7.5 102.333 -22.5 139
s-35.833 65.834 -62.5 87.501s-58.334 36.834 -95.001 45.501s-76.667 13 -120 13s-83.333 -4.33301 -120 -13s-68.334 -23.834 -95.001 -45.501s-47.5 -50.834 -62.5 -87.501s-22.5 -83 -22.5 -139s7.5 -102.333 22.5 -139s35.833 -65.834 62.5 -87.501
s58.334 -36.834 95.001 -45.501s76.667 -13 120 -13zM452 82l-49.998 103.001h-8v-103h-168v385h226c21.333 0 42.166 -1.83301 62.499 -5.5s38.333 -10.5 54 -20.5s28.167 -24.167 37.5 -42.5s14 -42.5 14 -72.5c0 -34.667 -6.33301 -61.834 -19 -81.501
s-29.334 -34.167 -50.001 -43.5l87 -119h-186zM431.002 271.001c9.33301 0 15.166 5 17.499 15s3.5 22.667 3.5 38s-1.16699 27.833 -3.5 37.5s-8.16602 14.5 -17.499 14.5h-37v-105h37z" />
    <glyph glyph-name="macron" unicode="&#xaf;" horiz-adv-x="480" 
d="M60 580v50h360v-50h-360z" />
    <glyph glyph-name="macron" unicode="&#x2c9;" horiz-adv-x="480" 
d="M60 580v50h360v-50h-360z" />
    <glyph glyph-name="twosuperior" unicode="&#xb2;" horiz-adv-x="442" 
d="M60 493c3.33301 23.333 8.99609 42.4971 16.9961 57.4971s18.5 26.667 31.5 35s28 14.166 45 17.499s36.167 5 57.5 5c32.667 0 59.834 -3 81.501 -9s38.834 -14 51.501 -24s21.667 -21.667 27 -35s8 -27 8 -41c0 -20.667 -4 -36.5 -12 -47.5s-18 -19.5 -30 -25.5
s-24.833 -10.167 -38.5 -12.5s-26.5 -5.16602 -38.5 -8.49902s-22 -8.16602 -30 -14.499s-12 -15.833 -12 -28.5h164v-90h-322c0 36.667 4.33301 66 13 88s19.334 39.167 32.001 51.5s26.667 21.5 42 27.5s29.333 11.333 42 16s23.334 10.334 32.001 17.001s13 16.667 13 30
c0 14.667 -5.33301 22 -16 22c-5.33301 0 -9.33301 -3.16699 -12 -9.5s-4.66699 -21.166 -6 -44.499z" />
    <glyph glyph-name="threesuperior" unicode="&#xb3;" horiz-adv-x="439" 
d="M304 460c8 -2.66699 16.501 -6.83105 25.501 -12.498s17.167 -12.5 24.5 -20.5s13.333 -17.167 18 -27.5s7 -21.5 7 -33.5c0 -32.667 -12.5 -58.167 -37.5 -76.5s-66.167 -27.5 -123.5 -27.5c-21.333 0 -40.833 1.66699 -58.5 5s-33.334 9.16602 -47.001 17.499
s-25 20 -34 35s-15.167 34.167 -18.5 57.5l140 23c1.33301 -20.667 3 -34.834 5 -42.501s6.33301 -11.5 13 -11.5c11.333 0 17 6.66699 17 20c0 25.333 -4.16699 41.833 -12.5 49.5s-20.833 13.167 -37.5 16.5v30l53 46h-160v90h295v-57z" />
    <glyph glyph-name="acute" unicode="&#xb4;" horiz-adv-x="360" 
d="M192 535h-120l124 132h194z" />
    <glyph glyph-name="mu" unicode="&#xb5;" 
d="M325 -10c-18.667 0.666992 -34.002 2.16895 -46.002 4.50195s-22.333 6.16602 -31 11.499s-16.334 12.166 -23.001 20.499s-13.667 18.833 -21 31.5l-30 -158h-114v600h240v-250c0 -42 1.83301 -72.5 5.5 -91.5s11.834 -28.5 24.501 -28.5s20.834 9.5 24.501 28.5
s5.5 49.5 5.5 91.5v250h240v-500h-114l-30 58c-7.33301 -13.333 -14.5 -24.333 -21.5 -33s-15.167 -15.5 -24.5 -20.5s-20.666 -8.66699 -33.999 -11s-30.333 -3.5 -51 -3.5z" />
    <glyph glyph-name="onesuperior" unicode="&#xb9;" horiz-adv-x="300" 
d="M96 270v198h-36v42l109 90h71v-330h-144z" />
    <glyph glyph-name="guillemotright" unicode="&#xbb;" horiz-adv-x="736" 
d="M30 147l118 97c6.66699 6 10 14.667 10 26s-3.33301 20 -10 26l-118 98l129 106l212 -178c8 -7.33301 13.333 -15.333 16 -24s4 -18 4 -28s-1.5 -19.333 -4.5 -28s-8.16699 -16.667 -15.5 -24l-213 -177zM344 147l118 96.998c7.33301 6.66699 11 15.334 11 26.001
s-3.66699 19.334 -11 26.001l-118 98l129 106l212 -178c8 -7.33301 13.5 -15.333 16.5 -24s4.5 -18 4.5 -28s-1.5 -19.333 -4.5 -28s-8.5 -16.667 -16.5 -24l-212 -177z" />
    <glyph glyph-name="onequarter" unicode="&#xbc;" horiz-adv-x="850" 
d="M127 -84l389 700l73 -26l-389 -700zM96 270v198h-36v42l109 90h71v-330h-144zM610 -100v60h-166v57l44 213h155l-85 -180h52v90h144v-90h36v-90h-36v-60h-144z" />
    <glyph glyph-name="onehalf" unicode="&#xbd;" horiz-adv-x="826" 
d="M96 270v198h-36v42l109 90h71v-330h-144zM127 -84l389 700l73 -26l-389 -700zM444 123c3.33301 23.333 8.99609 42.4971 16.9961 57.4971s18.5 26.667 31.5 35s28 14.166 45 17.499s36.167 5 57.5 5c32.667 0 59.834 -3 81.501 -9s38.834 -14 51.501 -24
s21.667 -21.667 27 -35s8 -27 8 -41c0 -20.667 -4 -36.5 -12 -47.5s-18 -19.5 -30 -25.5s-24.833 -10.167 -38.5 -12.5s-26.5 -5.16602 -38.5 -8.49902s-22 -8.16602 -30 -14.499s-12 -15.833 -12 -28.5h164v-90h-322c0 36.667 4.33301 66 13 88s19.334 39.167 32.001 51.5
s26.667 21.5 42 27.5s29.333 11.333 42 16s23.334 10.334 32.001 17.001s13 16.667 13 30c0 14.667 -5.33301 22 -16 22c-5.33301 0 -9.33301 -3.16699 -12 -9.5s-4.66699 -21.166 -6 -44.499z" />
    <glyph glyph-name="threequarters" unicode="&#xbe;" horiz-adv-x="981" 
d="M259 -84l389 700l73 -26l-389 -700zM304 460c8 -2.66699 16.501 -6.83105 25.501 -12.498s17.167 -12.5 24.5 -20.5s13.333 -17.167 18 -27.5s7 -21.5 7 -33.5c0 -32.667 -12.5 -58.167 -37.5 -76.5s-66.167 -27.5 -123.5 -27.5c-21.333 0 -40.833 1.66699 -58.5 5
s-33.334 9.16602 -47.001 17.499s-25 20 -34 35s-15.167 34.167 -18.5 57.5l140 23c1.33301 -20.667 3 -34.834 5 -42.501s6.33301 -11.5 13 -11.5c11.333 0 17 6.66699 17 20c0 25.333 -4.16699 41.833 -12.5 49.5s-20.833 13.167 -37.5 16.5v30l53 46h-160v90h295v-57z
M742.001 -99.9971v60h-166v57l44 213h155l-85 -180h52v90h144v-90h36v-90h-36v-60h-144z" />
    <glyph glyph-name="questiondown" unicode="&#xbf;" horiz-adv-x="657" 
d="M595 82c-6 -37.333 -15.335 -68.3311 -28.002 -92.998s-29.5 -44.334 -50.5 -59.001s-46.167 -25 -75.5 -31s-63.333 -9 -102 -9c-55.333 0 -100.833 5 -136.5 15s-64 23.833 -85 41.5s-35.5 38.167 -43.5 61.5s-12 48.666 -12 75.999c0 29.333 3.83301 52 11.5 68
s17 28.333 28 37s23.167 14.834 36.5 18.501s25.5 8.16699 36.5 13.5s20.333 13 28 23s11.5 25.333 11.5 46h228c2.66699 -11.333 4 -23.333 4 -36c0 -19.333 -3.5 -35 -10.5 -47s-15.833 -22 -26.5 -30s-22 -15 -34 -21s-23.333 -12.667 -34 -20s-19.5 -16.333 -26.5 -27
s-10.5 -24.334 -10.5 -41.001c0 -25.333 9 -38 27 -38c4 0 7.66699 1 11 3s6.33301 6.16699 9 12.5s4.83398 15.333 6.50098 27s2.83398 27.5 3.50098 47.5zM453.998 396.002c0 -20.667 -9.16699 -36.667 -27.5 -48s-51.166 -17 -98.499 -17
c-46.667 0 -79.334 5.66699 -98.001 17s-28 27.333 -28 48c0 20 9.33301 35.667 28 47s51.334 17 98.001 17c47.333 0 80.166 -5.66699 98.499 -17s27.5 -27 27.5 -47z" />
    <glyph glyph-name="Agrave" unicode="&#xc0;" horiz-adv-x="689" 
d="M424 0l-14 70h-132l-13 -70h-259l218 550h240l219 -550h-259zM344 420l-38 -200h76zM313 585l-198 132h194l124 -132h-120z" />
    <glyph glyph-name="Aacute" unicode="&#xc1;" horiz-adv-x="689" 
d="M424 0l-14 70h-132l-13 -70h-259l218 550h240l219 -550h-259zM344 420l-38 -200h76zM386 585h-120l124 132h194z" />
    <glyph glyph-name="Acircumflex" unicode="&#xc2;" horiz-adv-x="689" 
d="M424 0l-14 70h-132l-13 -70h-259l218 550h240l219 -550h-259zM344 420l-38 -200h76zM408 585l-60 61h-8l-60 -61h-146l150 132h120l150 -132h-146z" />
    <glyph glyph-name="Atilde" unicode="&#xc3;" horiz-adv-x="689" 
d="M424 0l-14 70h-132l-13 -70h-259l218 550h240l219 -550h-259zM344 420l-38 -200h76zM426 715l93 -15l-5 -38c-2 -15.333 -5.83301 -28 -11.5 -38s-13 -17.833 -22 -23.5s-19.333 -9.66699 -31 -12s-24.5 -3.5 -38.5 -3.5c-22 0 -40.333 2.16699 -55 6.5
s-26.5 9.66602 -35.5 15.999s-15.333 13.5 -19 21.5s-5.5 16 -5.5 24c0 5.33301 -1.66699 9 -5 11s-6.66602 3 -9.99902 3s-5.83301 -1.66699 -7.5 -5s-2.5 -11 -2.5 -23c0 -1.33301 -0.5 -2.66602 -1.5 -3.99902s-1.5 -2.66602 -1.5 -3.99902l-6 -38l-93 15l6 38
c5.33301 31.333 16.666 52 33.999 62s40 15 68 15c22 0 40.5 -2.16699 55.5 -6.5s26.833 -9.66602 35.5 -15.999s14.834 -13.5 18.501 -21.5s5.5 -16 5.5 -24c0 -5.33301 1.83301 -9 5.5 -11s7.16699 -3 10.5 -3s5.66602 1.66699 6.99902 5s2 11 2 23
c0 1.33301 0.5 2.66602 1.5 3.99902s1.5 2.66602 1.5 3.99902z" />
    <glyph glyph-name="Adieresis" unicode="&#xc4;" horiz-adv-x="689" 
d="M424 0l-14 70h-132l-13 -70h-259l218 550h240l219 -550h-259zM344 420l-38 -200h76zM252 590c-23.333 0 -40.833 5.66699 -52.5 17s-17.5 27.333 -17.5 48c0 20 5.83301 35.667 17.5 47s29.167 17 52.5 17s40.5 -5.66699 51.5 -17s16.5 -27 16.5 -47
c0 -20.667 -5.5 -36.667 -16.5 -48s-28.167 -17 -51.5 -17zM438 590c-23.333 0 -40.833 5.66699 -52.5 17s-17.5 27.333 -17.5 48c0 20 5.83301 35.667 17.5 47s29.167 17 52.5 17s40.5 -5.66699 51.5 -17s16.5 -27 16.5 -47c0 -20.667 -5.5 -36.667 -16.5 -48
s-28.167 -17 -51.5 -17z" />
    <glyph glyph-name="Aring" unicode="&#xc5;" horiz-adv-x="689" 
d="M424 0l-14 70h-132l-13 -70h-259l218 550h240l219 -550h-259zM344 420l-38 -200h76zM494 655c0 -27.333 -11 -48.333 -33 -63s-61 -22 -117 -22s-95 7.33301 -117 22s-33 35.667 -33 63c0 26 11 46.5 33 61.5s61 22.5 117 22.5s95 -7.5 117 -22.5s33 -35.5 33 -61.5z
M422 655c0 7.33301 -5.66699 13.166 -17 17.499s-31.666 6.5 -60.999 6.5s-49.666 -2.16699 -60.999 -6.5s-17 -10.166 -17 -17.499c0 -8 5.66699 -14.167 17 -18.5s31.666 -6.5 60.999 -6.5s49.666 2.16699 60.999 6.5s17 10.5 17 18.5z" />
    <glyph glyph-name="AE" unicode="&#xc6;" horiz-adv-x="818" 
d="M344 0v70h-66l-13 -70h-259l218 550h546v-150h-186v-50h156v-150h-156v-50h186v-150h-426zM344 420l-38 -200h38v200z" />
    <glyph glyph-name="Ccedilla" unicode="&#xc7;" horiz-adv-x="653" 
d="M313 -68c0.666992 -16 1.99805 -26.0029 3.99805 -30.0029s4.66699 -6 8 -6c7.33301 0 11 5 11 15s-3 17.333 -9 22s-12.5 9 -19.5 13s-13.333 8.66699 -19 14s-8.5 14 -8.5 26v7c-37.333 2.66699 -71.333 9.5 -102 20.5s-57 27.5 -79 49.5s-39 50.167 -51 84.5
s-18 76.833 -18 127.5c0 56.667 7.5 103.5 22.5 140.5s36.333 66.167 64 87.5s60.5 36.166 98.5 44.499s80 12.5 126 12.5c32 0 63.5 -2.33301 94.5 -7s59.5 -13.834 85.5 -27.501s48 -33.167 66 -58.5s30 -58.333 36 -99l-234 -38
c-0.666992 22.667 -3.33398 40 -8.00098 52s-10 20.833 -16 26.5s-12 9 -18 10s-11 1.5 -15 1.5c-6.66699 0 -13.667 -0.833008 -21 -2.5s-14 -7.16699 -20 -16.5s-11 -23.666 -15 -42.999s-6 -47 -6 -83s2 -63.667 6 -83s9 -33.666 15 -42.999s12.667 -14.833 20 -16.5
s14.333 -2.5 21 -2.5c4 0 9 0.5 15 1.5s12 4.33301 18 10s11.333 14.5 16 26.5s7.33398 29.333 8.00098 52l234 -38c-6 -37.333 -16.833 -68.166 -32.5 -92.499s-34.834 -43.5 -57.501 -57.5s-47.667 -24 -75 -30s-55.666 -9.66699 -84.999 -11
c2 -9.33301 6.16699 -15.166 12.5 -17.499s13 -4.83301 20 -7.5s13.333 -7.16699 19 -13.5s8.5 -17.833 8.5 -34.5c0 -11.333 -1.66699 -21.666 -5 -30.999s-9.16602 -17.5 -17.499 -24.5s-19.666 -12.5 -33.999 -16.5s-32.5 -6 -54.5 -6c-31.333 0 -55 5.33301 -71 16
s-26.333 31 -31 61z" />
    <glyph glyph-name="Egrave" unicode="&#xc8;" horiz-adv-x="594" 
d="M60 0v550h486v-150h-246v-50h216v-150h-216v-50h246v-150h-486zM294 585l-198 132h194l124 -132h-120z" />
    <glyph glyph-name="Eacute" unicode="&#xc9;" horiz-adv-x="594" 
d="M60 0v550h486v-150h-246v-50h216v-150h-216v-50h246v-150h-486zM311 585h-120l124 132h194z" />
    <glyph glyph-name="Ecircumflex" unicode="&#xca;" horiz-adv-x="594" 
d="M60 0v550h486v-150h-246v-50h216v-150h-216v-50h246v-150h-486zM360 585l-60 61h-8l-60 -61h-146l150 132h120l150 -132h-146z" />
    <glyph glyph-name="Edieresis" unicode="&#xcb;" horiz-adv-x="594" 
d="M60 0v550h486v-150h-246v-50h216v-150h-216v-50h246v-150h-486zM204 590c-23.333 0 -40.833 5.66699 -52.5 17s-17.5 27.333 -17.5 48c0 20 5.83301 35.667 17.5 47s29.167 17 52.5 17s40.5 -5.66699 51.5 -17s16.5 -27 16.5 -47c0 -20.667 -5.5 -36.667 -16.5 -48
s-28.167 -17 -51.5 -17zM390 590c-23.333 0 -40.833 5.66699 -52.5 17s-17.5 27.333 -17.5 48c0 20 5.83301 35.667 17.5 47s29.167 17 52.5 17s40.5 -5.66699 51.5 -17s16.5 -27 16.5 -47c0 -20.667 -5.5 -36.667 -16.5 -48s-28.167 -17 -51.5 -17z" />
    <glyph glyph-name="Igrave" unicode="&#xcc;" horiz-adv-x="360" 
d="M60 0v550h240v-550h-240zM143 585l-198 132h194l124 -132h-120z" />
    <glyph glyph-name="Iacute" unicode="&#xcd;" horiz-adv-x="360" 
d="M60 0v550h240v-550h-240zM233 585h-120l124 132h194z" />
    <glyph glyph-name="Icircumflex" unicode="&#xce;" horiz-adv-x="360" 
d="M60 0v550h240v-550h-240zM244 585l-60 61h-8l-60 -61h-146l150 132h120l150 -132h-146z" />
    <glyph glyph-name="Idieresis" unicode="&#xcf;" horiz-adv-x="360" 
d="M60 0v550h240v-550h-240zM88 590c-23.333 0 -40.833 5.66699 -52.5 17s-17.5 27.333 -17.5 48c0 20 5.83301 35.667 17.5 47s29.167 17 52.5 17s40.5 -5.66699 51.5 -17s16.5 -27 16.5 -47c0 -20.667 -5.5 -36.667 -16.5 -48s-28.167 -17 -51.5 -17zM274 590
c-23.333 0 -40.833 5.66699 -52.5 17s-17.5 27.333 -17.5 48c0 20 5.83301 35.667 17.5 47s29.167 17 52.5 17s40.5 -5.66699 51.5 -17s16.5 -27 16.5 -47c0 -20.667 -5.5 -36.667 -16.5 -48s-28.167 -17 -51.5 -17z" />
    <glyph glyph-name="Eth" unicode="&#xd0;" horiz-adv-x="702" 
d="M90 0v200h-60v150h60v200h282c43.333 0 83.333 -3.83301 120 -11.5s68.334 -21.667 95.001 -42s47.5 -48.333 62.5 -84s22.5 -81.5 22.5 -137.5s-7.5 -101.833 -22.5 -137.5s-35.833 -63.667 -62.5 -84s-58.334 -34.333 -95.001 -42s-76.667 -11.5 -120 -11.5h-282z
M372 130c6 0 12.5 0.834961 19.5 2.50195s13.5 7.16699 19.5 16.5s11 23.666 15 42.999s6 47 6 83s-2 63.667 -6 83s-9 33.666 -15 42.999s-12.5 14.833 -19.5 16.5s-13.5 2.5 -19.5 2.5h-42v-70h60v-150h-60v-70h42z" />
    <glyph glyph-name="Ntilde" unicode="&#xd1;" horiz-adv-x="708" 
d="M510 0l-210 220v-220h-240v550h138l210 -220v220h240v-550h-138zM436 715l93 -15l-5 -38c-2 -15.333 -5.83301 -28 -11.5 -38s-13 -17.833 -22 -23.5s-19.333 -9.66699 -31 -12s-24.5 -3.5 -38.5 -3.5c-22 0 -40.333 2.16699 -55 6.5s-26.5 9.66602 -35.5 15.999
s-15.333 13.5 -19 21.5s-5.5 16 -5.5 24c0 5.33301 -1.66699 9 -5 11s-6.66602 3 -9.99902 3s-5.83301 -1.66699 -7.5 -5s-2.5 -11 -2.5 -23c0 -1.33301 -0.5 -2.66602 -1.5 -3.99902s-1.5 -2.66602 -1.5 -3.99902l-6 -38l-93 15l6 38c5.33301 31.333 16.666 52 33.999 62
s40 15 68 15c22 0 40.5 -2.16699 55.5 -6.5s26.833 -9.66602 35.5 -15.999s14.834 -13.5 18.501 -21.5s5.5 -16 5.5 -24c0 -5.33301 1.83301 -9 5.5 -11s7.16699 -3 10.5 -3s5.66602 1.66699 6.99902 5s2 11 2 23c0 1.33301 0.5 2.66602 1.5 3.99902
s1.5 2.66602 1.5 3.99902z" />
    <glyph glyph-name="Ograve" unicode="&#xd2;" 
d="M330 -10c-43.333 0 -83.333 4.33301 -120 13s-68.334 23.834 -95.001 45.501s-47.5 50.834 -62.5 87.501s-22.5 83 -22.5 139s7.5 102.333 22.5 139s35.833 65.834 62.5 87.501s58.334 36.834 95.001 45.501s76.667 13 120 13s83.333 -4.33301 120 -13
s68.334 -23.834 95.001 -45.501s47.5 -50.834 62.5 -87.501s22.5 -83 22.5 -139s-7.5 -102.333 -22.5 -139s-35.833 -65.834 -62.5 -87.501s-58.334 -36.834 -95.001 -45.501s-76.667 -13 -120 -13zM270 275c0 -36 2 -63.667 6 -83s9 -33.666 15 -42.999
s12.5 -14.833 19.5 -16.5s13.5 -2.5 19.5 -2.5s12.5 0.833008 19.5 2.5s13.5 7.16699 19.5 16.5s11 23.666 15 42.999s6 47 6 83s-2 63.667 -6 83s-9 33.666 -15 42.999s-12.5 14.833 -19.5 16.5s-13.5 2.5 -19.5 2.5s-12.5 -0.833008 -19.5 -2.5
s-13.5 -7.16699 -19.5 -16.5s-11 -23.666 -15 -42.999s-6 -47 -6 -83zM296 585l-198 132h194l124 -132h-120z" />
    <glyph glyph-name="Oacute" unicode="&#xd3;" 
d="M330 -10c-43.333 0 -83.333 4.33301 -120 13s-68.334 23.834 -95.001 45.501s-47.5 50.834 -62.5 87.501s-22.5 83 -22.5 139s7.5 102.333 22.5 139s35.833 65.834 62.5 87.501s58.334 36.834 95.001 45.501s76.667 13 120 13s83.333 -4.33301 120 -13
s68.334 -23.834 95.001 -45.501s47.5 -50.834 62.5 -87.501s22.5 -83 22.5 -139s-7.5 -102.333 -22.5 -139s-35.833 -65.834 -62.5 -87.501s-58.334 -36.834 -95.001 -45.501s-76.667 -13 -120 -13zM270 275c0 -36 2 -63.667 6 -83s9 -33.666 15 -42.999
s12.5 -14.833 19.5 -16.5s13.5 -2.5 19.5 -2.5s12.5 0.833008 19.5 2.5s13.5 7.16699 19.5 16.5s11 23.666 15 42.999s6 47 6 83s-2 63.667 -6 83s-9 33.666 -15 42.999s-12.5 14.833 -19.5 16.5s-13.5 2.5 -19.5 2.5s-12.5 -0.833008 -19.5 -2.5
s-13.5 -7.16699 -19.5 -16.5s-11 -23.666 -15 -42.999s-6 -47 -6 -83zM362 585h-120l124 132h194z" />
    <glyph glyph-name="Ocircumflex" unicode="&#xd4;" 
d="M330 -10c-43.333 0 -83.333 4.33301 -120 13s-68.334 23.834 -95.001 45.501s-47.5 50.834 -62.5 87.501s-22.5 83 -22.5 139s7.5 102.333 22.5 139s35.833 65.834 62.5 87.501s58.334 36.834 95.001 45.501s76.667 13 120 13s83.333 -4.33301 120 -13
s68.334 -23.834 95.001 -45.501s47.5 -50.834 62.5 -87.501s22.5 -83 22.5 -139s-7.5 -102.333 -22.5 -139s-35.833 -65.834 -62.5 -87.501s-58.334 -36.834 -95.001 -45.501s-76.667 -13 -120 -13zM270 275c0 -36 2 -63.667 6 -83s9 -33.666 15 -42.999
s12.5 -14.833 19.5 -16.5s13.5 -2.5 19.5 -2.5s12.5 0.833008 19.5 2.5s13.5 7.16699 19.5 16.5s11 23.666 15 42.999s6 47 6 83s-2 63.667 -6 83s-9 33.666 -15 42.999s-12.5 14.833 -19.5 16.5s-13.5 2.5 -19.5 2.5s-12.5 -0.833008 -19.5 -2.5
s-13.5 -7.16699 -19.5 -16.5s-11 -23.666 -15 -42.999s-6 -47 -6 -83zM394 585l-60 61h-8l-60 -61h-146l150 132h120l150 -132h-146z" />
    <glyph glyph-name="Otilde" unicode="&#xd5;" 
d="M330 -10c-43.333 0 -83.333 4.33301 -120 13s-68.334 23.834 -95.001 45.501s-47.5 50.834 -62.5 87.501s-22.5 83 -22.5 139s7.5 102.333 22.5 139s35.833 65.834 62.5 87.501s58.334 36.834 95.001 45.501s76.667 13 120 13s83.333 -4.33301 120 -13
s68.334 -23.834 95.001 -45.501s47.5 -50.834 62.5 -87.501s22.5 -83 22.5 -139s-7.5 -102.333 -22.5 -139s-35.833 -65.834 -62.5 -87.501s-58.334 -36.834 -95.001 -45.501s-76.667 -13 -120 -13zM270 275c0 -36 2 -63.667 6 -83s9 -33.666 15 -42.999
s12.5 -14.833 19.5 -16.5s13.5 -2.5 19.5 -2.5s12.5 0.833008 19.5 2.5s13.5 7.16699 19.5 16.5s11 23.666 15 42.999s6 47 6 83s-2 63.667 -6 83s-9 33.666 -15 42.999s-12.5 14.833 -19.5 16.5s-13.5 2.5 -19.5 2.5s-12.5 -0.833008 -19.5 -2.5
s-13.5 -7.16699 -19.5 -16.5s-11 -23.666 -15 -42.999s-6 -47 -6 -83zM412 715l93 -15l-5 -38c-2 -15.333 -5.83301 -28 -11.5 -38s-13 -17.833 -22 -23.5s-19.333 -9.66699 -31 -12s-24.5 -3.5 -38.5 -3.5c-22 0 -40.333 2.16699 -55 6.5s-26.5 9.66602 -35.5 15.999
s-15.333 13.5 -19 21.5s-5.5 16 -5.5 24c0 5.33301 -1.66699 9 -5 11s-6.66602 3 -9.99902 3s-5.83301 -1.66699 -7.5 -5s-2.5 -11 -2.5 -23c0 -1.33301 -0.5 -2.66602 -1.5 -3.99902s-1.5 -2.66602 -1.5 -3.99902l-6 -38l-93 15l6 38c5.33301 31.333 16.666 52 33.999 62
s40 15 68 15c22 0 40.5 -2.16699 55.5 -6.5s26.833 -9.66602 35.5 -15.999s14.834 -13.5 18.501 -21.5s5.5 -16 5.5 -24c0 -5.33301 1.83301 -9 5.5 -11s7.16699 -3 10.5 -3s5.66602 1.66699 6.99902 5s2 11 2 23c0 1.33301 0.5 2.66602 1.5 3.99902
s1.5 2.66602 1.5 3.99902z" />
    <glyph glyph-name="Odieresis" unicode="&#xd6;" 
d="M330 -10c-43.333 0 -83.333 4.33301 -120 13s-68.334 23.834 -95.001 45.501s-47.5 50.834 -62.5 87.501s-22.5 83 -22.5 139s7.5 102.333 22.5 139s35.833 65.834 62.5 87.501s58.334 36.834 95.001 45.501s76.667 13 120 13s83.333 -4.33301 120 -13
s68.334 -23.834 95.001 -45.501s47.5 -50.834 62.5 -87.501s22.5 -83 22.5 -139s-7.5 -102.333 -22.5 -139s-35.833 -65.834 -62.5 -87.501s-58.334 -36.834 -95.001 -45.501s-76.667 -13 -120 -13zM270 275c0 -36 2 -63.667 6 -83s9 -33.666 15 -42.999
s12.5 -14.833 19.5 -16.5s13.5 -2.5 19.5 -2.5s12.5 0.833008 19.5 2.5s13.5 7.16699 19.5 16.5s11 23.666 15 42.999s6 47 6 83s-2 63.667 -6 83s-9 33.666 -15 42.999s-12.5 14.833 -19.5 16.5s-13.5 2.5 -19.5 2.5s-12.5 -0.833008 -19.5 -2.5
s-13.5 -7.16699 -19.5 -16.5s-11 -23.666 -15 -42.999s-6 -47 -6 -83zM238 590c-23.333 0 -40.833 5.66699 -52.5 17s-17.5 27.333 -17.5 48c0 20 5.83301 35.667 17.5 47s29.167 17 52.5 17s40.5 -5.66699 51.5 -17s16.5 -27 16.5 -47c0 -20.667 -5.5 -36.667 -16.5 -48
s-28.167 -17 -51.5 -17zM424 590c-23.333 0 -40.833 5.66699 -52.5 17s-17.5 27.333 -17.5 48c0 20 5.83301 35.667 17.5 47s29.167 17 52.5 17s40.5 -5.66699 51.5 -17s16.5 -27 16.5 -47c0 -20.667 -5.5 -36.667 -16.5 -48s-28.167 -17 -51.5 -17z" />
    <glyph glyph-name="multiply" unicode="&#xd7;" horiz-adv-x="586" 
d="M398 81l-105 88l-106 -88l-127 106l106 88l-106 88l127 106l106 -88l105 88l128 -106l-106 -88l106 -88z" />
    <glyph glyph-name="Oslash" unicode="&#xd8;" 
d="M59 -33l49 87c-24.667 22 -43.834 50.833 -57.501 86.5s-20.5 80.5 -20.5 134.5c0 56 7.5 102.333 22.5 139s35.833 65.834 62.5 87.501s58.334 36.834 95.001 45.501s76.667 13 120 13c20 0 39.667 -1 59 -3l50 90l162 -64l-49 -88
c24.667 -21.333 43.834 -49.833 57.501 -85.5s20.5 -80.5 20.5 -134.5c0 -56 -7.5 -102.333 -22.5 -139s-35.833 -65.834 -62.5 -87.501s-58.334 -36.834 -95.001 -45.501s-76.667 -13 -120 -13c-21.333 0 -41.333 1 -60 3l-49 -90zM330 130c6 0 12.5 0.833008 19.5 2.5
s13.5 7.16699 19.5 16.5s11 23.666 15 42.999s6 47 6 83s-2 63.667 -6 83s-9 33.666 -15 42.999s-12.5 14.833 -19.5 16.5s-13.5 2.5 -19.5 2.5s-12.5 -0.833008 -19.5 -2.5s-13.5 -7.16699 -19.5 -16.5s-11 -23.666 -15 -42.999s-6 -47 -6 -83s2 -63.667 6 -83
s9 -33.666 15 -42.999s12.5 -14.833 19.5 -16.5s13.5 -2.5 19.5 -2.5z" />
    <glyph glyph-name="Ugrave" unicode="&#xd9;" 
d="M384 550h240.002v-300c0 -48.667 -6.5 -89.5 -19.5 -122.5s-31.833 -59.667 -56.5 -80s-54.334 -35 -89.001 -44s-73.667 -13.5 -117 -13.5s-82.333 4.5 -117 13.5s-64.334 23.667 -89.001 44s-43.5 47 -56.5 80s-19.5 73.833 -19.5 122.5v300h240v-300
c0 -26 1 -46.833 3 -62.5s4.83301 -27.667 8.5 -36s8.16699 -14 13.5 -17s11 -4.5 17 -4.5s11.667 1.5 17 4.5s9.83301 8.66699 13.5 17s6.5 20.333 8.5 36s3 36.5 3 62.5v300zM302.002 585l-198 132h194l124 -132h-120z" />
    <glyph glyph-name="Uacute" unicode="&#xda;" 
d="M384 550h240.002v-300c0 -48.667 -6.5 -89.5 -19.5 -122.5s-31.833 -59.667 -56.5 -80s-54.334 -35 -89.001 -44s-73.667 -13.5 -117 -13.5s-82.333 4.5 -117 13.5s-64.334 23.667 -89.001 44s-43.5 47 -56.5 80s-19.5 73.833 -19.5 122.5v300h240v-300
c0 -26 1 -46.833 3 -62.5s4.83301 -27.667 8.5 -36s8.16699 -14 13.5 -17s11 -4.5 17 -4.5s11.667 1.5 17 4.5s9.83301 8.66699 13.5 17s6.5 20.333 8.5 36s3 36.5 3 62.5v300zM380.002 585h-120l124 132h194z" />
    <glyph glyph-name="Ucircumflex" unicode="&#xdb;" 
d="M384 550h240.002v-300c0 -48.667 -6.5 -89.5 -19.5 -122.5s-31.833 -59.667 -56.5 -80s-54.334 -35 -89.001 -44s-73.667 -13.5 -117 -13.5s-82.333 4.5 -117 13.5s-64.334 23.667 -89.001 44s-43.5 47 -56.5 80s-19.5 73.833 -19.5 122.5v300h240v-300
c0 -26 1 -46.833 3 -62.5s4.83301 -27.667 8.5 -36s8.16699 -14 13.5 -17s11 -4.5 17 -4.5s11.667 1.5 17 4.5s9.83301 8.66699 13.5 17s6.5 20.333 8.5 36s3 36.5 3 62.5v300zM394.002 585l-60 61h-8l-60 -61h-146l150 132h120l150 -132h-146z" />
    <glyph glyph-name="Udieresis" unicode="&#xdc;" 
d="M384 550h240.002v-300c0 -48.667 -6.5 -89.5 -19.5 -122.5s-31.833 -59.667 -56.5 -80s-54.334 -35 -89.001 -44s-73.667 -13.5 -117 -13.5s-82.333 4.5 -117 13.5s-64.334 23.667 -89.001 44s-43.5 47 -56.5 80s-19.5 73.833 -19.5 122.5v300h240v-300
c0 -26 1 -46.833 3 -62.5s4.83301 -27.667 8.5 -36s8.16699 -14 13.5 -17s11 -4.5 17 -4.5s11.667 1.5 17 4.5s9.83301 8.66699 13.5 17s6.5 20.333 8.5 36s3 36.5 3 62.5v300zM238.002 590c-23.333 0 -40.833 5.66699 -52.5 17s-17.5 27.333 -17.5 48
c0 20 5.83301 35.667 17.5 47s29.167 17 52.5 17s40.5 -5.66699 51.5 -17s16.5 -27 16.5 -47c0 -20.667 -5.5 -36.667 -16.5 -48s-28.167 -17 -51.5 -17zM424.002 590c-23.333 0 -40.833 5.66699 -52.5 17s-17.5 27.333 -17.5 48c0 20 5.83301 35.667 17.5 47
s29.167 17 52.5 17s40.5 -5.66699 51.5 -17s16.5 -27 16.5 -47c0 -20.667 -5.5 -36.667 -16.5 -48s-28.167 -17 -51.5 -17z" />
    <glyph glyph-name="Yacute" unicode="&#xdd;" horiz-adv-x="689" 
d="M224 0v149l-218 401h265l73 -260l74 260h265l-219 -401v-149h-240zM377 585h-120l124 132h194z" />
    <glyph glyph-name="Thorn" unicode="&#xde;" horiz-adv-x="630" 
d="M60 0v549.998h240v-50c43.333 0 83.333 -2.16699 120 -6.5s68.334 -14.166 95.001 -29.499s47.5 -38 62.5 -68s22.5 -70.333 22.5 -121c0 -51.333 -7.5 -91.833 -22.5 -121.5s-35.833 -52.167 -62.5 -67.5s-58.334 -25.166 -95.001 -29.499s-76.667 -6.5 -120 -6.5v-50
h-240zM300 189.998h13c6 0 11.667 0.833008 17 2.5s10.333 5.33398 15 11.001s8.33398 14.167 11.001 25.5s4 26.666 4 45.999s-1.33301 34.666 -4 45.999s-6.33398 19.833 -11.001 25.5s-9.66699 9.33398 -15 11.001s-11 2.5 -17 2.5h-13v-170z" />
    <glyph glyph-name="germandbls" unicode="&#xdf;" 
d="M348 0v129.995h6c12.667 0 22.834 3.33301 30.501 10s11.5 18.334 11.5 35.001s-3.83301 28.334 -11.5 35.001s-17.834 10 -30.501 10h-6v110c12.667 0 21.834 3.33301 27.501 10s8.5 18.334 8.5 35.001s-2.83301 28.334 -8.5 35.001s-14.834 10 -27.501 10
s-23.834 -3.33301 -33.501 -10s-14.5 -18.334 -14.5 -35.001v-375h-240v275c0 55.333 7.5 101.333 22.5 138s35.667 65.834 62 87.501s57.333 37 93 46s74.5 13.5 116.5 13.5c26.667 0 55.167 -2 85.5 -6s58.333 -11.833 84 -23.5s47 -27.834 64 -48.501
s25.5 -47.667 25.5 -81c0 -23.333 -2.5 -41.833 -7.5 -55.5s-12.167 -24.667 -21.5 -33s-20.333 -15 -33 -20s-26.334 -10.833 -41.001 -17.5c12 -5.33301 25.333 -10.166 40 -14.499s28.334 -10.333 41.001 -18s23.334 -18.167 32.001 -31.5s13 -32 13 -56
c0 -33.333 -8.33301 -60.166 -25 -80.499s-37.5 -36 -62.5 -47s-52.333 -18.333 -82 -22s-57.167 -5.5 -82.5 -5.5h-36z" />
    <glyph glyph-name="agrave" unicode="&#xe0;" horiz-adv-x="666" 
d="M492 0l-30.0029 57.9971c-7.33301 -8 -13.333 -16.167 -18 -24.5s-11.5 -15.666 -20.5 -21.999s-21.167 -11.5 -36.5 -15.5s-37 -6 -65 -6c-82.667 0 -147 12 -193 36s-69 63 -69 117c0 26 6.83301 47.167 20.5 63.5s32.667 29.333 57 39s53.333 16.167 87 19.5
s70.834 5 111.501 5h30c-0.666992 34 -3 59.167 -7 75.5s-11.667 24.5 -23 24.5c-9.33301 0 -16.166 -6 -20.499 -18s-7.16602 -36 -8.49902 -72l-234 38c6 41.333 16.5 74.5 31.5 99.5s33.5 44.333 55.5 58s46.833 22.834 74.5 27.501s57.167 7 88.5 7
c46.667 0 87.667 -4.33301 123 -13s64.833 -23 88.5 -43s41.5 -46.667 53.5 -80s18 -74.666 18 -123.999v-250h-114zM365.997 191.997c-8.66699 2.66699 -17 4 -25 4c-14 0 -24.333 -3.66699 -31 -11s-10 -15.333 -10 -24c0 -8 3 -15.167 9 -21.5s15.333 -9.5 28 -9.5
s20.667 5.5 24 16.5s5 26.167 5 45.5zM357.997 534.997l-198 132h194l124 -132h-120z" />
    <glyph glyph-name="aacute" unicode="&#xe1;" horiz-adv-x="666" 
d="M492 0l-30.0029 57.9971c-7.33301 -8 -13.333 -16.167 -18 -24.5s-11.5 -15.666 -20.5 -21.999s-21.167 -11.5 -36.5 -15.5s-37 -6 -65 -6c-82.667 0 -147 12 -193 36s-69 63 -69 117c0 26 6.83301 47.167 20.5 63.5s32.667 29.333 57 39s53.333 16.167 87 19.5
s70.834 5 111.501 5h30c-0.666992 34 -3 59.167 -7 75.5s-11.667 24.5 -23 24.5c-9.33301 0 -16.166 -6 -20.499 -18s-7.16602 -36 -8.49902 -72l-234 38c6 41.333 16.5 74.5 31.5 99.5s33.5 44.333 55.5 58s46.833 22.834 74.5 27.501s57.167 7 88.5 7
c46.667 0 87.667 -4.33301 123 -13s64.833 -23 88.5 -43s41.5 -46.667 53.5 -80s18 -74.666 18 -123.999v-250h-114zM365.997 191.997c-8.66699 2.66699 -17 4 -25 4c-14 0 -24.333 -3.66699 -31 -11s-10 -15.333 -10 -24c0 -8 3 -15.167 9 -21.5s15.333 -9.5 28 -9.5
s20.667 5.5 24 16.5s5 26.167 5 45.5zM355.997 534.997h-120l124 132h194z" />
    <glyph glyph-name="acircumflex" unicode="&#xe2;" horiz-adv-x="666" 
d="M492 0l-30.0029 57.9971c-7.33301 -8 -13.333 -16.167 -18 -24.5s-11.5 -15.666 -20.5 -21.999s-21.167 -11.5 -36.5 -15.5s-37 -6 -65 -6c-82.667 0 -147 12 -193 36s-69 63 -69 117c0 26 6.83301 47.167 20.5 63.5s32.667 29.333 57 39s53.333 16.167 87 19.5
s70.834 5 111.501 5h30c-0.666992 34 -3 59.167 -7 75.5s-11.667 24.5 -23 24.5c-9.33301 0 -16.166 -6 -20.499 -18s-7.16602 -36 -8.49902 -72l-234 38c6 41.333 16.5 74.5 31.5 99.5s33.5 44.333 55.5 58s46.833 22.834 74.5 27.501s57.167 7 88.5 7
c46.667 0 87.667 -4.33301 123 -13s64.833 -23 88.5 -43s41.5 -46.667 53.5 -80s18 -74.666 18 -123.999v-250h-114zM365.997 191.997c-8.66699 2.66699 -17 4 -25 4c-14 0 -24.333 -3.66699 -31 -11s-10 -15.333 -10 -24c0 -8 3 -15.167 9 -21.5s15.333 -9.5 28 -9.5
s20.667 5.5 24 16.5s5 26.167 5 45.5zM395.997 534.997l-60 61h-8l-60 -61h-146l150 132h120l150 -132h-146z" />
    <glyph glyph-name="atilde" unicode="&#xe3;" horiz-adv-x="666" 
d="M492 0l-30.0029 57.9971c-7.33301 -8 -13.333 -16.167 -18 -24.5s-11.5 -15.666 -20.5 -21.999s-21.167 -11.5 -36.5 -15.5s-37 -6 -65 -6c-82.667 0 -147 12 -193 36s-69 63 -69 117c0 26 6.83301 47.167 20.5 63.5s32.667 29.333 57 39s53.333 16.167 87 19.5
s70.834 5 111.501 5h30c-0.666992 34 -3 59.167 -7 75.5s-11.667 24.5 -23 24.5c-9.33301 0 -16.166 -6 -20.499 -18s-7.16602 -36 -8.49902 -72l-234 38c6 41.333 16.5 74.5 31.5 99.5s33.5 44.333 55.5 58s46.833 22.834 74.5 27.501s57.167 7 88.5 7
c46.667 0 87.667 -4.33301 123 -13s64.833 -23 88.5 -43s41.5 -46.667 53.5 -80s18 -74.666 18 -123.999v-250h-114zM365.997 191.997c-8.66699 2.66699 -17 4 -25 4c-14 0 -24.333 -3.66699 -31 -11s-10 -15.333 -10 -24c0 -8 3 -15.167 9 -21.5s15.333 -9.5 28 -9.5
s20.667 5.5 24 16.5s5 26.167 5 45.5zM413.997 664.997l93 -15l-5 -38c-2 -15.333 -5.83301 -28 -11.5 -38s-13 -17.833 -22 -23.5s-19.333 -9.66699 -31 -12s-24.5 -3.5 -38.5 -3.5c-22 0 -40.333 2.16699 -55 6.5s-26.5 9.66602 -35.5 15.999s-15.333 13.5 -19 21.5
s-5.5 16 -5.5 24c0 5.33301 -1.66699 9 -5 11s-6.66602 3 -9.99902 3s-5.83301 -1.66699 -7.5 -5s-2.5 -11 -2.5 -23c0 -1.33301 -0.5 -2.66602 -1.5 -3.99902s-1.5 -2.66602 -1.5 -3.99902l-6 -38l-93 15l6 38c5.33301 31.333 16.666 52 33.999 62s40 15 68 15
c22 0 40.5 -2.16699 55.5 -6.5s26.833 -9.66602 35.5 -15.999s14.834 -13.5 18.501 -21.5s5.5 -16 5.5 -24c0 -5.33301 1.83301 -9 5.5 -11s7.16699 -3 10.5 -3s5.66602 1.66699 6.99902 5s2 11 2 23c0 1.33301 0.5 2.66602 1.5 3.99902s1.5 2.66602 1.5 3.99902z" />
    <glyph glyph-name="adieresis" unicode="&#xe4;" horiz-adv-x="666" 
d="M492 0l-30.0029 57.9971c-7.33301 -8 -13.333 -16.167 -18 -24.5s-11.5 -15.666 -20.5 -21.999s-21.167 -11.5 -36.5 -15.5s-37 -6 -65 -6c-82.667 0 -147 12 -193 36s-69 63 -69 117c0 26 6.83301 47.167 20.5 63.5s32.667 29.333 57 39s53.333 16.167 87 19.5
s70.834 5 111.501 5h30c-0.666992 34 -3 59.167 -7 75.5s-11.667 24.5 -23 24.5c-9.33301 0 -16.166 -6 -20.499 -18s-7.16602 -36 -8.49902 -72l-234 38c6 41.333 16.5 74.5 31.5 99.5s33.5 44.333 55.5 58s46.833 22.834 74.5 27.501s57.167 7 88.5 7
c46.667 0 87.667 -4.33301 123 -13s64.833 -23 88.5 -43s41.5 -46.667 53.5 -80s18 -74.666 18 -123.999v-250h-114zM365.997 191.997c-8.66699 2.66699 -17 4 -25 4c-14 0 -24.333 -3.66699 -31 -11s-10 -15.333 -10 -24c0 -8 3 -15.167 9 -21.5s15.333 -9.5 28 -9.5
s20.667 5.5 24 16.5s5 26.167 5 45.5zM239.997 539.997c-23.333 0 -40.833 5.66699 -52.5 17s-17.5 27.333 -17.5 48c0 20 5.83301 35.667 17.5 47s29.167 17 52.5 17s40.5 -5.66699 51.5 -17s16.5 -27 16.5 -47c0 -20.667 -5.5 -36.667 -16.5 -48s-28.167 -17 -51.5 -17z
M425.997 539.997c-23.333 0 -40.833 5.66699 -52.5 17s-17.5 27.333 -17.5 48c0 20 5.83301 35.667 17.5 47s29.167 17 52.5 17s40.5 -5.66699 51.5 -17s16.5 -27 16.5 -47c0 -20.667 -5.5 -36.667 -16.5 -48s-28.167 -17 -51.5 -17z" />
    <glyph glyph-name="aring" unicode="&#xe5;" horiz-adv-x="666" 
d="M492 0l-30.0029 57.9971c-7.33301 -8 -13.333 -16.167 -18 -24.5s-11.5 -15.666 -20.5 -21.999s-21.167 -11.5 -36.5 -15.5s-37 -6 -65 -6c-82.667 0 -147 12 -193 36s-69 63 -69 117c0 26 6.83301 47.167 20.5 63.5s32.667 29.333 57 39s53.333 16.167 87 19.5
s70.834 5 111.501 5h30c-0.666992 34 -3 59.167 -7 75.5s-11.667 24.5 -23 24.5c-9.33301 0 -16.166 -6 -20.499 -18s-7.16602 -36 -8.49902 -72l-234 38c6 41.333 16.5 74.5 31.5 99.5s33.5 44.333 55.5 58s46.833 22.834 74.5 27.501s57.167 7 88.5 7
c46.667 0 87.667 -4.33301 123 -13s64.833 -23 88.5 -43s41.5 -46.667 53.5 -80s18 -74.666 18 -123.999v-250h-114zM365.997 191.997c-8.66699 2.66699 -17 4 -25 4c-14 0 -24.333 -3.66699 -31 -11s-10 -15.333 -10 -24c0 -8 3 -15.167 9 -21.5s15.333 -9.5 28 -9.5
s20.667 5.5 24 16.5s5 26.167 5 45.5zM481.997 604.997c0 -27.333 -11 -48.333 -33 -63s-61 -22 -117 -22s-95 7.33301 -117 22s-33 35.667 -33 63c0 26 11 46.5 33 61.5s61 22.5 117 22.5s95 -7.5 117 -22.5s33 -35.5 33 -61.5zM409.997 604.997
c0 7.33301 -5.66699 13.166 -17 17.499s-31.666 6.5 -60.999 6.5s-49.666 -2.16699 -60.999 -6.5s-17 -10.166 -17 -17.499c0 -8 5.66699 -14.167 17 -18.5s31.666 -6.5 60.999 -6.5s49.666 2.16699 60.999 6.5s17 10.5 17 18.5z" />
    <glyph glyph-name="ae" unicode="&#xe6;" horiz-adv-x="961" 
d="M606 221c0.666992 -32 3 -55.1689 7 -69.502s11.667 -21.5 23 -21.5c9.33301 0 16.166 6 20.499 18s7.16602 36 8.49902 72l234 -38c-6 -38.667 -15.833 -70.5 -29.5 -95.5s-31.167 -44.667 -52.5 -59s-46.333 -24.166 -75 -29.499s-60.667 -8 -96 -8
c-43.333 0 -81.333 3.5 -114 10.5s-60.667 19.167 -84 36.5c-4.66699 -6 -9.66699 -11.833 -15 -17.5s-12.5 -10.667 -21.5 -15s-20.667 -7.83301 -35 -10.5s-32.5 -4 -54.5 -4c-82.667 0 -147 12 -193 36s-69 63 -69 117c0 26 6.83301 47.167 20.5 63.5
s32.667 29.333 57 39s53.333 16.167 87 19.5s70.834 5 111.501 5h30c-0.666992 34 -3 59.167 -7 75.5s-11.667 24.5 -23 24.5c-9.33301 0 -16.166 -6 -20.499 -18s-7.16602 -36 -8.49902 -72l-234 38c6 41.333 16.5 74.5 31.5 99.5s33.5 44.333 55.5 58
s46.833 22.834 74.5 27.501s57.167 7 88.5 7c66.667 0 120.667 -8.66699 162 -26c41.333 17.333 95.666 26 162.999 26c37.333 0 71.5 -4.5 102.5 -13.5s57.5 -22.333 79.5 -40s39.167 -39.667 51.5 -66s18.5 -56.5 18.5 -90.5v-15c0 -4.66699 -0.333008 -9.66699 -1 -15z
M366 191.998c-8.66699 2.66699 -17 4 -25 4c-14 0 -24.333 -3.66699 -31 -11s-10 -15.333 -10 -24c0 -8 3 -15.167 9 -21.5s15.333 -9.5 28 -9.5s20.667 5.5 24 16.5s5 26.167 5 45.5zM664 302.998c-2 26.667 -5.16797 44.5 -9.50098 53.5s-10.5 13.5 -18.5 13.5
c-10 0 -17.167 -6.16699 -21.5 -18.5s-7.16602 -31.5 -8.49902 -57.5z" />
    <glyph glyph-name="ccedilla" unicode="&#xe7;" horiz-adv-x="617" 
d="M295 -68c0.666992 -16 1.99805 -26.0029 3.99805 -30.0029s4.66699 -6 8 -6c7.33301 0 11 5 11 15s-3 17.333 -9 22s-12.5 9 -19.5 13s-13.333 8.66699 -19 14s-8.5 14 -8.5 26v6c-35.333 2.66699 -66.666 9.5 -93.999 20.5s-50.333 26.833 -69 47.5
s-32.834 46.5 -42.501 77.5s-14.5 68.5 -14.5 112.5c0 48.667 6 89.5 18 122.5s29.5 59.667 52.5 80s51.167 35 84.5 44s71.666 13.5 114.999 13.5c36 0 68.833 -2.33301 98.5 -7s55.667 -13.834 78 -27.501s40.833 -33.167 55.5 -58.5s25 -58.333 31 -99l-234 -38
c-1.33301 36 -4.16602 60 -8.49902 72s-11.166 18 -20.499 18c-12.667 0 -20.834 -9.5 -24.501 -28.5s-5.5 -49.5 -5.5 -91.5s1.83301 -72.5 5.5 -91.5s11.834 -28.5 24.501 -28.5c9.33301 0 16.166 6 20.499 18s7.16602 36 8.49902 72l234 -38
c-6 -36.667 -15.167 -67 -27.5 -91s-27.666 -43.167 -45.999 -57.5s-39.833 -24.666 -64.5 -30.999s-52 -10.166 -82 -11.499c2 -9.33301 6.16699 -15.166 12.5 -17.499s13 -4.83301 20 -7.5s13.333 -7.16699 19 -13.5s8.5 -17.833 8.5 -34.5
c0 -11.333 -1.66699 -21.666 -5 -30.999s-9.16602 -17.5 -17.499 -24.5s-19.666 -12.5 -33.999 -16.5s-32.5 -6 -54.5 -6c-31.333 0 -55 5.33301 -71 16s-26.333 31 -31 61z" />
    <glyph glyph-name="egrave" unicode="&#xe8;" horiz-adv-x="607" 
d="M276 221c0.666992 -32 3.00293 -55.168 7.00293 -69.501s11.667 -21.5 23 -21.5c9.33301 0 16.166 6 20.499 18s7.16602 36 8.49902 72l234 -38c-6 -38.667 -15.833 -70.5 -29.5 -95.5s-31.167 -44.667 -52.5 -59s-46.333 -24.166 -75 -29.499s-60.667 -8 -96 -8
c-46 0 -86.333 4.16699 -121 12.5s-63.834 22.5 -87.501 42.5s-41.5 46.667 -53.5 80s-18 75 -18 125s6 91.667 18 125s29.833 60 53.5 80s53.167 34.167 88.5 42.5s76 12.5 122 12.5c37.333 0 71.5 -4.5 102.5 -13.5s57.5 -22.333 79.5 -40s39.167 -39.667 51.5 -66
s18.5 -56.5 18.5 -90.5v-15c0 -4.66699 -0.333008 -9.66699 -1 -15zM334.003 302.999c-2 26.667 -5.16797 44.5 -9.50098 53.5s-10.5 13.5 -18.5 13.5c-10 0 -17.167 -6.16699 -21.5 -18.5s-7.16602 -31.5 -8.49902 -57.5zM308.002 534.999l-198 132h194l124 -132h-120z" />
    <glyph glyph-name="eacute" unicode="&#xe9;" horiz-adv-x="607" 
d="M276 221c0.666992 -32 3.00293 -55.168 7.00293 -69.501s11.667 -21.5 23 -21.5c9.33301 0 16.166 6 20.499 18s7.16602 36 8.49902 72l234 -38c-6 -38.667 -15.833 -70.5 -29.5 -95.5s-31.167 -44.667 -52.5 -59s-46.333 -24.166 -75 -29.499s-60.667 -8 -96 -8
c-46 0 -86.333 4.16699 -121 12.5s-63.834 22.5 -87.501 42.5s-41.5 46.667 -53.5 80s-18 75 -18 125s6 91.667 18 125s29.833 60 53.5 80s53.167 34.167 88.5 42.5s76 12.5 122 12.5c37.333 0 71.5 -4.5 102.5 -13.5s57.5 -22.333 79.5 -40s39.167 -39.667 51.5 -66
s18.5 -56.5 18.5 -90.5v-15c0 -4.66699 -0.333008 -9.66699 -1 -15zM334.003 302.999c-2 26.667 -5.16797 44.5 -9.50098 53.5s-10.5 13.5 -18.5 13.5c-10 0 -17.167 -6.16699 -21.5 -18.5s-7.16602 -31.5 -8.49902 -57.5zM314.002 534.999h-120l124 132h194z" />
    <glyph glyph-name="ecircumflex" unicode="&#xea;" horiz-adv-x="607" 
d="M276 221c0.666992 -32 3.00293 -55.168 7.00293 -69.501s11.667 -21.5 23 -21.5c9.33301 0 16.166 6 20.499 18s7.16602 36 8.49902 72l234 -38c-6 -38.667 -15.833 -70.5 -29.5 -95.5s-31.167 -44.667 -52.5 -59s-46.333 -24.166 -75 -29.499s-60.667 -8 -96 -8
c-46 0 -86.333 4.16699 -121 12.5s-63.834 22.5 -87.501 42.5s-41.5 46.667 -53.5 80s-18 75 -18 125s6 91.667 18 125s29.833 60 53.5 80s53.167 34.167 88.5 42.5s76 12.5 122 12.5c37.333 0 71.5 -4.5 102.5 -13.5s57.5 -22.333 79.5 -40s39.167 -39.667 51.5 -66
s18.5 -56.5 18.5 -90.5v-15c0 -4.66699 -0.333008 -9.66699 -1 -15zM334.003 302.999c-2 26.667 -5.16797 44.5 -9.50098 53.5s-10.5 13.5 -18.5 13.5c-10 0 -17.167 -6.16699 -21.5 -18.5s-7.16602 -31.5 -8.49902 -57.5zM368.002 534.999l-60 61h-8l-60 -61h-146l150 132
h120l150 -132h-146z" />
    <glyph glyph-name="edieresis" unicode="&#xeb;" horiz-adv-x="607" 
d="M276 221c0.666992 -32 3.00293 -55.168 7.00293 -69.501s11.667 -21.5 23 -21.5c9.33301 0 16.166 6 20.499 18s7.16602 36 8.49902 72l234 -38c-6 -38.667 -15.833 -70.5 -29.5 -95.5s-31.167 -44.667 -52.5 -59s-46.333 -24.166 -75 -29.499s-60.667 -8 -96 -8
c-46 0 -86.333 4.16699 -121 12.5s-63.834 22.5 -87.501 42.5s-41.5 46.667 -53.5 80s-18 75 -18 125s6 91.667 18 125s29.833 60 53.5 80s53.167 34.167 88.5 42.5s76 12.5 122 12.5c37.333 0 71.5 -4.5 102.5 -13.5s57.5 -22.333 79.5 -40s39.167 -39.667 51.5 -66
s18.5 -56.5 18.5 -90.5v-15c0 -4.66699 -0.333008 -9.66699 -1 -15zM334.003 302.999c-2 26.667 -5.16797 44.5 -9.50098 53.5s-10.5 13.5 -18.5 13.5c-10 0 -17.167 -6.16699 -21.5 -18.5s-7.16602 -31.5 -8.49902 -57.5zM212.002 539.999
c-23.333 0 -40.833 5.66699 -52.5 17s-17.5 27.333 -17.5 48c0 20 5.83301 35.667 17.5 47s29.167 17 52.5 17s40.5 -5.66699 51.5 -17s16.5 -27 16.5 -47c0 -20.667 -5.5 -36.667 -16.5 -48s-28.167 -17 -51.5 -17zM398.002 539.999c-23.333 0 -40.833 5.66699 -52.5 17
s-17.5 27.333 -17.5 48c0 20 5.83301 35.667 17.5 47s29.167 17 52.5 17s40.5 -5.66699 51.5 -17s16.5 -27 16.5 -47c0 -20.667 -5.5 -36.667 -16.5 -48s-28.167 -17 -51.5 -17z" />
    <glyph glyph-name="igrave" unicode="&#xec;" horiz-adv-x="360" 
d="M60 0v500h240v-500h-240zM181 535l-198 132h194l124 -132h-120z" />
    <glyph glyph-name="iacute" unicode="&#xed;" horiz-adv-x="360" 
d="M60 0v500h240v-500h-240zM183 535h-120l124 132h194z" />
    <glyph glyph-name="icircumflex" unicode="&#xee;" horiz-adv-x="360" 
d="M60 0v500h240v-500h-240zM244 535l-60 61h-8l-60 -61h-146l150 132h120l150 -132h-146z" />
    <glyph glyph-name="idieresis" unicode="&#xef;" horiz-adv-x="360" 
d="M60 0v500h240v-500h-240zM88 540c-23.333 0 -40.833 5.66699 -52.5 17s-17.5 27.333 -17.5 48c0 20 5.83301 35.667 17.5 47s29.167 17 52.5 17s40.5 -5.66699 51.5 -17s16.5 -27 16.5 -47c0 -20.667 -5.5 -36.667 -16.5 -48s-28.167 -17 -51.5 -17zM274 540
c-23.333 0 -40.833 5.66699 -52.5 17s-17.5 27.333 -17.5 48c0 20 5.83301 35.667 17.5 47s29.167 17 52.5 17s40.5 -5.66699 51.5 -17s16.5 -27 16.5 -47c0 -20.667 -5.5 -36.667 -16.5 -48s-28.167 -17 -51.5 -17z" />
    <glyph glyph-name="eth" unicode="&#xf0;" horiz-adv-x="668" 
d="M225 416l13.999 43.002c-20.667 2.66699 -43.334 4.66699 -68.001 6l41 135c8 -1.33301 17.833 -2.5 29.5 -3.5s24.834 -3.16699 39.501 -6.5l13 40l68 -14l-14 -44c30 -9.33301 60.333 -21.833 91 -37.5s58.5 -35.834 83.5 -60.501s45.333 -54.667 61 -90
s23.5 -77 23.5 -125c0 -10.667 -0.5 -24.834 -1.5 -42.501s-4 -36.5 -9 -56.5s-13 -40.167 -24 -60.5s-26.5 -38.5 -46.5 -54.5s-45.333 -29.167 -76 -39.5s-68.334 -15.5 -113.001 -15.5c-36 0 -70.5 3.66699 -103.5 11s-62.333 19 -88 35s-46.167 36.833 -61.5 62.5
s-23 56.834 -23 93.501v17c0 36.667 7.83301 67 23.5 91s35.667 43 60 57s51.5 23.667 81.5 29s59.333 8 88 8c26.667 0 46.834 -1.66699 60.501 -5s23.834 -7.16602 30.501 -11.499s11.5 -8.83301 14.5 -13.5s7.16699 -8 12.5 -10v5c0 19.333 -10.5 36.666 -31.5 51.999
s-51.833 27.666 -92.5 36.999l-14 -46zM335.999 130.002c12.667 0 20.834 6.83301 24.501 20.5s5.5 35.5 5.5 65.5s-1.83301 51.833 -5.5 65.5s-11.834 20.5 -24.501 20.5s-20.834 -6.83301 -24.501 -20.5s-5.5 -35.5 -5.5 -65.5s1.83301 -51.833 5.5 -65.5
s11.834 -20.5 24.501 -20.5z" />
    <glyph glyph-name="ntilde" unicode="&#xf1;" horiz-adv-x="661" 
d="M360 0l0.00292969 250c0 42 -1.83301 72.5 -5.5 91.5s-11.834 28.5 -24.501 28.5s-20.834 -9.5 -24.501 -28.5s-5.5 -49.5 -5.5 -91.5v-250h-240v500h114l30 -58c9.33301 14.667 19.333 26.5 30 35.5s22.167 16 34.5 21s25.5 8.16699 39.5 9.5s28.667 2 44 2
c45.333 0 83.666 -4.66699 114.999 -14s56.833 -24.333 76.5 -45s34 -47.5 43 -80.5s13.5 -73.167 13.5 -120.5v-250h-240zM412.003 665l93 -15l-5 -38c-2 -15.333 -5.83301 -28 -11.5 -38s-13 -17.833 -22 -23.5s-19.333 -9.66699 -31 -12s-24.5 -3.5 -38.5 -3.5
c-22 0 -40.333 2.16699 -55 6.5s-26.5 9.66602 -35.5 15.999s-15.333 13.5 -19 21.5s-5.5 16 -5.5 24c0 5.33301 -1.66699 9 -5 11s-6.66602 3 -9.99902 3s-5.83301 -1.66699 -7.5 -5s-2.5 -11 -2.5 -23c0 -1.33301 -0.5 -2.66602 -1.5 -3.99902
s-1.5 -2.66602 -1.5 -3.99902l-6 -38l-93 15l6 38c5.33301 31.333 16.666 52 33.999 62s40 15 68 15c22 0 40.5 -2.16699 55.5 -6.5s26.833 -9.66602 35.5 -15.999s14.834 -13.5 18.501 -21.5s5.5 -16 5.5 -24c0 -5.33301 1.83301 -9 5.5 -11s7.16699 -3 10.5 -3
s5.66602 1.66699 6.99902 5s2 11 2 23c0 1.33301 0.5 2.66602 1.5 3.99902s1.5 2.66602 1.5 3.99902z" />
    <glyph glyph-name="ograve" unicode="&#xf2;" horiz-adv-x="588" 
d="M294 -10c-43.333 0 -81.666 4.5 -114.999 13.5s-61.5 23.667 -84.5 44s-40.5 47 -52.5 80s-18 73.833 -18 122.5s6 89.5 18 122.5s29.5 59.667 52.5 80s51.167 35 84.5 44s71.666 13.5 114.999 13.5s81.666 -4.5 114.999 -13.5s61.5 -23.667 84.5 -44s40.5 -47 52.5 -80
s18 -73.833 18 -122.5s-6 -89.5 -18 -122.5s-29.5 -59.667 -52.5 -80s-51.167 -35 -84.5 -44s-71.666 -13.5 -114.999 -13.5zM264 250c0 -42 1.83301 -72.5 5.5 -91.5s11.834 -28.5 24.501 -28.5s20.834 9.5 24.501 28.5s5.5 49.5 5.5 91.5s-1.83301 72.5 -5.5 91.5
s-11.834 28.5 -24.501 28.5s-20.834 -9.5 -24.501 -28.5s-5.5 -49.5 -5.5 -91.5zM295 535l-198 132h194l124 -132h-120z" />
    <glyph glyph-name="oacute" unicode="&#xf3;" horiz-adv-x="588" 
d="M294 -10c-43.333 0 -81.666 4.5 -114.999 13.5s-61.5 23.667 -84.5 44s-40.5 47 -52.5 80s-18 73.833 -18 122.5s6 89.5 18 122.5s29.5 59.667 52.5 80s51.167 35 84.5 44s71.666 13.5 114.999 13.5s81.666 -4.5 114.999 -13.5s61.5 -23.667 84.5 -44s40.5 -47 52.5 -80
s18 -73.833 18 -122.5s-6 -89.5 -18 -122.5s-29.5 -59.667 -52.5 -80s-51.167 -35 -84.5 -44s-71.666 -13.5 -114.999 -13.5zM264 250c0 -42 1.83301 -72.5 5.5 -91.5s11.834 -28.5 24.501 -28.5s20.834 9.5 24.501 28.5s5.5 49.5 5.5 91.5s-1.83301 72.5 -5.5 91.5
s-11.834 28.5 -24.501 28.5s-20.834 -9.5 -24.501 -28.5s-5.5 -49.5 -5.5 -91.5zM313 535h-120l124 132h194z" />
    <glyph glyph-name="ocircumflex" unicode="&#xf4;" horiz-adv-x="588" 
d="M294 -10c-43.333 0 -81.666 4.5 -114.999 13.5s-61.5 23.667 -84.5 44s-40.5 47 -52.5 80s-18 73.833 -18 122.5s6 89.5 18 122.5s29.5 59.667 52.5 80s51.167 35 84.5 44s71.666 13.5 114.999 13.5s81.666 -4.5 114.999 -13.5s61.5 -23.667 84.5 -44s40.5 -47 52.5 -80
s18 -73.833 18 -122.5s-6 -89.5 -18 -122.5s-29.5 -59.667 -52.5 -80s-51.167 -35 -84.5 -44s-71.666 -13.5 -114.999 -13.5zM264 250c0 -42 1.83301 -72.5 5.5 -91.5s11.834 -28.5 24.501 -28.5s20.834 9.5 24.501 28.5s5.5 49.5 5.5 91.5s-1.83301 72.5 -5.5 91.5
s-11.834 28.5 -24.501 28.5s-20.834 -9.5 -24.501 -28.5s-5.5 -49.5 -5.5 -91.5zM358 535l-60 61h-8l-60 -61h-146l150 132h120l150 -132h-146z" />
    <glyph glyph-name="otilde" unicode="&#xf5;" horiz-adv-x="588" 
d="M294 -10c-43.333 0 -81.666 4.5 -114.999 13.5s-61.5 23.667 -84.5 44s-40.5 47 -52.5 80s-18 73.833 -18 122.5s6 89.5 18 122.5s29.5 59.667 52.5 80s51.167 35 84.5 44s71.666 13.5 114.999 13.5s81.666 -4.5 114.999 -13.5s61.5 -23.667 84.5 -44s40.5 -47 52.5 -80
s18 -73.833 18 -122.5s-6 -89.5 -18 -122.5s-29.5 -59.667 -52.5 -80s-51.167 -35 -84.5 -44s-71.666 -13.5 -114.999 -13.5zM264 250c0 -42 1.83301 -72.5 5.5 -91.5s11.834 -28.5 24.501 -28.5s20.834 9.5 24.501 28.5s5.5 49.5 5.5 91.5s-1.83301 72.5 -5.5 91.5
s-11.834 28.5 -24.501 28.5s-20.834 -9.5 -24.501 -28.5s-5.5 -49.5 -5.5 -91.5zM376 665l93 -15l-5 -38c-2 -15.333 -5.83301 -28 -11.5 -38s-13 -17.833 -22 -23.5s-19.333 -9.66699 -31 -12s-24.5 -3.5 -38.5 -3.5c-22 0 -40.333 2.16699 -55 6.5
s-26.5 9.66602 -35.5 15.999s-15.333 13.5 -19 21.5s-5.5 16 -5.5 24c0 5.33301 -1.66699 9 -5 11s-6.66602 3 -9.99902 3s-5.83301 -1.66699 -7.5 -5s-2.5 -11 -2.5 -23c0 -1.33301 -0.5 -2.66602 -1.5 -3.99902s-1.5 -2.66602 -1.5 -3.99902l-6 -38l-93 15l6 38
c5.33301 31.333 16.666 52 33.999 62s40 15 68 15c22 0 40.5 -2.16699 55.5 -6.5s26.833 -9.66602 35.5 -15.999s14.834 -13.5 18.501 -21.5s5.5 -16 5.5 -24c0 -5.33301 1.83301 -9 5.5 -11s7.16699 -3 10.5 -3s5.66602 1.66699 6.99902 5s2 11 2 23
c0 1.33301 0.5 2.66602 1.5 3.99902s1.5 2.66602 1.5 3.99902z" />
    <glyph glyph-name="odieresis" unicode="&#xf6;" horiz-adv-x="588" 
d="M294 -10c-43.333 0 -81.666 4.5 -114.999 13.5s-61.5 23.667 -84.5 44s-40.5 47 -52.5 80s-18 73.833 -18 122.5s6 89.5 18 122.5s29.5 59.667 52.5 80s51.167 35 84.5 44s71.666 13.5 114.999 13.5s81.666 -4.5 114.999 -13.5s61.5 -23.667 84.5 -44s40.5 -47 52.5 -80
s18 -73.833 18 -122.5s-6 -89.5 -18 -122.5s-29.5 -59.667 -52.5 -80s-51.167 -35 -84.5 -44s-71.666 -13.5 -114.999 -13.5zM264 250c0 -42 1.83301 -72.5 5.5 -91.5s11.834 -28.5 24.501 -28.5s20.834 9.5 24.501 28.5s5.5 49.5 5.5 91.5s-1.83301 72.5 -5.5 91.5
s-11.834 28.5 -24.501 28.5s-20.834 -9.5 -24.501 -28.5s-5.5 -49.5 -5.5 -91.5zM202 540c-23.333 0 -40.833 5.66699 -52.5 17s-17.5 27.333 -17.5 48c0 20 5.83301 35.667 17.5 47s29.167 17 52.5 17s40.5 -5.66699 51.5 -17s16.5 -27 16.5 -47
c0 -20.667 -5.5 -36.667 -16.5 -48s-28.167 -17 -51.5 -17zM388 540c-23.333 0 -40.833 5.66699 -52.5 17s-17.5 27.333 -17.5 48c0 20 5.83301 35.667 17.5 47s29.167 17 52.5 17s40.5 -5.66699 51.5 -17s16.5 -27 16.5 -47c0 -20.667 -5.5 -36.667 -16.5 -48
s-28.167 -17 -51.5 -17z" />
    <glyph glyph-name="divide" unicode="&#xf7;" horiz-adv-x="540" 
d="M384 409c0 -10 -1.5 -19.5 -4.5 -28.5s-8.66699 -16.833 -17 -23.5s-20 -12 -35 -16s-34.167 -6 -57.5 -6s-42.5 2 -57.5 6s-26.667 9.33301 -35 16s-14 14.5 -17 23.5s-4.5 18.5 -4.5 28.5s1.5 19.667 4.5 29s8.66699 17.333 17 24s20 12 35 16s34.167 6 57.5 6
s42.5 -2 57.5 -6s26.667 -9.33301 35 -16s14 -14.667 17 -24s4.5 -19 4.5 -29zM384 139c0 -10 -1.5 -19.5 -4.5 -28.5s-8.66699 -16.833 -17 -23.5s-20 -12 -35 -16s-34.167 -6 -57.5 -6s-42.5 2 -57.5 6s-26.667 9.33301 -35 16s-14 14.5 -17 23.5s-4.5 18.5 -4.5 28.5
s1.5 19.667 4.5 29s8.66699 17.333 17 24s20 12 35 16s34.167 6 57.5 6s42.5 -2 57.5 -6s26.667 -9.33301 35 -16s14 -14.667 17 -24s4.5 -19 4.5 -29zM60 240v70h420v-70h-420z" />
    <glyph glyph-name="oslash" unicode="&#xf8;" horiz-adv-x="588" 
d="M264 250c0 -42 1.83301 -72.5 5.5 -91.5s11.834 -28.5 24.501 -28.5s20.834 9.5 24.501 28.5s5.5 49.5 5.5 91.5s-1.83301 72.5 -5.5 91.5s-11.834 28.5 -24.501 28.5s-20.834 -9.5 -24.501 -28.5s-5.5 -49.5 -5.5 -91.5zM23 -33l54 97
c-17.333 20.667 -30.5 46.167 -39.5 76.5s-13.5 66.833 -13.5 109.5c0 48.667 6 89.5 18 122.5s29.5 59.667 52.5 80s51.167 35 84.5 44s71.666 13.5 114.999 13.5c20.667 0 40.667 -1 60 -3l49 90l162 -64l-54 -97c17.333 -20.667 30.5 -46.167 39.5 -76.5
s13.5 -66.833 13.5 -109.5c0 -48.667 -6 -89.5 -18 -122.5s-29.5 -59.667 -52.5 -80s-51.167 -35 -84.5 -44s-71.666 -13.5 -114.999 -13.5c-21.333 0 -41.333 1 -60 3l-49 -90z" />
    <glyph glyph-name="ugrave" unicode="&#xf9;" horiz-adv-x="661" 
d="M486 0l-30.002 58.001c-7.33301 -13.333 -14.5 -24.333 -21.5 -33s-15.167 -15.5 -24.5 -20.5s-20.666 -8.66699 -33.999 -11s-30.333 -3.5 -51 -3.5c-40.667 0 -77.334 4.33301 -110.001 13s-60.5 23 -83.5 43s-40.667 46.667 -53 80s-18.5 74.666 -18.5 123.999v250
h240v-250c0 -42 1.83301 -72.5 5.5 -91.5s11.834 -28.5 24.501 -28.5s20.834 9.5 24.501 28.5s5.5 49.5 5.5 91.5v250h240v-500h-114zM339.998 535.001l-198 132h194l124 -132h-120z" />
    <glyph glyph-name="uacute" unicode="&#xfa;" horiz-adv-x="661" 
d="M486 0l-30.002 58.001c-7.33301 -13.333 -14.5 -24.333 -21.5 -33s-15.167 -15.5 -24.5 -20.5s-20.666 -8.66699 -33.999 -11s-30.333 -3.5 -51 -3.5c-40.667 0 -77.334 4.33301 -110.001 13s-60.5 23 -83.5 43s-40.667 46.667 -53 80s-18.5 74.666 -18.5 123.999v250
h240v-250c0 -42 1.83301 -72.5 5.5 -91.5s11.834 -28.5 24.501 -28.5s20.834 9.5 24.501 28.5s5.5 49.5 5.5 91.5v250h240v-500h-114zM352.998 535.001h-120l124 132h194z" />
    <glyph glyph-name="ucircumflex" unicode="&#xfb;" horiz-adv-x="661" 
d="M486 0l-30.002 58.001c-7.33301 -13.333 -14.5 -24.333 -21.5 -33s-15.167 -15.5 -24.5 -20.5s-20.666 -8.66699 -33.999 -11s-30.333 -3.5 -51 -3.5c-40.667 0 -77.334 4.33301 -110.001 13s-60.5 23 -83.5 43s-40.667 46.667 -53 80s-18.5 74.666 -18.5 123.999v250
h240v-250c0 -42 1.83301 -72.5 5.5 -91.5s11.834 -28.5 24.501 -28.5s20.834 9.5 24.501 28.5s5.5 49.5 5.5 91.5v250h240v-500h-114zM393.998 535.001l-60 61h-8l-60 -61h-146l150 132h120l150 -132h-146z" />
    <glyph glyph-name="udieresis" unicode="&#xfc;" horiz-adv-x="661" 
d="M486 0l-30.002 58.001c-7.33301 -13.333 -14.5 -24.333 -21.5 -33s-15.167 -15.5 -24.5 -20.5s-20.666 -8.66699 -33.999 -11s-30.333 -3.5 -51 -3.5c-40.667 0 -77.334 4.33301 -110.001 13s-60.5 23 -83.5 43s-40.667 46.667 -53 80s-18.5 74.666 -18.5 123.999v250
h240v-250c0 -42 1.83301 -72.5 5.5 -91.5s11.834 -28.5 24.501 -28.5s20.834 9.5 24.501 28.5s5.5 49.5 5.5 91.5v250h240v-500h-114zM237.998 540.001c-23.333 0 -40.833 5.66699 -52.5 17s-17.5 27.333 -17.5 48c0 20 5.83301 35.667 17.5 47s29.167 17 52.5 17
s40.5 -5.66699 51.5 -17s16.5 -27 16.5 -47c0 -20.667 -5.5 -36.667 -16.5 -48s-28.167 -17 -51.5 -17zM423.998 540.001c-23.333 0 -40.833 5.66699 -52.5 17s-17.5 27.333 -17.5 48c0 20 5.83301 35.667 17.5 47s29.167 17 52.5 17s40.5 -5.66699 51.5 -17
s16.5 -27 16.5 -47c0 -20.667 -5.5 -36.667 -16.5 -48s-28.167 -17 -51.5 -17z" />
    <glyph glyph-name="yacute" unicode="&#xfd;" horiz-adv-x="630" 
d="M354 203c-2 -3.33301 -4.16895 -7.83398 -6.50195 -13.501s-6.5 -11.667 -12.5 -18s-14.833 -12.166 -26.5 -17.499s-27.834 -9 -48.501 -11c-5.33301 -0.666992 -10.166 -1.16699 -14.499 -1.5s-8.83301 -0.5 -13.5 -0.5c-25.333 0 -50 3.5 -74 10.5s-45.5 18 -64.5 33
s-34.333 34.333 -46 58s-17.5 52.167 -17.5 85.5v172h240v-175l1 -13.5c0.666992 -9 2.16699 -18.667 4.5 -29s5.5 -19.833 9.5 -28.5s9 -13 15 -13c12.667 0 20.834 6.66699 24.501 20s5.5 34.666 5.5 63.999v175h240v-350c0 -48.667 -6 -89.5 -18 -122.5
s-29.5 -59.667 -52.5 -80s-51.167 -35 -84.5 -44s-71.666 -13.5 -114.999 -13.5c-36 0 -68.833 2.33301 -98.5 7s-55.667 13.834 -78 27.501s-40.833 33 -55.5 58s-25 58.167 -31 99.5l234 38c1.33301 -36 4.16602 -60 8.49902 -72s11.166 -18 20.499 -18
c6 0 10.667 1.5 14 4.5s6.33301 8.83301 9 17.5s4.83398 21 6.50098 37s3.83398 37.333 6.50098 64zM325.998 534.999h-120l124 132h194z" />
    <glyph glyph-name="thorn" unicode="&#xfe;" horiz-adv-x="630" 
d="M60 -100l-0.000976562 699.999h240v-100l-12 -50c2.66699 2.66699 5.33398 7.16699 8.00098 13.5s7.33398 12.833 14.001 19.5s16.5 12.667 29.5 18s31.5 8 55.5 8c67.333 0 118.333 -20.167 153 -60.5s52 -104.166 52 -191.499c0 -48.667 -5 -90 -15 -124
s-23.667 -61.833 -41 -83.5s-37.666 -37.334 -60.999 -47.001s-48.333 -14.5 -75 -14.5s-47.334 2.83301 -62.001 8.5s-25.834 12 -33.501 19s-13 13.833 -16 20.5s-5.83301 11.334 -8.5 14.001l12 -50v-100h-240zM329.999 129.999c12.667 0 20.834 9.5 24.501 28.5
s5.5 49.5 5.5 91.5s-1.83301 72.5 -5.5 91.5s-11.834 28.5 -24.501 28.5s-20.834 -9.5 -24.501 -28.5s-5.5 -49.5 -5.5 -91.5s1.83301 -72.5 5.5 -91.5s11.834 -28.5 24.501 -28.5z" />
    <glyph glyph-name="ydieresis" unicode="&#xff;" horiz-adv-x="630" 
d="M354 203c-2 -3.33301 -4.16895 -7.83398 -6.50195 -13.501s-6.5 -11.667 -12.5 -18s-14.833 -12.166 -26.5 -17.499s-27.834 -9 -48.501 -11c-5.33301 -0.666992 -10.166 -1.16699 -14.499 -1.5s-8.83301 -0.5 -13.5 -0.5c-25.333 0 -50 3.5 -74 10.5s-45.5 18 -64.5 33
s-34.333 34.333 -46 58s-17.5 52.167 -17.5 85.5v172h240v-175l1 -13.5c0.666992 -9 2.16699 -18.667 4.5 -29s5.5 -19.833 9.5 -28.5s9 -13 15 -13c12.667 0 20.834 6.66699 24.501 20s5.5 34.666 5.5 63.999v175h240v-350c0 -48.667 -6 -89.5 -18 -122.5
s-29.5 -59.667 -52.5 -80s-51.167 -35 -84.5 -44s-71.666 -13.5 -114.999 -13.5c-36 0 -68.833 2.33301 -98.5 7s-55.667 13.834 -78 27.501s-40.833 33 -55.5 58s-25 58.167 -31 99.5l234 38c1.33301 -36 4.16602 -60 8.49902 -72s11.166 -18 20.499 -18
c6 0 10.667 1.5 14 4.5s6.33301 8.83301 9 17.5s4.83398 21 6.50098 37s3.83398 37.333 6.50098 64zM221.998 539.999c-23.333 0 -40.833 5.66699 -52.5 17s-17.5 27.333 -17.5 48c0 20 5.83301 35.667 17.5 47s29.167 17 52.5 17s40.5 -5.66699 51.5 -17s16.5 -27 16.5 -47
c0 -20.667 -5.5 -36.667 -16.5 -48s-28.167 -17 -51.5 -17zM407.998 539.999c-23.333 0 -40.833 5.66699 -52.5 17s-17.5 27.333 -17.5 48c0 20 5.83301 35.667 17.5 47s29.167 17 52.5 17s40.5 -5.66699 51.5 -17s16.5 -27 16.5 -47c0 -20.667 -5.5 -36.667 -16.5 -48
s-28.167 -17 -51.5 -17z" />
    <glyph glyph-name="Amacron" unicode="&#x100;" horiz-adv-x="689" 
d="M424 0l-14 70h-132l-13 -70h-259l218 550h240l219 -550h-259zM344 420l-38 -200h76zM164 630v50h360v-50h-360z" />
    <glyph glyph-name="amacron" unicode="&#x101;" horiz-adv-x="666" 
d="M492 0l-30.0029 57.9971c-7.33301 -8 -13.333 -16.167 -18 -24.5s-11.5 -15.666 -20.5 -21.999s-21.167 -11.5 -36.5 -15.5s-37 -6 -65 -6c-82.667 0 -147 12 -193 36s-69 63 -69 117c0 26 6.83301 47.167 20.5 63.5s32.667 29.333 57 39s53.333 16.167 87 19.5
s70.834 5 111.501 5h30c-0.666992 34 -3 59.167 -7 75.5s-11.667 24.5 -23 24.5c-9.33301 0 -16.166 -6 -20.499 -18s-7.16602 -36 -8.49902 -72l-234 38c6 41.333 16.5 74.5 31.5 99.5s33.5 44.333 55.5 58s46.833 22.834 74.5 27.501s57.167 7 88.5 7
c46.667 0 87.667 -4.33301 123 -13s64.833 -23 88.5 -43s41.5 -46.667 53.5 -80s18 -74.666 18 -123.999v-250h-114zM365.997 191.997c-8.66699 2.66699 -17 4 -25 4c-14 0 -24.333 -3.66699 -31 -11s-10 -15.333 -10 -24c0 -8 3 -15.167 9 -21.5s15.333 -9.5 28 -9.5
s20.667 5.5 24 16.5s5 26.167 5 45.5zM151.997 579.997v50h360v-50h-360z" />
    <glyph glyph-name="Abreve" unicode="&#x102;" horiz-adv-x="689" 
d="M424 0l-14 70h-132l-13 -70h-259l218 550h240l219 -550h-259zM344 420l-38 -200h76zM506 717c0 -24.667 -4.3291 -45.5 -12.9961 -62.5s-20.334 -30.667 -35.001 -41s-31.834 -17.666 -51.501 -21.999s-40.5 -6.5 -62.5 -6.5s-42.833 2.16699 -62.5 6.5
s-36.834 11.666 -51.501 21.999s-26.334 24 -35.001 41s-13 37.833 -13 62.5h122c0 -40.667 13.333 -61 40 -61s40 20.333 40 61h122z" />
    <glyph glyph-name="abreve" unicode="&#x103;" horiz-adv-x="666" 
d="M492 0l-30.0029 57.9971c-7.33301 -8 -13.333 -16.167 -18 -24.5s-11.5 -15.666 -20.5 -21.999s-21.167 -11.5 -36.5 -15.5s-37 -6 -65 -6c-82.667 0 -147 12 -193 36s-69 63 -69 117c0 26 6.83301 47.167 20.5 63.5s32.667 29.333 57 39s53.333 16.167 87 19.5
s70.834 5 111.501 5h30c-0.666992 34 -3 59.167 -7 75.5s-11.667 24.5 -23 24.5c-9.33301 0 -16.166 -6 -20.499 -18s-7.16602 -36 -8.49902 -72l-234 38c6 41.333 16.5 74.5 31.5 99.5s33.5 44.333 55.5 58s46.833 22.834 74.5 27.501s57.167 7 88.5 7
c46.667 0 87.667 -4.33301 123 -13s64.833 -23 88.5 -43s41.5 -46.667 53.5 -80s18 -74.666 18 -123.999v-250h-114zM365.997 191.997c-8.66699 2.66699 -17 4 -25 4c-14 0 -24.333 -3.66699 -31 -11s-10 -15.333 -10 -24c0 -8 3 -15.167 9 -21.5s15.333 -9.5 28 -9.5
s20.667 5.5 24 16.5s5 26.167 5 45.5zM493.997 666.997c0 -24.667 -4.3291 -45.5 -12.9961 -62.5s-20.334 -30.667 -35.001 -41s-31.834 -17.666 -51.501 -21.999s-40.5 -6.5 -62.5 -6.5s-42.833 2.16699 -62.5 6.5s-36.834 11.666 -51.501 21.999s-26.334 24 -35.001 41
s-13 37.833 -13 62.5h122c0 -40.667 13.333 -61 40 -61s40 20.333 40 61h122z" />
    <glyph glyph-name="Aogonek" unicode="&#x104;" horiz-adv-x="689" 
d="M424 0l-14 70h-132l-13 -70h-259l218 550h240l219 -550h-259zM344 420l-38 -200h76zM807 -146c-18.667 -6.66699 -36.5 -11.5 -53.5 -14.5s-33.167 -4.5 -48.5 -4.5c-38 0 -68.333 8.5 -91 25.5s-34 39.5 -34 67.5c0 9.33301 1.5 18.833 4.5 28.5
s7.83301 24.167 14.5 43.5h84c-2.66699 -10.667 -4.33398 -18.667 -5.00098 -24s-1 -10 -1 -14c0 -17.333 5.16699 -28.333 15.5 -33s22.833 -7 37.5 -7h12c7.33301 0 15.833 0.666992 25.5 2s22.834 4 39.501 8v-78z" />
    <glyph glyph-name="aogonek" unicode="&#x105;" horiz-adv-x="666" 
d="M492 0l-30.0029 57.9971c-7.33301 -8 -13.333 -16.167 -18 -24.5s-11.5 -15.666 -20.5 -21.999s-21.167 -11.5 -36.5 -15.5s-37 -6 -65 -6c-82.667 0 -147 12 -193 36s-69 63 -69 117c0 26 6.83301 47.167 20.5 63.5s32.667 29.333 57 39s53.333 16.167 87 19.5
s70.834 5 111.501 5h30c-0.666992 34 -3 59.167 -7 75.5s-11.667 24.5 -23 24.5c-9.33301 0 -16.166 -6 -20.499 -18s-7.16602 -36 -8.49902 -72l-234 38c6 41.333 16.5 74.5 31.5 99.5s33.5 44.333 55.5 58s46.833 22.834 74.5 27.501s57.167 7 88.5 7
c46.667 0 87.667 -4.33301 123 -13s64.833 -23 88.5 -43s41.5 -46.667 53.5 -80s18 -74.666 18 -123.999v-250h-114zM365.997 191.997c-8.66699 2.66699 -17 4 -25 4c-14 0 -24.333 -3.66699 -31 -11s-10 -15.333 -10 -24c0 -8 3 -15.167 9 -21.5s15.333 -9.5 28 -9.5
s20.667 5.5 24 16.5s5 26.167 5 45.5zM729.997 -146.003c-18.667 -6.66699 -36.5 -11.5 -53.5 -14.5s-33.167 -4.5 -48.5 -4.5c-38 0 -68.333 8.5 -91 25.5s-34 39.5 -34 67.5c0 9.33301 1.5 18.833 4.5 28.5s7.83301 24.167 14.5 43.5h84
c-2.66699 -10.667 -4.33398 -18.667 -5.00098 -24s-1 -10 -1 -14c0 -17.333 5.16699 -28.333 15.5 -33s22.833 -7 37.5 -7h12c7.33301 0 15.833 0.666992 25.5 2s22.834 4 39.501 8v-78z" />
    <glyph glyph-name="Cacute" unicode="&#x106;" horiz-adv-x="653" 
d="M389 330c-0.666992 22.667 -3.33398 40.002 -8.00098 52.002s-10 20.833 -16 26.5s-12 9 -18 10s-11 1.5 -15 1.5c-6.66699 0 -13.667 -0.833008 -21 -2.5s-14 -7.16699 -20 -16.5s-11 -23.666 -15 -42.999s-6 -47 -6 -83s2 -63.667 6 -83s9 -33.666 15 -42.999
s12.667 -14.833 20 -16.5s14.333 -2.5 21 -2.5c4 0 9 0.5 15 1.5s12 4.33301 18 10s11.333 14.5 16 26.5s7.33398 29.333 8.00098 52l234 -38c-6 -41.333 -18 -74.5 -36 -99.5s-40 -44.333 -66 -58s-54.5 -22.834 -85.5 -27.501s-62.5 -7 -94.5 -7
c-46 0 -88 4.16699 -126 12.5s-70.833 23.166 -98.5 44.499s-49 50.333 -64 87s-22.5 83.667 -22.5 141c0 56.667 7.5 103.5 22.5 140.5s36.333 66.167 64 87.5s60.5 36.166 98.5 44.499s80 12.5 126 12.5c32 0 63.5 -2.33301 94.5 -7s59.5 -13.834 85.5 -27.501
s48 -33.167 66 -58.5s30 -58.333 36 -99zM342 585.002h-120l124 132h194z" />
    <glyph glyph-name="cacute" unicode="&#x107;" horiz-adv-x="617" 
d="M341 280c-1.33301 36 -4.16602 60.002 -8.49902 72.002s-11.166 18 -20.499 18c-12.667 0 -20.834 -9.5 -24.501 -28.5s-5.5 -49.5 -5.5 -91.5s1.83301 -72.5 5.5 -91.5s11.834 -28.5 24.501 -28.5c9.33301 0 16.166 6 20.499 18s7.16602 36 8.49902 72l234 -38
c-6 -41.333 -16.333 -74.5 -31 -99.5s-33.167 -44.333 -55.5 -58s-48.333 -22.834 -78 -27.501s-62.5 -7 -98.5 -7c-43.333 0 -81.666 4.5 -114.999 13.5s-61.5 23.667 -84.5 44s-40.5 47 -52.5 80s-18 73.833 -18 122.5s6 89.5 18 122.5s29.5 59.667 52.5 80
s51.167 35 84.5 44s71.666 13.5 114.999 13.5c36 0 68.833 -2.33301 98.5 -7s55.667 -13.834 78 -27.501s40.833 -33.167 55.5 -58.5s25 -58.333 31 -99zM337 535.002h-120l124 132h194z" />
    <glyph glyph-name="Ccircumflex" unicode="&#x108;" horiz-adv-x="653" 
d="M389 330c-0.666992 22.667 -3.33398 40.002 -8.00098 52.002s-10 20.833 -16 26.5s-12 9 -18 10s-11 1.5 -15 1.5c-6.66699 0 -13.667 -0.833008 -21 -2.5s-14 -7.16699 -20 -16.5s-11 -23.666 -15 -42.999s-6 -47 -6 -83s2 -63.667 6 -83s9 -33.666 15 -42.999
s12.667 -14.833 20 -16.5s14.333 -2.5 21 -2.5c4 0 9 0.5 15 1.5s12 4.33301 18 10s11.333 14.5 16 26.5s7.33398 29.333 8.00098 52l234 -38c-6 -41.333 -18 -74.5 -36 -99.5s-40 -44.333 -66 -58s-54.5 -22.834 -85.5 -27.501s-62.5 -7 -94.5 -7
c-46 0 -88 4.16699 -126 12.5s-70.833 23.166 -98.5 44.499s-49 50.333 -64 87s-22.5 83.667 -22.5 141c0 56.667 7.5 103.5 22.5 140.5s36.333 66.167 64 87.5s60.5 36.166 98.5 44.499s80 12.5 126 12.5c32 0 63.5 -2.33301 94.5 -7s59.5 -13.834 85.5 -27.501
s48 -33.167 66 -58.5s30 -58.333 36 -99zM390 585.002l-60 61h-8l-60 -61h-146l150 132h120l150 -132h-146z" />
    <glyph glyph-name="ccircumflex" unicode="&#x109;" horiz-adv-x="617" 
d="M341 280c-1.33301 36 -4.16602 60.002 -8.49902 72.002s-11.166 18 -20.499 18c-12.667 0 -20.834 -9.5 -24.501 -28.5s-5.5 -49.5 -5.5 -91.5s1.83301 -72.5 5.5 -91.5s11.834 -28.5 24.501 -28.5c9.33301 0 16.166 6 20.499 18s7.16602 36 8.49902 72l234 -38
c-6 -41.333 -16.333 -74.5 -31 -99.5s-33.167 -44.333 -55.5 -58s-48.333 -22.834 -78 -27.501s-62.5 -7 -98.5 -7c-43.333 0 -81.666 4.5 -114.999 13.5s-61.5 23.667 -84.5 44s-40.5 47 -52.5 80s-18 73.833 -18 122.5s6 89.5 18 122.5s29.5 59.667 52.5 80
s51.167 35 84.5 44s71.666 13.5 114.999 13.5c36 0 68.833 -2.33301 98.5 -7s55.667 -13.834 78 -27.501s40.833 -33.167 55.5 -58.5s25 -58.333 31 -99zM372 535.002l-60 61h-8l-60 -61h-146l150 132h120l150 -132h-146z" />
    <glyph glyph-name="Cdotaccent" unicode="&#x10a;" horiz-adv-x="653" 
d="M389 330c-0.666992 22.667 -3.33398 40.002 -8.00098 52.002s-10 20.833 -16 26.5s-12 9 -18 10s-11 1.5 -15 1.5c-6.66699 0 -13.667 -0.833008 -21 -2.5s-14 -7.16699 -20 -16.5s-11 -23.666 -15 -42.999s-6 -47 -6 -83s2 -63.667 6 -83s9 -33.666 15 -42.999
s12.667 -14.833 20 -16.5s14.333 -2.5 21 -2.5c4 0 9 0.5 15 1.5s12 4.33301 18 10s11.333 14.5 16 26.5s7.33398 29.333 8.00098 52l234 -38c-6 -41.333 -18 -74.5 -36 -99.5s-40 -44.333 -66 -58s-54.5 -22.834 -85.5 -27.501s-62.5 -7 -94.5 -7
c-46 0 -88 4.16699 -126 12.5s-70.833 23.166 -98.5 44.499s-49 50.333 -64 87s-22.5 83.667 -22.5 141c0 56.667 7.5 103.5 22.5 140.5s36.333 66.167 64 87.5s60.5 36.166 98.5 44.499s80 12.5 126 12.5c32 0 63.5 -2.33301 94.5 -7s59.5 -13.834 85.5 -27.501
s48 -33.167 66 -58.5s30 -58.333 36 -99zM452 655.002c0 -20.667 -9.16699 -36.667 -27.5 -48s-51.166 -17 -98.499 -17s-80.166 5.66699 -98.499 17s-27.5 27.333 -27.5 48c0 20 9.16699 35.667 27.5 47s51.166 17 98.499 17s80.166 -5.66699 98.499 -17s27.5 -27 27.5 -47
z" />
    <glyph glyph-name="cdotaccent" unicode="&#x10b;" horiz-adv-x="617" 
d="M341 280c-1.33301 36 -4.16602 60.002 -8.49902 72.002s-11.166 18 -20.499 18c-12.667 0 -20.834 -9.5 -24.501 -28.5s-5.5 -49.5 -5.5 -91.5s1.83301 -72.5 5.5 -91.5s11.834 -28.5 24.501 -28.5c9.33301 0 16.166 6 20.499 18s7.16602 36 8.49902 72l234 -38
c-6 -41.333 -16.333 -74.5 -31 -99.5s-33.167 -44.333 -55.5 -58s-48.333 -22.834 -78 -27.501s-62.5 -7 -98.5 -7c-43.333 0 -81.666 4.5 -114.999 13.5s-61.5 23.667 -84.5 44s-40.5 47 -52.5 80s-18 73.833 -18 122.5s6 89.5 18 122.5s29.5 59.667 52.5 80
s51.167 35 84.5 44s71.666 13.5 114.999 13.5c36 0 68.833 -2.33301 98.5 -7s55.667 -13.834 78 -27.501s40.833 -33.167 55.5 -58.5s25 -58.333 31 -99zM434 605.002c0 -20.667 -9.16699 -36.667 -27.5 -48s-51.166 -17 -98.499 -17s-80.166 5.66699 -98.499 17
s-27.5 27.333 -27.5 48c0 20 9.16699 35.667 27.5 47s51.166 17 98.499 17s80.166 -5.66699 98.499 -17s27.5 -27 27.5 -47z" />
    <glyph glyph-name="Ccaron" unicode="&#x10c;" horiz-adv-x="653" 
d="M389 330c-0.666992 22.667 -3.33398 40.002 -8.00098 52.002s-10 20.833 -16 26.5s-12 9 -18 10s-11 1.5 -15 1.5c-6.66699 0 -13.667 -0.833008 -21 -2.5s-14 -7.16699 -20 -16.5s-11 -23.666 -15 -42.999s-6 -47 -6 -83s2 -63.667 6 -83s9 -33.666 15 -42.999
s12.667 -14.833 20 -16.5s14.333 -2.5 21 -2.5c4 0 9 0.5 15 1.5s12 4.33301 18 10s11.333 14.5 16 26.5s7.33398 29.333 8.00098 52l234 -38c-6 -41.333 -18 -74.5 -36 -99.5s-40 -44.333 -66 -58s-54.5 -22.834 -85.5 -27.501s-62.5 -7 -94.5 -7
c-46 0 -88 4.16699 -126 12.5s-70.833 23.166 -98.5 44.499s-49 50.333 -64 87s-22.5 83.667 -22.5 141c0 56.667 7.5 103.5 22.5 140.5s36.333 66.167 64 87.5s60.5 36.166 98.5 44.499s80 12.5 126 12.5c32 0 63.5 -2.33301 94.5 -7s59.5 -13.834 85.5 -27.501
s48 -33.167 66 -58.5s30 -58.333 36 -99zM266 585.002l-150 132h146l60 -61h8l60 61h146l-150 -132h-120z" />
    <glyph glyph-name="ccaron" unicode="&#x10d;" horiz-adv-x="617" 
d="M341 280c-1.33301 36 -4.16602 60.002 -8.49902 72.002s-11.166 18 -20.499 18c-12.667 0 -20.834 -9.5 -24.501 -28.5s-5.5 -49.5 -5.5 -91.5s1.83301 -72.5 5.5 -91.5s11.834 -28.5 24.501 -28.5c9.33301 0 16.166 6 20.499 18s7.16602 36 8.49902 72l234 -38
c-6 -41.333 -16.333 -74.5 -31 -99.5s-33.167 -44.333 -55.5 -58s-48.333 -22.834 -78 -27.501s-62.5 -7 -98.5 -7c-43.333 0 -81.666 4.5 -114.999 13.5s-61.5 23.667 -84.5 44s-40.5 47 -52.5 80s-18 73.833 -18 122.5s6 89.5 18 122.5s29.5 59.667 52.5 80
s51.167 35 84.5 44s71.666 13.5 114.999 13.5c36 0 68.833 -2.33301 98.5 -7s55.667 -13.834 78 -27.501s40.833 -33.167 55.5 -58.5s25 -58.333 31 -99zM248 535.002l-150 132h146l60 -61h8l60 61h146l-150 -132h-120z" />
    <glyph glyph-name="Dcaron" unicode="&#x10e;" horiz-adv-x="684" 
d="M342 130c6 0 12.5 0.834961 19.5 2.50195s13.5 7.16699 19.5 16.5s11 23.666 15 42.999s6 47 6 83s-2 63.667 -6 83s-9 33.666 -15 42.999s-12.5 14.833 -19.5 16.5s-13.5 2.5 -19.5 2.5h-42v-290h42zM60 0.00195312v550h282c43.333 0 83.333 -3.83301 120 -11.5
s68.334 -21.667 95.001 -42s47.5 -48.333 62.5 -84s22.5 -81.5 22.5 -137.5s-7.5 -101.833 -22.5 -137.5s-35.833 -63.667 -62.5 -84s-58.334 -34.333 -95.001 -42s-76.667 -11.5 -120 -11.5h-282zM282 585.002l-150 132h146l60 -61h8l60 61h146l-150 -132h-120z" />
    <glyph glyph-name="dcaron" unicode="&#x10f;" horiz-adv-x="856" 
d="M457 0l-30 57.999c-13.333 -26 -32.666 -43.833 -57.999 -53.5s-58 -14.5 -98 -14.5c-39.333 0 -74 4.33301 -104 13s-55 22.834 -75 42.501s-35.167 45.667 -45.5 78s-15.5 72.166 -15.5 119.499c0 48.667 5 90 15 124s23.667 61.833 41 83.5
s37.666 37.334 60.999 47.001s48.333 14.5 75 14.5s47.5 -2.66699 62.5 -8s26.5 -11.5 34.5 -18.5s13.333 -14 16 -21s5 -11.833 7 -14.5l-12 50v100h240v-600h-114zM331 249.999c0 42 -1.83301 72.5 -5.5 91.5s-11.834 28.5 -24.501 28.5s-20.834 -9.5 -24.501 -28.5
s-5.5 -49.5 -5.5 -91.5s1.83301 -72.5 5.5 -91.5s11.834 -28.5 24.501 -28.5s20.834 9.5 24.501 28.5s5.5 49.5 5.5 91.5zM645 435.999c1.33301 0 3.50195 -0.166016 6.50195 -0.499023s6.83301 -0.5 11.5 -0.5s10 0.333008 16 1s11.5 2.33398 16.5 5.00098
s9.16699 6.33398 12.5 11.001s5 10.667 5 18c-24 0 -43.333 1.5 -58 4.5s-26.334 7.16699 -35.001 12.5s-14.5 12.166 -17.5 20.499s-4.5 17.5 -4.5 27.5s1.5 19.5 4.5 28.5s8.83301 16.833 17.5 23.5s20.5 12 35.5 16s34.5 6 58.5 6s43.333 -2 58 -6s26 -9.83301 34 -17.5
s13.333 -16.834 16 -27.501s4 -22.334 4 -35.001c0 -36.667 -6.66699 -65.167 -20 -85.5s-29.833 -35.5 -49.5 -45.5s-40.834 -16.167 -63.501 -18.5s-43 -3.5 -61 -3.5z" />
    <glyph glyph-name="Dcroat" unicode="&#x110;" horiz-adv-x="702" 
d="M90 0v200h-60v150h60v200h282c43.333 0 83.333 -3.83301 120 -11.5s68.334 -21.667 95.001 -42s47.5 -48.333 62.5 -84s22.5 -81.5 22.5 -137.5s-7.5 -101.833 -22.5 -137.5s-35.833 -63.667 -62.5 -84s-58.334 -34.333 -95.001 -42s-76.667 -11.5 -120 -11.5h-282z
M372 130c6 0 12.5 0.834961 19.5 2.50195s13.5 7.16699 19.5 16.5s11 23.666 15 42.999s6 47 6 83s-2 63.667 -6 83s-9 33.666 -15 42.999s-12.5 14.833 -19.5 16.5s-13.5 2.5 -19.5 2.5h-42v-70h60v-150h-60v-70h42z" />
    <glyph glyph-name="dcroat" unicode="&#x111;" horiz-adv-x="636" 
d="M462 0l-30.001 58c-13.333 -26 -32.833 -43.833 -58.5 -53.5s-59.5 -14.5 -101.5 -14.5c-38 0 -71.667 3.66699 -101 11s-54 20 -74 38s-35.167 42 -45.5 72s-15.5 67.333 -15.5 112c0 46 5.16699 85 15.5 117s24 57.667 41 77s36.833 33.333 59.5 42
s46.334 13 71.001 13c28 0 50 -2.66699 66 -8s28 -11.5 36 -18.5s13.333 -14 16 -21s5 -11.833 7 -14.5l-12 50v45h-60v50h60v45h240v-45h60v-50h-60v-505h-114zM306.999 130c6 0 10.833 1.33105 14.5 3.99805s6.66699 7.83398 9 15.501s3.83301 18 4.5 31s1 29.5 1 49.5
s-0.333008 36.5 -1 49.5s-2.16699 23.333 -4.5 31s-5.33301 12.834 -9 15.501s-8.5 4 -14.5 4c-13.333 0 -21.833 -7.16699 -25.5 -21.5s-5.5 -40.5 -5.5 -78.5s1.83301 -64.167 5.5 -78.5s12.167 -21.5 25.5 -21.5z" />
    <glyph glyph-name="Emacron" unicode="&#x112;" horiz-adv-x="594" 
d="M60 0v550h486v-150h-246v-50h216v-150h-216v-50h246v-150h-486zM116 630v50h360v-50h-360z" />
    <glyph glyph-name="emacron" unicode="&#x113;" horiz-adv-x="607" 
d="M276 221c0.666992 -32 3.00293 -55.168 7.00293 -69.501s11.667 -21.5 23 -21.5c9.33301 0 16.166 6 20.499 18s7.16602 36 8.49902 72l234 -38c-6 -38.667 -15.833 -70.5 -29.5 -95.5s-31.167 -44.667 -52.5 -59s-46.333 -24.166 -75 -29.499s-60.667 -8 -96 -8
c-46 0 -86.333 4.16699 -121 12.5s-63.834 22.5 -87.501 42.5s-41.5 46.667 -53.5 80s-18 75 -18 125s6 91.667 18 125s29.833 60 53.5 80s53.167 34.167 88.5 42.5s76 12.5 122 12.5c37.333 0 71.5 -4.5 102.5 -13.5s57.5 -22.333 79.5 -40s39.167 -39.667 51.5 -66
s18.5 -56.5 18.5 -90.5v-15c0 -4.66699 -0.333008 -9.66699 -1 -15zM334.003 302.999c-2 26.667 -5.16797 44.5 -9.50098 53.5s-10.5 13.5 -18.5 13.5c-10 0 -17.167 -6.16699 -21.5 -18.5s-7.16602 -31.5 -8.49902 -57.5zM124.002 579.999v50h360v-50h-360z" />
    <glyph glyph-name="Ebreve" unicode="&#x114;" horiz-adv-x="594" 
d="M60 0v550h486v-150h-246v-50h216v-150h-216v-50h246v-150h-486zM458 717c0 -24.667 -4.3291 -45.5 -12.9961 -62.5s-20.334 -30.667 -35.001 -41s-31.834 -17.666 -51.501 -21.999s-40.5 -6.5 -62.5 -6.5s-42.833 2.16699 -62.5 6.5s-36.834 11.666 -51.501 21.999
s-26.334 24 -35.001 41s-13 37.833 -13 62.5h122c0 -40.667 13.333 -61 40 -61s40 20.333 40 61h122z" />
    <glyph glyph-name="ebreve" unicode="&#x115;" horiz-adv-x="607" 
d="M276 221c0.666992 -32 3.00293 -55.168 7.00293 -69.501s11.667 -21.5 23 -21.5c9.33301 0 16.166 6 20.499 18s7.16602 36 8.49902 72l234 -38c-6 -38.667 -15.833 -70.5 -29.5 -95.5s-31.167 -44.667 -52.5 -59s-46.333 -24.166 -75 -29.499s-60.667 -8 -96 -8
c-46 0 -86.333 4.16699 -121 12.5s-63.834 22.5 -87.501 42.5s-41.5 46.667 -53.5 80s-18 75 -18 125s6 91.667 18 125s29.833 60 53.5 80s53.167 34.167 88.5 42.5s76 12.5 122 12.5c37.333 0 71.5 -4.5 102.5 -13.5s57.5 -22.333 79.5 -40s39.167 -39.667 51.5 -66
s18.5 -56.5 18.5 -90.5v-15c0 -4.66699 -0.333008 -9.66699 -1 -15zM334.003 302.999c-2 26.667 -5.16797 44.5 -9.50098 53.5s-10.5 13.5 -18.5 13.5c-10 0 -17.167 -6.16699 -21.5 -18.5s-7.16602 -31.5 -8.49902 -57.5zM466.002 666.999
c0 -24.667 -4.3291 -45.5 -12.9961 -62.5s-20.334 -30.667 -35.001 -41s-31.834 -17.666 -51.501 -21.999s-40.5 -6.5 -62.5 -6.5s-42.833 2.16699 -62.5 6.5s-36.834 11.666 -51.501 21.999s-26.334 24 -35.001 41s-13 37.833 -13 62.5h122c0 -40.667 13.333 -61 40 -61
s40 20.333 40 61h122z" />
    <glyph glyph-name="Edotaccent" unicode="&#x116;" horiz-adv-x="594" 
d="M60 0v550h486v-150h-246v-50h216v-150h-216v-50h246v-150h-486zM422 655c0 -20.667 -9.16699 -36.667 -27.5 -48s-51.166 -17 -98.499 -17s-80.166 5.66699 -98.499 17s-27.5 27.333 -27.5 48c0 20 9.16699 35.667 27.5 47s51.166 17 98.499 17
s80.166 -5.66699 98.499 -17s27.5 -27 27.5 -47z" />
    <glyph glyph-name="edotaccent" unicode="&#x117;" horiz-adv-x="607" 
d="M276 221c0.666992 -32 3.00293 -55.168 7.00293 -69.501s11.667 -21.5 23 -21.5c9.33301 0 16.166 6 20.499 18s7.16602 36 8.49902 72l234 -38c-6 -38.667 -15.833 -70.5 -29.5 -95.5s-31.167 -44.667 -52.5 -59s-46.333 -24.166 -75 -29.499s-60.667 -8 -96 -8
c-46 0 -86.333 4.16699 -121 12.5s-63.834 22.5 -87.501 42.5s-41.5 46.667 -53.5 80s-18 75 -18 125s6 91.667 18 125s29.833 60 53.5 80s53.167 34.167 88.5 42.5s76 12.5 122 12.5c37.333 0 71.5 -4.5 102.5 -13.5s57.5 -22.333 79.5 -40s39.167 -39.667 51.5 -66
s18.5 -56.5 18.5 -90.5v-15c0 -4.66699 -0.333008 -9.66699 -1 -15zM334.003 302.999c-2 26.667 -5.16797 44.5 -9.50098 53.5s-10.5 13.5 -18.5 13.5c-10 0 -17.167 -6.16699 -21.5 -18.5s-7.16602 -31.5 -8.49902 -57.5zM430.002 604.999
c0 -20.667 -9.16699 -36.667 -27.5 -48s-51.166 -17 -98.499 -17s-80.166 5.66699 -98.499 17s-27.5 27.333 -27.5 48c0 20 9.16699 35.667 27.5 47s51.166 17 98.499 17s80.166 -5.66699 98.499 -17s27.5 -27 27.5 -47z" />
    <glyph glyph-name="Eogonek" unicode="&#x118;" horiz-adv-x="594" 
d="M60 0v550h486v-150h-246v-50h216v-150h-216v-50h246v-150h-486zM672 -146c-18.667 -6.66699 -36.5 -11.5 -53.5 -14.5s-33.167 -4.5 -48.5 -4.5c-38 0 -68.333 8.5 -91 25.5s-34 39.5 -34 67.5c0 9.33301 1.5 18.833 4.5 28.5s7.83301 24.167 14.5 43.5h84
c-2.66699 -10.667 -4.33398 -18.667 -5.00098 -24s-1 -10 -1 -14c0 -17.333 5.16699 -28.333 15.5 -33s22.833 -7 37.5 -7h12c7.33301 0 15.833 0.666992 25.5 2s22.834 4 39.501 8v-78z" />
    <glyph glyph-name="eogonek" unicode="&#x119;" horiz-adv-x="607" 
d="M584 -146c-18.667 -6.66699 -36.4961 -11.501 -53.4961 -14.501s-33.167 -4.5 -48.5 -4.5c-37.333 0 -67.333 8.5 -90 25.5s-34 39.5 -34 67.5c0 9.33301 1.16699 18.333 3.5 27s6.5 21.334 12.5 38.001c-19.333 -2 -38.666 -3 -57.999 -3
c-46 0 -86.333 4.16699 -121 12.5s-63.834 22.5 -87.501 42.5s-41.5 46.667 -53.5 80s-18 75 -18 125s6 91.667 18 125s29.833 60 53.5 80s53.167 34.167 88.5 42.5s76 12.5 122 12.5c37.333 0 71.5 -4.5 102.5 -13.5s57.5 -22.333 79.5 -40s39.167 -39.667 51.5 -66
s18.5 -56.5 18.5 -90.5v-15c0 -4.66699 -0.333008 -9.66699 -1 -15l-293 -49c0.666992 -32 3 -55.167 7 -69.5s11.667 -21.5 23 -21.5c9.33301 0 16.166 6 20.499 18s7.16602 36 8.49902 72l234 -38c-6.66699 -46 -18.834 -82 -36.501 -108s-40.834 -45.667 -69.501 -59
c-2.66699 -10 -4.66699 -20.333 -6 -31s-2 -18 -2 -22c0 -17.333 5.16699 -28.333 15.5 -33s22.833 -7 37.5 -7h12c7.33301 0 15.833 0.666992 25.5 2s22.5 4 38.5 8v-78zM334.004 302.999c-2 26.667 -5.16797 44.5 -9.50098 53.5s-10.5 13.5 -18.5 13.5
c-10 0 -17.167 -6.16699 -21.5 -18.5s-7.16602 -31.5 -8.49902 -57.5z" />
    <glyph glyph-name="Ecaron" unicode="&#x11a;" horiz-adv-x="594" 
d="M60 0v550h486v-150h-246v-50h216v-150h-216v-50h246v-150h-486zM236 585l-150 132h146l60 -61h8l60 61h146l-150 -132h-120z" />
    <glyph glyph-name="ecaron" unicode="&#x11b;" horiz-adv-x="607" 
d="M276 221c0.666992 -32 3.00293 -55.168 7.00293 -69.501s11.667 -21.5 23 -21.5c9.33301 0 16.166 6 20.499 18s7.16602 36 8.49902 72l234 -38c-6 -38.667 -15.833 -70.5 -29.5 -95.5s-31.167 -44.667 -52.5 -59s-46.333 -24.166 -75 -29.499s-60.667 -8 -96 -8
c-46 0 -86.333 4.16699 -121 12.5s-63.834 22.5 -87.501 42.5s-41.5 46.667 -53.5 80s-18 75 -18 125s6 91.667 18 125s29.833 60 53.5 80s53.167 34.167 88.5 42.5s76 12.5 122 12.5c37.333 0 71.5 -4.5 102.5 -13.5s57.5 -22.333 79.5 -40s39.167 -39.667 51.5 -66
s18.5 -56.5 18.5 -90.5v-15c0 -4.66699 -0.333008 -9.66699 -1 -15zM334.003 302.999c-2 26.667 -5.16797 44.5 -9.50098 53.5s-10.5 13.5 -18.5 13.5c-10 0 -17.167 -6.16699 -21.5 -18.5s-7.16602 -31.5 -8.49902 -57.5zM244.002 534.999l-150 132h146l60 -61h8l60 61h146
l-150 -132h-120z" />
    <glyph glyph-name="Gcircumflex" unicode="&#x11c;" horiz-adv-x="690" 
d="M516 0l-29.999 58.001c-14.667 -10 -26.834 -19.167 -36.501 -27.5s-20 -15.5 -31 -21.5s-24.333 -10.667 -40 -14s-36.5 -5 -62.5 -5c-40 0 -77.333 4.5 -112 13.5s-64.834 24.5 -90.501 46.5s-46 51.5 -61 88.5s-22.5 83.5 -22.5 139.5s7.5 102.333 22.5 139
s36.333 65.5 64 86.5s60.5 35.667 98.5 44s80 12.5 126 12.5c32 0 63.5 -2.33301 94.5 -7s59.333 -13.834 85 -27.501s47.667 -33 66 -58s30.5 -58.167 36.5 -99.5l-234 -38c-0.666992 22 -3.16699 39.167 -7.5 51.5s-9.5 21.333 -15.5 27s-12.167 9 -18.5 10
s-11.5 1.5 -15.5 1.5c-6.66699 0 -13.667 -0.666992 -21 -2s-14 -6.5 -20 -15.5s-11 -23 -15 -42s-6 -46.167 -6 -81.5s2 -63 6 -83s9.16699 -34.833 15.5 -44.5s13.666 -15.667 21.999 -18s16.5 -3.5 24.5 -3.5c2.66699 0 6.33398 0.5 11.001 1.5
s9.33398 3.83301 14.001 8.5s9.16699 12 13.5 22s7.5 24.333 9.5 43l-55 20v75h299v-300h-114zM408.001 585.001l-60 61h-8l-60 -61h-146l150 132h120l150 -132h-146z" />
    <glyph glyph-name="gcircumflex" unicode="&#x11d;" horiz-adv-x="636" 
d="M576 383c2 -11.333 3 -22.6631 3 -33.9961c0 -17.333 -2.33301 -33.833 -7 -49.5s-12.667 -30 -24 -43s-26.333 -24.333 -45 -34s-42.334 -17.167 -71.001 -22.5c61.333 -10.667 105.166 -29.167 131.499 -55.5s39.5 -57.833 39.5 -94.5
c0 -24 -4.83301 -45.833 -14.5 -65.5s-25.5 -36.5 -47.5 -50.5s-51 -24.833 -87 -32.5s-80.333 -11.5 -133 -11.5c-39.333 0 -75.5 2.66699 -108.5 8s-62 15.166 -87 29.499s-45.5 34 -61.5 59s-27 56.833 -33 95.5l234 38
c0.666992 -18.667 2.33398 -33.834 5.00098 -45.501s6.33398 -20.834 11.001 -27.501s10.5 -11.167 17.5 -13.5s15.167 -3.5 24.5 -3.5c3.33301 0 7.5 0.333008 12.5 1s10 2.5 15 5.5s9.16699 7.66699 12.5 14s5 15.166 5 26.499s-1.83301 20.666 -5.5 27.999s-8 13 -13 17
s-10.5 6.83301 -16.5 8.5s-11 2.5 -15 2.5c-24.667 1.33301 -52.167 3.83301 -82.5 7.5s-58.666 11.834 -84.999 24.501s-48.5 31.5 -66.5 56.5s-27 59.5 -27 103.5c0 25.333 3.5 49.166 10.5 71.499s20.5 42 40.5 59s47.667 30.333 83 40s81.333 14.5 138 14.5
c11.333 0 22.666 -0.166992 33.999 -0.5s27.5 -1 48.5 -2s49 -2.16699 84 -3.5s81.833 -2.66602 140.5 -3.99902v-95zM318 267.003c4 0 7.6709 0.666992 11.0039 2s6.16602 4 8.49902 8s4 9.66699 5 17s1.5 17.333 1.5 30c0 24.667 -2.16699 40.167 -6.5 46.5
s-10.833 9.5 -19.5 9.5s-15.334 -3.16699 -20.001 -9.5s-7 -21.833 -7 -46.5c0 -12.667 0.666992 -22.667 2 -30s3.16602 -13 5.49902 -17s5.16602 -6.66699 8.49902 -8s7 -2 11 -2zM382.004 535.003l-60 61h-8l-60 -61h-146l150 132h120l150 -132h-146z" />
    <glyph glyph-name="Gbreve" unicode="&#x11e;" horiz-adv-x="690" 
d="M516 0l-29.999 58.001c-14.667 -10 -26.834 -19.167 -36.501 -27.5s-20 -15.5 -31 -21.5s-24.333 -10.667 -40 -14s-36.5 -5 -62.5 -5c-40 0 -77.333 4.5 -112 13.5s-64.834 24.5 -90.501 46.5s-46 51.5 -61 88.5s-22.5 83.5 -22.5 139.5s7.5 102.333 22.5 139
s36.333 65.5 64 86.5s60.5 35.667 98.5 44s80 12.5 126 12.5c32 0 63.5 -2.33301 94.5 -7s59.333 -13.834 85 -27.501s47.667 -33 66 -58s30.5 -58.167 36.5 -99.5l-234 -38c-0.666992 22 -3.16699 39.167 -7.5 51.5s-9.5 21.333 -15.5 27s-12.167 9 -18.5 10
s-11.5 1.5 -15.5 1.5c-6.66699 0 -13.667 -0.666992 -21 -2s-14 -6.5 -20 -15.5s-11 -23 -15 -42s-6 -46.167 -6 -81.5s2 -63 6 -83s9.16699 -34.833 15.5 -44.5s13.666 -15.667 21.999 -18s16.5 -3.5 24.5 -3.5c2.66699 0 6.33398 0.5 11.001 1.5
s9.33398 3.83301 14.001 8.5s9.16699 12 13.5 22s7.5 24.333 9.5 43l-55 20v75h299v-300h-114zM506.001 717.001c0 -24.667 -4.3291 -45.5 -12.9961 -62.5s-20.334 -30.667 -35.001 -41s-31.834 -17.666 -51.501 -21.999s-40.5 -6.5 -62.5 -6.5s-42.833 2.16699 -62.5 6.5
s-36.834 11.666 -51.501 21.999s-26.334 24 -35.001 41s-13 37.833 -13 62.5h122c0 -40.667 13.333 -61 40 -61s40 20.333 40 61h122z" />
    <glyph glyph-name="gbreve" unicode="&#x11f;" horiz-adv-x="636" 
d="M576 383c2 -11.333 3 -22.6631 3 -33.9961c0 -17.333 -2.33301 -33.833 -7 -49.5s-12.667 -30 -24 -43s-26.333 -24.333 -45 -34s-42.334 -17.167 -71.001 -22.5c61.333 -10.667 105.166 -29.167 131.499 -55.5s39.5 -57.833 39.5 -94.5
c0 -24 -4.83301 -45.833 -14.5 -65.5s-25.5 -36.5 -47.5 -50.5s-51 -24.833 -87 -32.5s-80.333 -11.5 -133 -11.5c-39.333 0 -75.5 2.66699 -108.5 8s-62 15.166 -87 29.499s-45.5 34 -61.5 59s-27 56.833 -33 95.5l234 38
c0.666992 -18.667 2.33398 -33.834 5.00098 -45.501s6.33398 -20.834 11.001 -27.501s10.5 -11.167 17.5 -13.5s15.167 -3.5 24.5 -3.5c3.33301 0 7.5 0.333008 12.5 1s10 2.5 15 5.5s9.16699 7.66699 12.5 14s5 15.166 5 26.499s-1.83301 20.666 -5.5 27.999s-8 13 -13 17
s-10.5 6.83301 -16.5 8.5s-11 2.5 -15 2.5c-24.667 1.33301 -52.167 3.83301 -82.5 7.5s-58.666 11.834 -84.999 24.501s-48.5 31.5 -66.5 56.5s-27 59.5 -27 103.5c0 25.333 3.5 49.166 10.5 71.499s20.5 42 40.5 59s47.667 30.333 83 40s81.333 14.5 138 14.5
c11.333 0 22.666 -0.166992 33.999 -0.5s27.5 -1 48.5 -2s49 -2.16699 84 -3.5s81.833 -2.66602 140.5 -3.99902v-95zM318 267.003c4 0 7.6709 0.666992 11.0039 2s6.16602 4 8.49902 8s4 9.66699 5 17s1.5 17.333 1.5 30c0 24.667 -2.16699 40.167 -6.5 46.5
s-10.833 9.5 -19.5 9.5s-15.334 -3.16699 -20.001 -9.5s-7 -21.833 -7 -46.5c0 -12.667 0.666992 -22.667 2 -30s3.16602 -13 5.49902 -17s5.16602 -6.66699 8.49902 -8s7 -2 11 -2zM480.004 667.003c0 -24.667 -4.3291 -45.5 -12.9961 -62.5s-20.334 -30.667 -35.001 -41
s-31.834 -17.666 -51.501 -21.999s-40.5 -6.5 -62.5 -6.5s-42.833 2.16699 -62.5 6.5s-36.834 11.666 -51.501 21.999s-26.334 24 -35.001 41s-13 37.833 -13 62.5h122c0 -40.667 13.333 -61 40 -61s40 20.333 40 61h122z" />
    <glyph glyph-name="Gdotaccent" unicode="&#x120;" horiz-adv-x="690" 
d="M516 0l-29.999 58.001c-14.667 -10 -26.834 -19.167 -36.501 -27.5s-20 -15.5 -31 -21.5s-24.333 -10.667 -40 -14s-36.5 -5 -62.5 -5c-40 0 -77.333 4.5 -112 13.5s-64.834 24.5 -90.501 46.5s-46 51.5 -61 88.5s-22.5 83.5 -22.5 139.5s7.5 102.333 22.5 139
s36.333 65.5 64 86.5s60.5 35.667 98.5 44s80 12.5 126 12.5c32 0 63.5 -2.33301 94.5 -7s59.333 -13.834 85 -27.501s47.667 -33 66 -58s30.5 -58.167 36.5 -99.5l-234 -38c-0.666992 22 -3.16699 39.167 -7.5 51.5s-9.5 21.333 -15.5 27s-12.167 9 -18.5 10
s-11.5 1.5 -15.5 1.5c-6.66699 0 -13.667 -0.666992 -21 -2s-14 -6.5 -20 -15.5s-11 -23 -15 -42s-6 -46.167 -6 -81.5s2 -63 6 -83s9.16699 -34.833 15.5 -44.5s13.666 -15.667 21.999 -18s16.5 -3.5 24.5 -3.5c2.66699 0 6.33398 0.5 11.001 1.5
s9.33398 3.83301 14.001 8.5s9.16699 12 13.5 22s7.5 24.333 9.5 43l-55 20v75h299v-300h-114zM470.001 655.001c0 -20.667 -9.16699 -36.667 -27.5 -48s-51.166 -17 -98.499 -17s-80.166 5.66699 -98.499 17s-27.5 27.333 -27.5 48c0 20 9.16699 35.667 27.5 47
s51.166 17 98.499 17s80.166 -5.66699 98.499 -17s27.5 -27 27.5 -47z" />
    <glyph glyph-name="gdotaccent" unicode="&#x121;" horiz-adv-x="636" 
d="M576 383c2 -11.333 3 -22.6631 3 -33.9961c0 -17.333 -2.33301 -33.833 -7 -49.5s-12.667 -30 -24 -43s-26.333 -24.333 -45 -34s-42.334 -17.167 -71.001 -22.5c61.333 -10.667 105.166 -29.167 131.499 -55.5s39.5 -57.833 39.5 -94.5
c0 -24 -4.83301 -45.833 -14.5 -65.5s-25.5 -36.5 -47.5 -50.5s-51 -24.833 -87 -32.5s-80.333 -11.5 -133 -11.5c-39.333 0 -75.5 2.66699 -108.5 8s-62 15.166 -87 29.499s-45.5 34 -61.5 59s-27 56.833 -33 95.5l234 38
c0.666992 -18.667 2.33398 -33.834 5.00098 -45.501s6.33398 -20.834 11.001 -27.501s10.5 -11.167 17.5 -13.5s15.167 -3.5 24.5 -3.5c3.33301 0 7.5 0.333008 12.5 1s10 2.5 15 5.5s9.16699 7.66699 12.5 14s5 15.166 5 26.499s-1.83301 20.666 -5.5 27.999s-8 13 -13 17
s-10.5 6.83301 -16.5 8.5s-11 2.5 -15 2.5c-24.667 1.33301 -52.167 3.83301 -82.5 7.5s-58.666 11.834 -84.999 24.501s-48.5 31.5 -66.5 56.5s-27 59.5 -27 103.5c0 25.333 3.5 49.166 10.5 71.499s20.5 42 40.5 59s47.667 30.333 83 40s81.333 14.5 138 14.5
c11.333 0 22.666 -0.166992 33.999 -0.5s27.5 -1 48.5 -2s49 -2.16699 84 -3.5s81.833 -2.66602 140.5 -3.99902v-95zM318 267.003c4 0 7.6709 0.666992 11.0039 2s6.16602 4 8.49902 8s4 9.66699 5 17s1.5 17.333 1.5 30c0 24.667 -2.16699 40.167 -6.5 46.5
s-10.833 9.5 -19.5 9.5s-15.334 -3.16699 -20.001 -9.5s-7 -21.833 -7 -46.5c0 -12.667 0.666992 -22.667 2 -30s3.16602 -13 5.49902 -17s5.16602 -6.66699 8.49902 -8s7 -2 11 -2zM444.004 605.003c0 -20.667 -9.16699 -36.667 -27.5 -48s-51.166 -17 -98.499 -17
s-80.166 5.66699 -98.499 17s-27.5 27.333 -27.5 48c0 20 9.16699 35.667 27.5 47s51.166 17 98.499 17s80.166 -5.66699 98.499 -17s27.5 -27 27.5 -47z" />
    <glyph glyph-name="Gcommaaccent" unicode="&#x122;" horiz-adv-x="690" 
d="M516 0l-29.999 58.001c-14.667 -10 -26.834 -19.167 -36.501 -27.5s-20 -15.5 -31 -21.5s-24.333 -10.667 -40 -14s-36.5 -5 -62.5 -5c-40 0 -77.333 4.5 -112 13.5s-64.834 24.5 -90.501 46.5s-46 51.5 -61 88.5s-22.5 83.5 -22.5 139.5s7.5 102.333 22.5 139
s36.333 65.5 64 86.5s60.5 35.667 98.5 44s80 12.5 126 12.5c32 0 63.5 -2.33301 94.5 -7s59.333 -13.834 85 -27.501s47.667 -33 66 -58s30.5 -58.167 36.5 -99.5l-234 -38c-0.666992 22 -3.16699 39.167 -7.5 51.5s-9.5 21.333 -15.5 27s-12.167 9 -18.5 10
s-11.5 1.5 -15.5 1.5c-6.66699 0 -13.667 -0.666992 -21 -2s-14 -6.5 -20 -15.5s-11 -23 -15 -42s-6 -46.167 -6 -81.5s2 -63 6 -83s9.16699 -34.833 15.5 -44.5s13.666 -15.667 21.999 -18s16.5 -3.5 24.5 -3.5c2.66699 0 6.33398 0.5 11.001 1.5
s9.33398 3.83301 14.001 8.5s9.16699 12 13.5 22s7.5 24.333 9.5 43l-55 20v75h299v-300h-114zM277.001 -217.999c1.33301 0 3.50195 -0.166016 6.50195 -0.499023s6.83301 -0.5 11.5 -0.5s10 0.333008 16 1s11.5 2.33398 16.5 5.00098s9.16699 6.33398 12.5 11.001
s5 10.667 5 18c-24 0 -43.333 1.5 -58 4.5s-26.334 7.16699 -35.001 12.5s-14.5 12.166 -17.5 20.499s-4.5 17.5 -4.5 27.5s1.5 19.5 4.5 28.5s8.83301 16.833 17.5 23.5s20.5 12 35.5 16s34.5 6 58.5 6s43.333 -2 58 -6s26 -9.83301 34 -17.5s13.333 -16.834 16 -27.501
s4 -22.334 4 -35.001c0 -36.667 -6.66699 -65.167 -20 -85.5s-29.833 -35.5 -49.5 -45.5s-40.834 -16.167 -63.501 -18.5s-43 -3.5 -61 -3.5z" />
    <glyph glyph-name="gcommaaccent" unicode="&#x123;" horiz-adv-x="636" 
d="M576 383c2 -11.333 3 -22.6631 3 -33.9961c0 -17.333 -2.33301 -33.833 -7 -49.5s-12.667 -30 -24 -43s-26.333 -24.333 -45 -34s-42.334 -17.167 -71.001 -22.5c61.333 -10.667 105.166 -29.167 131.499 -55.5s39.5 -57.833 39.5 -94.5
c0 -24 -4.83301 -45.833 -14.5 -65.5s-25.5 -36.5 -47.5 -50.5s-51 -24.833 -87 -32.5s-80.333 -11.5 -133 -11.5c-39.333 0 -75.5 2.66699 -108.5 8s-62 15.166 -87 29.499s-45.5 34 -61.5 59s-27 56.833 -33 95.5l234 38
c0.666992 -18.667 2.33398 -33.834 5.00098 -45.501s6.33398 -20.834 11.001 -27.501s10.5 -11.167 17.5 -13.5s15.167 -3.5 24.5 -3.5c3.33301 0 7.5 0.333008 12.5 1s10 2.5 15 5.5s9.16699 7.66699 12.5 14s5 15.166 5 26.499s-1.83301 20.666 -5.5 27.999s-8 13 -13 17
s-10.5 6.83301 -16.5 8.5s-11 2.5 -15 2.5c-24.667 1.33301 -52.167 3.83301 -82.5 7.5s-58.666 11.834 -84.999 24.501s-48.5 31.5 -66.5 56.5s-27 59.5 -27 103.5c0 25.333 3.5 49.166 10.5 71.499s20.5 42 40.5 59s47.667 30.333 83 40s81.333 14.5 138 14.5
c11.333 0 22.666 -0.166992 33.999 -0.5s27.5 -1 48.5 -2s49 -2.16699 84 -3.5s81.833 -2.66602 140.5 -3.99902v-95zM318 267.003c4 0 7.6709 0.666992 11.0039 2s6.16602 4 8.49902 8s4 9.66699 5 17s1.5 17.333 1.5 30c0 24.667 -2.16699 40.167 -6.5 46.5
s-10.833 9.5 -19.5 9.5s-15.334 -3.16699 -20.001 -9.5s-7 -21.833 -7 -46.5c0 -12.667 0.666992 -22.667 2 -30s3.16602 -13 5.49902 -17s5.16602 -6.66699 8.49902 -8s7 -2 11 -2zM385.004 716.003c-1.33301 0 -3.50195 0.166992 -6.50195 0.5s-6.83301 0.5 -11.5 0.5
c-5.33301 0 -10.833 -0.5 -16.5 -1.5s-11 -2.66699 -16 -5s-9.16699 -5.83301 -12.5 -10.5s-5 -10.667 -5 -18c24 0 43.333 -1.5 58 -4.5s26.334 -7.16699 35.001 -12.5s14.5 -12.166 17.5 -20.499s4.5 -17.5 4.5 -27.5s-1.5 -19.5 -4.5 -28.5s-8.83301 -16.833 -17.5 -23.5
s-20.5 -12 -35.5 -16s-34.5 -6 -58.5 -6s-43.333 2 -58 6s-26 9.83301 -34 17.5s-13.333 16.667 -16 27s-4 22.166 -4 35.499c0 36.667 6.66699 65.167 20 85.5s29.833 35.5 49.5 45.5s40.834 16.167 63.501 18.5s43 3.5 61 3.5z" />
    <glyph glyph-name="Hcircumflex" unicode="&#x124;" horiz-adv-x="684" 
d="M384 0v200h-84v-200h-240v550h240v-200h84v200h240v-550h-240zM406 585l-60 61h-8l-60 -61h-146l150 132h120l150 -132h-146z" />
    <glyph glyph-name="hcircumflex" unicode="&#x125;" 
d="M360 0l0.00292969 250c0 42 -1.83301 72.5 -5.5 91.5s-11.834 28.5 -24.501 28.5s-20.834 -9.5 -24.501 -28.5s-5.5 -49.5 -5.5 -91.5v-250h-240v600h240v-100l-12 -50c0 0.666992 0.666992 2.33398 2 5.00098l8 16c3.33301 6.66699 9.33301 13 18 19
s20.167 11.167 34.5 15.5s33.5 6.5 57.5 6.5c26.667 0 51.667 -4.83301 75 -14.5s43.666 -25.334 60.999 -47.001s31 -49.5 41 -83.5s15 -75.333 15 -124v-243h-240zM394.003 627l-60 61h-8l-60 -61h-146l150 132h120l150 -132h-146z" />
    <glyph glyph-name="Hbar" unicode="&#x126;" horiz-adv-x="684" 
d="M384 0v200h-84v-200h-240v425h-60v50h60v75h240v-75h84v75h240v-75h60v-50h-60v-425h-240zM384 350v75h-84v-75h84z" />
    <glyph glyph-name="hbar" unicode="&#x127;" horiz-adv-x="636" 
d="M360 0l-0.000976562 230.001c0 38 -1.83301 64.167 -5.5 78.5s-12.167 21.5 -25.5 21.5c-6 0 -10.833 -1.33301 -14.5 -4s-6.66699 -7.83398 -9 -15.501s-3.83301 -18 -4.5 -31s-1 -29.5 -1 -49.5v-230h-240v505h-60v50h60v45h240v-45h60v-50h-60v-45l-12 -50
c1.33301 2.66699 3.33301 7.5 6 14.5s8.16699 14 16.5 21s20.5 13.167 36.5 18.5s38 8 66 8c24.667 0 48.334 -4.33301 71.001 -13s42.5 -22.667 59.5 -42s30.667 -45 41 -77s15.5 -71 15.5 -117v-223h-240z" />
    <glyph glyph-name="Itilde" unicode="&#x128;" horiz-adv-x="360" 
d="M60 0v550h240v-550h-240zM263 715l93 -15l-5 -38c-2 -15.333 -5.83301 -28 -11.5 -38s-13 -17.833 -22 -23.5s-19.333 -9.66699 -31 -12s-24.5 -3.5 -38.5 -3.5c-22 0 -40.333 2.16699 -55 6.5s-26.5 9.66602 -35.5 15.999s-15.333 13.5 -19 21.5s-5.5 16 -5.5 24
c0 5.33301 -1.66699 9 -5 11s-6.66602 3 -9.99902 3s-5.83301 -1.66699 -7.5 -5s-2.5 -11 -2.5 -23c0 -1.33301 -0.5 -2.66602 -1.5 -3.99902s-1.5 -2.66602 -1.5 -3.99902l-6 -38l-93 15l6 38c5.33301 31.333 16.666 52 33.999 62s40 15 68 15
c22 0 40.5 -2.16699 55.5 -6.5s26.833 -9.66602 35.5 -15.999s14.834 -13.5 18.501 -21.5s5.5 -16 5.5 -24c0 -5.33301 1.83301 -9 5.5 -11s7.16699 -3 10.5 -3s5.66602 1.66699 6.99902 5s2 11 2 23c0 1.33301 0.5 2.66602 1.5 3.99902s1.5 2.66602 1.5 3.99902z" />
    <glyph glyph-name="itilde" unicode="&#x129;" horiz-adv-x="360" 
d="M60 0v500h240v-500h-240zM263 665l93 -15l-5 -38c-2 -15.333 -5.83301 -28 -11.5 -38s-13 -17.833 -22 -23.5s-19.333 -9.66699 -31 -12s-24.5 -3.5 -38.5 -3.5c-22 0 -40.333 2.16699 -55 6.5s-26.5 9.66602 -35.5 15.999s-15.333 13.5 -19 21.5s-5.5 16 -5.5 24
c0 5.33301 -1.66699 9 -5 11s-6.66602 3 -9.99902 3s-5.83301 -1.66699 -7.5 -5s-2.5 -11 -2.5 -23c0 -1.33301 -0.5 -2.66602 -1.5 -3.99902s-1.5 -2.66602 -1.5 -3.99902l-6 -38l-93 15l6 38c5.33301 31.333 16.666 52 33.999 62s40 15 68 15
c22 0 40.5 -2.16699 55.5 -6.5s26.833 -9.66602 35.5 -15.999s14.834 -13.5 18.501 -21.5s5.5 -16 5.5 -24c0 -5.33301 1.83301 -9 5.5 -11s7.16699 -3 10.5 -3s5.66602 1.66699 6.99902 5s2 11 2 23c0 1.33301 0.5 2.66602 1.5 3.99902s1.5 2.66602 1.5 3.99902z" />
    <glyph glyph-name="Imacron" unicode="&#x12a;" horiz-adv-x="360" 
d="M60 0v550h240v-550h-240zM1 630v50h360v-50h-360z" />
    <glyph glyph-name="imacron" unicode="&#x12b;" horiz-adv-x="360" 
d="M60 0v500h240v-500h-240zM1 580v50h360v-50h-360z" />
    <glyph glyph-name="Ibreve" unicode="&#x12c;" horiz-adv-x="360" 
d="M60 0v550h240v-550h-240zM342 717c0 -24.667 -4.3291 -45.5 -12.9961 -62.5s-20.334 -30.667 -35.001 -41s-31.834 -17.666 -51.501 -21.999s-40.5 -6.5 -62.5 -6.5s-42.833 2.16699 -62.5 6.5s-36.834 11.666 -51.501 21.999s-26.334 24 -35.001 41s-13 37.833 -13 62.5
h122c0 -40.667 13.333 -61 40 -61s40 20.333 40 61h122z" />
    <glyph glyph-name="ibreve" unicode="&#x12d;" horiz-adv-x="360" 
d="M60 0v500h240v-500h-240zM342 667c0 -24.667 -4.3291 -45.5 -12.9961 -62.5s-20.334 -30.667 -35.001 -41s-31.834 -17.666 -51.501 -21.999s-40.5 -6.5 -62.5 -6.5s-42.833 2.16699 -62.5 6.5s-36.834 11.666 -51.501 21.999s-26.334 24 -35.001 41s-13 37.833 -13 62.5
h122c0 -40.667 13.333 -61 40 -61s40 20.333 40 61h122z" />
    <glyph glyph-name="Iogonek" unicode="&#x12e;" horiz-adv-x="360" 
d="M60 0v550h240v-550h-240zM424 -146c-18.667 -6.66699 -36.5 -11.5 -53.5 -14.5s-33.167 -4.5 -48.5 -4.5c-38 0 -68.333 8.5 -91 25.5s-34 39.5 -34 67.5c0 9.33301 1.5 18.833 4.5 28.5s7.83301 24.167 14.5 43.5h84c-2.66699 -10.667 -4.33398 -18.667 -5.00098 -24
s-1 -10 -1 -14c0 -17.333 5.16699 -28.333 15.5 -33s22.833 -7 37.5 -7h12c7.33301 0 15.833 0.666992 25.5 2s22.834 4 39.501 8v-78z" />
    <glyph glyph-name="iogonek" unicode="&#x12f;" horiz-adv-x="360" 
d="M60 0v500h240v-500h-240zM305 605c0 -20.667 -9.16699 -36.667 -27.5 -48s-51.166 -17 -98.499 -17s-80.166 5.66699 -98.499 17s-27.5 27.333 -27.5 48c0 20 9.16699 35.667 27.5 47s51.166 17 98.499 17s80.166 -5.66699 98.499 -17s27.5 -27 27.5 -47zM424 -146
c-18.667 -6.66699 -36.5 -11.5 -53.5 -14.5s-33.167 -4.5 -48.5 -4.5c-38 0 -68.333 8.5 -91 25.5s-34 39.5 -34 67.5c0 9.33301 1.5 18.833 4.5 28.5s7.83301 24.167 14.5 43.5h84c-2.66699 -10.667 -4.33398 -18.667 -5.00098 -24s-1 -10 -1 -14
c0 -17.333 5.16699 -28.333 15.5 -33s22.833 -7 37.5 -7h12c7.33301 0 15.833 0.666992 25.5 2s22.834 4 39.501 8v-78z" />
    <glyph glyph-name="Idotaccent" unicode="&#x130;" horiz-adv-x="360" 
d="M60 0v550h240v-550h-240zM305 655c0 -20.667 -9.16699 -36.667 -27.5 -48s-51.166 -17 -98.499 -17s-80.166 5.66699 -98.499 17s-27.5 27.333 -27.5 48c0 20 9.16699 35.667 27.5 47s51.166 17 98.499 17s80.166 -5.66699 98.499 -17s27.5 -27 27.5 -47z" />
    <glyph glyph-name="dotlessi" unicode="&#x131;" horiz-adv-x="360" 
d="M60 0v500h240v-500h-240z" />
    <glyph glyph-name="IJ" unicode="&#x132;" horiz-adv-x="977" 
d="M60 0v550h240v-550h-240zM677 400l-119 -0.000976562v150h359v-300c0 -48.667 -6 -89.5 -18 -122.5s-29.5 -59.667 -52.5 -80s-51.167 -35 -84.5 -44s-71.666 -13.5 -114.999 -13.5c-36 0 -68.833 2.33301 -98.5 7s-55.667 13.834 -78 27.501s-40.833 33 -55.5 58
s-25 58.167 -31 99.5l234 38c1.33301 -36 4.16602 -60 8.49902 -72s11.166 -18 20.499 -18c12.667 0 20.834 9.5 24.501 28.5s5.5 49.5 5.5 91.5v150z" />
    <glyph glyph-name="ij" unicode="&#x133;" horiz-adv-x="983" 
d="M60 0v500h240v-500h-240zM305 605c0 -20.667 -9.16699 -36.667 -27.5 -48s-51.166 -17 -98.499 -17s-80.166 5.66699 -98.499 17s-27.5 27.333 -27.5 48c0 20 9.16699 35.667 27.5 47s51.166 17 98.499 17s80.166 -5.66699 98.499 -17s27.5 -27 27.5 -47zM683 360
l-119 -0.000976562v140h359v-350c0 -48.667 -6 -89.5 -18 -122.5s-29.5 -59.667 -52.5 -80s-51.167 -35 -84.5 -44s-71.666 -13.5 -114.999 -13.5c-36 0 -68.833 2.33301 -98.5 7s-55.667 13.834 -78 27.501s-40.833 33 -55.5 58s-25 58.167 -31 99.5l234 38
c1.33301 -36 4.16602 -60 8.49902 -72s11.166 -18 20.499 -18c12.667 0 20.834 9.5 24.501 28.5s5.5 49.5 5.5 91.5v210zM928 604.999c0 -20.667 -9.33301 -36.667 -28 -48s-51.334 -17 -98.001 -17c-47.333 0 -80.166 5.66699 -98.499 17s-27.5 27.333 -27.5 48
c0 20 9.16699 35.667 27.5 47s51.166 17 98.499 17c46.667 0 79.334 -5.66699 98.001 -17s28 -27 28 -47z" />
    <glyph glyph-name="Jcircumflex" unicode="&#x134;" horiz-adv-x="617" 
d="M317 400l-119 -0.000976562v150h359v-300c0 -48.667 -6 -89.5 -18 -122.5s-29.5 -59.667 -52.5 -80s-51.167 -35 -84.5 -44s-71.666 -13.5 -114.999 -13.5c-36 0 -68.833 2.33301 -98.5 7s-55.667 13.834 -78 27.501s-40.833 33 -55.5 58s-25 58.167 -31 99.5l234 38
c1.33301 -36 4.16602 -60 8.49902 -72s11.166 -18 20.499 -18c12.667 0 20.834 9.5 24.501 28.5s5.5 49.5 5.5 91.5v150zM444 584.999l-60 61h-8l-60 -61h-146l150 132h120l150 -132h-146z" />
    <glyph glyph-name="jcircumflex" unicode="&#x135;" horiz-adv-x="623" 
d="M323 360l-119 -0.000976562v140h359v-350c0 -48.667 -6 -89.5 -18 -122.5s-29.5 -59.667 -52.5 -80s-51.167 -35 -84.5 -44s-71.666 -13.5 -114.999 -13.5c-36 0 -68.833 2.33301 -98.5 7s-55.667 13.834 -78 27.501s-40.833 33 -55.5 58s-25 58.167 -31 99.5l234 38
c1.33301 -36 4.16602 -60 8.49902 -72s11.166 -18 20.499 -18c12.667 0 20.834 9.5 24.501 28.5s5.5 49.5 5.5 91.5v210zM454 534.999l-60 61h-8l-60 -61h-146l150 132h120l150 -132h-146z" />
    <glyph glyph-name="Kcommaaccent" unicode="&#x136;" horiz-adv-x="710" 
d="M409 0l-109 221v-221h-240v550h240v-221l109 221h265l-200 -275l200 -275h-265zM288 -218c1.33301 0 3.50195 -0.166016 6.50195 -0.499023s6.83301 -0.5 11.5 -0.5s10 0.333008 16 1s11.5 2.33398 16.5 5.00098s9.16699 6.33398 12.5 11.001s5 10.667 5 18
c-24 0 -43.333 1.5 -58 4.5s-26.334 7.16699 -35.001 12.5s-14.5 12.166 -17.5 20.499s-4.5 17.5 -4.5 27.5s1.5 19.5 4.5 28.5s8.83301 16.833 17.5 23.5s20.5 12 35.5 16s34.5 6 58.5 6s43.333 -2 58 -6s26 -9.83301 34 -17.5s13.333 -16.834 16 -27.501
s4 -22.334 4 -35.001c0 -36.667 -6.66699 -65.167 -20 -85.5s-29.833 -35.5 -49.5 -45.5s-40.834 -16.167 -63.501 -18.5s-43 -3.5 -61 -3.5z" />
    <glyph glyph-name="kcommaaccent" unicode="&#x137;" horiz-adv-x="698" 
d="M409 0l-109 196v-196h-240v580l240 20v-296l109 196h265l-200 -250l200 -250h-265zM282 -218c1.33301 0 3.50195 -0.166016 6.50195 -0.499023s6.83301 -0.5 11.5 -0.5s10 0.333008 16 1s11.5 2.33398 16.5 5.00098s9.16699 6.33398 12.5 11.001s5 10.667 5 18
c-24 0 -43.333 1.5 -58 4.5s-26.334 7.16699 -35.001 12.5s-14.5 12.166 -17.5 20.499s-4.5 17.5 -4.5 27.5s1.5 19.5 4.5 28.5s8.83301 16.833 17.5 23.5s20.5 12 35.5 16s34.5 6 58.5 6s43.333 -2 58 -6s26 -9.83301 34 -17.5s13.333 -16.834 16 -27.501
s4 -22.334 4 -35.001c0 -36.667 -6.66699 -65.167 -20 -85.5s-29.833 -35.5 -49.5 -45.5s-40.834 -16.167 -63.501 -18.5s-43 -3.5 -61 -3.5z" />
    <glyph glyph-name="kgreenlandic" unicode="&#x138;" horiz-adv-x="698" 
d="M409 0l-109 196v-196h-240v500h240v-196l109 196h265l-200 -250l200 -250h-265z" />
    <glyph glyph-name="Lacute" unicode="&#x139;" horiz-adv-x="538" 
d="M60 0v550h240v-400h204v-150h-444zM229 585h-120l124 132h194z" />
    <glyph glyph-name="lacute" unicode="&#x13a;" horiz-adv-x="360" 
d="M60 0v600h240v-600h-240zM238 635h-120l124 132h194z" />
    <glyph glyph-name="Lcommaaccent" unicode="&#x13b;" horiz-adv-x="538" 
d="M60 0v550h240v-400h204v-150h-444zM202 -218c1.33301 0 3.50195 -0.166016 6.50195 -0.499023s6.83301 -0.5 11.5 -0.5s10 0.333008 16 1s11.5 2.33398 16.5 5.00098s9.16699 6.33398 12.5 11.001s5 10.667 5 18c-24 0 -43.333 1.5 -58 4.5s-26.334 7.16699 -35.001 12.5
s-14.5 12.166 -17.5 20.499s-4.5 17.5 -4.5 27.5s1.5 19.5 4.5 28.5s8.83301 16.833 17.5 23.5s20.5 12 35.5 16s34.5 6 58.5 6s43.333 -2 58 -6s26 -9.83301 34 -17.5s13.333 -16.834 16 -27.501s4 -22.334 4 -35.001c0 -36.667 -6.66699 -65.167 -20 -85.5
s-29.833 -35.5 -49.5 -45.5s-40.834 -16.167 -63.501 -18.5s-43 -3.5 -61 -3.5z" />
    <glyph glyph-name="lcommaaccent" unicode="&#x13c;" horiz-adv-x="360" 
d="M60 0v600h240v-600h-240zM113 -218c1.33301 0 3.50195 -0.166016 6.50195 -0.499023s6.83301 -0.5 11.5 -0.5s10 0.333008 16 1s11.5 2.33398 16.5 5.00098s9.16699 6.33398 12.5 11.001s5 10.667 5 18c-24 0 -43.333 1.5 -58 4.5s-26.334 7.16699 -35.001 12.5
s-14.5 12.166 -17.5 20.499s-4.5 17.5 -4.5 27.5s1.5 19.5 4.5 28.5s8.83301 16.833 17.5 23.5s20.5 12 35.5 16s34.5 6 58.5 6s43.333 -2 58 -6s26 -9.83301 34 -17.5s13.333 -16.834 16 -27.501s4 -22.334 4 -35.001c0 -36.667 -6.66699 -65.167 -20 -85.5
s-29.833 -35.5 -49.5 -45.5s-40.834 -16.167 -63.501 -18.5s-43 -3.5 -61 -3.5z" />
    <glyph glyph-name="Lcaron" unicode="&#x13d;" horiz-adv-x="538" 
d="M60 0v550h240v-400h204v-150h-444zM120 585l-150 132h146l60 -61h8l60 61h146l-150 -132h-120z" />
    <glyph glyph-name="lcaron" unicode="&#x13e;" horiz-adv-x="593" 
d="M60 0v600h240v-600h-240zM382 437c1.33301 0 3.50195 -0.166016 6.50195 -0.499023s6.83301 -0.5 11.5 -0.5s10 0.333008 16 1s11.5 2.33398 16.5 5.00098s9.16699 6.33398 12.5 11.001s5 10.667 5 18c-24 0 -43.333 1.5 -58 4.5s-26.334 7.16699 -35.001 12.5
s-14.5 12.166 -17.5 20.499s-4.5 17.5 -4.5 27.5s1.5 19.5 4.5 28.5s8.83301 16.833 17.5 23.5s20.5 12 35.5 16s34.5 6 58.5 6s43.333 -2 58 -6s26 -9.83301 34 -17.5s13.333 -16.834 16 -27.501s4 -22.334 4 -35.001c0 -36.667 -6.66699 -65.167 -20 -85.5
s-29.833 -35.5 -49.5 -45.5s-40.834 -16.167 -63.501 -18.5s-43 -3.5 -61 -3.5z" />
    <glyph glyph-name="Ldot" unicode="&#x13f;" horiz-adv-x="612" 
d="M582 314c0 -10 -1.5 -19.5 -4.5 -28.5s-8.66699 -16.833 -17 -23.5s-20 -12 -35 -16s-34.167 -6 -57.5 -6s-42.5 2 -57.5 6s-26.667 9.33301 -35 16s-14 14.5 -17 23.5s-4.5 18.5 -4.5 28.5s1.5 19.667 4.5 29s8.66699 17.333 17 24s20 12 35 16s34.167 6 57.5 6
s42.5 -2 57.5 -6s26.667 -9.33301 35 -16s14 -14.667 17 -24s4.5 -19 4.5 -29zM60 0v550h240v-400h204v-150h-444z" />
    <glyph glyph-name="ldot" unicode="&#x140;" horiz-adv-x="617" 
d="M587 314c0 -10 -1.5 -19.5 -4.5 -28.5s-8.66699 -16.833 -17 -23.5s-20 -12 -35 -16s-34.167 -6 -57.5 -6s-42.5 2 -57.5 6s-26.667 9.33301 -35 16s-14 14.5 -17 23.5s-4.5 18.5 -4.5 28.5s1.5 19.667 4.5 29s8.66699 17.333 17 24s20 12 35 16s34.167 6 57.5 6
s42.5 -2 57.5 -6s26.667 -9.33301 35 -16s14 -14.667 17 -24s4.5 -19 4.5 -29zM60 0v600h240v-600h-240z" />
    <glyph glyph-name="Lslash" unicode="&#x141;" horiz-adv-x="604" 
d="M130 0v148l-42 -24l-76 90l118 68v268h240v-128l75 44l76 -90l-151 -88v-138h204v-150h-444z" />
    <glyph glyph-name="lslash" unicode="&#x142;" horiz-adv-x="551" 
d="M130 0v148l-42 -24l-76 90l118 68v318h240v-178l75 44l76 -90l-151 -88v-288h-240z" />
    <glyph glyph-name="Nacute" unicode="&#x143;" horiz-adv-x="708" 
d="M510 0l-210 220v-220h-240v550h138l210 -220v220h240v-550h-138zM370 585h-120l124 132h194z" />
    <glyph glyph-name="nacute" unicode="&#x144;" horiz-adv-x="661" 
d="M360 0l0.00292969 250c0 42 -1.83301 72.5 -5.5 91.5s-11.834 28.5 -24.501 28.5s-20.834 -9.5 -24.501 -28.5s-5.5 -49.5 -5.5 -91.5v-250h-240v500h114l30 -58c9.33301 14.667 19.333 26.5 30 35.5s22.167 16 34.5 21s25.5 8.16699 39.5 9.5s28.667 2 44 2
c45.333 0 83.666 -4.66699 114.999 -14s56.833 -24.333 76.5 -45s34 -47.5 43 -80.5s13.5 -73.167 13.5 -120.5v-250h-240zM359.003 535h-120l124 132h194z" />
    <glyph glyph-name="Ncommaaccent" unicode="&#x145;" horiz-adv-x="708" 
d="M510 0l-210 220v-220h-240v550h138l210 -220v220h240v-550h-138zM287 -218c1.33301 0 3.50195 -0.166016 6.50195 -0.499023s6.83301 -0.5 11.5 -0.5s10 0.333008 16 1s11.5 2.33398 16.5 5.00098s9.16699 6.33398 12.5 11.001s5 10.667 5 18c-24 0 -43.333 1.5 -58 4.5
s-26.334 7.16699 -35.001 12.5s-14.5 12.166 -17.5 20.499s-4.5 17.5 -4.5 27.5s1.5 19.5 4.5 28.5s8.83301 16.833 17.5 23.5s20.5 12 35.5 16s34.5 6 58.5 6s43.333 -2 58 -6s26 -9.83301 34 -17.5s13.333 -16.834 16 -27.501s4 -22.334 4 -35.001
c0 -36.667 -6.66699 -65.167 -20 -85.5s-29.833 -35.5 -49.5 -45.5s-40.834 -16.167 -63.501 -18.5s-43 -3.5 -61 -3.5z" />
    <glyph glyph-name="ncommaaccent" unicode="&#x146;" horiz-adv-x="661" 
d="M360 0l0.00292969 250c0 42 -1.83301 72.5 -5.5 91.5s-11.834 28.5 -24.501 28.5s-20.834 -9.5 -24.501 -28.5s-5.5 -49.5 -5.5 -91.5v-250h-240v500h114l30 -58c9.33301 14.667 19.333 26.5 30 35.5s22.167 16 34.5 21s25.5 8.16699 39.5 9.5s28.667 2 44 2
c45.333 0 83.666 -4.66699 114.999 -14s56.833 -24.333 76.5 -45s34 -47.5 43 -80.5s13.5 -73.167 13.5 -120.5v-250h-240zM263.003 -218c1.33301 0 3.50195 -0.166016 6.50195 -0.499023s6.83301 -0.5 11.5 -0.5s10 0.333008 16 1s11.5 2.33398 16.5 5.00098
s9.16699 6.33398 12.5 11.001s5 10.667 5 18c-24 0 -43.333 1.5 -58 4.5s-26.334 7.16699 -35.001 12.5s-14.5 12.166 -17.5 20.499s-4.5 17.5 -4.5 27.5s1.5 19.5 4.5 28.5s8.83301 16.833 17.5 23.5s20.5 12 35.5 16s34.5 6 58.5 6s43.333 -2 58 -6s26 -9.83301 34 -17.5
s13.333 -16.834 16 -27.501s4 -22.334 4 -35.001c0 -36.667 -6.66699 -65.167 -20 -85.5s-29.833 -35.5 -49.5 -45.5s-40.834 -16.167 -63.501 -18.5s-43 -3.5 -61 -3.5z" />
    <glyph glyph-name="Ncaron" unicode="&#x147;" horiz-adv-x="708" 
d="M510 0l-210 220v-220h-240v550h138l210 -220v220h240v-550h-138zM294 585l-150 132h146l60 -61h8l60 61h146l-150 -132h-120z" />
    <glyph glyph-name="ncaron" unicode="&#x148;" horiz-adv-x="661" 
d="M360 0l0.00292969 250c0 42 -1.83301 72.5 -5.5 91.5s-11.834 28.5 -24.501 28.5s-20.834 -9.5 -24.501 -28.5s-5.5 -49.5 -5.5 -91.5v-250h-240v500h114l30 -58c9.33301 14.667 19.333 26.5 30 35.5s22.167 16 34.5 21s25.5 8.16699 39.5 9.5s28.667 2 44 2
c45.333 0 83.666 -4.66699 114.999 -14s56.833 -24.333 76.5 -45s34 -47.5 43 -80.5s13.5 -73.167 13.5 -120.5v-250h-240zM270.003 535l-150 132h146l60 -61h8l60 61h146l-150 -132h-120z" />
    <glyph glyph-name="napostrophe" unicode="&#x149;" horiz-adv-x="661" 
d="M360 0l0.00292969 250c0 42 -1.83301 72.5 -5.5 91.5s-11.834 28.5 -24.501 28.5s-20.834 -9.5 -24.501 -28.5s-5.5 -49.5 -5.5 -91.5v-250h-240v500h114l30 -58c9.33301 14.667 19.333 26.5 30 35.5s22.167 16 34.5 21s25.5 8.16699 39.5 9.5s28.667 2 44 2
c45.333 0 83.666 -4.66699 114.999 -14s56.833 -24.333 76.5 -45s34 -47.5 43 -80.5s13.5 -73.167 13.5 -120.5v-250h-240zM107.003 599c1.33301 0 3.50195 -0.166016 6.50195 -0.499023s6.83301 -0.5 11.5 -0.5s10 0.333008 16 1s11.5 2.33398 16.5 5.00098
s9.16699 6.33398 12.5 11.001s5 10.667 5 18c-24 0 -43.333 1.5 -58 4.5s-26.334 7.16699 -35.001 12.5s-14.5 12.166 -17.5 20.499s-4.5 17.5 -4.5 27.5s1.5 19.5 4.5 28.5s8.83301 16.833 17.5 23.5s20.5 12 35.5 16s34.5 6 58.5 6s43.333 -2 58 -6s26 -9.83301 34 -17.5
s13.333 -16.834 16 -27.501s4 -22.334 4 -35.001c0 -36.667 -6.66699 -65.167 -20 -85.5s-29.833 -35.5 -49.5 -45.5s-40.834 -16.167 -63.501 -18.5s-43 -3.5 -61 -3.5z" />
    <glyph glyph-name="Eng" unicode="&#x14a;" horiz-adv-x="708" 
d="M648 0c-0.666992 -48.667 -7 -89.501 -19 -122.501s-29.5 -59.667 -52.5 -80s-51.167 -35 -84.5 -44s-71.666 -13.5 -114.999 -13.5c-36 0 -68.833 2.33301 -98.5 7s-55.667 13.834 -78 27.501s-40.833 33 -55.5 58s-25 58.167 -31 99.5l234 38
c1.33301 -36 4.16602 -60 8.49902 -72s11.166 -18 20.499 -18c12.667 0 20.834 9.5 24.501 28.5s5.5 49.5 5.5 91.5v108l-107 112v-220h-240v550h138l210 -220v220h240v-550v0z" />
    <glyph glyph-name="eng" unicode="&#x14b;" horiz-adv-x="661" 
d="M360 250c0 42 -1.83008 72.499 -5.49707 91.499s-11.834 28.5 -24.501 28.5s-20.834 -9.5 -24.501 -28.5s-5.5 -49.5 -5.5 -91.5v-250h-240v500h114l30 -58c9.33301 14.667 19.333 26.5 30 35.5s22.167 16 34.5 21s25.5 8.16699 39.5 9.5s28.667 2 44 2
c45.333 0 83.666 -4.66699 114.999 -14s56.833 -24.333 76.5 -45s34 -47.5 43 -80.5s13.5 -73.167 13.5 -120.5v-250c0 -48.667 -6 -89.5 -18 -122.5s-29.5 -59.667 -52.5 -80s-51.167 -35 -84.5 -44s-71.666 -13.5 -114.999 -13.5c-36 0 -68.833 2.33301 -98.5 7
s-55.667 13.834 -78 27.501s-40.833 33 -55.5 58s-25 58.167 -31 99.5l234 38c1.33301 -36 4.16602 -60 8.49902 -72s11.166 -18 20.499 -18c12.667 0 20.834 9.5 24.501 28.5s5.5 49.5 5.5 91.5v250z" />
    <glyph glyph-name="Omacron" unicode="&#x14c;" 
d="M330 -10c-43.333 0 -83.333 4.33301 -120 13s-68.334 23.834 -95.001 45.501s-47.5 50.834 -62.5 87.501s-22.5 83 -22.5 139s7.5 102.333 22.5 139s35.833 65.834 62.5 87.501s58.334 36.834 95.001 45.501s76.667 13 120 13s83.333 -4.33301 120 -13
s68.334 -23.834 95.001 -45.501s47.5 -50.834 62.5 -87.501s22.5 -83 22.5 -139s-7.5 -102.333 -22.5 -139s-35.833 -65.834 -62.5 -87.501s-58.334 -36.834 -95.001 -45.501s-76.667 -13 -120 -13zM270 275c0 -36 2 -63.667 6 -83s9 -33.666 15 -42.999
s12.5 -14.833 19.5 -16.5s13.5 -2.5 19.5 -2.5s12.5 0.833008 19.5 2.5s13.5 7.16699 19.5 16.5s11 23.666 15 42.999s6 47 6 83s-2 63.667 -6 83s-9 33.666 -15 42.999s-12.5 14.833 -19.5 16.5s-13.5 2.5 -19.5 2.5s-12.5 -0.833008 -19.5 -2.5
s-13.5 -7.16699 -19.5 -16.5s-11 -23.666 -15 -42.999s-6 -47 -6 -83zM150 630v50h360v-50h-360z" />
    <glyph glyph-name="omacron" unicode="&#x14d;" horiz-adv-x="588" 
d="M294 -10c-43.333 0 -81.666 4.5 -114.999 13.5s-61.5 23.667 -84.5 44s-40.5 47 -52.5 80s-18 73.833 -18 122.5s6 89.5 18 122.5s29.5 59.667 52.5 80s51.167 35 84.5 44s71.666 13.5 114.999 13.5s81.666 -4.5 114.999 -13.5s61.5 -23.667 84.5 -44s40.5 -47 52.5 -80
s18 -73.833 18 -122.5s-6 -89.5 -18 -122.5s-29.5 -59.667 -52.5 -80s-51.167 -35 -84.5 -44s-71.666 -13.5 -114.999 -13.5zM264 250c0 -42 1.83301 -72.5 5.5 -91.5s11.834 -28.5 24.501 -28.5s20.834 9.5 24.501 28.5s5.5 49.5 5.5 91.5s-1.83301 72.5 -5.5 91.5
s-11.834 28.5 -24.501 28.5s-20.834 -9.5 -24.501 -28.5s-5.5 -49.5 -5.5 -91.5zM114 580v50h360v-50h-360z" />
    </font>
</defs>
</svg>
